<?xml version="1.0" encoding="UTF-8"?>
<svg id="_レイヤー_2" data-name="レイヤー 2" xmlns="http://www.w3.org/2000/svg" width="343.68" height="70" viewBox="0 0 343.68 70">
  <defs>
    <style>
      .cls-1 {
        fill: #d3e9ea;
      }

      .cls-2 {
        fill: #739b9e;
      }
    </style>
  </defs>
  <g id="_レイヤー_2-2" data-name="レイヤー 2">
    <g>
      <path class="cls-1" d="M69.73,4.96v60.08H10c-2.78,0-5.04-2.26-5.04-5.04V10c0-2.78,2.26-5.04,5.04-5.04h59.73M74.69,0H10C4.48,0,0,4.48,0,10v49.99c0,5.52,4.48,10,10,10h64.69V0h0Z"/>
      <path class="cls-1" d="M77.76,0h256.82c5.02,0,9.1,4.08,9.1,9.1v51.8c0,5.02-4.08,9.1-9.1,9.1H77.76V0h0Z"/>
      <g>
        <g>
          <path class="cls-2" d="M26.06,30.66c.02-1.97.63-3.49,1.83-4.55,1.13-1.05,2.47-1.58,4.03-1.58s2.98.53,4.1,1.58c1.15,1.06,1.74,2.58,1.77,4.56v9.42c-.04,1.96-.63,3.48-1.77,4.54-1.13,1.05-2.5,1.59-4.1,1.61-1.56-.02-2.91-.56-4.03-1.61-1.2-1.06-1.81-2.57-1.83-4.53v-9.44ZM34.85,30.85c-.06-2.14-1.03-3.23-2.92-3.27-1.9.04-2.87,1.13-2.91,3.27v9.07c.04,2.16,1.01,3.25,2.91,3.27,1.89-.02,2.87-1.11,2.92-3.27v-9.07Z"/>
          <path class="cls-2" d="M45.15,27.94l-2.94,2.23v-3.26l2.94-2.2h2.96v21.36h-2.96v-18.13Z"/>
        </g>
        <path class="cls-2" d="M16.14,37.92c-.76.79-1.8,1.41-3.01,1.81-.17-.32-.31-.52-.56-.82,1.2-.29,2.21-.79,2.94-1.47h-1.5c-.05.18-.06.22-.13.43l-1.01-.02c.24-.56.38-1.02.49-1.58.08-.39.14-.77.14-.95.17.02.4.03.82.03h1.78l-.02-.58h-1.93c-.34,0-.56,0-.8.04v-.83c-.1.08-.13.12-.26.23-.17-.29-.35-.5-.56-.69.74-.57,1.16-1.12,1.35-1.76l.93.17c-.11.23-.14.29-.25.47h1.11c.41,0,.64-.02.85-.04v.7c.34-.4.55-.78.7-1.3l.92.16q-.07.17-.22.49h1.65c.46,0,.67,0,.95-.05v.9c-.26-.04-.52-.05-.9-.05h-.68c.23.33.23.35.38.59l-.71.2h.41c.43,0,.59,0,.81-.03-.03.16-.04.3-.04.61v.91c0,.31,0,.45.04.63-.2-.02-.47-.03-.81-.03h-1.99v.57h2.47c.33,0,.52,0,.74-.03-.02.11-.02.17-.03.26t-.03.26s-.02.22-.05.55c-.09.86-.14,1.07-.31,1.27-.17.2-.43.26-1.02.26-.25,0-.43,0-.8-.03-.05-.36-.11-.56-.22-.85.33.04.74.08.95.08.47,0,.49-.05.55-1.01h-2.22l.02,1.45c0,.46.02.68.06.95h-1.02c.04-.25.05-.4.05-.75v-.22l-.02-.96ZM14.9,34.02c-.11-.29-.22-.5-.39-.8h-.48c-.21.29-.4.5-.68.77.21.03.38.04.79.04h.75ZM16.11,36.11h-1.77c-.03.19-.04.21-.12.57h1.9v-.57ZM16.6,34.02c-.13-.16-.31-.33-.56-.51.15-.12.2-.15.32-.27-.15,0-.32-.02-.49-.02h-.48c.11.17.17.26.34.58l-.71.22h1.58ZM18.43,34.02c-.1-.22-.26-.51-.44-.79h-.53c-.23.33-.42.55-.69.79h1.67ZM17.01,35.36h1.87v-.58h-1.88v.58Z"/>
        <path class="cls-2" d="M61.02,39.82v-.47h-5.38v.47h-1.01c.04-.28.05-.64.05-1.12v-5.46c0-.42-.02-.69-.05-1.04.32.04.59.05,1.02.05h5.36c.42,0,.7,0,1.02-.05-.04.32-.04.6-.04,1.04v5.47c0,.47.02.89.04,1.11h-1ZM55.64,38.5h5.38v-5.39h-5.38v5.39ZM59.24,34.09c.38,0,.6,0,.83-.03-.02.21-.03.41-.03.68v2.06c0,.29,0,.47.03.68-.26-.02-.47-.03-.83-.03h-1.85c-.43,0-.57,0-.84.03.03-.23.04-.42.04-.68v-2.06c0-.25,0-.45-.04-.68.22.02.46.03.84.03h1.85ZM57.5,36.65h1.63v-1.76h-1.63v1.76Z"/>
      </g>
      <g>
        <path class="cls-2" d="M105.44,34.99c-1.26.13-1.58.14-2.3.14-.5,0-.58-.21-.69-1.63h.62c.78,0,1.49-.05,2.37-.14v-.34c0-1.04-.06-1.86-.22-2.72,1.22.06,1.7.13,2.03.22.16.05.22.13.22.29,0,.1-.02.16-.1.32-.14.3-.22.88-.24,1.97.53-.1,1.38-.3,2.02-.5.05-.02.08-.02.11-.02.13,0,.21.06.24.18.08.32.18.96.18,1.2,0,.13-.08.24-.21.29-.19.08-1.36.32-2.38.5v2.06c1.58-.53,2.82-.78,3.87-.78,2.05,0,3.38,1.31,3.38,3.35,0,1.31-.53,2.37-1.47,2.93-.5.29-1.2.46-1.97.46s-1.46-.06-1.63-.18c-.18-.1-.19-.14-.22-.53-.03-.45-.13-.83-.32-1.3.66.24,1.2.34,1.82.34,1.25,0,1.95-.64,1.95-1.78s-.67-1.78-1.74-1.78c-1.01,0-2.29.32-3.67.91q0,.06.02.69.02,1.06.02,1.28c.02.29.02.58.02.72,0,1.3-.5,1.92-1.55,1.92s-2.06-.54-2.71-1.38c-.26-.35-.38-.72-.38-1.15,0-1.04.93-1.98,2.94-3.03v-2.53ZM105.44,39.28c-.93.56-1.31.93-1.31,1.26,0,.37.53.77,1.01.77.22,0,.3-.14.3-.51v-1.52ZM114.37,35.65c-.82-.86-1.94-1.58-2.99-1.92-.13-.05-.19-.11-.19-.19,0-.1.16-.35.61-.96.18-.24.19-.26.35-.26.16.02.77.22,1.18.42,1.01.46,2.32,1.46,2.32,1.76s-.8,1.3-1.04,1.3c-.08,0-.14-.03-.24-.14Z"/>
        <path class="cls-2" d="M122.8,35.23c-.59,0-1.07.02-1.5.06v-.74c-.82.51-1.49.85-2.5,1.28-.37-.82-.5-1.02-.9-1.6,2.88-1.01,5.17-2.66,6.29-4.5h1.89c.62.9,1.28,1.57,2.37,2.39,1.26.93,2.42,1.5,4.08,2.05-.38.59-.61,1.06-.83,1.71-1.25-.53-1.75-.78-2.71-1.38v.78c-.4-.05-.85-.06-1.5-.06h-1.55v1.49h3.89c.82,0,1.25-.02,1.66-.08v1.7c-.42-.06-.96-.1-1.68-.1h-3.87v3.44h4.18c.78,0,1.3-.03,1.81-.1v1.76c-.58-.06-1.2-.1-1.86-.1h-9.7c-.7,0-1.31.03-1.92.1v-1.76c.56.06,1.1.1,1.9.1h3.87v-3.44h-3.63c-.66,0-1.22.03-1.68.1v-1.7c.45.06.9.08,1.68.08h3.63v-1.49h-1.42ZM121.71,38.37c.53.93.8,1.49,1.23,2.56l-1.54.61c-.32-.96-.72-1.78-1.22-2.54l1.52-.62ZM122.77,33.79h5.14c-1.15-.82-1.97-1.57-2.75-2.58-.78,1.02-1.47,1.68-2.71,2.58h.32ZM130.1,39.01q-.19.35-.75,1.47c-.06.11-.11.21-.64,1.09l-1.44-.54c.46-.75.85-1.57,1.22-2.64l1.62.62Z"/>
        <path class="cls-2" d="M138.85,39.39c.05.06.06.11.06.18q0,.1-.27.83c-.34.98-.54,1.78-.61,2.4-.02.21-.08.29-.29.34-.22.06-.66.1-1.07.1-.16,0-.24-.03-.29-.13-.14-.3-.4-1.41-.53-2.31-.11-.75-.16-1.54-.16-2.35,0-1.84.21-3.59.78-6.72.1-.51.13-.75.18-1.25.74.1,1.25.24,1.71.46.24.13.34.24.34.38,0,.1-.03.18-.11.3-.66,1.12-1.26,4.58-1.26,7.14,0,.38.02.99.06,1.76.38-.99.56-1.44.91-2.21.11.43.22.64.54,1.07ZM141.54,35.18c-.77,0-.93-.03-.98-.21-.05-.14-.1-.66-.1-1.02,0-.13,0-.26.02-.54.43.03.69.05,1.22.05.86,0,1.41-.02,2.24-.08-.02-2.03-.03-2.29-.19-3.04.78.02,1.38.08,1.89.21.24.06.34.14.34.3,0,.06-.02.11-.06.24-.16.37-.24.99-.27,2.11.59-.08,1.1-.19,2.06-.42.08-.03.11-.03.16-.03.1,0,.14.05.18.16.03.14.08.75.08,1.09,0,.4-.02.46-.18.53-.26.13-.96.24-2.32.42,0,1.1.1,2.93.21,3.97,1.01.43,1.7.8,2.4,1.3.45.32.54.43.54.54,0,.18-.29.72-.62,1.18-.19.27-.29.35-.4.35s-.11,0-.48-.35c-.35-.35-.72-.62-1.42-1.09v.13c0,1.41-1.17,2.34-2.94,2.34s-2.99-.96-2.99-2.4,1.22-2.51,2.83-2.51c.59,0,.9.02,1.33.08q-.06-1.25-.11-3.39c-.69.05-1.78.1-2.42.1ZM142.85,39.89c-.8,0-1.33.37-1.33.93,0,.51.5.83,1.26.83.85,0,1.3-.38,1.3-1.12,0-.22-.02-.4-.02-.4-.42-.16-.78-.24-1.22-.24Z"/>
        <path class="cls-2" d="M152.85,34.33c-.29.02-.46.03-.66.05-.14.02-.16.02-.18.02-.13,0-.19-.05-.24-.21-.08-.26-.19-1.1-.21-1.58.18.02.64.03,1.22.03.18,0,1.44-.08,2-.13.27-1.3.37-1.97.37-2.83,1.65.22,2.24.42,2.24.72,0,.11-.02.14-.26.51-.13.19-.18.37-.45,1.36.75-.13,1.2-.24,1.79-.43.11-.03.16-.05.24-.05.11,0,.14.08.24.54.08.4.13.74.13.91,0,.19-.05.22-.46.32-.54.13-1.47.29-2.46.42-.59,1.79-.99,2.75-1.73,4.26-.56,1.12-.88,1.71-1.31,2.39-.13.19-.21.26-.32.26-.16,0-.61-.24-1.17-.66-.26-.18-.32-.26-.32-.37s.06-.21.27-.5c.46-.58,1.07-1.57,1.6-2.62.45-.88.61-1.25,1.07-2.51-.62.05-.67.06-1.41.11ZM158.11,43.55c-1.74,0-2.93-.96-2.93-2.39s1.23-2.58,2.88-2.58c.38,0,.56.02,1.22.11-.06-.77-.06-1.07-.13-2.56,0-.3-.03-.72-.06-1.23.82.08,1.44.18,1.74.3.13.05.19.13.19.26,0,.08-.02.14-.03.26-.08.34-.1.58-.1,1.01,0,.59.05,1.6.1,2.38,1.14.51,1.6.77,2.4,1.39.35.27.48.42.48.54,0,.16-.08.3-.53,1.02-.19.32-.34.46-.45.46q-.1,0-.54-.42c-.35-.35-.75-.62-1.31-.96,0,1.49-1.09,2.39-2.93,2.39ZM158.08,40.13c-.77,0-1.3.37-1.3.93,0,.53.48.86,1.2.86.85,0,1.3-.43,1.3-1.28,0-.13,0-.26-.02-.26-.32-.16-.75-.26-1.18-.26ZM164.07,35.58c-.19.27-.29.35-.4.35-.08,0-.14-.03-.26-.14-.4-.38-.96-.8-1.55-1.17q-.38-.24-1.09-.56c-.22-.1-.3-.16-.3-.29,0-.11.08-.26.32-.62.38-.56.48-.66.62-.66.3,0,1.49.61,2.34,1.18.69.46.9.66.9.83,0,.13-.26.61-.58,1.07Z"/>
        <path class="cls-2" d="M174.9,30.64c.19.13.27.22.27.34s-.02.13-.26.4c-.08.1-.32.45-.58.88q-.8,1.33-1.23,2.1c-.45.75-.74,1.26-.9,1.5q-.05.08-.27.48c-.21.37-.34.56-.56.86,1.04-.91,1.6-1.15,2.66-1.15.7,0,1.33.3,1.73.83.34.45.43.86.58,2.43.08.94.16,1.36.27,1.6.11.22.34.35.62.35,1.1,0,2.42-1.33,3.06-3.07.16.67.29.99.62,1.58.11.19.14.32.14.48,0,.18-.08.4-.27.7-.83,1.34-2.19,2.15-3.65,2.15-.91,0-1.68-.32-2.08-.85-.32-.45-.46-1.04-.59-2.61-.08-1.02-.16-1.38-.38-1.63-.18-.19-.43-.29-.78-.29-1.06,0-2.45,1.42-3.27,3.31-.24.54-.4,1.04-.58,1.65-.06.24-.14.34-.26.34-.34,0-1.1-.32-1.52-.62-.11-.1-.16-.16-.16-.26,0-.08.03-.16.24-.61.13-.29.18-.37.29-.66q1.18-2.77,4.47-9.41c.37-.74.54-1.2.66-1.68.83.3,1.22.5,1.73.85Z"/>
        <path class="cls-2" d="M189.98,39.86c-.77,1.33-1.83,2.06-2.91,2.06-1.66,0-2.85-1.63-2.85-3.91,0-2.53,1.28-4.71,3.47-5.86,1.07-.58,2.22-.83,3.75-.83,3.35,0,5.83,2.37,5.83,5.54,0,2.8-1.38,4.82-4.03,5.95-.53.22-.94.35-1.15.35-.19,0-.27-.06-.48-.37-.27-.42-.58-.72-1.01-1.01,3.3-.85,4.79-2.4,4.79-4.99,0-1.33-.56-2.45-1.55-3.15-.56-.38-1.01-.54-1.89-.69-.45,3.38-.98,5.22-1.95,6.9ZM187.68,34.19c-1.07.94-1.68,2.29-1.68,3.79,0,1.23.4,1.95,1.07,1.95.8,0,1.62-1.1,2.23-3.01.38-1.2.58-2.11.82-3.89-1.14.24-1.7.51-2.43,1.15Z"/>
        <path class="cls-2" d="M201.36,34.73h-.1c-.08.02-.14.02-.18.02-.14,0-.22-.06-.27-.27-.1-.4-.16-.9-.19-1.5.22.02.4.02.51.02.86,0,1.87-.06,2.72-.18.16-1.06.24-1.87.24-2.53v-.37c1.86.24,2.21.35,2.19.64,0,.08-.03.13-.1.27-.19.37-.21.42-.46,1.68.62-.11,1.42-.32,1.74-.43.06-.03.08-.03.13-.03.14,0,.18.06.3.62.06.32.13.77.13.9,0,.11-.05.18-.19.21q-.29.1-2.48.48c-.74,3.25-1.5,5.65-2.74,8.53-.08.21-.16.29-.26.29-.21,0-.77-.22-1.31-.53-.27-.14-.35-.22-.35-.3,0-.06.05-.18.13-.34,1.22-2.3,2.1-4.75,2.71-7.4-.7.1-1.2.14-2.18.22ZM208.19,40.82c.46.3,1.14.45,2.08.45,1.04,0,1.94-.1,2.45-.26.13-.03.16-.05.22-.05.14,0,.21.05.26.19.11.34.19.99.19,1.49,0,.21-.06.29-.27.34-.53.11-1.42.18-2.37.18-2,0-3.12-.32-3.86-1.09-.27-.29-.5-.66-.62-1.06-.1-.22-.16-.5-.16-.59,0-.27.48-.56,1.31-.83.18.67.37.96.77,1.23ZM212.69,36.16c-.32-.05-.99-.08-1.55-.08-1.18,0-1.68.05-3.09.29-.03.02-.08.02-.11.02-.1,0-.14-.03-.18-.13-.05-.11-.11-.9-.11-1.23,0-.21.03-.3.16-.35.06-.03.16-.05.5-.11,1.09-.19,2-.27,3.12-.27.93,0,1.41.03,1.52.11.08.06.1.19.1.72,0,.46-.03.88-.06.98-.02.05-.08.08-.16.08-.03,0-.08,0-.13-.02Z"/>
        <path class="cls-2" d="M223.97,33.09c.24-1.31.32-1.87.32-2.4,0-.06,0-.16-.02-.27,1.34.19,2.11.5,2.11.85,0,.13-.02.14-.19.46-.13.22-.24.61-.46,1.46,1.09.19,2,.67,2.72,1.39.88.88,1.31,1.97,1.31,3.3,0,2.23-1.22,3.95-3.38,4.83-.43.18-1.28.4-1.49.4-.13,0-.21-.06-.32-.22-.26-.42-.64-.83-1.1-1.17,1.62-.27,2.39-.56,3.19-1.22.85-.69,1.28-1.58,1.28-2.67,0-1.62-1.04-2.93-2.58-3.23-.53,1.66-1.1,2.99-1.81,4.21.24.24.38.38.64.62.18.16.24.26.24.37,0,.27-.9,1.15-1.15,1.15-.13,0-.34-.14-.8-.61-.98,1.17-1.94,1.74-2.9,1.74-1.33,0-2.21-1.12-2.21-2.83,0-1.54.64-2.96,1.87-4.16-.22-.58-.26-.72-.61-1.82-.13-.42-.27-.86-.46-1.33.58-.13,1.33-.24,1.71-.24.16,0,.26.05.3.16q.05.08.06.46c.02.34.16.94.4,1.68,1.04-.59,2.21-.93,3.31-.91ZM219.93,36.67c-.59.78-.91,1.62-.91,2.37s.3,1.2.77,1.2c.5,0,.96-.34,1.62-1.14-.59-.78-.99-1.46-1.47-2.43ZM223.6,34.53c-.88.13-1.57.38-2.38.93.42.83.74,1.38,1.23,2.03.54-1.06.86-1.87,1.15-2.96Z"/>
        <path class="cls-2" d="M237.34,39.09c.05.08.06.14.06.22,0,.11-.02.13-.16.48-.32.74-.7,1.89-.9,2.75-.05.18-.1.27-.16.3-.08.03-.62.11-.8.11h-.06c-.08,0-.19-.02-.32-.02-.21,0-.26-.05-.32-.24-.3-1.04-.54-3.19-.54-4.8,0-1.76.11-2.85.56-5.25.16-.86.24-1.34.3-1.87.67.13,1.25.29,1.73.51.27.11.35.19.35.35,0,.11-.02.16-.19.42-.53.85-1.12,4.24-1.12,6.53,0,.37.02.86.06,1.67.45-1.01.61-1.31.98-2.1.14.34.24.5.53.93ZM240.82,40.22c.51.27,1.12.37,2.19.37s1.63-.08,2.62-.37c.1-.03.18-.05.22-.05.11,0,.19.06.21.22.08.54.14,1.18.14,1.5,0,.16-.05.21-.27.27-.86.22-1.74.34-2.82.34-1.47,0-2.39-.18-3.14-.62-.7-.43-1.44-1.31-1.44-1.74,0-.22.34-.53,1.2-1.06.29.58.56.86,1.07,1.14ZM239.7,32.06c.35.08,1.38.14,2.16.14,1.06,0,2.11-.08,3.11-.26q.08-.02.14-.02c.11,0,.16.05.19.18.03.16.08.86.08,1.3,0,.24-.05.32-.22.35-.66.13-1.74.21-2.9.21-1.38,0-2.61-.08-2.77-.18-.08-.05-.11-.16-.11-.45,0-.43.05-1.07.08-1.2.02-.06.06-.1.16-.1.02,0,.05,0,.08.02Z"/>
        <path class="cls-2" d="M253.86,33.5c-.74.05-1.42.06-2.03.06-.67,0-.72,0-.75-.1-.05-.1-.1-.77-.1-1.23v-.3c.75.03,1.07.05,1.47.05s1.01-.02,1.49-.03c.08-.93.1-1.25.1-1.57,0-.14,0-.24-.02-.46.77.02,1.36.06,1.82.18.13.03.19.1.19.21,0,.08-.02.14-.1.34-.13.3-.22.72-.29,1.22,1.02-.08,2.26-.24,2.75-.35.48-.11.82-.18.9-.18.34-.03.58-.1.67-.18.02-.02.03-.02.03-.02.03,0,.05.02.08.02.06,0,.11.06.14.18.03.24.08.8.08,1.15,0,.24-.05.3-.21.34-.94.19-2.9.43-4.58.58-.02.06-.02.1-.02.26-.03.3-.03.34-.05,1.14.7-.16,1.33-.24,2.11-.24.11-.51.13-.64.16-1.01,1.23.26,1.84.48,1.84.67,0,.06-.02.11-.14.32-.05.06-.08.11-.11.22,2.06.48,3.38,2,3.38,3.97,0,1.74-.94,3.14-2.75,4.1-.67.35-1.62.67-1.97.67-.18,0-.3-.06-.4-.19-.34-.48-.54-.7-1.06-1.14,1.66-.3,2.48-.64,3.28-1.3.74-.62,1.09-1.34,1.09-2.24,0-1.28-.75-2.24-2.03-2.61-.96,2.21-1.6,3.25-2.75,4.43.08.27.14.43.29.77.06.13.08.18.08.22,0,.16-.06.21-.43.4-.4.21-.86.37-1.02.37-.14,0-.18-.05-.35-.54-.93.66-1.92,1.01-2.9,1.01-1.09,0-1.82-.88-1.82-2.16,0-2,1.46-3.95,3.87-5.15.02-.83.03-1.54.05-1.86ZM251.6,40.22c0,.4.24.64.64.64.54,0,1.26-.3,1.98-.83-.22-1.09-.32-1.82-.4-3.03-1.41,1.04-2.23,2.24-2.23,3.22ZM257.2,35.81c-.72.06-1.1.13-1.76.35.03,1.14.06,1.62.19,2.43.67-.85,1.12-1.65,1.57-2.78Z"/>
        <path class="cls-2" d="M274.45,35.21c2.26,0,3.86,1.54,3.86,3.71,0,1.49-.78,2.83-2.1,3.62-.91.54-2.03.82-3.3.82-2.03,0-3.22-.82-3.22-2.21,0-1.26,1.06-2.16,2.56-2.16,1.36,0,2.34.69,2.99,2.1.82-.59,1.15-1.22,1.15-2.08,0-1.38-.98-2.27-2.51-2.27s-3.25.78-4.64,2.18c-.26.26-.5.53-.78.9-.11.16-.19.22-.29.22-.29,0-1.42-1.12-1.42-1.41,0-.14.06-.22.42-.48.37-.29.9-.75,1.57-1.39,1.55-1.47,2.69-2.71,4.37-4.75-2,.26-3.35.48-3.84.66-.08.02-.13.03-.18.03-.13,0-.21-.08-.3-.32-.19-.48-.29-1.01-.34-1.71.43.06.74.08,1.09.08.77,0,2.06-.11,3.75-.3.59-.06.78-.11,1.23-.29.14-.06.22-.08.32-.08.22,0,.45.19.86.83.3.42.4.62.4.75,0,.21-.05.27-.4.5-.29.18-.46.32-.83.67-.8.77-.82.77-1.81,1.78-.7.72-.78.8-1.42,1.44,1.04-.58,1.86-.82,2.82-.82ZM272.91,40.75c-.24-.16-.51-.24-.82-.24-.5,0-.82.24-.82.62,0,.46.5.75,1.26.75.35,0,.66-.03,1.06-.14-.19-.53-.35-.77-.69-.99Z"/>
        <path class="cls-2" d="M288.38,39.86c-.77,1.33-1.82,2.06-2.91,2.06-1.66,0-2.85-1.63-2.85-3.91,0-2.53,1.28-4.71,3.47-5.86,1.07-.58,2.22-.83,3.75-.83,3.35,0,5.83,2.37,5.83,5.54,0,2.8-1.38,4.82-4.03,5.95-.53.22-.94.35-1.15.35-.19,0-.27-.06-.48-.37-.27-.42-.58-.72-1.01-1.01,3.3-.85,4.79-2.4,4.79-4.99,0-1.33-.56-2.45-1.55-3.15-.56-.38-1.01-.54-1.89-.69-.45,3.38-.98,5.22-1.95,6.9ZM286.08,34.19c-1.07.94-1.68,2.29-1.68,3.79,0,1.23.4,1.95,1.07,1.95.8,0,1.62-1.1,2.23-3.01.38-1.2.58-2.11.82-3.89-1.14.24-1.7.51-2.43,1.15Z"/>
        <path class="cls-2" d="M301.5,32.78c.37-.96.72-1.47,1.33-1.98.74-.61,1.62-.9,2.74-.9,2.4,0,3.94,1.31,3.94,3.36,0,.69-.19,1.34-.56,1.87-.29.42-.42.54-1.31,1.36-1.25,1.12-1.52,1.55-1.52,2.4v.85h-1.63v-.9c0-.72.14-1.36.43-1.87.22-.4.46-.67,1.1-1.31.67-.66.88-.9,1.06-1.18.22-.32.35-.77.35-1.2,0-1.07-.72-1.74-1.86-1.74s-1.81.59-2.29,1.98l-1.78-.74ZM306.61,42.11c0,.7-.56,1.26-1.26,1.26s-1.26-.56-1.26-1.26.56-1.26,1.26-1.26,1.26.56,1.26,1.26Z"/>
      </g>
    </g>
  </g>
</svg>