<?xml version="1.0" encoding="UTF-8"?>
<svg id="_レイヤー_2" data-name="レイヤー 2" xmlns="http://www.w3.org/2000/svg" width="164.01" height="37.95" viewBox="0 0 164.01 37.95">
  <defs>
    <style>
      .cls-1 {
        fill: #479d93;
      }

      .cls-2 {
        fill: #ceeaeb;
      }
    </style>
  </defs>
  <g id="_レイヤー_1-2" data-name="レイヤー 1">
    <g>
      <rect class="cls-2" width="164.01" height="37.95" rx="8.31" ry="8.31"/>
      <g>
        <path class="cls-1" d="M31.78,22.91c-1.18,1.23-2.8,2.2-4.68,2.82-.27-.49-.48-.81-.87-1.28,1.86-.45,3.45-1.23,4.58-2.28h-2.33c-.08.28-.1.34-.21.67l-1.57-.03c.38-.87.59-1.58.76-2.46.13-.6.21-1.21.21-1.47.27.03.63.04,1.28.04h2.77l-.03-.9h-3c-.53,0-.87.01-1.25.06v-1.29c-.15.13-.21.18-.41.36-.27-.45-.55-.78-.87-1.08,1.15-.88,1.81-1.74,2.1-2.73l1.44.27c-.17.35-.22.45-.39.73h1.72c.63,0,1-.03,1.32-.07v1.09c.53-.62.85-1.22,1.09-2.02l1.43.25q-.11.27-.35.76h2.56c.71,0,1.04-.01,1.47-.08v1.4c-.41-.06-.81-.07-1.4-.07h-1.05c.35.52.36.55.59.92l-1.11.31h.64c.67,0,.92-.01,1.26-.04-.04.25-.06.46-.06.95v1.41c0,.48.01.7.06.98-.31-.03-.73-.04-1.26-.04h-3.1v.88h3.84c.52,0,.81-.01,1.15-.04-.03.17-.03.27-.04.41t-.04.41c0,.06-.03.34-.08.85-.14,1.33-.22,1.67-.49,1.97-.27.31-.67.41-1.58.41-.39,0-.67-.01-1.25-.04-.08-.56-.17-.87-.34-1.33.52.07,1.15.13,1.47.13.73,0,.76-.07.85-1.57h-3.46l.03,2.26c.01.71.03,1.06.1,1.48h-1.58c.07-.39.08-.63.08-1.16v-.34l-.03-1.5ZM29.86,16.83c-.17-.45-.34-.77-.6-1.25h-.74c-.32.45-.62.77-1.05,1.19.32.04.59.06,1.23.06h1.16ZM31.74,20.1h-2.76c-.04.29-.06.32-.18.88h2.96v-.88ZM32.51,16.83c-.21-.25-.48-.52-.87-.8.24-.18.31-.24.49-.42-.24-.01-.49-.03-.76-.03h-.74c.17.27.27.41.53.91l-1.11.34h2.45ZM35.35,16.83c-.15-.34-.41-.8-.69-1.23h-.83c-.35.52-.66.85-1.08,1.23h2.59ZM33.14,18.92h2.91v-.9h-2.93v.9Z"/>
        <path class="cls-1" d="M48.86,25.01h-5.91v-1.15c.34-.91.66-1.49,1.23-2.24.38-.52.49-.64,1.77-2.03.97-1.06,1.25-1.64,1.25-2.58,0-.46-.13-.87-.35-1.16-.2-.24-.5-.36-.88-.36-.5,0-.94.34-1.16.91-.13.32-.18.66-.24,1.43l-1.61-.32c.11-1.15.29-1.72.74-2.31.56-.74,1.33-1.09,2.37-1.09,1.75,0,2.83,1.15,2.83,3.04,0,.9-.2,1.5-.69,2.2-.32.45-.6.74-1.46,1.58-1.13,1.11-1.58,1.68-2.06,2.69h4.17v1.4Z"/>
        <path class="cls-1" d="M63.68,25.87v-.73h-8.38v.73h-1.57c.06-.43.08-.99.08-1.74v-8.5c0-.66-.03-1.08-.08-1.62.49.06.92.07,1.58.07h8.33c.66,0,1.09-.01,1.58-.07-.06.49-.07.94-.07,1.62v8.52c0,.73.03,1.39.07,1.72h-1.56ZM55.3,23.81h8.38v-8.39h-8.38v8.39ZM60.9,16.95c.59,0,.94-.01,1.29-.04-.03.32-.04.64-.04,1.06v3.21c0,.45.01.73.04,1.06-.41-.03-.73-.04-1.29-.04h-2.87c-.67,0-.88.01-1.3.04.04-.36.06-.66.06-1.06v-3.21c0-.39-.01-.7-.06-1.06.35.03.71.04,1.3.04h2.87ZM58.2,20.94h2.54v-2.73h-2.54v2.73Z"/>
        <path class="cls-1" d="M76.41,22.46c-.67,1.16-1.6,1.81-2.55,1.81-1.46,0-2.49-1.43-2.49-3.42,0-2.21,1.12-4.12,3.04-5.13.94-.5,1.95-.73,3.28-.73,2.93,0,5.1,2.07,5.1,4.85,0,2.45-1.2,4.22-3.53,5.21-.46.2-.83.31-1.01.31-.17,0-.24-.06-.42-.32-.24-.36-.5-.63-.88-.88,2.89-.74,4.19-2.1,4.19-4.37,0-1.16-.49-2.14-1.36-2.76-.49-.34-.88-.48-1.65-.6-.39,2.96-.85,4.57-1.71,6.04ZM74.4,17.51c-.94.83-1.47,2-1.47,3.32,0,1.08.35,1.71.94,1.71.7,0,1.42-.97,1.95-2.63.34-1.05.5-1.85.71-3.4-.99.21-1.48.45-2.13,1.01Z"/>
        <path class="cls-1" d="M86.28,22.16c-.7,0-1.22.03-1.64.08v-1.48c.48.06,1.01.08,1.62.08h3.67v-.1c0-.27-.01-.49-.04-.73h.59c.57-.29,1.01-.6,1.58-1.09h-3.7c-.56,0-.97.01-1.36.06v-1.33c.39.04.8.06,1.37.06h4.44c.52,0,.8-.01,1.02-.06l.74.81q-.2.17-.49.41c-.95.81-1.64,1.33-2.67,1.96h0s3.49.01,3.49.01c.64,0,1.26-.03,1.65-.08v1.48c-.38-.06-.95-.08-1.67-.08h-3.47v2.35c0,.69-.14.98-.52,1.12-.34.13-.76.17-1.55.17-.17,0-.6-.01-1.33-.04-.14-.73-.21-.95-.45-1.43.66.08,1.26.13,1.67.13.6,0,.7-.04.7-.31v-1.99h-3.66ZM86.98,15.52c-.32-.6-.49-.87-1.01-1.51l1.34-.41c.49.59.76,1.01,1.23,1.92h1.42c-.24-.69-.43-1.09-.81-1.7l1.4-.39c.55,1.02.63,1.22.92,2.09h1.13c.41-.52.87-1.39,1.11-2.02l1.46.41c-.31.56-.71,1.21-1.02,1.61h.62c.92,0,1.16-.01,1.65-.06-.04.35-.06.62-.06,1.12v1.25c0,.36.03.7.07,1.02h-1.47v-2.09h-8.75v2.09h-1.47c.06-.31.07-.62.07-1.04v-1.23c0-.48-.01-.8-.06-1.12.62.06.69.06,1.6.06h.63Z"/>
        <path class="cls-1" d="M109.74,18.18c0,.69-.06.9-.31,1.09-.25.18-.63.25-1.47.25-.24,0-.57-.01-1.05-.03-.01-.43-.08-.79-.21-1.11-.6.27-.78.34-1.37.56-.17.06-.21.07-.34.13-.31.53-.35.62-.6.98h2.79c.78,0,1.01-.01,1.47-.04-.04.45-.06.69-.06,1.53v2.77c0,.8.01,1.16.07,1.55h-1.53v-.56h-6.07v.56h-1.5c.06-.41.07-.78.07-1.55v-2.76c0-.85,0-1.06-.04-1.54.43.03.71.04,1.46.04h1.82c.14-.21.15-.25.39-.7-.28.11-.6.15-1.18.15-.21,0-.6-.01-.88-.01-.04-.48-.1-.74-.29-1.18-.56.27-1.08.5-1.75.77-.29.11-.38.15-.6.27l-.46-1.33c.98-.18,2.33-.7,3.82-1.47l.04,1.25c-.39.2-.43.22-.9.45.42.03.57.04.73.04.63,0,.67-.01.67-.32v-2.93h-2.89c.71.38,1.13.66,1.79,1.19l-.97.88c-.56-.53-.94-.81-1.75-1.29l.9-.79h-.14c-.57,0-.85.01-1.22.07v-1.4c.42.06.85.08,1.48.08h2.83c.73,0,.99-.01,1.34-.06-.03.29-.04.62-.04,1.37v3.05c0,.28-.01.43-.07.66l.83.15-.36-1.09c1.01-.15,2.17-.57,3.64-1.3l.04,1.22c-.45.24-.6.31-.9.45.28.03.6.06.76.06.59,0,.63-.03.63-.34v-2.93h-3.08c.87.48,1.16.66,1.86,1.21l-.92.88c-.7-.6-1.04-.84-1.81-1.29l.83-.78c-.45,0-.7.01-1.08.06v-1.39c.45.06.92.07,1.51.07h2.82c.66,0,1.05-.01,1.29-.04-.04.34-.06.71-.06,1.39v3.04ZM101.07,22.07h6.08v-.9h-6.08v.9ZM101.07,24.12h6.08v-.95h-6.08v.95Z"/>
        <path class="cls-1" d="M114.6,17.06c.59-.66.88-.83,1.46-.83s.9.17,1.47.78c1.15,1.23,1.68,1.74,2.93,2.73.81.64,1.88,1.32,2.91,1.83.32.15.36.2.36.31,0,.15-.32.76-.67,1.25-.2.28-.25.34-.36.34-.17,0-.76-.36-1.82-1.13-.99-.7-2.37-1.96-3.61-3.31q-.91-.99-1.16-.99c-.27,0-.29.01-.92.8-.45.55-.85,1.04-1.51,1.81-.34.39-.49.57-.59.76-.1.17-.17.22-.27.22-.15,0-.41-.2-.77-.56-.29-.29-.39-.43-.67-.92.92-.6,1.7-1.34,3.24-3.08Z"/>
      </g>
      <g>
        <path class="cls-1" d="M134.54,25.63c-.12,0-.25-.05-.34-.15-.18-.19-.17-.48.02-.66l5.8-5.42-5.8-5.42c-.19-.18-.2-.47-.02-.66.18-.19.47-.2.66-.02l6.17,5.76c.09.09.15.21.15.34s-.05.25-.15.34l-6.17,5.76c-.09.08-.2.13-.32.13Z"/>
        <path class="cls-1" d="M139.69,25.63c-.12,0-.25-.05-.34-.15-.18-.19-.17-.48.02-.66l5.8-5.42-5.8-5.42c-.19-.18-.2-.47-.02-.66.18-.19.47-.2.66-.02l6.17,5.76c.09.09.15.21.15.34s-.05.25-.15.34l-6.17,5.76c-.09.08-.2.13-.32.13Z"/>
      </g>
    </g>
  </g>
</svg>