<?xml version="1.0" encoding="UTF-8"?>
<svg id="_レイヤー_2" data-name="レイヤー 2" xmlns="http://www.w3.org/2000/svg" width="342.17" height="329.93" viewBox="0 0 342.17 329.93">
  <defs>
    <style>
      .cls-1 {
        fill: #211815;
      }

      .cls-2 {
        fill: #f5f19b;
      }

      .cls-3 {
        fill: #ecbb6e;
      }

      .cls-4 {
        fill: #93c9ce;
      }

      .cls-5 {
        fill: #5c948d;
      }

      .cls-6, .cls-7 {
        fill: #fff;
      }

      .cls-8 {
        fill: #de8a4c;
      }

      .cls-9 {
        fill: #ceeaeb;
      }

      .cls-10 {
        fill: #f2d496;
      }

      .cls-7 {
        stroke: #ceeaeb;
        stroke-miterlimit: 10;
        stroke-width: 2.83px;
      }
    </style>
  </defs>
  <g id="_レイヤー_1-2" data-name="レイヤー 1">
    <g>
      <circle class="cls-9" cx="33.93" cy="183.17" r="30"/>
      <g>
        <circle class="cls-9" cx="308.24" cy="63.21" r="30"/>
        <g>
          <path class="cls-2" d="M310.42,80.64c1.36-.08,2.67-.26,3.94-.54,9.94-2.19,10.3-7.26,10.17-11.48s-1.05-19.35-13.24-20.18c-12.19-.82-15.33,8.87-17.69,12.02s-10.95,12.98,5.17,18.47c1.57.54,3.13.95,4.67,1.23"/>
          <path class="cls-3" d="M312.08,74.43c-.68-1.85-3.68-3.84-5.2-3.62s-4.74,2.07-5.75,2.02-1.7-.74-1.81,1.6,1.71,3.54,4.16,2.68c3.4,1.94,9.76.49,8.6-2.68Z"/>
          <path class="cls-3" d="M312.08,76.83c-.76,3.71-4.97,5.89-6.25,5.34s-2.88-1.43-1.48-4.66c2.52.54,6.97-.12,7.09-1.65s.64.97.64.97Z"/>
          <path class="cls-8" d="M305.6,77.84c-.73,1.36-.38,3.09,1.85,2.01s2.23-2.31,2.23-2.31c0,0,1.46-.73-.49,0-1.95.73-3.58.3-3.58.3Z"/>
          <polygon class="cls-5" points="322.53 44.85 316.36 44.27 319.11 49.82 325.4 50.49 322.53 44.85"/>
          <rect class="cls-5" x="315.77" y="47.98" width="6.72" height="2.92" transform="translate(99.97 -187.75) rotate(38.45)"/>
          <path class="cls-10" d="M289.91,66.36c5.1.33,8.05,5.73,6.16,11.51-4.98-2.71-7.76-5.46-6.16-11.51Z"/>
          <path class="cls-10" d="M324.02,68.51c-5.89-.81-10.4,4.26-9.48,10.84,6.25-1.75,10.01-4.04,9.48-10.84Z"/>
          <ellipse class="cls-1" cx="302.07" cy="68.7" rx="1.85" ry="1.71" transform="translate(187.21 356.4) rotate(-81.05)"/>
          <ellipse class="cls-1" cx="312.29" cy="69.76" rx="1.71" ry="1.85" transform="translate(-3.13 15.87) rotate(-2.9)"/>
          <path class="cls-1" d="M301.9,58.94c1.67-.68,3.18-.04,3.88,1.27.17.3-.14.57-.47.4-1.05-.53-2.08-.79-3.21-1.01-.38-.07-.52-.54-.2-.67Z"/>
          <path class="cls-1" d="M315.18,61.48c-1.24-1.31-2.87-1.35-4.06-.46-.28.21-.11.58.26.56,1.18-.05,2.22.15,3.34.42.37.09.69-.27.46-.52Z"/>
          <path class="cls-1" d="M310.42,81.27c-.33,0-.61-.26-.63-.59-.02-.35.25-.65.59-.67,1.31-.08,2.6-.25,3.84-.53,9.95-2.2,9.78-7.4,9.68-10.85-.13-4.34-.82-8.09-2.05-11.15-2.11-5.25-5.67-8.08-10.6-8.42-9.76-.66-13.4,5.55-15.82,9.66-.49.83-.91,1.55-1.33,2.11-.12.16-.25.33-.39.51-1.68,2.19-4.81,6.26-3.62,10.16.85,2.81,3.84,5.1,8.88,6.82,1.52.52,3.06.93,4.58,1.21.34.06.57.39.5.74-.06.34-.39.57-.74.5-1.58-.3-3.17-.72-4.75-1.26-5.45-1.86-8.71-4.43-9.68-7.65-1.37-4.52,2.14-9.1,3.83-11.3.14-.18.27-.35.38-.5.37-.5.78-1.19,1.25-1.99,2.41-4.11,6.45-10.99,16.99-10.28,5.45.37,9.38,3.47,11.68,9.21,1.28,3.2,2,7.09,2.14,11.58.15,4.69-.55,9.88-10.67,12.12-1.3.29-2.66.47-4.04.55-.01,0-.02,0-.04,0Z"/>
          <path class="cls-1" d="M301.13,68.08c-.07,0-.14-.02-.2-.07-.77-.61-1.16-1.23-1.45-2.3-.05-.17.05-.34.22-.39.17-.05.34.05.39.22.29,1.07.66,1.52,1.24,1.97.14.11.16.31.05.44-.06.08-.15.12-.25.12Z"/>
          <path class="cls-1" d="M300.94,68.67c-.81,0-1.69-.47-2.38-1.28-.11-.13-.1-.33.04-.44.13-.11.33-.1.44.04.61.72,1.4,1.12,2.06,1.05.17-.02.33.11.35.28.02.17-.11.33-.28.35-.08,0-.15.01-.23.01Z"/>
          <path class="cls-1" d="M313.49,69.27c-.16,0-.29-.11-.31-.27-.02-.17.1-.33.27-.35.66-.09,1.43-.66,1.86-1.39.09-.15.28-.2.43-.11.15.09.2.28.11.43-.53.9-1.46,1.58-2.32,1.7-.01,0-.03,0-.04,0Z"/>
          <path class="cls-1" d="M314.58,70.53c-.38,0-.76-.07-1.14-.24-.16-.07-.23-.26-.16-.42.07-.16.26-.23.42-.16.86.39,1.82.08,2.49-.24.16-.08.35-.01.42.14.08.16.01.35-.14.42-.51.25-1.18.49-1.89.49Z"/>
          <path class="cls-1" d="M307.12,78.61c-1.07,0-2.22-.33-3.41-.99-2.32.66-3.62.03-4.3-.62-.86-.83-1.19-2.15-.85-3.44.35-1.32.96-1.43,1.86-1.46.65-.01,1.63-.04,3.23-.88,3.58-1.88,5.67-.8,7.72,1.4.21.22.19.57-.03.78-.22.21-.57.19-.78-.03-1.84-1.98-3.4-2.75-6.39-1.17-1.83.96-3.01.99-3.72,1q-.65.01-.82.63c-.24.9-.02,1.83.54,2.37.7.67,1.9.78,3.44.29.15-.05.31-.03.44.05,1.93,1.13,4.68,1.81,6.87-1.38.15-.21.42-.3.66-.2,0,0,.72.29,1.36.43.3.07.49.36.42.66-.07.3-.36.49-.66.42-.41-.09-.83-.23-1.13-.33-1.24,1.64-2.76,2.47-4.47,2.47Z"/>
          <path class="cls-1" d="M306.42,82.78c-.61,0-1.2-.14-1.74-.43-.87-.47-1.42-1.13-1.64-1.97-.44-1.65.61-3.36.66-3.43.16-.26.5-.34.76-.18.26.16.34.5.18.76,0,.01-.84,1.38-.53,2.57.14.54.5.96,1.1,1.28.85.46,1.91.39,2.98-.19,1.52-.82,3.14-2.8,3.35-5.36.02-.3.29-.53.6-.5.3.02.53.29.5.6-.21,2.62-1.75,5.07-3.92,6.24-.77.42-1.55.63-2.29.63Z"/>
          <path class="cls-1" d="M320.88,53.76c-.14,0-.27-.04-.39-.14-.27-.22-.32-.61-.1-.89l2.27-2.88c.13-.17.35-.26.56-.24l1.1.12-2.18-4.3-4.7-.44.66,1.33c.11.21.08.47-.06.66l-1.82,2.42c-.21.28-.61.33-.88.12-.28-.21-.33-.6-.12-.88l1.59-2.11-.99-1.99c-.1-.2-.08-.45.05-.64.13-.19.35-.29.58-.27l6.18.58c.22.02.41.15.5.34l2.87,5.65c.1.21.09.45-.04.64-.13.19-.36.29-.59.27l-1.91-.2-2.05,2.6c-.12.16-.31.24-.5.24Z"/>
        </g>
      </g>
      <path class="cls-7" d="M332.28,102.66H92.9c-4.68,0-8.47,3.79-8.47,8.47v65.67s-9.69,9.69-9.69,9.69h9.69s0,.5,0,.5c0,4.68,3.79,8.47,8.47,8.47h239.38c4.68,0,8.47-3.79,8.47-8.47v-75.86c0-4.68-3.79-8.47-8.47-8.47Z"/>
      <path class="cls-7" d="M9.89,235.72h239.38c4.68,0,8.47,3.79,8.47,8.47v65.67s9.69,9.69,9.69,9.69h-9.69s0,.5,0,.5c0,4.68-3.79,8.47-8.47,8.47H9.89c-4.68,0-8.47-3.79-8.47-8.47v-75.86c0-4.68,3.79-8.47,8.47-8.47Z"/>
      <path class="cls-7" d="M9.89,1.42h239.38c4.68,0,8.47,3.79,8.47,8.47v47.99s9.69,9.69,9.69,9.69h-9.69s0,.5,0,.5c0,4.68-3.79,8.47-8.47,8.47H9.89c-4.68,0-8.47-3.79-8.47-8.47V9.89c0-4.68,3.79-8.47,8.47-8.47Z"/>
      <g>
        <path d="M19.63,19.67c.15.03.23.09.23.18,0,.04-.02.09-.03.18-.06.19-.09.61-.09,1.03,0,.57.1,1.68.21,2.23.13.71.31.96.69.96.33,0,.77-.17,2.03-.79.32-.17.45-.24.74-.45.04-.02.06-.03.1-.03.17,0,.69.81.69,1.06,0,.09-.08.15-.25.2-.54.12-1.46.45-2.31.79-2.64,1.08-3.99,2.32-3.99,3.64,0,1.11.93,1.59,3.07,1.59,1.12,0,2.27-.09,3.5-.29.06-.02.1-.02.12-.02.09,0,.15.04.18.12.04.09.09.52.09.78,0,.17-.04.23-.22.26-.58.07-2.26.16-3.29.16-1.15,0-2.1-.1-2.71-.31-1.17-.38-1.75-1.11-1.75-2.25,0-.81.32-1.56.98-2.28.55-.61,1.05-.97,2.19-1.6-.67-.27-.87-.96-1.11-3.88-.06-.69-.09-.94-.19-1.38.51,0,.82.03,1.15.09Z"/>
        <path d="M33.25,23.31c1.05-.3,1.84-.45,2.54-.45,1.84,0,2.96,1.17,2.96,3.13,0,2.19-1,3.76-3.17,5.01-.57.31-1.42.67-1.63.67-.15,0-.17-.02-.38-.25-.13-.17-.32-.33-.58-.48,3.13-1,4.68-2.61,4.68-4.88,0-1.5-.69-2.31-2-2.31-.97,0-2.8.61-3.78,1.29-.09.06-.17.09-.23.09-.2,0-.46-.42-.78-1.25.53-.06.93-.17,2.37-.58ZM33.82,19.49c1.06.36,2.64.66,3.58.66.12,0,.13.03.13.32,0,.24-.04.63-.08.7-.03.04-.09.08-.17.08-.78,0-2.77-.42-3.84-.81-.46-.17-.51-.19-.51-.29,0-.07.09-.33.18-.55.09-.19.12-.24.21-.24.08,0,.15.02.48.14Z"/>
        <path d="M47.73,19.61c.22.04.28.09.28.24,0,.08-.01.12-.04.23-.1.3-.18.82-.22,1.63-.08,1.42-.21,5.56-.21,6.57,0,1.67.51,2.28,1.92,2.28,1.02,0,2.02-.3,2.94-.88.93-.58,1.58-1.25,2.4-2.43.06.36.12.53.31.92.04.09.06.12.06.18,0,.31-.99,1.35-1.92,2.01-1.17.84-2.5,1.27-3.86,1.27-1.96,0-2.88-1.05-2.88-3.28,0-.38.12-6.36.15-7.26v-.44c0-.48-.01-.69-.08-1.17.48.03.88.08,1.14.14Z"/>
        <path d="M66.3,20.04c0,.09-.06.17-.17.23-.18.12-.31.24-.64.65-1,1.23-1.86,2.17-3.51,3.84-.23.23-.32.42-.32.65,0,.21.09.38.29.57,1.14,1.04,2.44,2.35,3.5,3.52.76.85,1.17,1.37,1.17,1.47s-.18.28-.54.55c-.15.12-.29.2-.35.2s-.1-.03-.15-.12c-.74-1.21-2.17-2.86-4.32-4.9-.46-.45-.66-.83-.66-1.27,0-.29.09-.58.25-.84q.12-.18,1.12-1.23c1.02-1.08,2.01-2.28,2.59-3.14.22-.36.36-.6.54-1.08.72.38,1.18.72,1.18.91Z"/>
        <path d="M78.99,20.19c0,.06-.02.09-.18.25-.42.42-1.5,2.29-3.22,5.61-.12.24-.22.42-.69,1.2,1.06-1.4,1.98-1.96,3.18-1.96.99,0,1.6.51,1.84,1.54.08.31.12.75.24,2.07.03.46.09.77.19.96.17.31.48.48.93.48.78,0,1.51-.46,2.19-1.36.29-.39.46-.72.81-1.44.04.4.07.52.28.9.06.12.09.19.09.3,0,.2-.23.62-.57,1.05-.81,1.02-1.75,1.53-2.87,1.53-1,0-1.6-.36-1.88-1.12-.15-.38-.21-.83-.3-1.95-.08-.93-.13-1.19-.3-1.53-.17-.36-.5-.55-.92-.55-1.32,0-2.79,1.41-3.72,3.55-.18.42-.32.78-.48,1.33-.04.15-.09.19-.17.19-.27,0-.94-.34-.94-.49,0-.02.1-.26.27-.63q.17-.31.75-1.72c.57-1.33,1.8-3.9,2.79-5.85,1.07-2.07,1.21-2.4,1.42-3.13.71.27,1.23.6,1.23.78Z"/>
        <path d="M90.13,27.87c.08.1.09.17.09.24q-.01.12-.21.67c-.27.75-.54,1.8-.6,2.37-.03.21-.06.25-.18.29-.14.03-.39.04-.62.04-.17,0-.18-.02-.33-.58-.32-1.17-.46-2.39-.46-3.78,0-1.59.17-3.08.58-5.27.17-.82.22-1.23.29-1.9.79.15,1.25.35,1.25.52,0,.06,0,.08-.11.24-.53.93-1.11,4.36-1.11,6.57,0,.85.06,1.56.2,2.47.21-.54.33-.88.51-1.32q.27-.73.44-1.17c.06.25.13.42.27.6ZM93.46,23.82h-.24c-.39-.02-.66-.02-.79-.02-.15,0-.19-.02-.21-.12-.04-.15-.08-.51-.08-.71v-.15c.57.04.84.06,1.32.06.75,0,1.37-.03,2.12-.1v-1.68c0-.54-.02-.82-.08-1.29.46.03.83.07,1.11.17.12.03.18.09.18.18,0,.06,0,.09-.06.2-.17.33-.22.94-.22,2.32.78-.12,1.3-.21,2.12-.42.06-.02.09-.02.1-.02.06,0,.09.03.11.09.03.09.07.56.07.72,0,.12-.03.15-.15.18-.36.1-1.33.27-2.25.39,0,1.12.04,2.6.15,4.35.97.39,1.83.87,2.62,1.47.14.1.2.18.2.27,0,.08-.06.19-.22.42q-.27.36-.35.36t-.48-.36c-.45-.39-1.11-.81-1.74-1.14.02.13.02.24.02.31,0,1.35-.93,2.13-2.52,2.13-1.48,0-2.42-.74-2.42-1.88s1.02-1.96,2.57-1.96c.6,0,.93.03,1.37.13-.09-2.21-.09-2.55-.12-4.02-.81.06-1.61.11-2.12.11ZM94.38,28.49c-1.08,0-1.71.39-1.71,1.04s.57,1,1.51,1c1.05,0,1.53-.45,1.53-1.41,0-.3,0-.4-.01-.4-.44-.17-.81-.23-1.32-.23Z"/>
        <path d="M101.16,28.67c.17-.18.2-.2.27-.2.18,0,1.17.72,1.74,1.26.57.55,1.4,1.57,1.4,1.74,0,.08-.05.14-.35.42-.29.27-.34.31-.42.31-.04,0-.09-.03-.15-.12-.81-1.29-1.7-2.21-2.76-2.82-.07-.04-.1-.09-.1-.15s.01-.09.38-.45Z"/>
        <path d="M120.76,19.76c.15.03.23.09.23.18,0,.05-.02.09-.03.18-.06.19-.09.61-.09,1.04,0,.57.1,1.68.21,2.23.13.7.31.96.69.96.33,0,.77-.17,2.03-.79.31-.17.45-.24.73-.45.04-.02.06-.03.11-.03.17,0,.69.81.69,1.06,0,.09-.07.15-.25.19-.54.12-1.45.45-2.31.79-2.64,1.08-3.99,2.32-3.99,3.65,0,1.11.93,1.59,3.08,1.59,1.12,0,2.26-.09,3.5-.29.06-.01.1-.01.12-.01.09,0,.15.04.18.12.04.09.09.52.09.78,0,.17-.04.22-.22.25-.58.07-2.26.17-3.29.17-1.16,0-2.1-.1-2.71-.31-1.17-.38-1.75-1.11-1.75-2.25,0-.81.32-1.56.97-2.28.56-.62,1.05-.98,2.19-1.6-.67-.27-.87-.96-1.11-3.88-.06-.69-.09-.95-.19-1.38.51,0,.82.03,1.15.09ZM124.93,20.97s.08-.04.12-.09c.21-.14.27-.18.34-.18.11,0,.33.19.71.58.36.36.79.94.79,1.05,0,.08-.06.14-.25.29-.21.17-.33.24-.38.24s-.08-.03-.13-.12c-.34-.62-.69-1.05-1.2-1.52-.06-.04-.09-.09-.09-.12,0-.04.03-.07.09-.13ZM126.69,19.83c.13.02.63.48,1.02.99.34.42.4.52.4.63,0,.09-.04.13-.34.33-.18.12-.22.13-.27.13-.06,0-.09-.03-.12-.1-.25-.51-.69-1.03-1.21-1.5-.04-.03-.06-.04-.06-.07,0-.1.45-.42.58-.41Z"/>
        <path d="M134.47,23.31c1.05-.3,1.84-.45,2.54-.45,1.84,0,2.96,1.17,2.96,3.13,0,2.19-1,3.76-3.17,5.01-.57.31-1.42.67-1.63.67-.15,0-.17-.02-.38-.25-.13-.17-.32-.33-.58-.48,3.13-1,4.68-2.61,4.68-4.88,0-1.5-.69-2.31-2-2.31-.97,0-2.8.61-3.78,1.29-.09.06-.17.09-.23.09-.2,0-.46-.42-.78-1.25.53-.06.93-.17,2.37-.58ZM135.04,19.49c1.06.36,2.64.66,3.58.66.12,0,.13.03.13.32,0,.24-.04.63-.08.7-.03.04-.09.08-.17.08-.78,0-2.77-.42-3.84-.81-.46-.17-.51-.19-.51-.29,0-.07.09-.33.18-.55.09-.19.12-.24.21-.24.08,0,.15.02.48.14Z"/>
        <path d="M148.95,19.61c.22.04.28.09.28.24,0,.08-.01.12-.04.23-.1.3-.18.82-.22,1.63-.08,1.42-.21,5.56-.21,6.57,0,1.67.51,2.28,1.92,2.28,1.02,0,2.02-.3,2.94-.88.93-.58,1.58-1.25,2.4-2.43.06.36.12.53.31.92.05.09.06.12.06.18,0,.31-.99,1.35-1.92,2.01-1.17.84-2.5,1.27-3.85,1.27-1.97,0-2.88-1.05-2.88-3.28,0-.38.12-6.36.15-7.26v-.44c0-.48-.01-.69-.08-1.17.48.03.89.08,1.14.14Z"/>
        <path d="M168.79,20.49c.96-.13,1.23-.18,1.63-.29.04-.01.08-.01.1-.01.09,0,.15.04.2.12.08.18.21.72.21.85s-.04.15-.32.15c-.93.01-1.8.22-2.56.64-1.79.96-3,2.96-3,4.89,0,1.42.81,2.44,2.38,3.04.58.22.96.31,1.65.39.1.02.15.06.15.17,0,.21-.07.62-.17.84-.04.1-.09.15-.19.15-.24,0-1.16-.24-1.74-.45-2.07-.75-3.1-2.13-3.1-4.18,0-1.32.46-2.56,1.35-3.68.48-.57.86-.9,1.77-1.51-5.43.93-6.27,1.09-6.97,1.42-.12.06-.19.08-.25.08-.13,0-.18-.04-.29-.23-.17-.3-.28-.63-.38-1.06.79-.03,1.08-.06,3.6-.44l5.92-.9Z"/>
        <path d="M177.04,23.58c-.86.1-1.65.15-2.38.15-.21,0-.29-.03-.32-.12-.01-.12-.06-.36-.12-.79.24.02.38.02.53.02.76,0,1.37-.04,2.29-.15,0-1.65-.03-2.28-.17-2.91.42.03.75.08,1.02.12.25.04.33.09.33.2,0,.07,0,.09-.1.31-.12.28-.2,1.08-.2,2.14.66-.1,1.79-.38,2.37-.55t.12-.02c.06,0,.09.03.12.19.04.18.09.47.09.56,0,.1-.04.17-.15.19-.69.2-1.41.36-2.55.54v2.69c1.56-.65,2.89-.96,4.08-.96,1.74,0,2.8,1.05,2.8,2.76,0,1.88-1.17,2.98-3.12,2.98-.51,0-1.12-.09-1.39-.19-.12-.04-.17-.12-.2-.29-.04-.31-.1-.48-.24-.79.6.25,1.16.38,1.74.38,1.35,0,2.17-.79,2.17-2.11,0-1.19-.69-1.86-1.88-1.86s-2.44.34-3.97,1.03v2.71c.01.85-.41,1.37-1.12,1.37-.64,0-1.42-.35-2-.89-.38-.34-.54-.7-.54-1.15,0-.83.78-1.56,2.76-2.56v-1.25l.02-1.74ZM177.03,27.54c-1.36.73-1.84,1.15-1.84,1.6,0,.49.74,1.02,1.42,1.02.29,0,.42-.21.42-.65v-1.98ZM185.44,24.32c-.06,0-.09-.01-.3-.24-.58-.63-1.56-1.21-2.42-1.47-.22-.07-.29-.1-.29-.17,0-.04.09-.19.3-.49.11-.15.15-.18.26-.18.31,0,1.32.42,1.95.81s1.14.85,1.14,1.02c0,.15-.5.72-.65.72Z"/>
        <path d="M192.16,23.97c-.62,0-.95.01-1.35.07v-.87c-.99.65-1.54.94-2.62,1.41-.18-.38-.27-.5-.6-.85,2.8-1.06,4.89-2.62,6.08-4.56h1.09c.62.94,1.39,1.72,2.58,2.59,1.21.87,2.31,1.44,3.78,1.94-.24.28-.4.57-.57.93-1.14-.48-1.74-.79-2.83-1.48v.9c-.39-.06-.71-.07-1.32-.07h-1.75v1.96h4.02c.63,0,1-.02,1.41-.09v1c-.41-.06-.84-.09-1.42-.09h-4v3.81h4.21c.64,0,1.14-.03,1.59-.09v1.05c-.45-.08-1.02-.1-1.6-.1h-9.06c-.56,0-1.07.03-1.65.1v-1.05c.5.06,1,.09,1.65.09h3.93v-3.81h-3.74c-.55,0-1.02.03-1.41.09v-1c.42.06.79.09,1.41.09h3.74v-1.96h-1.54ZM190.84,27.21c.53.85.84,1.52,1.26,2.61l-.83.33c-.36-1.02-.73-1.79-1.26-2.56l.83-.38ZM196.39,23.18c.58,0,.95-.02,1.26-.06-1.53-1.02-2.52-1.94-3.42-3.13-.9,1.24-1.9,2.19-3.33,3.13.27.04.69.06,1.23.06h4.26ZM198.48,27.62c-.66,1.33-.9,1.75-1.53,2.67l-.81-.31c.6-.79,1.04-1.6,1.44-2.73l.9.38Z"/>
        <path d="M206.79,19.8c.87.15,1.35.34,1.35.54,0,.06-.01.1-.09.21-.15.19-.27.54-.71,2.04-.04.15-.06.21-.09.31.66-.1,1.18-.17,1.53-.17,1.33,0,1.95.79,1.95,2.53,0,1.65-.45,3.72-1.05,4.83-.46.84-.99,1.2-1.75,1.2-.46,0-1.08-.13-1.37-.28-.09-.06-.12-.1-.12-.27,0-.32-.06-.58-.17-.92.57.34,1,.48,1.49.48.57,0,.95-.36,1.26-1.2.46-1.23.72-2.62.72-3.99,0-1.08-.36-1.56-1.14-1.56-.34,0-.9.06-1.6.2-.5,1.57-.99,2.88-1.56,4.18-.57,1.31-1.33,2.76-1.6,3.04-.04.04-.11.08-.17.08-.12,0-.46-.2-.71-.39-.08-.08-.11-.1-.11-.15s.02-.09.06-.15c1.18-1.65,2.34-4.1,3.06-6.42-1.92.38-2.31.46-2.64.63-.06.03-.11.04-.13.04-.17,0-.32-.36-.45-1.11.64,0,.9-.03,2.88-.36q.2-.03.6-.09c.41-1.53.54-2.34.56-3.27ZM213.93,26.6c-.45-1.33-1.23-2.55-2.28-3.51-.06-.04-.08-.09-.08-.12,0-.12.5-.58.62-.58.13,0,.87.73,1.38,1.39.64.81,1.29,2,1.29,2.35,0,.08-.04.14-.2.25-.27.21-.51.35-.6.35-.06,0-.11-.03-.13-.14ZM213.1,22.02c-.3-.46-.81-1.05-1.28-1.41-.06-.06-.1-.1-.1-.14t.24-.24c.18-.17.22-.18.3-.18.12,0,.31.14.69.48.41.38.89.94.89,1.05,0,.12-.47.56-.6.56-.04,0-.09-.03-.13-.12ZM213.51,19.08c.24,0,1.51,1.28,1.51,1.52,0,.09-.03.12-.3.31-.17.12-.25.18-.3.18s-.08-.02-.09-.06c-.3-.5-.82-1.06-1.32-1.44-.04-.03-.06-.06-.06-.09,0-.1.42-.42.56-.42Z"/>
        <path d="M219.12,23.73c-.47,2.39-.81,3.5-1.7,5.37l-.87-.53c.5-.9.67-1.32.96-2.22.34-1.05.48-1.63.66-2.86l.95.24ZM221.31,30.23c0,.5.41.6,2.19.6.88,0,1.56-.06,1.9-.17.38-.1.5-.31.63-1.08.09-.58.13-.99.17-1.98.38.19.58.27.95.36-.2,2.25-.42,3.07-.99,3.39-.41.24-1.18.33-2.76.33-2.45,0-3.01-.24-3.01-1.25v-.84c-1.07.81-1.7,1.21-3.03,1.94-.22-.36-.38-.52-.72-.81,1.54-.71,2.37-1.2,3.75-2.23v-5.1c0-.47-.02-.78-.09-1.37h1.11c-.06.41-.09.81-.09,1.35v4.41c1.17-1.05,1.88-1.83,2.88-3.18,1.29-1.74,2.16-3.38,2.47-4.67l1.04.44c-.17.29-.2.38-.48.95-1.02,2.14-2.17,3.85-3.92,5.74-.63.69-.99,1.03-2,1.88v1.29ZM220.87,18.86c1.88.76,2.82,1.24,4.29,2.25l-.6.81c-1.29-.99-2.35-1.57-4.26-2.32l.57-.73ZM227.55,23.6c1,1.59,1.65,3.01,2.38,5.19l-.9.53c-.39-1.35-.63-2.04-1.11-3.1-.38-.85-.6-1.26-1.17-2.16l.79-.45Z"/>
        <path d="M235.68,26.55c.42-.57.54-.75.81-1.29h-2.38c-.84,0-1.26.01-1.67.06.04-.38.06-.67.06-1.26v-1.04c0-.6-.02-.93-.06-1.32.42.06.88.08,1.56.08h1.63v-1.4h-2.52c-.76,0-1.17.02-1.6.08v-.96c.36.06.85.09,1.63.09h9.09c.83,0,1.29-.03,1.65-.09v.96c-.43-.06-.85-.08-1.6-.08h-2.7v1.4h1.73c.71,0,1.14-.02,1.56-.08-.04.39-.06.69-.06,1.32v1.04c0,.63.01.92.06,1.26-.38-.04-.79-.06-1.65-.06h-3.72c-.46.78-.46.79-.79,1.29h5.57c.78,0,1.24-.03,1.6-.09v.96c-.48-.06-.88-.08-1.6-.08h-1.58c-.48.99-.95,1.59-1.74,2.28,1.77.55,2.97,1,4.61,1.71l-.65.79c-1.62-.81-2.73-1.26-4.75-1.92-1.67,1-3.43,1.5-6.33,1.74-.11-.33-.21-.54-.42-.88,2.39-.06,4.08-.42,5.66-1.2-.99-.3-2.22-.6-3.58-.88.67-.6.96-.9,1.59-1.64h-1.98c-.72,0-1.12.02-1.61.08v-.96c.38.06.86.09,1.61.09h2.59ZM233.37,22.52v2.01h2.26v-2.01h-2.26ZM236.11,27.35c-.36.47-.57.69-1.09,1.23,1.3.3,1.86.44,2.94.75.85-.63,1.36-1.2,1.69-1.98h-3.54ZM236.46,21.78h2.29v-1.4h-2.29v1.4ZM236.46,24.53h2.29v-2.01h-2.29v2.01ZM239.58,24.53h2.36v-2.01h-2.36v2.01Z"/>
        <path d="M18.88,45.84c.87.15,1.35.34,1.35.54,0,.06-.02.1-.09.21-.15.19-.27.54-.71,2.04-.04.15-.06.21-.09.31.66-.1,1.18-.17,1.53-.17,1.33,0,1.95.79,1.95,2.53,0,1.65-.45,3.72-1.05,4.83-.46.84-.99,1.2-1.75,1.2-.46,0-1.08-.13-1.37-.29-.09-.06-.12-.1-.12-.27,0-.32-.06-.58-.17-.92.57.34,1,.48,1.49.48.57,0,.94-.36,1.26-1.2.46-1.23.72-2.62.72-3.99,0-1.08-.36-1.56-1.14-1.56-.34,0-.9.06-1.61.2-.49,1.57-.99,2.88-1.56,4.18-.57,1.31-1.33,2.76-1.6,3.04-.04.04-.11.08-.17.08-.12,0-.46-.2-.71-.39-.08-.08-.11-.1-.11-.15s.02-.09.06-.15c1.18-1.65,2.34-4.1,3.06-6.42-1.92.38-2.31.46-2.64.63-.06.03-.11.04-.13.04-.17,0-.32-.36-.45-1.11.64,0,.9-.03,2.88-.36q.19-.03.6-.09c.41-1.53.54-2.34.55-3.27ZM26.02,52.64c-.45-1.33-1.23-2.55-2.28-3.51-.06-.04-.08-.09-.08-.12,0-.12.5-.58.62-.58.13,0,.87.74,1.38,1.4.64.81,1.29,2,1.29,2.35,0,.08-.04.14-.2.25-.27.21-.51.35-.6.35-.06,0-.11-.03-.14-.14Z"/>
        <path d="M30.54,50.04c-.67,0-1.15.03-1.63.09v-.99c.34.06.83.09,1.63.09h3.65v-1.63h-2.22c-.76,0-1.11.02-1.57.08v-.98c.34.06.78.09,1.57.09h2.22v-.25c0-.6-.02-.94-.09-1.37h1.08c-.06.35-.09.72-.09,1.37v.25h1.4c.78,0,1.21-.03,1.57-.09v.98c-.39-.06-.72-.08-1.53-.08h-1.44v1.63h1.18c1.37-.99,2.06-1.6,2.93-2.59.42-.48.63-.78.79-1.1l.84.6c-.09.1-.12.14-.25.3-.66.78-1.88,1.92-2.99,2.79h2.43c.77,0,1.23-.03,1.58-.09v.99c-.48-.06-.95-.09-1.59-.09h-3.52c-.71.51-1.53,1.02-2.43,1.5q-.08.25-.12.45c3.12-.35,5.12-.72,5.85-1.1l.6.85c-1.7.4-3.75.72-6.71,1.04-.1.36-.24.7-.36,1.02h4.81c.95,0,1.29-.01,1.62-.06-.03.12-.06.36-.11.82-.13,1.27-.36,2.43-.57,2.91-.24.52-.66.7-1.63.7-.57,0-1.2-.04-2.39-.17-.03-.4-.06-.54-.19-.94.88.15,1.98.27,2.61.27.54,0,.72-.15.88-.69.15-.51.24-1.05.33-2.02h-5.71c-.09.24-.18.42-.48,1l-.99-.17c.74-1.32,1.19-2.32,1.5-3.39-1.21.6-2.49,1.14-3.87,1.65-.12-.31-.24-.51-.51-.84,2.43-.77,4.63-1.73,6.42-2.85h-4.5Z"/>
        <path d="M45.4,49.46h.15c1.44-.08,2.52-.19,4.43-.52q1.3-.24,1.54-.39s.15-.07.19-.07c.06,0,.21.1.39.31.22.24.46.58.46.66q-.02.18-.29.3c-.32.13-.58.39-3.75,3.52.55-.27.9-.36,1.33-.36.51,0,.84.17,1.07.51.24.36.33.76.43,1.86.12,1.27.39,1.52,1.62,1.52.71,0,1.53-.14,2.14-.35.12-.04.17-.04.23-.04s.09.06.13.24c.08.31.13.65.13.77,0,.1-.04.13-.27.18-.5.09-1.68.19-2.27.19s-1.18-.09-1.59-.23c-.33-.12-.63-.4-.79-.76-.15-.35-.22-.72-.29-1.43-.06-.84-.13-1.15-.33-1.41-.13-.2-.34-.3-.58-.3-.63,0-1.5.45-2.19,1.12-.46.47-1.46,1.58-1.88,2.12-.17.21-.22.3-.34.51-.04.1-.11.15-.17.15-.09,0-.2-.09-.41-.31-.25-.27-.42-.46-.42-.52s.03-.1.24-.27c.17-.12.42-.38.66-.65.9-.98,1.11-1.2,4.29-4.54.41-.44.77-.81,1.49-1.6q-.34.06-1.16.2c-.33.06-1.02.18-2.05.36s-1.44.27-1.74.39c-.17.06-.19.07-.25.07-.18,0-.34-.44-.46-1.23.12,0,.22,0,.29.02ZM47.55,45.68c.04-.1.09-.15.14-.15.09.01.21.04.36.1,1.05.38,2.28.63,3.64.76q.41.05.41.2c0,.21-.08.69-.1.79-.03.06-.08.09-.14.09-.21,0-1.24-.17-1.87-.3-1.01-.21-2.34-.62-2.57-.77-.03-.03-.04-.07-.04-.13,0-.08.09-.38.18-.6Z"/>
        <path d="M61.56,45.87s0-.15-.02-.25c.6.09.95.17,1.21.27.09.03.12.09.12.17q-.01.1-.17.4t-.42,1.79c.71-.14,1.65-.36,2.05-.5.04-.02.06-.02.09-.02.06,0,.07.02.1.09.04.18.13.61.13.71,0,.12-.01.15-.12.16-.01,0-.06.02-.13.05-.43.1-1.75.38-2.33.46-.49,2.4-1.17,4.63-2.08,6.84-.47,1.14-.62,1.42-.74,1.42-.09,0-.44-.15-.71-.31-.12-.08-.17-.12-.17-.2,0-.06.03-.12.08-.21.24-.4.51-.94.76-1.57.81-1.94,1.26-3.39,1.82-5.8-.78.1-1.92.19-2.52.19-.22,0-.27-.02-.3-.15-.06-.21-.09-.48-.12-.81q.58.02.66.02c.58,0,1.65-.09,2.47-.21.23-1.19.3-1.85.3-2.54ZM67.14,56.54c.72,0,1.19-.04,2.07-.21q.09-.01.18-.01c.17,0,.2.04.23.36.01.09.01.17.03.24.02.1.03.23.03.29,0,.13-.06.19-.2.23-.46.09-1.53.17-2.26.17-1.44,0-2.35-.24-3-.75-.39-.31-.69-.75-.9-1.31-.05-.12-.08-.25-.08-.31,0-.12.04-.15.76-.54.44,1.38,1.25,1.86,3.13,1.86ZM65.02,50.99s-.06.02-.08.02c-.09,0-.15-.04-.17-.13-.03-.1-.06-.44-.06-.66,0-.13.04-.18.18-.21.88-.18,1.95-.27,3.15-.27.86,0,1.25.03,1.29.12.03.04.04.13.04.39,0,.47-.03.57-.18.57h-.08c-.71-.08-1.07-.09-1.42-.09-.86,0-1.83.1-2.68.27Z"/>
        <path d="M75.25,54.93c.53.51,1.07.77,1.94.92.51.09,1.23.15,1.87.15,1.33,0,2.58-.15,3.96-.46.03-.02.04-.02.08-.02.08,0,.12.05.13.14.03.13.04.56.04.82,0,.14-.04.2-.16.23-1.19.24-2.75.39-4.02.39-1.93,0-3.09-.24-3.97-.84-.45-.3-.79-.69-1.05-1.12-.17-.3-.3-.63-.3-.73,0-.12.28-.35.79-.6.21.57.36.82.69,1.14ZM79.15,47.27c.6,0,1.48-.04,1.88-.09.4-.04.48-.06.55-.06.09,0,.12.03.13.1.03.09.06.44.06.65,0,.27-.02.33-.12.36-.23.06-1.38.12-2.24.12-1.29,0-2.68-.14-3.87-.39-.43-.09-.45-.1-.45-.38,0-.31.01-.51.07-.81,1.41.35,2.57.5,3.98.5Z"/>
        <path d="M91.93,45.92c.15.03.23.09.23.18,0,.04-.02.09-.03.18-.06.19-.09.61-.09,1.03,0,.57.1,1.68.21,2.23.13.71.31.96.69.96.33,0,.77-.17,2.03-.79.32-.17.45-.24.74-.45.04-.02.06-.03.1-.03.17,0,.69.81.69,1.06,0,.09-.08.15-.25.2-.54.12-1.46.45-2.31.79-2.64,1.08-3.99,2.32-3.99,3.64,0,1.11.93,1.59,3.07,1.59,1.12,0,2.27-.09,3.5-.29.06-.02.11-.02.12-.02.09,0,.15.04.18.12.04.09.09.52.09.78,0,.17-.04.23-.22.26-.58.07-2.26.16-3.29.16-1.15,0-2.1-.1-2.71-.31-1.17-.38-1.75-1.11-1.75-2.25,0-.81.32-1.56.97-2.28.56-.61,1.05-.97,2.19-1.6-.67-.27-.87-.96-1.11-3.88-.06-.69-.09-.94-.19-1.38.51,0,.82.03,1.15.09Z"/>
        <path d="M104.59,54.12c.08.1.09.17.09.24q-.01.12-.21.67c-.27.75-.54,1.8-.6,2.37-.03.21-.06.25-.18.29-.14.03-.39.04-.62.04-.17,0-.18-.02-.33-.58-.31-1.17-.46-2.39-.46-3.78,0-1.59.17-3.08.58-5.27.17-.82.22-1.23.29-1.9.79.15,1.25.35,1.25.52,0,.06,0,.08-.11.24-.53.93-1.11,4.36-1.11,6.57,0,.85.06,1.56.2,2.47.21-.54.33-.88.51-1.32q.27-.73.44-1.17c.06.25.13.42.27.6ZM107.92,50.07h-.24c-.39-.02-.66-.02-.79-.02-.15,0-.19-.02-.21-.12-.04-.15-.08-.51-.08-.71v-.15c.57.04.84.06,1.32.06.75,0,1.37-.03,2.12-.1v-1.68c0-.54-.02-.82-.08-1.29.46.03.83.07,1.11.17.12.03.18.09.18.18,0,.06,0,.09-.06.2-.17.33-.22.94-.22,2.32.78-.12,1.3-.21,2.12-.42.06-.02.09-.02.1-.02.06,0,.09.03.11.09.03.09.07.56.07.72,0,.12-.03.15-.15.18-.36.1-1.33.27-2.25.39,0,1.12.04,2.6.15,4.35.97.39,1.83.87,2.62,1.47.14.1.2.18.2.27,0,.08-.06.19-.22.42q-.27.36-.35.36t-.48-.36c-.45-.39-1.11-.81-1.74-1.14.02.13.02.24.02.31,0,1.35-.93,2.13-2.52,2.13-1.48,0-2.42-.74-2.42-1.88s1.02-1.96,2.57-1.96c.6,0,.93.03,1.37.13-.09-2.21-.09-2.55-.12-4.02-.81.06-1.61.11-2.12.11ZM108.84,54.74c-1.08,0-1.71.39-1.71,1.04s.57,1,1.51,1c1.05,0,1.53-.45,1.53-1.41,0-.3,0-.4-.01-.4-.44-.17-.81-.23-1.32-.23Z"/>
        <path d="M121.66,56.33s.03.06.03.09c0,.1-.62.42-.84.42-.09,0-.13-.08-.34-.68-.93.75-1.81,1.11-2.65,1.11-.98,0-1.56-.68-1.56-1.77,0-1.25.6-2.42,1.79-3.45.57-.49,1.12-.87,1.75-1.15,0-.6.01-1.46.04-2.22-.81.04-1.75.07-2.47.07-.15,0-.2-.01-.23-.1-.03-.06-.06-.45-.06-.65v-.18c.6.04.87.06,1.3.06.39,0,.83-.02,1.5-.05.06-.99.09-1.56.09-1.69,0-.18,0-.23-.01-.4.48.03.88.07,1.14.13.09.02.13.08.13.15,0,.05-.03.12-.07.21-.15.27-.23.69-.3,1.53,1.77-.18,3.03-.39,4.05-.68.26-.07.35-.09.36-.09.04,0,.08.03.08.12.03.19.06.56.06.75,0,.09-.03.1-.71.24-1.29.24-2.41.39-3.9.51-.04.67-.08,1.47-.08,1.9.81-.27,1.54-.39,2.38-.4.11-.42.14-.71.15-1.1.85.2,1.14.3,1.14.44,0,.06-.01.08-.12.25-.06.12-.1.24-.18.47.81.12,1.44.34,1.95.72.93.66,1.46,1.73,1.46,2.91,0,1.68-1.08,3.02-3.12,3.87-.44.18-.96.34-1.12.34-.12,0-.21-.04-.29-.15-.21-.3-.33-.39-.66-.6,1.14-.26,1.7-.45,2.38-.85,1.19-.71,1.79-1.62,1.79-2.72,0-1.5-1-2.58-2.61-2.8-.63,1.84-1.5,3.36-2.59,4.51.1.38.22.69.34.92ZM119.85,51.81c-1.54.9-2.59,2.32-2.59,3.54,0,.58.32.96.79.96.58,0,1.44-.45,2.21-1.16-.22-.99-.36-2.04-.41-3.34ZM121.05,54.33c.88-1.08,1.5-2.19,1.91-3.46-.74.04-1.46.21-2.19.49.03,1.17.11,2.01.29,2.97Z"/>
        <path d="M133.53,46.65c.43,0,1.98-.15,3.37-.33.8-.1.92-.14,1.25-.3.12-.06.17-.07.23-.07.13,0,.3.17.64.66.12.18.18.31.18.4,0,.1-.03.12-.28.3q-.23.15-1.74,1.75c-.25.27-.93.99-1.89,1.98-.51.54-.62.63-1.12,1.19.73-.6,1.12-.82,1.78-1.06.62-.24,1.23-.35,1.85-.35,2.11,0,3.49,1.29,3.49,3.23,0,.98-.34,1.81-.99,2.46-.89.87-2.24,1.35-3.78,1.35-1.02,0-1.77-.23-2.23-.69-.29-.29-.45-.68-.45-1.1,0-.96.84-1.63,2.01-1.63,1.23,0,2.1.69,2.64,2.08.72-.38,1.07-.66,1.38-1.19.23-.38.36-.87.36-1.35,0-1.44-.99-2.31-2.64-2.31-1.79,0-4.02,1.2-5.34,2.88-.12.15-.18.2-.25.2-.18,0-.81-.65-.81-.83,0-.06.04-.12.13-.18.3-.21.35-.26,1.05-.93,1.92-1.88,2.89-2.94,5.16-5.7-3.01.4-3.99.54-4.3.65-.09.03-.12.03-.15.03-.16,0-.33-.51-.39-1.2.29.03.65.06.86.06ZM135.76,55.29c-.63,0-1.04.3-1.04.76,0,.58.68.98,1.67.98.44,0,.72-.03,1.16-.15-.38-1.08-.96-1.59-1.79-1.59Z"/>
        <path d="M149.02,45.84c.87.15,1.35.34,1.35.54,0,.06-.02.1-.09.21-.15.19-.27.54-.71,2.04-.04.15-.06.21-.09.31.66-.1,1.18-.17,1.53-.17,1.33,0,1.95.79,1.95,2.53,0,1.65-.45,3.72-1.05,4.83-.46.84-.99,1.2-1.75,1.2-.46,0-1.08-.13-1.37-.29-.09-.06-.12-.1-.12-.27,0-.32-.06-.58-.17-.92.57.34,1,.48,1.49.48.57,0,.94-.36,1.26-1.2.46-1.23.72-2.62.72-3.99,0-1.08-.36-1.56-1.14-1.56-.34,0-.9.06-1.61.2-.49,1.57-.99,2.88-1.56,4.18-.57,1.31-1.33,2.76-1.6,3.04-.04.04-.11.08-.17.08-.12,0-.46-.2-.71-.39-.08-.08-.11-.1-.11-.15s.02-.09.06-.15c1.18-1.65,2.34-4.1,3.06-6.42-1.92.38-2.31.46-2.64.63-.06.03-.11.04-.13.04-.17,0-.32-.36-.45-1.11.64,0,.9-.03,2.88-.36q.19-.03.6-.09c.41-1.53.54-2.34.55-3.27ZM156.16,52.64c-.45-1.33-1.23-2.55-2.28-3.51-.06-.04-.08-.09-.08-.12,0-.12.5-.58.62-.58.13,0,.87.74,1.38,1.4.64.81,1.29,2,1.29,2.35,0,.08-.04.14-.2.25-.27.21-.51.35-.6.35-.06,0-.11-.03-.14-.14Z"/>
        <path d="M163.41,45.86c.22.04.28.09.28.24,0,.08-.01.12-.04.23-.1.3-.18.82-.22,1.63-.08,1.42-.21,5.56-.21,6.57,0,1.67.51,2.28,1.92,2.28,1.02,0,2.02-.3,2.94-.88.93-.58,1.58-1.25,2.4-2.43.06.36.12.53.31.92.04.09.06.12.06.18,0,.31-.99,1.35-1.92,2.01-1.17.84-2.5,1.27-3.86,1.27-1.96,0-2.88-1.05-2.88-3.28,0-.38.12-6.36.15-7.26v-.44c0-.48-.01-.69-.08-1.17.48.03.88.08,1.14.14Z"/>
        <path d="M177.49,49.08s-.03.09-.11.21c-.25.44-.51,1.79-.75,4.08,1-.87,1.33-1.11,2.03-1.49.97-.52,2.01-.79,3-.79,1.87,0,3.09,1.06,3.09,2.71,0,1.49-.98,2.6-2.88,3.31-.89.31-2.45.66-3.09.66-.15,0-.21-.06-.36-.3-.12-.21-.22-.33-.48-.53,1.73-.16,2.78-.4,3.86-.91,1.17-.54,1.83-1.35,1.83-2.28,0-1.06-.78-1.75-2-1.75-1.46,0-3.2.85-4.51,2.22-.17.17-.23.25-.44.55-.09.14-.15.18-.21.18-.1,0-.45-.15-.69-.3-.14-.07-.15-.12-.15-.24,0-.03.01-.17.03-.4.13-1.79.19-2.24.48-4.11.08-.42.12-.84.14-1.23.72.1,1.21.27,1.21.4ZM180.45,46.37c.5.25.99.57,1.35.87.13.1.17.15.17.21,0,.21-.42.81-.57.81-.04,0-.09-.02-.13-.06-1.05-.84-2.08-1.4-3.17-1.7-.09-.03-.13-.07-.13-.13,0-.04.08-.19.19-.39.18-.28.24-.34.36-.34.22,0,1.35.44,1.93.73Z"/>
        <path d="M190.9,48.09c.71-1.7,1.8-2.49,3.42-2.49,1.82,0,3.04,1.11,3.04,2.77,0,.62-.17,1.19-.51,1.7-.25.39-.39.52-1.11,1.23-1.01.98-1.26,1.46-1.26,2.37v.99h-.97v-1.03c0-.62.13-1.19.42-1.68.21-.38.41-.61.96-1.2,1.04-1.06,1.29-1.53,1.29-2.35,0-1.11-.74-1.83-1.88-1.83s-1.92.66-2.42,2l-.99-.46ZM194.89,56.94c0,.48-.39.87-.85.87s-.87-.39-.87-.87.38-.85.87-.85.85.38.85.85Z"/>
      </g>
      <g>
        <circle class="cls-9" cx="308.24" cy="295.89" r="30"/>
        <g>
          <path class="cls-2" d="M310.42,313.32c1.36-.08,2.67-.26,3.94-.54,9.94-2.19,10.3-7.26,10.17-11.48s-1.05-19.35-13.24-20.18c-12.19-.82-15.33,8.87-17.69,12.02s-10.95,12.98,5.17,18.47c1.57.54,3.13.95,4.67,1.23"/>
          <path class="cls-3" d="M312.08,307.11c-.68-1.85-3.68-3.84-5.2-3.62s-4.74,2.07-5.75,2.02-1.7-.74-1.81,1.6,1.71,3.54,4.16,2.68c3.4,1.94,9.76.49,8.6-2.68Z"/>
          <path class="cls-3" d="M312.08,309.51c-.76,3.71-4.97,5.89-6.25,5.34s-2.88-1.43-1.48-4.66c2.52.54,6.97-.12,7.09-1.65s.64.97.64.97Z"/>
          <path class="cls-8" d="M305.6,310.52c-.73,1.36-.38,3.09,1.85,2.01s2.23-2.31,2.23-2.31c0,0,1.46-.73-.49,0-1.95.73-3.58.3-3.58.3Z"/>
          <polygon class="cls-5" points="322.53 277.52 316.36 276.95 319.11 282.5 325.4 283.17 322.53 277.52"/>
          <rect class="cls-5" x="315.77" y="280.65" width="6.72" height="2.92" transform="translate(244.67 -137.28) rotate(38.45)"/>
          <path class="cls-10" d="M289.91,299.04c5.1.33,8.05,5.73,6.16,11.51-4.98-2.71-7.76-5.46-6.16-11.51Z"/>
          <path class="cls-10" d="M324.02,301.19c-5.89-.81-10.4,4.26-9.48,10.84,6.25-1.75,10.01-4.04,9.48-10.84Z"/>
          <ellipse class="cls-1" cx="302.07" cy="301.38" rx="1.85" ry="1.71" transform="translate(-42.63 552.88) rotate(-81.05)"/>
          <ellipse class="cls-1" cx="312.29" cy="302.44" rx="1.71" ry="1.85" transform="translate(-14.88 16.17) rotate(-2.9)"/>
          <path class="cls-1" d="M301.9,291.62c1.67-.68,3.18-.04,3.88,1.27.17.3-.14.57-.47.4-1.05-.53-2.08-.79-3.21-1.01-.38-.07-.52-.54-.2-.67Z"/>
          <path class="cls-1" d="M315.18,294.16c-1.24-1.31-2.87-1.35-4.06-.46-.28.21-.11.58.26.56,1.18-.05,2.22.15,3.34.42.37.09.69-.27.46-.52Z"/>
          <path class="cls-1" d="M310.42,313.95c-.33,0-.61-.26-.63-.59-.02-.35.25-.65.59-.67,1.31-.08,2.6-.25,3.84-.53,9.95-2.2,9.78-7.4,9.68-10.85-.13-4.34-.82-8.09-2.05-11.15-2.11-5.25-5.67-8.08-10.6-8.42-9.76-.66-13.4,5.55-15.82,9.66-.49.83-.91,1.55-1.33,2.11-.12.16-.25.33-.39.51-1.68,2.19-4.81,6.26-3.62,10.16.85,2.81,3.84,5.1,8.88,6.82,1.52.52,3.06.93,4.58,1.21.34.06.57.39.5.74-.06.34-.39.57-.74.5-1.58-.3-3.17-.72-4.75-1.26-5.45-1.86-8.71-4.43-9.68-7.65-1.37-4.52,2.14-9.1,3.83-11.3.14-.18.27-.35.38-.5.37-.5.78-1.19,1.25-1.99,2.41-4.11,6.45-10.99,16.99-10.28,5.45.37,9.38,3.47,11.68,9.21,1.28,3.2,2,7.09,2.14,11.58.15,4.69-.55,9.88-10.67,12.12-1.3.29-2.66.47-4.04.55-.01,0-.02,0-.04,0Z"/>
          <path class="cls-1" d="M301.13,300.76c-.07,0-.14-.02-.2-.07-.77-.61-1.16-1.23-1.45-2.3-.05-.17.05-.34.22-.39.17-.05.34.05.39.22.29,1.07.66,1.52,1.24,1.97.14.11.16.31.05.44-.06.08-.15.12-.25.12Z"/>
          <path class="cls-1" d="M300.94,301.35c-.81,0-1.69-.47-2.38-1.28-.11-.13-.1-.33.04-.44.13-.11.33-.1.44.04.61.72,1.4,1.12,2.06,1.05.17-.02.33.11.35.28.02.17-.11.33-.28.35-.08,0-.15.01-.23.01Z"/>
          <path class="cls-1" d="M313.49,301.95c-.16,0-.29-.11-.31-.27-.02-.17.1-.33.27-.35.66-.09,1.43-.66,1.86-1.39.09-.15.28-.2.43-.11.15.09.2.28.11.43-.53.9-1.46,1.58-2.32,1.7-.01,0-.03,0-.04,0Z"/>
          <path class="cls-1" d="M314.58,303.21c-.38,0-.76-.07-1.14-.24-.16-.07-.23-.26-.16-.42.07-.16.26-.23.42-.16.86.39,1.82.08,2.49-.24.16-.08.35-.01.42.14.08.16.01.35-.14.42-.51.25-1.18.49-1.89.49Z"/>
          <path class="cls-1" d="M307.12,311.29c-1.07,0-2.22-.33-3.41-.99-2.32.66-3.62.03-4.3-.62-.86-.83-1.19-2.15-.85-3.44.35-1.32.96-1.43,1.86-1.46.65-.01,1.63-.04,3.23-.88,3.58-1.88,5.67-.8,7.72,1.4.21.22.19.57-.03.78-.22.21-.57.19-.78-.03-1.84-1.98-3.4-2.75-6.39-1.17-1.83.96-3.01.99-3.72,1q-.65.01-.82.63c-.24.9-.02,1.83.54,2.37.7.67,1.9.78,3.44.29.15-.05.31-.03.44.05,1.93,1.13,4.68,1.81,6.87-1.38.15-.21.42-.3.66-.2,0,0,.72.29,1.36.43.3.07.49.36.42.66-.07.3-.36.49-.66.42-.41-.09-.83-.23-1.13-.33-1.24,1.64-2.76,2.47-4.47,2.47Z"/>
          <path class="cls-1" d="M306.42,315.46c-.61,0-1.2-.14-1.74-.43-.87-.47-1.42-1.13-1.64-1.97-.44-1.65.61-3.36.66-3.43.16-.26.5-.34.76-.18.26.16.34.5.18.76,0,.01-.84,1.38-.53,2.57.14.54.5.96,1.1,1.28.85.46,1.91.39,2.98-.19,1.52-.82,3.14-2.8,3.35-5.36.02-.3.29-.53.6-.5.3.02.53.29.5.6-.21,2.62-1.75,5.07-3.92,6.24-.77.42-1.55.63-2.29.63Z"/>
          <path class="cls-1" d="M320.88,286.44c-.14,0-.27-.04-.39-.14-.27-.22-.32-.61-.1-.89l2.27-2.88c.13-.17.35-.26.56-.24l1.1.12-2.18-4.3-4.7-.44.66,1.33c.11.21.08.47-.06.66l-1.82,2.42c-.21.28-.61.33-.88.12-.28-.21-.33-.6-.12-.88l1.59-2.11-.99-1.99c-.1-.2-.08-.45.05-.64.13-.19.35-.29.58-.27l6.18.58c.22.02.41.15.5.34l2.87,5.65c.1.21.09.45-.04.64-.13.19-.36.29-.59.27l-1.91-.2-2.05,2.6c-.12.16-.31.24-.5.24Z"/>
        </g>
      </g>
      <g>
        <path d="M18.72,252.29c.23.04.29.09.29.24,0,.08-.01.12-.04.23-.1.3-.18.82-.22,1.63-.08,1.42-.21,5.56-.21,6.57,0,1.67.51,2.28,1.92,2.28,1.02,0,2.02-.3,2.94-.88.93-.58,1.58-1.25,2.4-2.43.06.36.12.53.31.92.04.09.06.12.06.18,0,.31-.99,1.35-1.92,2.01-1.17.84-2.5,1.27-3.86,1.27-1.96,0-2.88-1.05-2.88-3.28,0-.38.12-6.36.15-7.26v-.44c0-.48-.01-.69-.08-1.17.48.03.88.08,1.14.14ZM22.71,253.89s.08-.04.12-.09c.21-.15.29-.2.36-.18.1.01.42.28.81.72.3.31.66.81.66.9,0,.08-.06.14-.25.29-.21.18-.32.24-.36.24-.06,0-.09-.03-.15-.12-.33-.62-.67-1.04-1.18-1.5-.06-.06-.09-.09-.09-.13s.03-.08.09-.12ZM24.45,252.75c.25.01,1.42,1.36,1.42,1.62,0,.09-.04.12-.34.33-.18.12-.23.14-.27.14-.06,0-.08-.02-.12-.11-.33-.58-.69-1.04-1.21-1.5-.04-.03-.06-.04-.06-.08,0-.1.45-.42.58-.4Z"/>
        <path d="M31.06,259.8c-.11.09-.17.12-.23.12-.18,0-.42-.31-.76-.99.62-.15.96-.27,2.31-.88-.54-1.25-.82-1.79-1.15-2.16.51-.21.96-.34,1.11-.34.12,0,.15.03.17.28.03.32.06.42.29.9.11.24.3.67.42.95,1.91-.87,3.24-1.28,4.25-1.28,1.5,0,2.43.84,2.43,2.19s-1.02,2.25-2.59,2.25c-.36,0-.81-.04-1.07-.12-.15-.05-.19-.11-.22-.3-.04-.24-.09-.4-.24-.71.56.17.99.24,1.41.24,1.07,0,1.74-.54,1.74-1.41,0-.79-.58-1.32-1.47-1.32-.74,0-1.55.21-2.69.72q-.3.12-1.2.55c.51,1.2,1.28,3.23,1.79,4.75,0,.02.08.2.2.57.04.1.06.17.06.2,0,.09-.07.15-.29.25-.19.09-.45.17-.55.17-.08,0-.1-.04-.13-.18-.01-.04-.08-.3-.15-.52q-.03-.12-.1-.39c-.33-1.17-1.04-3.1-1.62-4.47q-1.29.63-1.68.93ZM34.65,254.91c.19-.15.24-.18.3-.18.12,0,.51.32.92.72.27.27.33.36.33.45,0,.15-.45.58-.62.58-.04,0-.08-.01-.15-.12-.21-.3-.67-.76-.93-.96-.1-.08-.13-.12-.13-.18,0-.08.01-.11.29-.32Z"/>
        <path d="M49.36,262.76s.03.06.03.09c0,.1-.61.42-.84.42-.09,0-.13-.08-.34-.68-.93.75-1.81,1.11-2.66,1.11-.97,0-1.56-.67-1.56-1.77,0-1.25.6-2.42,1.79-3.45.57-.5,1.12-.87,1.75-1.16,0-.6.01-1.46.04-2.22-.81.04-1.75.08-2.47.08-.15,0-.2-.01-.23-.11-.03-.06-.06-.45-.06-.64v-.18c.6.04.87.06,1.3.06.39,0,.83-.01,1.5-.04.06-.99.09-1.56.09-1.7,0-.18,0-.22-.01-.4.48.03.88.07,1.14.13.09.01.13.08.13.15,0,.05-.03.12-.07.21-.15.27-.23.69-.3,1.53,1.77-.18,3.03-.39,4.05-.67.26-.08.35-.09.36-.09.04,0,.08.03.08.12.03.19.06.55.06.75,0,.09-.03.1-.71.24-1.29.24-2.41.39-3.9.51-.04.67-.08,1.47-.08,1.9.81-.27,1.54-.39,2.38-.4.11-.42.14-.71.15-1.1.85.2,1.14.3,1.14.44,0,.06-.01.08-.12.25-.06.12-.1.24-.18.46.81.12,1.44.34,1.95.72.93.66,1.46,1.73,1.46,2.91,0,1.68-1.08,3.01-3.12,3.87-.44.18-.96.34-1.12.34-.12,0-.21-.04-.29-.15-.21-.3-.33-.39-.66-.6,1.14-.25,1.7-.45,2.38-.85,1.19-.71,1.79-1.62,1.79-2.72,0-1.5-1-2.58-2.61-2.8-.63,1.84-1.5,3.36-2.59,4.51.1.38.22.69.34.92ZM47.55,258.24c-1.54.9-2.59,2.33-2.59,3.54,0,.58.32.96.79.96.58,0,1.44-.45,2.21-1.16-.22-.99-.36-2.04-.41-3.34ZM48.75,260.76c.88-1.08,1.5-2.19,1.91-3.46-.74.04-1.46.21-2.19.49.03,1.17.11,2.01.29,2.97Z"/>
        <path d="M64.59,251.6c.74,1.17,1.56,2.04,2.94,3.08,1.14.85,2.04,1.35,3.37,1.9-.28.33-.42.56-.58.93-1.41-.72-2.4-1.33-3.46-2.16-1.18-.93-1.93-1.7-2.79-2.9-1.77,2.31-3.38,3.65-6.11,5-.13-.3-.3-.54-.6-.84,1.69-.78,2.75-1.46,4.04-2.58.94-.84,1.54-1.53,2.1-2.43h1.09ZM69.34,259.31c-.15.15-.42.45-.58.64l-2.87,3.51c-.39.48-.64.84-.96,1.29l-1.03-.6c.39-.33.78-.74,1.15-1.17l2.8-3.41h-7.12c-.53,0-1.04.03-1.67.09v-1.06c.55.06,1.06.09,1.68.09h6.41c.91,0,1.3-.01,1.6-.08l.58.69ZM61.06,255.95c.31.04.6.06,1.14.06h3.78c.58,0,.85-.02,1.21-.06v1c-.35-.04-.72-.06-1.25-.06h-3.74c-.5,0-.85.01-1.15.06v-1Z"/>
        <path d="M83.55,264.71v-.87h-9.84v.87h-1.02c.06-.42.09-.9.09-1.74v-8.91c0-.71-.03-1.21-.09-1.77.51.06.94.07,1.68.07h8.49c.74,0,1.19-.01,1.7-.07-.06.55-.08,1.03-.08,1.77v8.94c0,.84.02,1.35.09,1.71h-1.02ZM73.71,263.01h9.84v-9.81h-9.84v9.81ZM79.86,255.45c.72,0,1.14-.01,1.48-.06-.03.31-.04.6-.04,1.11v3.15c0,.51.01.74.04,1.09-.43-.04-.81-.06-1.48-.06h-2.55c-.84,0-1.08.01-1.48.06.04-.34.06-.64.06-1.09v-3.15c0-.47-.01-.72-.06-1.11.34.04.78.06,1.48.06h2.55ZM76.77,259.91h3.65v-3.66h-3.65v3.66Z"/>
        <path d="M90.13,260.55c.08.1.09.17.09.24q-.01.12-.21.67c-.27.75-.54,1.8-.6,2.37-.03.21-.06.25-.18.29-.14.03-.39.04-.62.04-.17,0-.18-.01-.33-.58-.32-1.17-.46-2.38-.46-3.78,0-1.59.17-3.08.58-5.27.17-.82.22-1.23.29-1.9.79.15,1.25.34,1.25.52,0,.06,0,.08-.11.24-.53.93-1.11,4.37-1.11,6.57,0,.85.06,1.56.2,2.47.21-.54.33-.88.51-1.32q.27-.73.44-1.17c.06.25.13.42.27.6ZM93.46,256.5h-.24c-.39-.02-.66-.02-.79-.02-.15,0-.19-.01-.21-.12-.04-.15-.08-.51-.08-.71v-.15c.57.04.84.06,1.32.06.75,0,1.37-.03,2.12-.1v-1.68c0-.54-.02-.82-.08-1.29.46.03.83.07,1.11.17.12.03.18.09.18.18,0,.06,0,.09-.06.2-.17.33-.22.94-.22,2.32.78-.12,1.3-.21,2.12-.42.06-.01.09-.01.1-.01.06,0,.09.03.11.09.03.09.07.55.07.72,0,.12-.03.15-.15.18-.36.1-1.33.27-2.25.39,0,1.12.04,2.59.15,4.35.97.39,1.83.87,2.62,1.47.14.11.2.18.2.27,0,.08-.06.19-.22.42q-.27.36-.35.36t-.48-.36c-.45-.39-1.11-.81-1.74-1.14.02.13.02.24.02.31,0,1.35-.93,2.13-2.52,2.13-1.48,0-2.42-.74-2.42-1.88s1.02-1.96,2.57-1.96c.6,0,.93.03,1.37.13-.09-2.21-.09-2.55-.12-4.02-.81.06-1.61.11-2.12.11ZM94.38,261.17c-1.08,0-1.71.39-1.71,1.04s.57,1,1.51,1c1.05,0,1.53-.45,1.53-1.41,0-.3,0-.4-.01-.4-.44-.17-.81-.23-1.32-.23Z"/>
        <path d="M101.16,261.35c.17-.18.2-.2.27-.2.18,0,1.17.72,1.74,1.26.57.55,1.4,1.58,1.4,1.74,0,.08-.05.13-.35.42-.29.27-.34.31-.42.31-.04,0-.09-.03-.15-.12-.81-1.29-1.7-2.21-2.76-2.82-.07-.04-.1-.09-.1-.15s.01-.09.38-.45Z"/>
        <path d="M116.97,258.14v-6.92h4.29v.96h-3.24v5.96h-1.05Z"/>
        <path d="M126.16,256.26c-.86.1-1.65.15-2.38.15-.21,0-.29-.03-.32-.12-.01-.12-.06-.36-.12-.79.24.02.38.02.53.02.76,0,1.37-.04,2.29-.15,0-1.65-.03-2.28-.17-2.91.42.03.75.08,1.02.12.25.04.33.09.33.2,0,.08,0,.09-.1.32-.12.28-.2,1.08-.2,2.14.66-.11,1.79-.38,2.37-.55t.12-.02c.06,0,.09.03.12.2.04.18.09.46.09.55,0,.11-.04.17-.15.2-.69.2-1.41.36-2.55.54v2.68c1.56-.64,2.89-.96,4.08-.96,1.74,0,2.8,1.05,2.8,2.76,0,1.88-1.17,2.99-3.12,2.99-.51,0-1.12-.09-1.39-.2-.12-.04-.17-.12-.2-.29-.04-.31-.1-.48-.24-.79.6.25,1.16.38,1.74.38,1.35,0,2.17-.79,2.17-2.11,0-1.19-.69-1.86-1.88-1.86s-2.44.34-3.97,1.04v2.71c.01.85-.41,1.37-1.12,1.37-.64,0-1.42-.35-2-.89-.38-.34-.54-.7-.54-1.15,0-.83.78-1.56,2.76-2.57v-1.25l.02-1.74ZM126.15,260.22c-1.36.73-1.84,1.15-1.84,1.6,0,.5.74,1.02,1.42,1.02.29,0,.42-.21.42-.65v-1.98ZM134.56,257c-.06,0-.09-.01-.3-.24-.58-.63-1.56-1.21-2.42-1.47-.22-.07-.29-.1-.29-.17,0-.04.09-.19.3-.49.11-.15.15-.18.26-.18.31,0,1.32.42,1.95.81.63.39,1.14.85,1.14,1.02,0,.15-.5.72-.65.72Z"/>
        <path d="M141.28,256.65c-.62,0-.95.01-1.35.08v-.87c-.99.65-1.54.95-2.62,1.41-.18-.38-.27-.5-.6-.86,2.8-1.06,4.89-2.62,6.08-4.56h1.09c.62.95,1.39,1.72,2.58,2.59,1.21.87,2.31,1.44,3.78,1.94-.24.28-.41.57-.57.93-1.14-.48-1.74-.79-2.83-1.49v.9c-.39-.06-.71-.08-1.32-.08h-1.75v1.96h4.02c.63,0,1-.01,1.41-.09v1c-.41-.06-.84-.09-1.42-.09h-4v3.81h4.21c.64,0,1.14-.03,1.59-.09v1.05c-.45-.08-1.02-.1-1.6-.1h-9.06c-.56,0-1.07.03-1.65.1v-1.05c.5.06,1,.09,1.65.09h3.93v-3.81h-3.74c-.55,0-1.02.03-1.41.09v-1c.42.06.79.09,1.41.09h3.74v-1.96h-1.54ZM139.96,259.89c.53.85.84,1.51,1.26,2.61l-.83.33c-.36-1.02-.73-1.79-1.26-2.56l.83-.38ZM145.51,255.86c.58,0,.95-.01,1.26-.06-1.53-1.02-2.52-1.94-3.42-3.13-.9,1.24-1.9,2.19-3.33,3.13.27.04.69.06,1.23.06h4.26ZM147.6,260.3c-.66,1.33-.9,1.75-1.53,2.67l-.81-.31c.6-.79,1.04-1.61,1.44-2.73l.9.38Z"/>
        <path d="M154.93,260.55c.08.1.09.17.09.24q-.01.12-.21.67c-.27.75-.54,1.8-.6,2.37-.03.21-.06.25-.18.29-.14.03-.39.04-.62.04-.17,0-.18-.01-.33-.58-.31-1.17-.46-2.38-.46-3.78,0-1.59.17-3.08.58-5.27.17-.82.22-1.23.29-1.9.79.15,1.25.34,1.25.52,0,.06,0,.08-.11.24-.53.93-1.11,4.37-1.11,6.57,0,.85.06,1.56.2,2.47.21-.54.33-.88.51-1.32q.27-.73.44-1.17c.06.25.13.42.27.6ZM158.26,256.5h-.24c-.39-.02-.66-.02-.79-.02-.15,0-.19-.01-.21-.12-.04-.15-.08-.51-.08-.71v-.15c.57.04.84.06,1.32.06.75,0,1.37-.03,2.12-.1v-1.68c0-.54-.02-.82-.08-1.29.46.03.83.07,1.11.17.12.03.18.09.18.18,0,.06,0,.09-.06.2-.17.33-.22.94-.22,2.32.78-.12,1.3-.21,2.12-.42.06-.01.09-.01.1-.01.06,0,.09.03.11.09.03.09.07.55.07.72,0,.12-.03.15-.15.18-.36.1-1.33.27-2.25.39,0,1.12.04,2.59.15,4.35.97.39,1.83.87,2.62,1.47.14.11.2.18.2.27,0,.08-.06.19-.22.42q-.27.36-.35.36t-.48-.36c-.45-.39-1.11-.81-1.74-1.14.02.13.02.24.02.31,0,1.35-.93,2.13-2.52,2.13-1.48,0-2.42-.74-2.42-1.88s1.02-1.96,2.57-1.96c.6,0,.93.03,1.37.13-.09-2.21-.09-2.55-.12-4.02-.81.06-1.61.11-2.12.11ZM159.18,261.17c-1.08,0-1.71.39-1.71,1.04s.57,1,1.51,1c1.05,0,1.53-.45,1.53-1.41,0-.3,0-.4-.01-.4-.44-.17-.81-.23-1.32-.23Z"/>
        <path d="M167.68,255.65c-.08.01-.21.01-.36.03-.24.01-.38.01-.48.01-.21,0-.24-.01-.27-.12-.04-.15-.09-.39-.14-.85.24,0,.71.01.84.01.52,0,1.54-.08,2.34-.17.34-1.18.46-1.83.46-2.67.43.08.76.15,1.09.25.21.08.24.11.24.18,0,.04-.03.12-.09.22-.23.42-.3.64-.62,1.84,1.12-.21,1.62-.31,2.04-.45.06-.03.09-.03.12-.03.1,0,.13.09.18.45.01.12.03.2.03.24.01.04.01.11.01.13,0,.12-.04.15-.32.21-.01,0-.06.01-.13.03-.52.11-1.62.3-2.23.39-.58,1.72-1.4,3.52-2.37,5.23-.46.81-.74,1.17-.88,1.17-.18,0-.79-.46-.79-.6,0-.08.04-.15.13-.27.29-.33.52-.69.83-1.17.78-1.25,1.35-2.43,1.99-4.21-.97.09-1.09.11-1.63.12ZM174.81,257.03q0,.06-.04.2c-.08.22-.11.51-.11.96,0,.72.04,1.56.14,2.64.75.29,1.39.64,2.08,1.12.51.36.66.5.66.6,0,.24-.39.83-.54.83-.04,0-.1-.03-.22-.15-.54-.51-1.32-1.04-1.95-1.32,0,.54-.04.84-.18,1.18-.32.83-1.11,1.26-2.28,1.26-1.45,0-2.43-.75-2.43-1.86,0-1.2,1.08-2.07,2.57-2.07.48,0,.75.03,1.32.15-.08-1.05-.12-1.88-.15-2.88-.02-.5-.03-.65-.08-.96.97.09,1.21.13,1.21.3ZM172.53,261.3c-1.02,0-1.68.43-1.68,1.11,0,.63.54,1,1.46,1,1.06,0,1.54-.51,1.54-1.65,0-.11-.01-.21-.01-.21-.42-.18-.83-.25-1.31-.25ZM174.88,255.12c.03-.06.08-.1.1-.16.08-.12.23-.27.25-.27t.08.01c.48.02,2.83,1.41,2.83,1.68h0c-.09.27-.1.31-.31.61q-.09.15-.24.21s-.12-.06-.18-.1c-.77-.69-1.49-1.14-2.52-1.56-.09-.05-.15-.11-.15-.17q.06-.15.13-.26Z"/>
        <path d="M187.17,252.87c0,.06-.02.09-.18.25-.42.42-1.5,2.29-3.22,5.61-.12.24-.22.42-.69,1.2,1.06-1.4,1.98-1.96,3.18-1.96.99,0,1.6.51,1.84,1.54.08.31.12.75.24,2.07.03.46.09.77.19.96.17.32.48.48.93.48.78,0,1.51-.46,2.19-1.37.29-.39.46-.72.81-1.44.04.4.07.52.28.9.06.12.09.2.09.3,0,.2-.23.62-.57,1.05-.81,1.02-1.75,1.53-2.87,1.53-1,0-1.6-.36-1.88-1.12-.15-.38-.21-.83-.3-1.95-.08-.93-.13-1.19-.3-1.53-.17-.36-.5-.55-.92-.55-1.32,0-2.79,1.41-3.72,3.55-.18.42-.32.78-.48,1.33-.04.15-.09.19-.17.19-.27,0-.94-.34-.94-.49,0-.02.1-.26.27-.63q.17-.31.75-1.72c.57-1.33,1.8-3.9,2.79-5.85,1.07-2.07,1.21-2.4,1.42-3.13.71.27,1.23.6,1.23.78Z"/>
        <path d="M200.59,259.71c-.87,1.98-1.86,2.97-2.99,2.97-.66,0-1.27-.38-1.69-1.02-.38-.55-.6-1.48-.6-2.43,0-1.92.89-3.67,2.42-4.75,1.08-.76,2.37-1.16,3.86-1.16,3.27,0,5.43,1.98,5.43,4.98,0,1.98-.93,3.58-2.76,4.74-.65.42-1.62.86-1.88.86-.09,0-.15-.04-.25-.18-.18-.24-.38-.4-.66-.57,1.15-.35,1.71-.57,2.35-.99,1.4-.93,2.16-2.31,2.16-3.9s-.84-3-2.29-3.66c-.51-.24-.95-.34-1.7-.39-.25,2.11-.72,3.96-1.39,5.5ZM198.91,254.82c-1.62.81-2.62,2.5-2.62,4.47,0,1.35.55,2.31,1.35,2.31.63,0,1.3-.75,1.95-2.19.67-1.51,1.15-3.31,1.36-5.14-.78.08-1.41.24-2.04.55Z"/>
        <path d="M213.12,252.3s0-.15-.02-.25c.6.09.95.17,1.21.27.09.03.12.09.12.17q-.01.11-.17.41t-.42,1.79c.71-.14,1.65-.36,2.05-.5.04-.02.06-.02.09-.02.06,0,.07.02.1.09.04.18.13.61.13.71,0,.12-.01.15-.12.16-.01,0-.06.02-.13.05-.43.1-1.75.38-2.33.46-.49,2.4-1.17,4.63-2.08,6.84-.47,1.14-.62,1.42-.74,1.42-.09,0-.44-.15-.71-.32-.12-.08-.17-.12-.17-.2,0-.06.03-.12.08-.21.24-.4.51-.94.76-1.57.81-1.94,1.26-3.39,1.82-5.8-.78.1-1.92.19-2.52.19-.22,0-.27-.01-.3-.15-.06-.21-.09-.48-.12-.81q.58.02.66.02c.58,0,1.65-.09,2.47-.21.23-1.19.3-1.85.3-2.54ZM218.7,262.97c.72,0,1.19-.04,2.07-.21q.09-.01.18-.01c.17,0,.2.04.23.36.01.09.01.17.03.24.02.11.03.23.03.29,0,.13-.06.2-.2.23-.46.09-1.53.17-2.26.17-1.44,0-2.35-.24-3-.75-.39-.32-.69-.75-.9-1.31-.05-.12-.08-.25-.08-.31,0-.12.04-.15.76-.54.44,1.38,1.25,1.86,3.13,1.86ZM216.58,257.42s-.06.02-.08.02c-.09,0-.15-.04-.17-.13-.03-.11-.06-.44-.06-.66,0-.13.04-.18.18-.21.88-.18,1.95-.27,3.15-.27.86,0,1.25.03,1.29.12.03.04.04.13.04.39,0,.47-.03.57-.18.57h-.08c-.71-.08-1.07-.09-1.42-.09-.86,0-1.83.1-2.68.27Z"/>
        <path d="M229.69,260.1c.23.27.46.52.72.76.09.08.11.11.11.15-.01.18-.45.6-.65.6-.09,0-.27-.17-.73-.69-1,1.32-1.82,1.89-2.73,1.89-1,0-1.66-.9-1.66-2.26s.63-2.75,1.81-3.83c-.17-.42-.34-.9-.57-1.63-.19-.63-.3-.88-.49-1.25.4-.09.93-.17,1.08-.17.18,0,.21.06.23.43.03.58.18,1.16.51,2.01,1.02-.69,2.21-1.07,3.46-1.1.18-.84.29-1.53.29-1.96,0-.13,0-.25-.01-.45.91.15,1.35.35,1.33.54,0,.06-.02.09-.14.29-.12.23-.15.3-.29.84-.06.25-.17.65-.21.81,2.37.33,3.9,1.98,3.9,4.18,0,1.95-1.11,3.43-3.2,4.26-.5.2-1.09.36-1.29.36-.12,0-.15-.02-.31-.25-.13-.21-.33-.39-.55-.54,1.02-.17,1.63-.35,2.31-.71,1.3-.69,2.02-1.82,2.02-3.15,0-1.8-1.18-3.09-3.09-3.34-.43,1.5-1.03,2.87-1.84,4.2ZM225.67,260.49c0,.81.31,1.32.79,1.32.64,0,1.18-.44,2.04-1.65-.69-.9-1.14-1.63-1.58-2.56-.79.85-1.26,1.92-1.26,2.89ZM227.65,256.94c.36.76.86,1.6,1.41,2.37.65-1.05,1.09-2.12,1.49-3.44-1.1.09-2.07.44-2.9,1.07Z"/>
        <path d="M17.34,287.12q.35-.79.44-.99c.06.2.13.33.31.6.04.06.06.12.06.18,0,.09-.02.15-.21.57-.27.63-.66,1.8-.77,2.32-.03.18-.06.26-.1.3-.04.03-.32.06-.62.06-.19,0-.27-.04-.31-.21-.33-1.26-.48-2.55-.48-4.02,0-1.54.18-3.2.54-5,.13-.67.18-1.04.22-1.68.78.17,1.28.38,1.28.52,0,.04-.03.12-.1.25-.15.24-.23.47-.36.99-.45,1.89-.66,3.43-.66,4.93,0,.78.04,1.56.15,2.52l.61-1.37ZM23.41,288.54c.79,0,1.33-.08,2.47-.31.03-.02.06-.02.09-.02.08,0,.11.03.12.11.03.1.11.71.11.85,0,.11-.03.14-.32.18-.63.13-1.63.22-2.32.22-1.58,0-2.46-.22-3.15-.81-.36-.3-.81-.92-.81-1.11,0-.1.31-.36.72-.58.52,1.05,1.39,1.47,3.09,1.47ZM20.8,280.53c.44.06,1.17.11,1.73.11.94,0,1.93-.09,2.76-.24q.06-.01.1-.01c.08,0,.11.03.12.1.03.11.06.51.06.74,0,.13-.03.18-.2.21-.66.1-1.89.2-2.79.2-.84,0-1.83-.08-2.13-.15-.08-.01-.09-.06-.1-.18v-.24c0-.39.06-.55.19-.55.04,0,.14.01.25.03Z"/>
        <path d="M34.9,289.01s.03.06.03.09c0,.1-.62.42-.84.42-.09,0-.13-.08-.34-.68-.93.75-1.81,1.11-2.65,1.11-.98,0-1.56-.67-1.56-1.77,0-1.25.6-2.42,1.79-3.45.57-.5,1.12-.87,1.75-1.16,0-.6.01-1.46.04-2.22-.81.04-1.75.08-2.47.08-.15,0-.2-.01-.23-.11-.03-.06-.06-.45-.06-.64v-.18c.6.04.87.06,1.3.06.39,0,.83-.01,1.5-.04.06-.99.09-1.56.09-1.7,0-.18,0-.22-.01-.4.48.03.88.07,1.14.13.09.01.13.08.13.15,0,.05-.03.12-.07.21-.15.27-.23.69-.3,1.53,1.77-.18,3.03-.39,4.05-.67.26-.08.35-.09.36-.09.04,0,.08.03.08.12.03.19.06.55.06.75,0,.09-.03.1-.71.24-1.29.24-2.41.39-3.9.51-.04.67-.08,1.47-.08,1.9.81-.27,1.54-.39,2.38-.4.11-.42.14-.71.15-1.1.85.2,1.14.3,1.14.44,0,.06-.01.08-.12.25-.06.12-.1.24-.18.46.81.12,1.44.34,1.95.72.93.66,1.46,1.73,1.46,2.91,0,1.68-1.08,3.01-3.12,3.87-.44.18-.96.34-1.12.34-.12,0-.21-.04-.29-.15-.21-.3-.33-.39-.66-.6,1.14-.25,1.7-.45,2.38-.85,1.19-.71,1.79-1.62,1.79-2.72,0-1.5-1-2.58-2.61-2.8-.63,1.84-1.5,3.36-2.59,4.51.1.38.22.69.34.92ZM33.09,284.49c-1.54.9-2.59,2.33-2.59,3.54,0,.58.32.96.79.96.58,0,1.44-.45,2.21-1.16-.22-.99-.36-2.04-.41-3.34ZM34.29,287.01c.88-1.08,1.5-2.19,1.91-3.46-.74.04-1.46.21-2.19.49.03,1.17.11,2.01.29,2.97Z"/>
        <path d="M46.77,279.33c.43,0,1.98-.15,3.37-.33.8-.11.92-.14,1.25-.3.12-.06.17-.07.23-.07.13,0,.3.17.64.66.12.18.18.31.18.4,0,.11-.03.12-.28.3q-.23.15-1.74,1.75c-.25.27-.93.99-1.89,1.98-.51.54-.62.63-1.12,1.18.73-.6,1.12-.82,1.78-1.06.62-.24,1.23-.35,1.85-.35,2.11,0,3.49,1.29,3.49,3.23,0,.97-.34,1.81-.99,2.46-.89.87-2.24,1.35-3.78,1.35-1.02,0-1.77-.22-2.23-.69-.29-.29-.45-.68-.45-1.1,0-.96.84-1.63,2.01-1.63,1.23,0,2.1.69,2.64,2.08.72-.38,1.07-.66,1.38-1.18.23-.38.36-.87.36-1.35,0-1.44-.99-2.31-2.64-2.31-1.79,0-4.02,1.2-5.34,2.88-.12.15-.18.2-.25.2-.18,0-.81-.65-.81-.83,0-.06.04-.12.13-.18.3-.21.35-.26,1.05-.93,1.92-1.88,2.89-2.94,5.16-5.7-3.01.4-3.99.54-4.3.64-.09.03-.12.03-.15.03-.16,0-.33-.51-.39-1.2.29.03.65.06.86.06ZM49,287.97c-.63,0-1.04.3-1.04.76,0,.58.68.97,1.67.97.44,0,.72-.03,1.16-.15-.38-1.08-.96-1.59-1.79-1.59Z"/>
        <path d="M63.49,285.96c-.87,1.98-1.86,2.97-2.99,2.97-.66,0-1.27-.38-1.69-1.02-.38-.55-.6-1.48-.6-2.43,0-1.92.89-3.67,2.42-4.75,1.08-.76,2.37-1.16,3.86-1.16,3.27,0,5.43,1.98,5.43,4.98,0,1.98-.93,3.58-2.76,4.74-.65.42-1.62.86-1.88.86-.09,0-.15-.04-.25-.18-.18-.24-.38-.4-.66-.57,1.15-.35,1.71-.57,2.35-.99,1.4-.93,2.16-2.31,2.16-3.9s-.84-3-2.29-3.66c-.51-.24-.95-.34-1.7-.39-.25,2.11-.72,3.96-1.39,5.5ZM61.81,281.07c-1.62.81-2.62,2.5-2.62,4.47,0,1.35.55,2.31,1.35,2.31.63,0,1.3-.75,1.95-2.19.67-1.51,1.15-3.31,1.37-5.14-.78.08-1.41.24-2.04.55Z"/>
        <path d="M76.72,278.52c.87.15,1.35.34,1.35.54,0,.06-.02.11-.09.21-.15.2-.27.54-.71,2.04-.04.15-.06.21-.09.32.66-.11,1.18-.17,1.53-.17,1.33,0,1.95.79,1.95,2.53s-.45,3.72-1.05,4.83c-.46.84-.99,1.2-1.75,1.2-.46,0-1.08-.13-1.37-.29-.09-.06-.12-.11-.12-.27,0-.32-.06-.58-.17-.92.57.34,1,.48,1.49.48.57,0,.94-.36,1.26-1.2.46-1.23.72-2.62.72-3.99,0-1.08-.36-1.56-1.14-1.56-.34,0-.9.06-1.61.2-.49,1.58-.99,2.88-1.56,4.18-.57,1.31-1.33,2.76-1.6,3.04-.04.04-.11.08-.17.08-.12,0-.46-.2-.71-.39-.08-.08-.11-.11-.11-.15s.02-.09.06-.15c1.18-1.65,2.34-4.1,3.06-6.42-1.92.38-2.31.46-2.64.63-.06.03-.11.04-.13.04-.17,0-.32-.36-.45-1.11.64,0,.9-.03,2.88-.36q.19-.03.6-.09c.41-1.53.54-2.34.55-3.27ZM83.86,285.32c-.45-1.33-1.23-2.55-2.28-3.51-.06-.04-.08-.09-.08-.12,0-.12.5-.58.62-.58.13,0,.87.74,1.38,1.39.64.81,1.29,2,1.29,2.36,0,.08-.04.13-.2.25-.27.21-.51.34-.6.34-.06,0-.11-.03-.14-.13Z"/>
        <path d="M90.61,284.39v6.91h-4.29v-.96h3.25v-5.95h1.04Z"/>
        <path d="M110.14,283.58c1.33-.69,1.65-.9,2.16-1.35.36.41.74.96.74,1.11,0,.1-.08.18-.26.22-.75.22-3.01,1.25-4.29,1.95.03.54.04,1.33.04,1.83,0,.57,0,.63-.06.68-.07.06-.33.09-.64.09-.25,0-.3-.03-.3-.23,0-.12,0-.31.01-.6.01-.15.01-.38.01-.71v-.57s-.06.04-.13.09c-1.68.9-2.31,1.54-2.31,2.32s.78,1.12,2.62,1.12c1.32,0,3.12-.17,3.75-.33.03-.01.06-.01.09-.01.09,0,.15.06.18.21.03.13.06.5.06.71s-.03.24-.38.27c-.7.08-2.38.14-3.49.14-1.31,0-2.07-.11-2.67-.36-.78-.34-1.16-.9-1.16-1.71,0-1.21.71-1.93,3.36-3.43-.15-.88-.44-1.25-.99-1.25-.69,0-1.41.27-2.28.84-.63.42-.97.71-1.42,1.16-.09.09-.18.13-.25.13-.17,0-.62-.58-.62-.79,0-.06.04-.12.18-.21.28-.2.72-.54,1.05-.84.97-.87,1.62-1.7,2.23-2.82-.88.06-1.88.11-2.65.11-.2,0-.25-.04-.3-.21-.05-.21-.08-.44-.08-.78.54.03.9.04,1.51.04.51,0,1.39-.04,1.96-.1.39-.92.51-1.4.54-2.12.87.13,1.26.29,1.26.48,0,.06-.01.08-.12.24q-.15.21-.58,1.28c1.25-.18,1.52-.24,2.73-.54.13-.03.22-.04.25-.04.08,0,.12.04.15.15.05.17.09.5.09.63,0,.17-.04.18-.5.27-1.53.29-1.77.31-3.18.48-.54,1.08-.99,1.73-1.77,2.57.79-.51,1.35-.71,2.01-.71.92,0,1.41.46,1.65,1.54l1.77-.95Z"/>
        <path d="M115.62,287.6c.17-.18.2-.2.27-.2.18,0,1.17.72,1.74,1.26.57.55,1.4,1.58,1.4,1.74,0,.08-.05.13-.35.42-.29.27-.34.31-.42.31-.04,0-.09-.03-.15-.12-.81-1.29-1.7-2.21-2.76-2.82-.07-.04-.1-.09-.1-.15s.01-.09.38-.45Z"/>
        <path d="M142.8,284.82c-.56-.08-.99-.1-1.89-.1h-8.88c-.79,0-1.44.03-1.92.1v-1.2c.45.08,1.08.11,1.92.11h8.88c.83,0,1.47-.03,1.89-.11v1.2Z"/>
        <path d="M144.48,284.07c.25.03.43.04.79.04.13,0,.17,0,.48-.01q.62-.83.99-1.4c-.9-1.11-1.23-1.47-2.15-2.28l.53-.67.6.6c.69-1.12,1.16-2.05,1.28-2.62l.88.36q-.15.21-.57,1.02c-.27.54-.67,1.23-1.05,1.8.42.46.6.66.95,1.08.81-1.27,1.27-2.14,1.46-2.67l.84.45c-.12.17-.18.25-.34.54-.89,1.49-1.62,2.59-2.49,3.76.99-.04,1.29-.08,2.1-.15-.27-.58-.33-.71-.6-1.19l.63-.29c.57,1.07.81,1.59,1.16,2.49l-.67.32c-.09-.3-.15-.45-.21-.63q-.72.09-1.29.14v4.68c0,.63.03,1.02.09,1.44h-1.02c.06-.42.09-.85.09-1.44v-4.62q-.28.03-1.8.11c-.19,0-.34.01-.54.06l-.12-.92ZM146.19,285.96c-.24,1.95-.43,2.83-.88,4.04l-.78-.41c.51-1.15.69-2.02.85-3.82l.81.19ZM149.1,285.74c.33,1.17.44,1.74.63,3.09l-.76.22c-.13-1.3-.29-2.14-.57-3.13l.71-.18ZM150.73,283.13c-.48,0-.87.01-1.2.06v-.92c.34.06.66.08,1.23.08h1.47v-1.88h-1.12c-.45,0-.76.01-1.09.06v-.9c.33.04.62.06,1.08.06h1.14v-.69c0-.56-.01-.86-.09-1.17h1.02c-.08.33-.09.57-.09,1.15v.71h1.12c.45,0,.74-.01.99-.06v.9c-.33-.04-.57-.06-.97-.06h-1.14v1.88h.69c.63-.65,1.09-1.19,1.63-1.94l.17-.25c.57-.9.81-1.33.95-1.75l.9.53c-.15.17-.24.3-.45.63-.65,1.02-1.25,1.8-2.15,2.79h1.42c.62,0,.93-.02,1.26-.06v.92c-.42-.06-.63-.07-1.24-.07h-2.21c-1.05.99-1.2,1.11-1.63,1.44h2.94c.63,0,.97-.01,1.33-.06-.04.34-.06.67-.06,1.26v3.67c0,.55.03.94.09,1.42h-.95v-.74h-4.05v.74h-.93c.06-.43.09-.87.09-1.42v-3.76c-.36.25-.53.36-.99.63-.12-.24-.25-.42-.5-.67,1.32-.71,2.22-1.33,3.57-2.5h-2.24ZM151.72,286.94h4.05v-1.61h-4.05v1.61ZM151.72,289.37h4.05v-1.68h-4.05v1.68Z"/>
        <path d="M161.94,287.12q.35-.79.44-.99c.06.2.13.33.31.6.04.06.06.12.06.18,0,.09-.02.15-.21.57-.27.63-.66,1.8-.77,2.32-.03.18-.06.26-.1.3-.04.03-.32.06-.62.06-.19,0-.27-.04-.31-.21-.33-1.26-.48-2.55-.48-4.02,0-1.54.18-3.2.54-5,.13-.67.18-1.04.22-1.68.78.17,1.28.38,1.28.52,0,.04-.03.12-.1.25-.15.24-.23.47-.36.99-.45,1.89-.66,3.43-.66,4.93,0,.78.04,1.56.15,2.52l.61-1.37ZM168.01,288.54c.79,0,1.33-.08,2.47-.31.03-.02.06-.02.09-.02.08,0,.11.03.12.11.03.1.11.71.11.85,0,.11-.03.14-.32.18-.63.13-1.63.22-2.32.22-1.58,0-2.46-.22-3.15-.81-.36-.3-.81-.92-.81-1.11,0-.1.31-.36.72-.58.52,1.05,1.39,1.47,3.09,1.47ZM165.4,280.53c.44.06,1.17.11,1.73.11.94,0,1.93-.09,2.76-.24q.06-.01.1-.01c.08,0,.11.03.12.1.03.11.06.51.06.74,0,.13-.03.18-.2.21-.66.1-1.89.2-2.79.2-.84,0-1.83-.08-2.13-.15-.08-.01-.09-.06-.1-.18v-.24c0-.39.06-.55.19-.55.04,0,.14.01.25.03Z"/>
        <path d="M175.14,282.72c-.67,0-1.15.03-1.63.09v-.99c.34.06.83.09,1.63.09h3.65v-1.63h-2.22c-.76,0-1.11.02-1.57.08v-.97c.34.06.78.09,1.57.09h2.22v-.25c0-.6-.02-.95-.09-1.37h1.08c-.06.34-.09.72-.09,1.37v.25h1.4c.78,0,1.21-.03,1.57-.09v.97c-.39-.06-.72-.08-1.53-.08h-1.44v1.63h1.18c1.37-.99,2.06-1.6,2.93-2.59.42-.48.63-.78.79-1.09l.84.6c-.09.11-.12.14-.25.3-.66.78-1.88,1.92-2.99,2.79h2.43c.77,0,1.23-.03,1.58-.09v.99c-.48-.06-.95-.09-1.59-.09h-3.52c-.71.51-1.53,1.02-2.43,1.5q-.08.25-.12.45c3.12-.35,5.12-.72,5.85-1.1l.6.86c-1.7.4-3.75.72-6.71,1.04-.1.36-.24.7-.36,1.02h4.81c.95,0,1.29-.01,1.62-.06-.03.12-.06.36-.11.82-.13,1.28-.36,2.43-.57,2.91-.24.53-.66.71-1.63.71-.57,0-1.2-.04-2.39-.17-.03-.41-.06-.54-.19-.95.88.15,1.98.27,2.61.27.54,0,.72-.15.88-.69.15-.51.24-1.05.33-2.02h-5.71c-.09.24-.18.42-.48,1l-.99-.17c.74-1.32,1.19-2.33,1.5-3.39-1.21.6-2.49,1.14-3.87,1.65-.12-.31-.24-.51-.51-.84,2.43-.76,4.63-1.72,6.42-2.85h-4.5Z"/>
        <path d="M190,282.14h.15c1.44-.08,2.52-.2,4.43-.53q1.3-.24,1.54-.39s.15-.08.19-.08c.06,0,.21.11.39.32.22.24.46.58.46.66q-.02.18-.29.3c-.32.13-.58.39-3.75,3.52.55-.27.9-.36,1.33-.36.51,0,.84.17,1.07.51.24.36.33.76.43,1.86.12,1.28.39,1.52,1.62,1.52.71,0,1.53-.14,2.14-.35.12-.04.17-.04.23-.04s.09.06.13.24c.08.31.13.64.13.76,0,.11-.04.13-.27.18-.5.09-1.68.19-2.27.19s-1.18-.09-1.59-.22c-.33-.12-.63-.41-.79-.76-.15-.35-.22-.72-.29-1.43-.06-.84-.13-1.15-.33-1.41-.13-.2-.34-.3-.58-.3-.63,0-1.5.45-2.19,1.12-.46.47-1.46,1.58-1.88,2.12-.17.21-.22.3-.34.51-.04.11-.11.15-.17.15-.09,0-.2-.09-.41-.32-.25-.27-.42-.46-.42-.52s.03-.11.24-.27c.17-.12.42-.38.66-.64.9-.98,1.11-1.2,4.29-4.54.41-.44.77-.81,1.49-1.61q-.34.06-1.16.2c-.33.06-1.02.18-2.05.36-1.04.18-1.44.27-1.74.39-.17.06-.19.08-.25.08-.18,0-.34-.44-.46-1.23.12,0,.22,0,.29.02ZM192.15,278.36c.04-.1.09-.15.14-.15.09.01.21.04.36.1,1.05.38,2.28.63,3.64.76q.41.05.41.2c0,.21-.08.69-.1.79-.03.06-.08.09-.14.09-.21,0-1.24-.17-1.87-.3-1.01-.21-2.34-.62-2.57-.76-.03-.03-.04-.08-.04-.13,0-.08.09-.38.18-.6Z"/>
        <path d="M212.17,279.42c.96-.13,1.23-.18,1.63-.29.04-.01.08-.01.1-.01.09,0,.15.04.2.12.08.18.21.72.21.86s-.04.15-.32.15c-.93.01-1.8.22-2.56.64-1.79.96-3,2.96-3,4.89,0,1.42.81,2.45,2.38,3.04.58.22.96.32,1.65.39.1.02.15.06.15.17,0,.21-.07.62-.17.84-.04.11-.09.15-.19.15-.24,0-1.16-.24-1.74-.45-2.07-.75-3.1-2.13-3.1-4.18,0-1.32.46-2.56,1.35-3.67.48-.57.86-.9,1.77-1.51-5.43.93-6.27,1.09-6.97,1.42-.12.06-.19.08-.25.08-.13,0-.18-.04-.29-.23-.17-.3-.28-.63-.38-1.06.79-.03,1.08-.06,3.6-.44l5.92-.9Z"/>
        <path d="M222.12,284.85c-1.6,3.12-2.47,4.12-3.54,4.12-.83,0-1.38-.69-1.38-1.74,0-1.25.78-2.28,2.14-2.83.64-.27,1.25-.39,2.13-.41.74-1.5,1.14-2.38,1.77-3.81-2.17.11-2.62.15-3.27.36-.04.01-.08.01-.1.01-.11,0-.17-.06-.21-.2-.09-.28-.15-.57-.18-1,.34.04.71.06,1.05.06,1.4,0,2.96-.15,3.21-.3.12-.08.15-.09.23-.09.15,0,.31.12.52.39.18.22.27.39.27.48,0,.08-.06.15-.2.25-.1.08-.2.21-.33.46-.3.6-1.51,3.02-1.71,3.42,1.3.12,2.5.47,3.75,1.07.11-.51.18-1.14.18-1.63,0-.33-.01-.56-.04-.83.42.06.79.13,1.09.24.11.04.15.09.15.15,0,.08-.01.12-.09.33-.09.24-.12.44-.17.81-.04.52-.12.93-.22,1.39,1.21.69,2.08,1.35,2.08,1.58,0,.09-.17.39-.32.57-.11.12-.18.18-.24.18-.08,0-.15-.04-.25-.13-.6-.53-1-.84-1.58-1.22-.48,1.28-1.2,2.27-2.26,3.09-.58.45-1.44.96-1.65.96-.09,0-.15-.03-.26-.16-.19-.23-.38-.38-.63-.48,1.26-.54,1.91-.97,2.61-1.71.58-.62,1.05-1.39,1.33-2.22-1.2-.65-2.66-1.08-3.9-1.17ZM219.49,285.29c-.86.39-1.38,1.09-1.38,1.88,0,.48.21.83.5.83.33,0,.63-.24,1.05-.84.45-.62.84-1.26,1.36-2.24-.42,0-1.04.15-1.53.38Z"/>
        <path d="M237.09,278.07c.87.04,1.3.15,1.3.33,0,.06-.01.11-.06.23-.14.34-.21.9-.23,1.84,1-.11,1.79-.24,2.47-.44.18-.04.23-.06.26-.06.06,0,.09.04.16.21.08.2.15.51.15.6,0,.11-.01.11-.39.18-.88.18-1.68.3-2.67.4.01.32.01.58.01.74,0,.27,0,.76.01,1.47,1.28-.15,2.1-.33,3.17-.71.04-.01.06-.01.08-.01.06,0,.09.03.17.2.08.15.18.51.18.61,0,.08-.03.11-.3.2-.88.29-2.13.54-3.24.65.01.6.06,1.2.19,2.71,1.2.38,1.74.6,2.7,1.15.78.46,1.12.74,1.12.88,0,.11-.03.15-.2.39-.25.36-.31.42-.41.42-.06,0-.1-.03-.18-.09-.34-.33-1.04-.83-1.6-1.16-.45-.25-.74-.38-1.37-.62,0,.87-.06,1.17-.33,1.58-.39.57-1.17.87-2.31.87-1.61,0-2.59-.66-2.59-1.75,0-1.2,1.12-1.96,2.89-1.96.41,0,.74.03,1.32.1-.09-1.23-.14-1.75-.17-2.46-.32.02-.63.03-1,.03-1.07,0-2.16-.1-2.76-.27-.13-.03-.18-.08-.18-.18,0-.12.04-.39.13-.79,1.16.24,1.89.32,3.04.32.32,0,.48,0,.74-.03-.01-.36-.03-1.11-.04-2.22-.36.01-.58.01-.79.01-.84,0-2.04-.1-2.46-.21-.08-.01-.09-.06-.09-.27,0-.13.01-.36.06-.66,1,.18,1.7.24,2.61.24.19,0,.39,0,.66-.02,0-1.48,0-1.53-.07-2.46ZM235.92,287.82c-1.07,0-1.8.43-1.8,1.05,0,.57.58.88,1.63.88,1.21,0,1.69-.39,1.69-1.41,0-.06-.01-.36-.01-.36-.36-.11-.84-.17-1.51-.17Z"/>
        <path d="M18.81,304.79c.22.04.28.09.28.24,0,.08-.01.12-.04.23-.1.3-.18.82-.22,1.63-.08,1.42-.21,5.56-.21,6.57,0,1.67.51,2.28,1.92,2.28,1.02,0,2.02-.3,2.94-.88.93-.58,1.58-1.25,2.4-2.43.06.36.12.53.31.92.04.09.06.12.06.18,0,.31-.99,1.35-1.92,2.01-1.17.84-2.5,1.27-3.86,1.27-1.96,0-2.88-1.05-2.88-3.28,0-.38.12-6.36.15-7.26v-.44c0-.48-.01-.69-.08-1.17.48.03.88.08,1.14.14Z"/>
        <path d="M35.64,313.71c.92.24,1.98.75,2.97,1.41.46.3.58.42.58.55,0,.21-.39.72-.56.72-.06,0-.1-.03-.19-.11-.86-.72-1.88-1.33-2.76-1.63.02.13.02.21.02.33,0,1.16-.84,1.77-2.4,1.77-1.39,0-2.17-.54-2.17-1.48,0-1.07,1.05-1.79,2.61-1.79.31,0,.63.01,1,.06-.13-1.59-.2-2.89-.2-4.99,0-.51-.01-.77-.09-1.26.95.04,1.23.12,1.23.33,0,.06-.01.09-.04.17-.15.3-.19.75-.19,2.19,1.02-.04,1.69-.15,2.82-.44.09-.03.12-.03.15-.03.09,0,.12.03.17.19.04.18.1.48.1.54,0,.12-.06.17-.36.23-1.04.24-2.06.38-2.87.38.01.79.08,1.71.18,2.86ZM33.6,314.3c-.98,0-1.64.38-1.64.92,0,.46.42.71,1.25.71,1.11,0,1.58-.38,1.58-1.25,0-.1-.01-.25-.01-.25-.45-.09-.77-.12-1.17-.12Z"/>
        <path d="M50.56,315.87c0,.48-.39.87-.86.87s-.87-.39-.87-.87.38-.85.86-.85.87.38.87.85ZM50.11,313.59h-.84l-.25-8.91h1.36l-.27,8.91Z"/>
      </g>
      <g>
        <path d="M102.28,123.04c1.05-.3,1.84-.45,2.54-.45,1.84,0,2.96,1.17,2.96,3.13,0,2.19-1,3.76-3.17,5.01-.57.31-1.42.67-1.63.67-.15,0-.17-.02-.38-.25-.13-.17-.32-.33-.58-.48,3.13-1,4.68-2.61,4.68-4.88,0-1.5-.69-2.31-2-2.31-.97,0-2.8.61-3.78,1.29-.09.06-.17.09-.23.09-.2,0-.46-.42-.78-1.25.53-.06.93-.17,2.37-.58ZM102.86,119.21c1.06.36,2.64.66,3.58.66.12,0,.13.03.13.32,0,.24-.04.63-.08.7-.03.04-.09.08-.17.08-.78,0-2.77-.42-3.84-.81-.46-.17-.51-.19-.51-.29,0-.07.09-.33.18-.55.09-.2.12-.24.21-.24.08,0,.15.02.48.14Z"/>
        <path d="M117.73,124.69c3.01,0,5.65-.04,6.5-.12h.09c.13,0,.19.1.19.38,0,.71-.03.81-.21.81h-.07c-.3-.03-1.65-.04-2.69-.04-.22,0-3.97.02-5.25.03-1.51,0-2.02.03-2.88.14-.04.02-.09.02-.12.02-.09,0-.15-.05-.18-.14-.08-.25-.1-.57-.15-1.21.94.12,2.05.15,4.77.15Z"/>
        <path d="M133.56,119.92c0,.06-.02.09-.18.25-.42.42-1.5,2.29-3.22,5.61-.12.24-.22.42-.69,1.2,1.06-1.4,1.98-1.96,3.18-1.96.99,0,1.6.51,1.84,1.54.08.31.12.75.24,2.07.03.46.09.77.19.96.17.31.48.48.93.48.78,0,1.51-.46,2.19-1.36.29-.39.46-.72.81-1.44.04.4.07.52.28.9.06.12.09.19.09.3,0,.2-.23.62-.57,1.05-.81,1.02-1.75,1.53-2.87,1.53-1,0-1.6-.36-1.88-1.12-.15-.38-.21-.83-.3-1.95-.08-.93-.13-1.19-.3-1.53-.17-.36-.5-.55-.92-.55-1.32,0-2.79,1.41-3.72,3.55-.18.42-.32.78-.48,1.33-.04.15-.09.19-.17.19-.27,0-.94-.34-.94-.49,0-.02.1-.26.27-.63q.17-.31.75-1.72c.57-1.33,1.8-3.9,2.79-5.85,1.07-2.07,1.21-2.4,1.42-3.13.71.27,1.23.6,1.23.78Z"/>
        <path d="M141.27,128.39c.17-.18.2-.2.27-.2.18,0,1.17.72,1.74,1.26.57.55,1.4,1.57,1.4,1.74,0,.08-.05.14-.35.42-.29.27-.34.31-.42.31-.04,0-.09-.03-.15-.12-.81-1.29-1.7-2.21-2.76-2.82-.07-.04-.1-.09-.1-.15s.01-.09.38-.45Z"/>
        <path d="M158.69,120.91c-.67,1.08-1.41,1.92-2.46,2.83-.21-.33-.38-.52-.65-.75,1.32-.99,2.22-2.1,2.91-3.57.24-.51.34-.79.39-1.02l1.02.25q-.23.41-.57,1.11c-.03.06-.09.15-.17.3h7.17c.84,0,1.3-.03,1.82-.1v1.03c-.57-.06-1.05-.09-1.82-.09h-7.65ZM157.9,129.74c-.1.33-.13.44-.3.92l-.99-.1c.55-1.46.87-2.59,1.17-4.23h-.81c-.71,0-1.02.01-1.38.07v-.99c.34.07.72.09,1.42.09h.9c.2-1.19.3-2.28.3-2.97,0-.14,0-.18-.02-.35.06.02.12.02.15.02q.21.03.94.04h6.21c.5,0,.81-.02,1.19-.06-.04.33-.06.46-.09,1.05-.05.95-.08,1.41-.14,2.27h.79c.63,0,1-.02,1.33-.08v.98c-.38-.06-.73-.07-1.35-.07h-.86c-.09,1.06-.18,1.86-.3,2.59h.45c.67,0,.97-.02,1.32-.08v.98c-.41-.06-.67-.08-1.33-.08h-.58c-.2,1.01-.3,1.32-.54,1.58-.27.28-.6.38-1.33.38-.39,0-.78-.02-1.42-.08,0-.38-.04-.61-.18-.99.81.12,1.23.17,1.68.17.36,0,.55-.1.66-.33.08-.15.11-.29.2-.72h-7.09ZM161.02,128.92q.3-1.47.46-2.59h-2.79c-.18,1.02-.31,1.63-.57,2.59h2.9ZM161.59,125.5q.12-.9.26-2.43h-2.71c-.12,1.14-.17,1.57-.3,2.43h2.76ZM162.37,126.32q-.15,1.05-.43,2.59h3.22c.11-.72.22-1.62.32-2.59h-3.11ZM165.55,125.5q0-.12.02-.31c.04-.54.04-.69.1-2.11h-2.94c-.12,1.38-.12,1.47-.25,2.43h3.07Z"/>
        <path d="M171.9,120.86c0-.57-.03-1-.08-1.42.46.06.88.07,1.54.07h6.46c.67,0,1.08-.02,1.5-.07-.06.42-.08.78-.08,1.33v9.22c0,.7.02,1.05.09,1.54h-1.06v-.95h-7.41v.95h-1.06c.06-.42.09-.89.09-1.53v-9.15ZM172.87,124.42h7.41v-4.02h-7.41v4.02ZM172.87,129.71h7.41v-4.41h-7.41v4.41Z"/>
        <path d="M190.69,129.8s.03.06.03.09c0,.1-.61.42-.84.42-.09,0-.13-.08-.34-.68-.93.75-1.81,1.11-2.66,1.11-.97,0-1.56-.68-1.56-1.77,0-1.25.6-2.42,1.79-3.45.57-.49,1.12-.87,1.75-1.15,0-.6.01-1.46.04-2.22-.81.04-1.75.07-2.47.07-.15,0-.2-.01-.23-.1-.03-.06-.06-.45-.06-.65v-.18c.6.04.87.06,1.3.06.39,0,.83-.02,1.5-.05.06-.99.09-1.56.09-1.69,0-.18,0-.23-.01-.4.48.03.88.07,1.14.13.09.02.13.08.13.15,0,.05-.03.12-.07.21-.15.27-.23.69-.3,1.53,1.77-.18,3.03-.39,4.05-.67.26-.08.35-.09.36-.09.04,0,.08.03.08.12.03.19.06.56.06.75,0,.09-.03.1-.71.24-1.29.24-2.41.39-3.9.51-.04.67-.08,1.47-.08,1.9.81-.27,1.54-.39,2.38-.4.11-.42.14-.71.15-1.1.85.2,1.14.3,1.14.44,0,.06-.01.08-.12.25-.06.12-.1.24-.18.47.81.12,1.44.34,1.95.72.93.66,1.46,1.73,1.46,2.91,0,1.68-1.08,3.01-3.12,3.87-.44.18-.96.34-1.12.34-.12,0-.21-.04-.29-.15-.21-.3-.33-.39-.66-.6,1.14-.26,1.7-.45,2.38-.85,1.19-.71,1.79-1.62,1.79-2.72,0-1.5-1-2.58-2.61-2.8-.63,1.84-1.5,3.36-2.59,4.51.1.38.22.69.34.92ZM188.88,125.29c-1.54.9-2.59,2.32-2.59,3.54,0,.58.32.96.79.96.58,0,1.44-.45,2.21-1.16-.22-.99-.36-2.04-.41-3.34ZM190.08,127.81c.88-1.08,1.5-2.19,1.91-3.46-.74.04-1.46.21-2.19.49.03,1.17.11,2.01.29,2.97Z"/>
        <path d="M202.89,119.35s0-.15-.02-.25c.6.09.95.17,1.21.27.09.03.12.09.12.17q-.01.1-.17.4t-.42,1.79c.71-.14,1.65-.36,2.05-.5.04-.02.06-.02.09-.02.06,0,.07.02.1.09.04.18.13.61.13.7,0,.12-.01.15-.12.17-.01,0-.06.02-.13.05-.43.1-1.75.38-2.33.46-.49,2.4-1.17,4.63-2.08,6.84-.47,1.14-.62,1.42-.74,1.42-.09,0-.44-.15-.71-.31-.12-.08-.17-.12-.17-.2,0-.06.03-.12.08-.21.24-.4.51-.94.76-1.57.81-1.94,1.26-3.39,1.82-5.8-.78.1-1.92.19-2.52.19-.22,0-.27-.02-.3-.15-.06-.21-.09-.48-.12-.81q.58.02.66.02c.58,0,1.65-.09,2.47-.21.23-1.19.3-1.85.3-2.54ZM208.47,130.01c.72,0,1.19-.04,2.07-.21q.09-.01.18-.01c.17,0,.2.04.23.36.01.09.01.17.03.24.02.1.03.23.03.29,0,.13-.06.19-.2.23-.46.09-1.53.17-2.26.17-1.44,0-2.35-.24-3-.75-.39-.31-.69-.75-.9-1.31-.05-.12-.08-.25-.08-.31,0-.12.04-.15.76-.54.44,1.38,1.25,1.86,3.13,1.86ZM206.36,124.46s-.06.02-.08.02c-.09,0-.15-.04-.17-.13-.03-.1-.06-.44-.06-.66,0-.13.04-.18.18-.21.88-.18,1.95-.27,3.15-.27.86,0,1.25.03,1.29.12.03.04.04.13.04.39,0,.47-.03.57-.18.57h-.08c-.71-.08-1.07-.09-1.42-.09-.86,0-1.83.1-2.68.27Z"/>
        <path d="M218.2,119.81s-.03.1-.09.21c-.11.17-.18.33-.23.48-.09.38-.24,1.23-.31,1.8-.08.58-.11,1.12-.17,2.26-.01.27-.01.36-.03.54.02-.03.03-.04.03-.04.06-.07.06-.09.17-.27q.06-.12.29-.48c.03-.06.25-.45.67-1.15.06.23.12.33.29.58.03.04.04.1.04.17q0,.09-.36.69c-.41.67-.69,1.32-.88,1.98-.06.24-.12.25-.57.25-.25,0-.42-.03-.46-.08-.06-.06-.09-.76-.09-1.86,0-1.51.08-2.46.34-4.2.11-.66.14-.9.14-1.35.76.12,1.23.29,1.23.47ZM222.54,119.78c.41,0,.48.04.48.29v.31c0,.27.02.67.04,1.3.06.84.08,1.47.08,2.13,0,2.72-.58,4.59-1.96,6.21-.58.69-1.3,1.31-1.53,1.31-.03,0-.06,0-.16-.08,0,0-.03-.02-.08-.03-.02-.02-.04-.03-.08-.05-.33-.19-.43-.24-.66-.31,1.26-.84,2-1.66,2.59-2.85.62-1.23.87-2.44.87-4.21s-.15-3.3-.39-3.96c.41-.04.58-.06.79-.06Z"/>
        <path d="M233.82,118.87c.87.04,1.3.15,1.3.33,0,.06-.01.1-.06.23-.13.34-.21.9-.22,1.84,1-.1,1.79-.24,2.47-.44.18-.04.23-.06.26-.06.06,0,.09.04.16.21.08.19.15.51.15.6,0,.1-.01.1-.39.18-.88.18-1.68.3-2.67.4.01.32.01.58.01.74,0,.27,0,.76.01,1.47,1.28-.15,2.1-.33,3.17-.71.04-.01.06-.01.08-.01.06,0,.09.03.17.19.08.15.18.51.18.61,0,.08-.03.1-.3.2-.88.28-2.13.54-3.24.65.01.6.06,1.2.19,2.71,1.2.38,1.74.6,2.7,1.15.78.46,1.12.73,1.12.88,0,.11-.03.15-.2.39-.25.36-.31.42-.41.42-.06,0-.1-.03-.18-.09-.34-.33-1.04-.83-1.6-1.15-.45-.26-.74-.38-1.37-.62,0,.87-.06,1.17-.33,1.58-.39.57-1.17.87-2.31.87-1.61,0-2.59-.66-2.59-1.75,0-1.2,1.12-1.96,2.89-1.96.41,0,.74.03,1.32.1-.09-1.23-.14-1.75-.17-2.46-.32.02-.63.03-1,.03-1.07,0-2.16-.1-2.76-.27-.13-.03-.18-.08-.18-.18,0-.12.04-.39.13-.79,1.16.24,1.89.31,3.04.31.32,0,.48,0,.74-.03-.01-.36-.03-1.11-.04-2.22-.36.02-.58.02-.79.02-.84,0-2.04-.1-2.46-.21-.08-.02-.09-.06-.09-.27,0-.13.01-.36.06-.66,1,.18,1.7.24,2.61.24.19,0,.39,0,.66-.02,0-1.48,0-1.53-.07-2.46ZM232.65,128.62c-1.07,0-1.8.44-1.8,1.05,0,.57.58.88,1.63.88,1.21,0,1.69-.39,1.69-1.41,0-.06-.01-.36-.01-.36-.36-.1-.84-.17-1.51-.17Z"/>
        <path d="M244.57,122.93h.15c1.44-.08,2.52-.19,4.43-.52q1.3-.24,1.54-.39s.15-.07.19-.07c.06,0,.21.1.39.31.22.24.46.58.46.66q-.02.18-.29.3c-.32.13-.58.39-3.75,3.52.55-.27.9-.36,1.33-.36.51,0,.84.17,1.07.51.24.36.33.76.43,1.86.12,1.27.39,1.52,1.62,1.52.71,0,1.53-.14,2.14-.35.12-.04.17-.04.23-.04s.09.06.13.24c.08.31.13.65.13.77,0,.1-.04.13-.27.18-.5.09-1.68.19-2.27.19s-1.18-.09-1.59-.23c-.33-.12-.63-.4-.79-.76-.15-.35-.22-.72-.29-1.43-.06-.84-.13-1.15-.33-1.41-.13-.2-.34-.3-.58-.3-.63,0-1.5.45-2.19,1.12-.46.46-1.46,1.58-1.88,2.12-.17.21-.22.3-.34.51-.04.1-.11.15-.17.15-.09,0-.2-.09-.41-.31-.25-.27-.42-.46-.42-.52s.03-.1.24-.27c.17-.12.42-.38.66-.65.9-.98,1.11-1.2,4.29-4.54.41-.44.77-.81,1.49-1.6q-.34.06-1.16.2c-.33.06-1.02.18-2.05.36s-1.44.27-1.74.39c-.17.06-.19.07-.25.07-.18,0-.34-.44-.46-1.23.12,0,.22,0,.29.02ZM246.72,119.15c.04-.1.09-.15.14-.15.09.01.21.04.36.1,1.05.38,2.28.63,3.64.76q.41.05.41.2c0,.21-.08.69-.1.79-.03.06-.08.09-.14.09-.21,0-1.24-.17-1.87-.3-1.01-.21-2.34-.62-2.57-.77-.03-.03-.04-.07-.04-.13,0-.08.09-.38.18-.6Z"/>
        <path d="M262.66,126.76c-.87,1.98-1.86,2.97-2.99,2.97-.66,0-1.27-.38-1.69-1.02-.38-.56-.6-1.48-.6-2.43,0-1.92.89-3.67,2.42-4.75,1.08-.77,2.37-1.16,3.86-1.16,3.27,0,5.43,1.98,5.43,4.98,0,1.98-.93,3.58-2.76,4.74-.65.42-1.62.85-1.88.85-.09,0-.15-.04-.25-.18-.18-.24-.38-.4-.66-.57,1.15-.35,1.71-.57,2.35-.99,1.4-.93,2.16-2.31,2.16-3.9s-.84-3-2.29-3.66c-.51-.24-.95-.34-1.7-.39-.25,2.11-.72,3.96-1.39,5.5ZM260.98,121.87c-1.62.81-2.62,2.5-2.62,4.47,0,1.35.55,2.31,1.35,2.31.63,0,1.3-.75,1.95-2.19.67-1.52,1.15-3.31,1.37-5.15-.78.08-1.41.24-2.04.56Z"/>
        <path d="M277.95,122.6c1.12-.03,2.77-.27,3.75-.57.03,0,.08-.02.14-.02.08,0,.12.06.18.25.06.21.13.53.13.63s-.09.13-.71.27c-1.18.24-2.47.39-3.48.39.03,1.16.08,2.01.22,3.83,1.58.45,2.57.91,3.79,1.78.62.44.81.62.81.69,0,.21-.46.87-.62.87-.04,0-.09-.03-.17-.09-.32-.3-.93-.75-1.56-1.15-.79-.51-1.28-.73-2.19-1.06v.45c0,1.51-1.04,2.32-2.96,2.32-1.75,0-2.76-.71-2.76-1.9,0-1.35,1.26-2.17,3.3-2.17.44,0,.83.03,1.37.09-.18-2.4-.22-3.6-.24-6.4-.01-.65-.03-1.09-.09-1.73.45.03.83.09,1.16.18.12.03.18.1.18.19,0,.06-.01.1-.08.23-.15.3-.19.89-.19,2.22v.71ZM275.7,128.03c-1.31,0-2.21.5-2.21,1.22,0,.63.62.97,1.7.97,1.38,0,2.07-.51,2.07-1.54q0-.48-.01-.48c-.62-.12-1.09-.17-1.54-.17Z"/>
        <path d="M290.27,123.04c1.05-.3,1.84-.45,2.54-.45,1.84,0,2.96,1.17,2.96,3.13,0,2.19-1,3.76-3.17,5.01-.57.31-1.42.67-1.63.67-.15,0-.17-.02-.38-.25-.13-.17-.32-.33-.58-.48,3.13-1,4.68-2.61,4.68-4.88,0-1.5-.69-2.31-2-2.31-.97,0-2.8.61-3.78,1.29-.09.06-.17.09-.23.09-.2,0-.46-.42-.78-1.25.53-.06.93-.17,2.37-.58ZM290.84,119.21c1.06.36,2.64.66,3.58.66.12,0,.13.03.13.32,0,.24-.04.63-.08.7-.03.04-.09.08-.17.08-.78,0-2.77-.42-3.84-.81-.46-.17-.51-.19-.51-.29,0-.07.09-.33.18-.55.09-.2.12-.24.21-.24.08,0,.15.02.48.14Z"/>
        <path d="M303.27,127.91q.35-.79.44-.99c.06.2.13.33.31.6.04.06.06.12.06.18,0,.09-.02.15-.21.57-.27.63-.66,1.8-.77,2.32-.03.18-.06.26-.1.3-.04.03-.32.06-.62.06-.19,0-.27-.05-.31-.21-.33-1.26-.48-2.55-.48-4.02,0-1.54.18-3.19.54-4.99.13-.68.18-1.04.22-1.68.78.17,1.28.38,1.28.52,0,.04-.03.12-.11.25-.15.24-.22.47-.36.99-.45,1.89-.66,3.43-.66,4.93,0,.78.04,1.56.15,2.52l.61-1.36ZM309.35,129.34c.79,0,1.33-.08,2.47-.31.03-.02.06-.02.09-.02.08,0,.11.03.12.1.03.1.11.71.11.85,0,.1-.03.14-.32.18-.63.13-1.63.23-2.32.23-1.58,0-2.46-.23-3.15-.81-.36-.3-.81-.92-.81-1.11,0-.1.31-.36.72-.58.52,1.05,1.39,1.47,3.09,1.47ZM306.73,121.33c.44.06,1.17.1,1.73.1.94,0,1.93-.09,2.76-.24q.06-.02.1-.02c.08,0,.11.03.12.1.03.1.06.51.06.73,0,.14-.03.18-.2.21-.66.1-1.89.2-2.79.2-.84,0-1.83-.08-2.13-.15-.08-.01-.09-.06-.1-.18v-.24c0-.39.06-.55.19-.55.04,0,.14.01.25.03Z"/>
        <path d="M318.38,123.31c-.86.1-1.65.15-2.38.15-.21,0-.29-.03-.32-.12-.01-.12-.06-.36-.12-.79.24.02.38.02.53.02.76,0,1.37-.04,2.29-.15,0-1.65-.03-2.28-.17-2.91.42.03.75.08,1.02.12.25.04.33.09.33.2,0,.07,0,.09-.1.31-.12.28-.2,1.08-.2,2.14.66-.1,1.79-.38,2.37-.55t.12-.02c.06,0,.09.03.12.19.04.18.09.47.09.56,0,.1-.04.17-.15.19-.69.2-1.41.36-2.55.54v2.69c1.56-.65,2.89-.96,4.08-.96,1.74,0,2.8,1.05,2.8,2.76,0,1.88-1.17,2.98-3.12,2.98-.51,0-1.12-.09-1.39-.19-.12-.04-.17-.12-.2-.29-.04-.31-.1-.48-.24-.79.6.25,1.16.38,1.74.38,1.35,0,2.17-.79,2.17-2.11,0-1.19-.69-1.86-1.88-1.86s-2.44.34-3.97,1.03v2.71c.01.85-.41,1.37-1.12,1.37-.64,0-1.42-.35-2-.89-.38-.34-.54-.7-.54-1.15,0-.83.78-1.56,2.76-2.56v-1.25l.02-1.74ZM318.36,127.27c-1.36.73-1.84,1.15-1.84,1.6,0,.49.74,1.02,1.42,1.02.29,0,.42-.21.42-.65v-1.98ZM326.77,124.04c-.06,0-.09-.01-.3-.24-.58-.63-1.56-1.21-2.42-1.47-.22-.07-.29-.1-.29-.17,0-.04.09-.19.3-.49.11-.15.15-.18.26-.18.31,0,1.32.42,1.95.81s1.14.85,1.14,1.02c0,.15-.5.72-.65.72Z"/>
        <path d="M102.14,149.95c-.62,0-.95.01-1.35.07v-.87c-.99.64-1.54.94-2.62,1.41-.18-.38-.27-.5-.6-.85,2.8-1.07,4.89-2.62,6.08-4.56h1.09c.62.94,1.39,1.72,2.58,2.59,1.21.87,2.31,1.44,3.78,1.93-.24.29-.4.57-.57.93-1.14-.48-1.74-.79-2.83-1.48v.9c-.39-.06-.71-.07-1.32-.07h-1.75v1.96h4.02c.63,0,1-.02,1.41-.09v1c-.41-.06-.84-.09-1.42-.09h-4v3.81h4.21c.64,0,1.14-.03,1.59-.09v1.05c-.45-.08-1.02-.11-1.6-.11h-9.06c-.56,0-1.07.03-1.65.11v-1.05c.5.06,1,.09,1.65.09h3.93v-3.81h-3.74c-.55,0-1.02.03-1.41.09v-1c.42.06.79.09,1.41.09h3.74v-1.96h-1.54ZM100.82,153.19c.53.86.84,1.52,1.26,2.61l-.83.33c-.36-1.02-.73-1.79-1.26-2.57l.83-.38ZM106.36,149.15c.58,0,.95-.02,1.26-.06-1.53-1.02-2.52-1.93-3.42-3.13-.9,1.25-1.9,2.19-3.33,3.13.27.04.69.06,1.23.06h4.26ZM108.45,153.59c-.66,1.33-.9,1.75-1.53,2.67l-.81-.32c.6-.79,1.04-1.6,1.44-2.73l.9.38Z"/>
        <path d="M121.33,150.62c1.33-.69,1.65-.9,2.16-1.35.36.41.74.96.74,1.11,0,.11-.08.18-.26.22-.75.23-3.01,1.25-4.29,1.95.03.54.04,1.33.04,1.83,0,.57,0,.63-.06.67-.07.06-.33.09-.64.09-.25,0-.3-.03-.3-.22,0-.12,0-.32.01-.6.01-.15.01-.38.01-.71v-.57s-.06.04-.13.09c-1.68.9-2.31,1.54-2.31,2.33s.78,1.12,2.62,1.12c1.32,0,3.12-.17,3.75-.33.03-.01.06-.01.09-.01.09,0,.15.06.18.21.03.13.06.49.06.7s-.03.24-.38.27c-.7.08-2.38.13-3.49.13-1.31,0-2.07-.1-2.67-.36-.78-.35-1.16-.9-1.16-1.71,0-1.22.71-1.94,3.36-3.44-.15-.88-.44-1.25-.99-1.25-.69,0-1.41.27-2.28.84-.63.42-.97.7-1.42,1.15-.09.09-.18.13-.25.13-.17,0-.62-.58-.62-.79,0-.06.04-.12.18-.21.28-.19.72-.54,1.05-.84.97-.87,1.62-1.69,2.23-2.82-.88.06-1.88.1-2.65.1-.2,0-.25-.04-.3-.21-.04-.21-.07-.43-.07-.78.54.03.9.04,1.51.04.51,0,1.39-.04,1.96-.11.39-.92.51-1.39.54-2.12.87.14,1.26.29,1.26.48,0,.06-.01.08-.12.24q-.15.21-.58,1.27c1.25-.18,1.52-.24,2.73-.54.13-.03.22-.04.25-.04.08,0,.12.04.15.15.04.17.09.5.09.63,0,.17-.05.18-.5.27-1.53.29-1.77.32-3.18.48-.54,1.08-.99,1.72-1.77,2.56.79-.51,1.35-.71,2.01-.71.92,0,1.41.47,1.65,1.54l1.77-.94Z"/>
        <path d="M128.13,151.57c0-.7,0-.93.04-1.74-.35.72-.66,1.23-1.29,2.07-.18-.34-.32-.54-.57-.79.99-1.12,1.8-2.55,2.4-4.2.34-.92.43-1.26.55-2.04l.99.25c-.11.29-.14.41-.27.78-.33,1.02-.51,1.51-.97,2.53v7.88c0,.66.03,1.18.08,1.7h-1.05c.08-.56.09-.98.09-1.73v-4.71ZM131.9,152.59c-.53,0-.87.01-1.26.06.03-.36.04-.6.04-.97v-1.98c0-.51,0-.65-.04-1.01.4.05.57.05,1.3.05h2.34v-.86s.01-.57.01-.57h-2.71c-.63,0-.93.02-1.33.08v-.97c.39.06.86.09,1.38.09h2.67c0-.87-.03-1.17-.1-1.65h1.05c-.06.39-.08.75-.08,1.65h3.04c.57,0,1.02-.03,1.42-.09v.97c-.42-.06-.72-.08-1.35-.08h-3.12v.42c0,.06,0,.23-.01.5v.51h2.32c.65,0,.99-.02,1.35-.05-.03.35-.04.68-.04,1.08v1.74c0,.6.01.85.04,1.14-.39-.04-.77-.06-1.42-.06h-2.5c-.18,1.09-.39,1.75-.79,2.38,1.51,1.05,3.28,1.63,5.65,1.89-.18.27-.34.62-.45.95-2.32-.38-4.17-1.08-5.7-2.17-.87,1-1.82,1.62-3.54,2.28-.18-.36-.33-.57-.55-.79,1.67-.55,2.7-1.14,3.46-1.98-.5-.43-.6-.55-1.11-1.18-.15-.18-.29-.33-.38-.44l.81-.46c.2.42.58.9,1.16,1.42.29-.54.44-1.02.58-1.89h-2.14ZM131.57,149.54v2.25h2.58c.06-.63.09-1.19.12-2.25h-2.7ZM135.12,149.54c-.03,1.04-.06,1.65-.12,2.25h2.88v-2.25h-2.76Z"/>
        <path d="M144.78,150.74c1.95-.58,2.85-.75,4.09-.75.9,0,1.7.25,2.24.72.55.5.88,1.25.88,2.01,0,1.2-.53,2.19-1.58,2.94-.67.48-1.69.88-2.8,1.14-.42.09-.86.15-1.05.15q-.13,0-.25-.28c-.09-.21-.23-.41-.41-.58,1.54-.21,2.37-.42,3.29-.89,1.14-.57,1.77-1.42,1.77-2.43,0-1.17-.84-1.9-2.19-1.9-1.11,0-2.62.36-4.2,1-.55.22-.81.36-1.06.55-.09.06-.15.09-.2.09-.2,0-.5-.48-.74-1.2.54-.09.86-.18,2.21-.57Z"/>
        <path d="M165.52,146.47c.96-.13,1.23-.18,1.63-.29.04-.01.08-.01.1-.01.09,0,.15.04.2.12.08.18.21.72.21.85s-.04.15-.32.15c-.93.01-1.8.22-2.56.64-1.79.96-3,2.96-3,4.89,0,1.42.81,2.44,2.38,3.04.58.22.96.31,1.65.39.1.01.15.06.15.17,0,.21-.07.62-.17.84-.04.11-.09.15-.19.15-.24,0-1.16-.24-1.74-.45-2.07-.75-3.1-2.13-3.1-4.18,0-1.32.46-2.57,1.35-3.68.48-.57.86-.9,1.77-1.51-5.43.93-6.27,1.09-6.97,1.42-.12.06-.19.08-.25.08-.13,0-.18-.04-.29-.22-.17-.3-.28-.63-.38-1.07.79-.03,1.08-.06,3.6-.43l5.92-.9Z"/>
        <path d="M172.57,147.37s0,.03-.04.13c-.13.34-.2,1.12-.2,2.42,0,3.58.66,5.92,1.68,5.92.64,0,1.32-.95,1.81-2.52.13.41.29.71.48.92.07.09.09.12.09.18,0,.12-.09.34-.25.72-.56,1.17-1.32,1.81-2.13,1.81-.99,0-1.74-.82-2.21-2.41-.33-1.17-.51-2.94-.51-5,0-.32,0-.74.01-1.25v-.38c0-.43-.01-.72-.08-1.05,1.04.18,1.33.3,1.33.5ZM179.71,148.51c.27,0,1.07.95,1.61,1.93.43.78.73,1.56.97,2.55.09.34.15.63.15.73,0,.09-.05.15-.2.23-.2.09-.71.25-.81.25-.06,0-.09-.04-.1-.12-.41-2.42-1.02-3.72-2.4-5.17.32-.23.68-.41.78-.41Z"/>
        <path d="M188.1,146.38c.43,0,1.98-.15,3.37-.33.8-.1.92-.13,1.25-.3.12-.06.17-.08.23-.08.13,0,.3.17.64.66.12.18.18.32.18.41,0,.1-.03.12-.28.3q-.23.15-1.74,1.75c-.25.27-.93.99-1.89,1.98-.51.54-.62.63-1.12,1.19.73-.6,1.12-.83,1.78-1.07.62-.24,1.23-.34,1.85-.34,2.11,0,3.49,1.29,3.49,3.22,0,.98-.34,1.82-.99,2.46-.89.87-2.24,1.35-3.78,1.35-1.02,0-1.77-.23-2.23-.69-.29-.29-.45-.67-.45-1.09,0-.96.84-1.63,2.01-1.63,1.23,0,2.1.69,2.64,2.08.72-.38,1.07-.66,1.38-1.19.23-.38.36-.87.36-1.35,0-1.44-.99-2.31-2.64-2.31-1.79,0-4.02,1.2-5.34,2.88-.12.15-.18.2-.25.2-.18,0-.81-.64-.81-.83,0-.06.04-.12.13-.18.3-.21.35-.25,1.05-.93,1.92-1.88,2.89-2.94,5.16-5.7-3.01.41-3.99.54-4.3.65-.09.03-.12.03-.15.03-.16,0-.33-.51-.39-1.2.29.03.65.06.86.06ZM190.33,155.02c-.63,0-1.04.3-1.04.76,0,.58.68.98,1.67.98.44,0,.72-.03,1.16-.15-.38-1.08-.96-1.59-1.79-1.59Z"/>
        <path d="M202.11,146.06c.18.07.22.1.22.19q0,.06-.13.39c-.39.96-.72,3.37-.72,5.35,0,1.2.04,2.07.18,3.17q.46-1.05.96-2.1c.04.25.09.35.27.58.03.04.06.11.06.17s-.03.17-.09.29c-.42.9-.67,1.7-.83,2.47-.01.11-.03.15-.08.17-.09.03-.45.06-.67.06-.1,0-.17-.03-.2-.15-.3-1-.54-2.97-.54-4.48s.12-2.94.39-4.71c.13-.83.17-1.21.18-1.7.44.09.75.18.99.3ZM207.96,145.63h.2c.27,0,1,.06,1.09.08.09.03.13.08.13.15q0,.06-.06.22c-.06.17-.09.52-.09.92,0,.21,0,.25.06,1.5.53-.06.54-.08,1.93-.41.06-.01.09-.01.11-.01.08,0,.1.03.12.1.04.2.08.54.08.72,0,.09-.02.11-.12.14-.72.15-1.61.31-2.08.38.01.25.01.5.01.88,0,1.8-.08,2.62-.33,3.69-.38,1.53-1.14,2.73-2.35,3.62-.12.08-.21.12-.29.12-.11,0-.12-.02-.33-.17-.17-.12-.38-.21-.71-.33,1.17-.69,1.79-1.33,2.28-2.33.52-1.05.75-2.34.75-4.21,0-.33-.02-.73-.03-1.17-.83.08-1.67.12-2.5.12s-.93-.01-.96-.15c-.08-.22-.11-.51-.11-.82.66.04,1.04.06,1.54.06.68,0,1.25-.03,2-.09-.12-2.05-.17-2.4-.34-3Z"/>
        <path d="M218.71,145.73c.15.03.23.09.23.18,0,.04-.02.09-.03.18-.06.2-.09.62-.09,1.04,0,.57.1,1.68.21,2.24.13.7.31.96.69.96.33,0,.77-.17,2.03-.79.31-.17.45-.24.73-.45.05-.02.06-.03.11-.03.17,0,.69.81.69,1.07,0,.09-.07.15-.25.19-.54.12-1.46.45-2.31.79-2.64,1.08-3.99,2.33-3.99,3.65,0,1.11.93,1.59,3.08,1.59,1.12,0,2.26-.09,3.5-.29.06-.01.1-.01.12-.01.09,0,.15.04.18.12.04.09.09.53.09.78,0,.17-.04.22-.22.25-.58.08-2.26.17-3.29.17-1.16,0-2.1-.1-2.71-.31-1.17-.38-1.75-1.11-1.75-2.25,0-.81.32-1.56.97-2.28.56-.62,1.05-.97,2.19-1.6-.67-.27-.87-.96-1.11-3.88-.06-.69-.09-.95-.19-1.38.51,0,.82.03,1.15.09ZM222.88,146.95s.08-.04.12-.09c.21-.14.27-.18.34-.18.11,0,.33.2.71.58.36.36.79.95.79,1.05,0,.08-.06.14-.25.29-.21.17-.33.24-.38.24s-.08-.03-.13-.12c-.34-.62-.69-1.05-1.2-1.51-.06-.04-.09-.09-.09-.12,0-.04.03-.08.09-.13ZM224.64,145.81c.13.02.63.48,1.02.99.34.42.4.53.4.63,0,.09-.04.13-.34.33-.18.12-.22.13-.27.13-.06,0-.09-.03-.12-.1-.25-.51-.69-1.04-1.21-1.5-.04-.03-.06-.04-.06-.08,0-.1.45-.42.58-.41Z"/>
        <path d="M228.03,154.64c.17-.18.2-.2.27-.2.18,0,1.17.72,1.74,1.26.57.55,1.4,1.57,1.4,1.74,0,.08-.05.14-.35.42-.29.27-.34.32-.42.32-.04,0-.09-.03-.15-.12-.81-1.29-1.7-2.21-2.76-2.82-.07-.04-.1-.09-.1-.15s.01-.09.38-.45Z"/>
        <path d="M245.62,146.09c.92,0,3.03-.19,4.05-.36.33-.06.65-.14.86-.23.12-.04.17-.06.22-.06.12,0,.3.13.6.48.2.21.24.29.24.38s-.08.18-.24.29c-.21.13-.28.2-.51.45-.72.79-2.02,2.1-2.87,2.85-.79.71-1.26,1.08-2.29,1.83,2.29-.75,4.32-1.28,6.79-1.75.46-.09.87-.18,1.12-.25.25-.06.29-.06.33-.06.09,0,.15.05.2.14.09.19.18.57.18.76,0,.08-.03.13-.09.17s-.06.03-.84.1c-1.17.09-2.16.47-3.12,1.14-1.2.84-1.83,1.77-1.83,2.7,0,.83.56,1.4,1.71,1.71.54.17,1,.23,1.67.24.13,0,.18.04.18.18,0,.27-.06.74-.1.84-.03.06-.11.07-.25.07-.81,0-1.79-.21-2.49-.55-1.11-.52-1.65-1.3-1.65-2.37,0-.73.27-1.46.81-2.11.41-.51.75-.81,1.6-1.38-3.01.79-5.35,1.6-6.03,2.11-.04.02-.1.04-.13.04-.2,0-.57-.61-.57-.9,0-.12.04-.15.23-.21.43-.15.61-.24,1.05-.57.76-.57,1.89-1.51,2.77-2.37.95-.88,1.53-1.51,2.68-2.88-3.15.44-3.61.51-4.03.63-.21.08-.3.09-.36.09-.09,0-.17-.05-.19-.17-.11-.29-.17-.63-.21-.99.15.01.3.01.53.01Z"/>
        <path d="M261.34,149.29c1.05-.3,1.84-.45,2.54-.45,1.84,0,2.96,1.17,2.96,3.13,0,2.19-1,3.76-3.17,5.01-.57.32-1.42.67-1.63.67-.15,0-.17-.01-.38-.25-.13-.17-.32-.33-.58-.48,3.13-1,4.68-2.61,4.68-4.88,0-1.5-.69-2.31-2-2.31-.97,0-2.8.61-3.78,1.29-.09.06-.17.09-.23.09-.2,0-.46-.42-.78-1.25.53-.06.93-.17,2.37-.58ZM261.91,145.46c1.06.36,2.64.66,3.58.66.12,0,.13.03.13.32,0,.24-.04.63-.08.7-.03.04-.09.08-.17.08-.78,0-2.77-.42-3.84-.81-.46-.17-.51-.2-.51-.29,0-.08.09-.33.18-.55.09-.2.12-.24.21-.24.08,0,.15.01.48.13Z"/>
        <path d="M284.16,148.37c-.45-.04-.92-.08-1.45-.08h-9.81c-.65,0-1.05.01-1.46.08v-.99c.39.06.84.09,1.46.09h9.81c.63,0,1.06-.03,1.45-.09v.99ZM282.48,146.35c-.45-.04-.93-.07-1.47-.07h-6.43c-.54,0-1,.03-1.46.07v-.97c.43.06.88.09,1.46.09h6.43c.6,0,1.04-.03,1.47-.09v.97ZM274.17,157.99h-.97c.04-.36.08-.87.08-1.26v-2c0-.45-.02-.76-.08-1.14.3.04.58.06,1.02.06h7.14c.45,0,.72-.01,1.04-.06-.06.36-.08.67-.08,1.14v2c0,.46.03.86.09,1.26h-1v-.69h-7.23v.69ZM282.27,150.41c-.34-.06-.76-.08-1.38-.08h-6.17c-.61,0-1.06.01-1.39.08v-.95c.33.06.74.08,1.39.08h6.17c.66,0,1.05-.01,1.38-.08v.95ZM282.27,152.45c-.38-.06-.76-.08-1.38-.08h-6.17c-.63,0-1.03.01-1.39.08v-.95c.33.06.74.08,1.39.08h6.17c.66,0,1.05-.02,1.38-.08v.95ZM274.17,156.47h7.23v-2h-7.23v2Z"/>
        <path d="M290.01,150.65c1.46-1.26,2.96-1.92,4.38-1.92,1.09,0,1.98.33,2.64.97.66.66,1.02,1.6,1.02,2.65,0,1.83-1.05,3.25-3.04,4.16-.57.25-1.25.48-1.47.48-.11,0-.18-.05-.24-.15-.13-.21-.3-.36-.6-.54,2.93-.79,4.25-2.04,4.25-4.02,0-.81-.24-1.46-.73-1.95-.47-.48-1.14-.75-1.88-.75-1.35,0-2.82.69-4.33,2.04,0,2.67,0,3.06.04,4.41q0,.15.01.43c0,.12,0,.27.02.45,0,.17.01.39.01.45,0,.13-.15.16-.74.16-.21,0-.28-.06-.28-.22v-2.37c0-.63,0-2.08.01-2.67-.83.86-1.74,2-2.12,2.58-.08.11-.12.15-.18.15-.15,0-.78-.62-.78-.77,0-.06.02-.09.2-.25.72-.64,1.8-1.96,2.89-3.51q0-.48.02-1.27-1.94.36-2.16.48c-.15.08-.2.09-.24.09-.17,0-.31-.36-.45-1.06.9-.04,1.29-.09,2.87-.38.03-1.17.03-1.63.03-1.98,0-.43,0-.55-.04-.93,1.03.08,1.32.15,1.3.34,0,.04,0,.06-.08.23-.13.31-.15.36-.24,2.04.09-.08.12-.09.2-.09.15,0,.21.05.45.32.17.17.22.27.22.36q0,.07-.22.36c-.18.23-.33.44-.72,1.07v.62Z"/>
        <path d="M304.11,153.8c0,1.23.04,2.89.1,3.57v.06c0,.18-.09.21-.64.21-.39,0-.41-.01-.41-.38,0-.06,0-.51.01-.93.02-.48.02-.65.02-2.91,0-.38,0-.63.01-.92-.64.74-1.44,1.8-1.98,2.64-.11.17-.17.21-.24.21-.11,0-.18-.06-.41-.3-.24-.25-.31-.36-.31-.45s0-.09.81-1.02c.74-.84,1.51-1.89,2.16-2.89,0-.06.01-.54.03-1.44-.82.11-1.71.29-2.1.42-.04.02-.1.03-.15.03-.09,0-.13-.06-.21-.32-.06-.24-.1-.46-.13-.76.11.01.24.01.32.01.46,0,1.59-.12,2.31-.24q.03-1.25.03-1.47,0-.48-.03-1.38c.76.02,1.29.15,1.29.35,0,.06-.01.1-.08.24-.1.23-.18.77-.25,2.07q.08-.03.17-.08s.09-.03.13-.03c.15.02.56.41.56.56,0,.04-.02.08-.09.17-.21.25-.6.82-.87,1.27,0,.06-.02.48-.02.58.62-.64,1.07-1.05,1.56-1.44.6-.46,1.33-.98,1.84-1.26.43-.24.96-.38,1.42-.38,1.12,0,1.67.69,1.67,2.08,0,.18-.06,1.17-.18,2.94-.06.95-.11,1.88-.11,2.16,0,.71.18.96.69.96.69,0,1.47-.45,2.1-1.2,0,.42.01.55.13.87.03.09.04.13.04.19,0,.15-.18.35-.54.57-.6.39-1.23.58-1.84.58-1.05,0-1.59-.58-1.59-1.74,0-.42.04-1.33.13-2.76.09-1.32.12-2.04.12-2.42,0-.91-.21-1.27-.74-1.27-.69,0-1.5.42-2.86,1.48-.48.38-1.07.89-1.47,1.29-.26.26-.39.39-.42.41v2.04Z"/>
        <path d="M318.24,146.38c.43,0,1.98-.15,3.37-.33.8-.1.92-.13,1.25-.3.12-.06.17-.08.23-.08.13,0,.3.17.64.66.12.18.18.32.18.41,0,.1-.03.12-.28.3q-.23.15-1.74,1.75c-.25.27-.93.99-1.89,1.98-.51.54-.62.63-1.12,1.19.73-.6,1.12-.83,1.78-1.07.62-.24,1.23-.34,1.85-.34,2.11,0,3.49,1.29,3.49,3.22,0,.98-.34,1.82-.99,2.46-.89.87-2.24,1.35-3.78,1.35-1.02,0-1.77-.23-2.23-.69-.29-.29-.45-.67-.45-1.09,0-.96.84-1.63,2.01-1.63,1.23,0,2.1.69,2.64,2.08.72-.38,1.07-.66,1.38-1.19.23-.38.36-.87.36-1.35,0-1.44-.99-2.31-2.64-2.31-1.79,0-4.02,1.2-5.34,2.88-.12.15-.18.2-.25.2-.18,0-.81-.64-.81-.83,0-.06.04-.12.13-.18.3-.21.35-.25,1.05-.93,1.92-1.88,2.89-2.94,5.16-5.7-3.01.41-3.99.54-4.3.65-.09.03-.12.03-.15.03-.16,0-.33-.51-.39-1.2.29.03.65.06.86.06ZM320.48,155.02c-.63,0-1.04.3-1.04.76,0,.58.68.98,1.67.98.44,0,.72-.03,1.16-.15-.38-1.08-.96-1.59-1.79-1.59Z"/>
        <path d="M103.12,171.89c.15.03.23.09.23.18,0,.04-.02.09-.03.18-.06.2-.09.62-.09,1.04,0,.57.1,1.68.21,2.23.13.71.31.96.69.96.33,0,.77-.17,2.03-.79.32-.17.45-.24.74-.45.04-.02.06-.03.1-.03.17,0,.69.81.69,1.06,0,.09-.08.15-.25.2-.54.12-1.46.45-2.31.79-2.64,1.08-3.99,2.33-3.99,3.64,0,1.11.93,1.59,3.07,1.59,1.12,0,2.27-.09,3.5-.29.06-.02.1-.02.12-.02.09,0,.15.04.18.12.04.09.09.53.09.78,0,.17-.04.22-.22.25-.58.08-2.26.17-3.29.17-1.15,0-2.1-.11-2.71-.32-1.17-.38-1.75-1.11-1.75-2.25,0-.81.32-1.56.98-2.28.55-.62,1.05-.97,2.19-1.61-.67-.27-.87-.96-1.11-3.88-.06-.69-.09-.94-.19-1.38.51,0,.82.03,1.15.09Z"/>
        <path d="M118.89,175.1c1.12-.03,2.77-.27,3.75-.57.03,0,.08-.02.14-.02.08,0,.12.06.18.25.06.21.13.53.13.63s-.09.13-.71.27c-1.18.24-2.47.39-3.48.39.03,1.16.08,2.01.22,3.83,1.58.45,2.57.92,3.79,1.79.62.43.81.62.81.69,0,.21-.46.87-.62.87-.04,0-.09-.03-.17-.09-.32-.3-.93-.75-1.56-1.16-.79-.51-1.28-.73-2.19-1.06v.45c0,1.51-1.04,2.32-2.96,2.32-1.75,0-2.76-.71-2.76-1.9,0-1.35,1.26-2.17,3.3-2.17.44,0,.83.03,1.37.09-.18-2.4-.22-3.6-.24-6.41-.01-.64-.03-1.09-.09-1.72.45.03.83.09,1.16.18.12.03.18.11.18.2,0,.06-.01.1-.08.22-.15.3-.19.89-.19,2.22v.71ZM116.64,180.53c-1.31,0-2.21.5-2.21,1.22,0,.63.62.97,1.7.97,1.38,0,2.07-.51,2.07-1.54q0-.48-.01-.48c-.62-.12-1.09-.17-1.54-.17Z"/>
        <path d="M135.33,172.27c0,.09-.06.17-.17.23-.18.12-.31.24-.64.64-1,1.23-1.86,2.17-3.51,3.84-.23.23-.32.42-.32.65,0,.21.09.38.29.57,1.14,1.04,2.44,2.36,3.5,3.53.76.85,1.17,1.37,1.17,1.47s-.18.29-.54.55c-.15.12-.29.2-.35.2s-.1-.03-.15-.12c-.74-1.21-2.17-2.86-4.32-4.9-.46-.45-.66-.83-.66-1.28,0-.29.09-.58.25-.84q.12-.18,1.12-1.23c1.02-1.08,2.01-2.28,2.59-3.14.22-.36.36-.6.54-1.08.72.38,1.18.72,1.18.91Z"/>
        <path d="M145.41,176.9c1.46-1.26,2.96-1.92,4.38-1.92,1.09,0,1.98.33,2.64.97.66.66,1.02,1.6,1.02,2.65,0,1.83-1.05,3.25-3.04,4.16-.57.25-1.25.48-1.47.48-.11,0-.18-.05-.24-.15-.13-.21-.3-.36-.6-.54,2.93-.79,4.25-2.04,4.25-4.02,0-.81-.24-1.46-.73-1.95-.47-.48-1.14-.75-1.88-.75-1.35,0-2.82.69-4.33,2.04,0,2.67,0,3.06.04,4.41q0,.15.01.43c0,.12,0,.27.02.45,0,.17.01.39.01.45,0,.13-.15.16-.74.16-.21,0-.29-.06-.29-.22v-2.37c0-.63,0-2.08.02-2.67-.83.86-1.74,2-2.12,2.58-.08.11-.12.15-.18.15-.15,0-.78-.62-.78-.77,0-.06.02-.09.2-.25.72-.64,1.8-1.96,2.89-3.51q0-.48.02-1.27-1.94.36-2.16.48c-.15.08-.2.09-.24.09-.17,0-.31-.36-.45-1.06.9-.04,1.29-.09,2.87-.38.03-1.17.03-1.63.03-1.98,0-.43,0-.55-.04-.93,1.03.08,1.32.15,1.3.34,0,.04,0,.06-.08.23-.13.31-.15.36-.24,2.04.09-.08.12-.09.2-.09.15,0,.21.05.45.32.17.17.22.27.22.36q0,.07-.22.36c-.18.23-.33.44-.72,1.07l-.02.62Z"/>
        <path d="M160.21,171.82c.87.15,1.35.34,1.35.54,0,.06-.02.1-.09.21-.15.19-.27.54-.71,2.04-.04.15-.06.21-.09.31.66-.1,1.18-.17,1.53-.17,1.33,0,1.95.79,1.95,2.54,0,1.65-.45,3.72-1.05,4.83-.46.84-.99,1.2-1.75,1.2-.46,0-1.08-.13-1.37-.29-.09-.06-.12-.1-.12-.27,0-.32-.06-.58-.17-.92.57.34,1,.48,1.49.48.57,0,.94-.36,1.26-1.2.46-1.23.72-2.62.72-3.99,0-1.08-.36-1.56-1.14-1.56-.34,0-.9.06-1.61.2-.49,1.57-.99,2.88-1.56,4.18s-1.33,2.76-1.6,3.04c-.04.04-.11.08-.17.08-.12,0-.46-.2-.71-.39-.08-.08-.11-.1-.11-.15s.02-.09.06-.15c1.18-1.65,2.34-4.09,3.06-6.42-1.92.38-2.31.46-2.64.63-.06.03-.11.04-.13.04-.17,0-.32-.36-.45-1.11.64,0,.9-.03,2.88-.36q.19-.03.6-.09c.41-1.53.54-2.34.55-3.27ZM167.35,178.61c-.45-1.33-1.23-2.55-2.28-3.51-.06-.04-.08-.09-.08-.12,0-.12.5-.59.62-.59.13,0,.87.74,1.38,1.4.64.81,1.29,2,1.29,2.35,0,.08-.04.14-.2.25-.27.21-.51.35-.6.35-.06,0-.11-.03-.14-.14Z"/>
        <path d="M176.94,172.42c0,.06-.02.09-.18.25-.42.42-1.5,2.29-3.22,5.61-.12.24-.22.42-.69,1.2,1.06-1.39,1.98-1.96,3.18-1.96.99,0,1.6.51,1.84,1.54.08.32.12.75.24,2.07.03.46.09.76.19.96.17.31.48.48.93.48.78,0,1.51-.46,2.19-1.36.29-.39.46-.72.81-1.44.04.41.07.53.28.9.06.12.09.19.09.3,0,.2-.23.62-.57,1.05-.81,1.02-1.75,1.53-2.87,1.53-1,0-1.6-.36-1.88-1.12-.15-.38-.21-.83-.3-1.95-.08-.93-.13-1.18-.3-1.53-.17-.36-.5-.55-.92-.55-1.32,0-2.79,1.41-3.72,3.55-.18.42-.32.78-.48,1.33-.04.15-.09.2-.17.2-.27,0-.94-.34-.94-.5,0-.01.1-.25.27-.63q.17-.32.75-1.72c.57-1.33,1.8-3.9,2.79-5.85,1.07-2.07,1.21-2.4,1.42-3.13.71.27,1.23.6,1.23.78Z"/>
        <path d="M186.37,175.19c-.08.01-.21.01-.36.03-.24.02-.38.02-.48.02-.21,0-.24-.02-.27-.12-.04-.15-.09-.39-.14-.86.24,0,.71.02.84.02.52,0,1.54-.08,2.34-.17.34-1.19.46-1.83.46-2.67.43.07.76.15,1.09.25.21.08.24.1.24.18,0,.04-.03.12-.09.23-.23.42-.3.64-.62,1.84,1.12-.21,1.62-.32,2.04-.45.06-.03.09-.03.12-.03.1,0,.13.09.18.45.01.12.03.2.03.24.01.04.01.1.01.13,0,.12-.04.15-.32.21-.01,0-.06.01-.13.03-.52.1-1.62.3-2.23.39-.58,1.72-1.4,3.53-2.37,5.23-.46.81-.74,1.17-.88,1.17-.18,0-.79-.47-.79-.6,0-.08.04-.15.13-.27.29-.33.52-.69.83-1.17.78-1.25,1.35-2.43,1.99-4.21-.97.09-1.09.1-1.63.12ZM193.5,176.57q0,.06-.04.19c-.08.23-.11.51-.11.96,0,.72.04,1.56.14,2.64.75.28,1.39.64,2.08,1.12.51.36.66.5.66.6,0,.24-.39.83-.54.83-.04,0-.1-.03-.22-.15-.54-.51-1.32-1.04-1.95-1.32,0,.54-.04.84-.18,1.19-.32.83-1.11,1.26-2.28,1.26-1.45,0-2.43-.75-2.43-1.86,0-1.2,1.08-2.07,2.57-2.07.48,0,.75.03,1.32.15-.08-1.05-.12-1.88-.15-2.88-.02-.49-.03-.64-.08-.96.97.09,1.21.14,1.21.3ZM191.22,180.85c-1.02,0-1.68.43-1.68,1.11,0,.63.54,1,1.46,1,1.06,0,1.54-.51,1.54-1.65,0-.1-.01-.21-.01-.21-.42-.18-.83-.25-1.31-.25ZM193.57,174.67c.03-.06.08-.11.1-.17.08-.12.23-.27.25-.27t.08.01c.48.01,2.83,1.41,2.83,1.68v.02c-.09.25-.1.3-.31.6q-.09.15-.24.21s-.12-.06-.18-.11c-.77-.69-1.49-1.14-2.52-1.56-.09-.04-.15-.1-.15-.17q.06-.15.13-.25Z"/>
        <path d="M201.49,173.62s0,.03-.04.13c-.13.34-.2,1.12-.2,2.42,0,3.58.66,5.92,1.68,5.92.64,0,1.32-.95,1.81-2.52.13.41.29.71.48.92.07.09.09.12.09.18,0,.12-.09.34-.25.72-.56,1.17-1.32,1.81-2.13,1.81-.99,0-1.74-.82-2.21-2.41-.33-1.17-.51-2.94-.51-5,0-.32,0-.74.01-1.25v-.38c0-.43-.01-.72-.08-1.05,1.04.18,1.33.3,1.33.5ZM208.63,174.76c.27,0,1.07.95,1.61,1.93.43.78.73,1.56.97,2.55.09.34.15.63.15.73,0,.09-.05.15-.2.23-.2.09-.71.25-.81.25-.06,0-.09-.04-.1-.12-.41-2.42-1.02-3.72-2.4-5.17.32-.23.68-.41.78-.41Z"/>
        <path d="M218.05,171.82c.87.15,1.35.34,1.35.54,0,.06-.02.1-.09.21-.15.19-.27.54-.71,2.04-.04.15-.06.21-.09.31.66-.1,1.18-.17,1.53-.17,1.33,0,1.95.79,1.95,2.54,0,1.65-.45,3.72-1.05,4.83-.46.84-.99,1.2-1.75,1.2-.46,0-1.08-.13-1.37-.29-.09-.06-.12-.1-.12-.27,0-.32-.06-.58-.17-.92.57.34,1,.48,1.49.48.57,0,.94-.36,1.26-1.2.46-1.23.72-2.62.72-3.99,0-1.08-.36-1.56-1.14-1.56-.34,0-.9.06-1.61.2-.49,1.57-.99,2.88-1.56,4.18s-1.33,2.76-1.6,3.04c-.04.04-.11.08-.17.08-.12,0-.46-.2-.71-.39-.08-.08-.11-.1-.11-.15s.02-.09.06-.15c1.18-1.65,2.34-4.09,3.06-6.42-1.92.38-2.31.46-2.64.63-.06.03-.11.04-.13.04-.17,0-.32-.36-.45-1.11.64,0,.9-.03,2.88-.36q.19-.03.6-.09c.41-1.53.54-2.34.55-3.27ZM225.19,178.61c-.45-1.33-1.23-2.55-2.28-3.51-.06-.04-.08-.09-.08-.12,0-.12.5-.59.62-.59.13,0,.87.74,1.38,1.4.64.81,1.29,2,1.29,2.35,0,.08-.04.14-.2.25-.27.21-.51.35-.6.35-.06,0-.11-.03-.14-.14Z"/>
        <path d="M232.87,172c0-.12,0-.24-.01-.36.93.2,1.38.39,1.38.58,0,.06-.02.12-.11.24-.18.3-.31.78-.54,1.92q-.01.13-.09.46.51.03,1.38.03.41,0,.41.33c0,.3-.03.52-.08.57-.04.06-.12.06-.88.06-.3,0-.5-.01-1-.06-.3,1.53-.33,1.69-.51,2.95.58.06.85.08,1.15.08.18,0,.75-.01.87-.03h.06c.16,0,.22.18.22.75,0,.26-.01.26-.67.26-.6,0-1.04-.02-1.74-.09-.04.5-.06.9-.06,1.23,0,1.46.75,2.14,2.32,2.14,1.73,0,2.88-.92,2.88-2.26,0-.72-.25-1.47-.72-2.08-.25-.34-.46-.55-.97-.97h.09c.2,0,.45-.03.67-.09.2-.04.21-.04.25-.04.17,0,.34.15.72.58.68.79,1.02,1.65,1.02,2.61,0,1.93-1.51,3.19-3.84,3.19-1.11,0-2-.28-2.58-.85-.51-.51-.76-1.26-.76-2.26,0-.24.03-.67.08-1.32-1.56-.31-2.28-.92-2.28-1.88,0-.51.29-1.08.52-1.08.06,0,.15.03.29.12.21.12.29.2.29.29,0,.04-.01.08-.06.13-.14.21-.2.35-.2.5,0,.45.57.81,1.54.97.08-.6.12-.87.46-2.95-.92-.17-1.83-.51-2.54-.98-.21-.13-.25-.19-.25-.3,0-.12.14-.41.33-.73,1,.63,1.63.88,2.61,1.06.25-1.46.34-2.16.34-2.71Z"/>
        <path d="M244.8,177.68c0,.51-.42.93-.93.93s-.93-.42-.93-.93.42-.93.93-.93.93.41.93.93ZM249.79,177.68c0,.51-.42.93-.93.93s-.93-.42-.93-.93.42-.93.93-.93.93.41.93.93ZM254.8,177.68c0,.51-.42.93-.93.93s-.93-.42-.93-.93.42-.93.93-.93.93.41.93.93Z"/>
        <path d="M259.26,177.68c0,.51-.42.93-.93.93s-.93-.42-.93-.93.42-.93.93-.93.93.41.93.93ZM264.25,177.68c0,.51-.42.93-.93.93s-.93-.42-.93-.93.42-.93.93-.93.93.41.93.93ZM269.26,177.68c0,.51-.42.93-.93.93s-.93-.42-.93-.93.42-.93.93-.93.93.41.93.93Z"/>
        <path d="M275.61,182.11c0,1.25-1,2.25-2.25,2.25s-2.25-1-2.25-2.25,1-2.25,2.25-2.25,2.25,1,2.25,2.25ZM271.96,182.11c0,.77.63,1.4,1.4,1.4s1.39-.63,1.39-1.4-.63-1.39-1.39-1.39-1.4.63-1.4,1.39Z"/>
      </g>
      <g>
        <path class="cls-6" d="M49.24,185.94c.89-16.94-18.18-22.1-26.31-12.35-2.84,3.4-4.8,9.28-3.36,15.99-3.15,3.41-2.38,8.06,2.89,10.38,3.18,1.39,6.31,1.92,13.47,1.6,6.65-.3,14.21-3.45,16.18-7.69,1.1-2.37.52-5.78-2.87-7.94Z"/>
        <path class="cls-2" d="M38.06,168.72c-.79-4.18-4.45-6.35-4.37-.27"/>
        <path class="cls-2" d="M26.39,170.32c-.7-4.19,1.99-7.5,4.01-1.77"/>
        <path class="cls-6" d="M41.95,170.85c5.79-5.1,10.49-4.89,11.53-3.3.96,1.47.22,9.42-8.91,5.4"/>
        <path class="cls-6" d="M22.06,173.59c-6.85-3.54-11.36-2.19-11.99-.39-.57,1.66,2.8,9.74,10.68,3.62"/>
        <ellipse class="cls-1" cx="38.42" cy="188.38" rx="1.45" ry="1.57" transform="translate(-36.83 11.46) rotate(-11.51)"/>
        <path class="cls-4" d="M18.95,177.56c-2.32-3.61-7.18-2.47-8.28-1.89,2.12,3.55,4.7,4.58,8.28,1.89Z"/>
        <path class="cls-4" d="M46.32,173.24c1.99-3.8,6.4-3.27,7.55-2.79-1.8,3.72-3.74,5.15-7.55,2.79Z"/>
        <path class="cls-4" d="M31.57,168.53c1.57,7.43-1.68,14.59-11.91,15.05-.51-11.46,11.91-15.05,11.91-15.05Z"/>
        <path class="cls-4" d="M33.83,168.44c.38,8.43,7.4,12.45,14.47,12.66-.51-11.46-14.47-12.66-14.47-12.66Z"/>
        <path class="cls-4" d="M18.77,196.11c13.57-7.03,25.36-4.76,33.34-2.23-2.8,7.73-28.87,11.5-33.34,2.23Z"/>
        <path class="cls-1" d="M22.08,200.52c-2.75-1.21-4.52-3.12-4.99-5.38-.41-1.97.19-3.99,1.69-5.73-1.42-7.1.89-13.01,3.55-16.21,4.05-4.85,11.01-6.45,17.31-3.97,3.08,1.21,5.64,3.27,7.4,5.97,1.93,2.94,2.83,6.45,2.68,10.42,3.51,2.42,3.92,6.07,2.79,8.5-2.16,4.66-10.19,7.75-16.7,8.04-1.34.06-2.53.09-3.61.09-5.08,0-7.62-.64-10.13-1.74ZM23.25,173.98c-2.52,3.02-4.69,8.67-3.24,15.48.04.19-.01.39-.15.53-1.38,1.49-1.95,3.23-1.6,4.9.39,1.87,1.92,3.48,4.3,4.53,2.87,1.26,5.83,1.88,13.2,1.55,6.9-.31,13.93-3.6,15.66-7.34,1.35-2.91-.42-5.76-2.64-7.18-.18-.12-.29-.32-.28-.54.38-7.3-3.09-13.12-9.3-15.56-1.84-.72-3.73-1.07-5.58-1.07-4.02,0-7.82,1.64-10.37,4.69Z"/>
        <ellipse class="cls-1" cx="38.42" cy="188.38" rx="1.45" ry="1.57" transform="translate(-36.83 11.46) rotate(-11.51)"/>
        <ellipse class="cls-1" cx="30.75" cy="189.08" rx="1.57" ry="1.45" transform="translate(-158.51 218.73) rotate(-89.67)"/>
        <path class="cls-1" d="M49.08,174.68c1.99,0,3.23-.82,3.99-1.72,1.53-1.81,1.62-4.69.93-5.74-.42-.65-1.23-1.08-2.29-1.22-2.8-.38-6.6,1.26-10.15,4.4-.25.22-.27.6-.05.85.22.25.6.27.85.05,4.89-4.3,8.27-4.23,9.19-4.11.69.09,1.21.34,1.44.69.35.54.4,2.84-.84,4.31-1.39,1.64-3.92,1.71-7.33.21-.3-.13-.66,0-.79.31-.13.3,0,.66.31.79,1.93.85,3.49,1.18,4.75,1.18Z"/>
        <path class="cls-1" d="M15.39,179.68c1.54,0,3.44-.61,5.73-2.4.26-.2.31-.58.11-.85-.2-.26-.58-.31-.85-.11-2.93,2.28-5.52,2.74-7.48,1.33-1.82-1.3-2.45-3.73-2.26-4.28.14-.39.58-.76,1.23-1.02.86-.34,4.13-1.24,9.92,1.75.3.15.66.04.81-.26.15-.3.04-.66-.26-.81-4.21-2.17-8.29-2.84-10.91-1.79-.98.39-1.67,1.01-1.92,1.74-.42,1.2.53,4.1,2.7,5.65.79.57,1.85,1.04,3.19,1.04Z"/>
        <path class="cls-1" d="M38.06,169.33s.08,0,.11-.01c.33-.06.54-.38.48-.7-.5-2.64-2.12-4.67-3.61-4.52-.75.08-2.01.74-1.96,4.36,0,.33.27.59.6.59,0,0,0,0,0,0,.33,0,.6-.28.59-.61-.03-2.1.43-3.11.87-3.15.64-.07,1.88,1.32,2.3,3.55.05.29.31.49.59.49Z"/>
        <path class="cls-1" d="M26.39,170.92s.07,0,.1,0c.33-.05.55-.36.5-.69-.37-2.24.32-3.96.94-4.12.43-.11,1.21.67,1.91,2.66.11.31.45.48.77.37.31-.11.48-.45.37-.77-1.2-3.41-2.61-3.61-3.34-3.42-1.45.37-2.27,2.83-1.83,5.49.05.29.3.5.59.5Z"/>
        <path class="cls-1" d="M39.31,180.29c-1.1.64-2.05.31-2.46-.56-.1-.2.11-.42.32-.33.66.28,1.32.38,2.04.43.24.02.31.34.11.46Z"/>
        <path class="cls-1" d="M28.79,181.73c1.24.28,2.05-.31,2.19-1.26.03-.22-.23-.37-.4-.22-.55.47-1.14.75-1.82,1.01-.22.09-.2.42.04.47Z"/>
        <circle class="cls-1" cx="36.32" cy="194.44" r=".57"/>
        <circle class="cls-1" cx="34.54" cy="194.52" r=".57"/>
        <path class="cls-1" d="M32.81,198.63c.11,0,.23-.03.33-.1,1.68-1.09,3.08-1.24,4.55-.49.3.15.66.03.81-.26.15-.3.03-.66-.26-.81-1.86-.95-3.69-.78-5.75.55-.28.18-.36.55-.18.83.12.18.31.28.51.28Z"/>
      </g>
    </g>
  </g>
</svg>