<?xml version="1.0" encoding="UTF-8"?>
<svg id="_レイヤー_2" data-name="レイヤー 2" xmlns="http://www.w3.org/2000/svg" width="374" height="77.36" viewBox="0 0 374 77.36">
  <defs>
    <style>
      .cls-1 {
        fill: #fff;
      }

      .cls-2 {
        fill: #479d93;
      }
    </style>
  </defs>
  <g id="_レイヤー_1-2" data-name="レイヤー 1">
    <g>
      <rect class="cls-2" x="0" y="0" width="374" height="77.36"/>
      <rect class="cls-1" x="78.41" y="14.39" width="287.86" height="51.32" rx="25.35" ry="25.35"/>
      <g>
        <path class="cls-2" d="M106.42,38.52c-1.34.14-1.68.15-2.45.15-.53,0-.61-.22-.73-1.73h.66c.83,0,1.58-.05,2.52-.15v-.36c0-1.1-.07-1.97-.24-2.89,1.29.07,1.8.14,2.16.24.17.05.24.14.24.31,0,.1-.02.17-.1.34-.15.32-.24.93-.25,2.09.56-.1,1.46-.32,2.14-.53.05-.02.09-.02.12-.02.14,0,.22.07.26.19.08.34.19,1.02.19,1.27,0,.14-.08.25-.22.31-.2.08-1.44.34-2.53.53v2.19c1.68-.56,2.99-.83,4.11-.83,2.18,0,3.59,1.39,3.59,3.55,0,1.39-.56,2.52-1.56,3.11-.53.31-1.27.49-2.09.49s-1.55-.07-1.73-.19c-.19-.1-.2-.15-.24-.56-.03-.48-.13-.88-.34-1.38.7.25,1.28.36,1.94.36,1.33,0,2.07-.68,2.07-1.89s-.71-1.89-1.85-1.89c-1.07,0-2.43.34-3.89.97q0,.07.02.73.02,1.12.02,1.36c.02.31.02.61.02.76,0,1.38-.53,2.04-1.65,2.04s-2.19-.58-2.87-1.46c-.27-.37-.41-.77-.41-1.22,0-1.1.99-2.11,3.13-3.21v-2.69ZM106.42,43.08c-.99.6-1.39.99-1.39,1.34,0,.39.56.82,1.07.82.24,0,.32-.15.32-.54v-1.62ZM115.91,39.22c-.87-.92-2.06-1.68-3.18-2.04-.14-.05-.2-.12-.2-.2,0-.1.17-.37.65-1.02.19-.25.21-.27.38-.27.17.02.82.24,1.26.44,1.07.49,2.46,1.55,2.46,1.87,0,.31-.85,1.38-1.11,1.38-.08,0-.15-.03-.25-.15Z"/>
        <path class="cls-2" d="M124.87,38.78c-.63,0-1.14.02-1.6.07v-.78c-.87.54-1.58.9-2.65,1.36-.39-.87-.53-1.09-.95-1.7,3.06-1.07,5.49-2.82,6.68-4.78h2.01c.66.95,1.36,1.67,2.52,2.53,1.34.99,2.57,1.6,4.33,2.18-.41.63-.65,1.12-.88,1.82-1.33-.56-1.85-.83-2.87-1.46v.83c-.43-.05-.9-.07-1.6-.07h-1.65v1.58h4.13c.87,0,1.33-.02,1.77-.08v1.8c-.44-.07-1.02-.1-1.78-.1h-4.11v3.65h4.44c.83,0,1.38-.03,1.92-.1v1.87c-.61-.07-1.27-.1-1.97-.1h-10.3c-.75,0-1.39.03-2.04.1v-1.87c.59.07,1.17.1,2.02.1h4.11v-3.65h-3.86c-.7,0-1.29.03-1.79.1v-1.8c.48.07.95.08,1.79.08h3.86v-1.58h-1.51ZM123.71,42.11c.56.99.85,1.58,1.31,2.72l-1.63.65c-.34-1.02-.76-1.89-1.29-2.7l1.62-.66ZM124.83,37.25h5.46c-1.22-.87-2.09-1.67-2.92-2.74-.83,1.09-1.56,1.78-2.87,2.74h.34ZM132.62,42.79q-.2.37-.8,1.56c-.07.12-.12.22-.68,1.16l-1.53-.58c.49-.8.9-1.67,1.29-2.8l1.72.66Z"/>
        <path class="cls-2" d="M141.92,43.2c.05.07.07.12.07.19q0,.1-.29.88c-.36,1.04-.58,1.89-.65,2.55-.02.22-.08.31-.31.36-.24.07-.7.1-1.14.1-.17,0-.25-.03-.31-.14-.15-.32-.43-1.5-.56-2.45-.12-.8-.17-1.63-.17-2.5,0-1.95.22-3.81.83-7.14.1-.54.14-.8.19-1.33.78.1,1.33.26,1.82.49.25.14.36.25.36.41,0,.1-.04.19-.12.32-.7,1.19-1.34,4.86-1.34,7.58,0,.41.02,1.05.07,1.87.41-1.05.6-1.53.97-2.35.12.46.24.68.58,1.14ZM144.77,38.73c-.82,0-.99-.03-1.04-.22-.05-.15-.1-.7-.1-1.09,0-.14,0-.27.02-.58.46.03.73.05,1.29.05.92,0,1.5-.02,2.38-.09-.02-2.16-.04-2.43-.21-3.23.83.02,1.46.08,2.01.22.26.07.36.15.36.32,0,.07-.02.12-.07.25-.17.39-.25,1.05-.29,2.24.63-.08,1.17-.2,2.19-.44.08-.03.12-.03.17-.03.1,0,.15.05.19.17.03.15.08.8.08,1.16,0,.42-.02.49-.19.56-.27.14-1.02.25-2.46.44,0,1.17.1,3.11.22,4.22,1.07.46,1.8.85,2.55,1.38.48.34.58.46.58.58,0,.19-.31.77-.66,1.26-.2.29-.31.37-.42.37s-.12,0-.51-.37c-.37-.37-.77-.66-1.51-1.16v.14c0,1.5-1.24,2.48-3.13,2.48s-3.18-1.02-3.18-2.55,1.29-2.67,3.01-2.67c.63,0,.95.02,1.41.08q-.07-1.33-.12-3.6c-.73.05-1.89.1-2.57.1ZM146.17,43.73c-.85,0-1.41.39-1.41.99,0,.54.53.88,1.34.88.9,0,1.38-.41,1.38-1.19,0-.24-.02-.43-.02-.43-.44-.17-.83-.25-1.29-.25Z"/>
        <path class="cls-2" d="M156.79,37.83c-.31.02-.49.03-.7.05-.15.02-.17.02-.19.02-.14,0-.2-.05-.25-.22-.08-.27-.2-1.17-.22-1.68.19.02.68.03,1.29.03.19,0,1.53-.08,2.12-.14.29-1.38.39-2.09.39-3.01,1.75.24,2.38.44,2.38.76,0,.12-.02.15-.27.54-.14.2-.19.39-.48,1.44.8-.14,1.27-.25,1.9-.46.12-.03.17-.05.25-.05.12,0,.15.08.26.58.08.42.13.78.13.97,0,.2-.05.24-.49.34-.58.14-1.56.31-2.62.44-.63,1.9-1.05,2.92-1.84,4.52-.6,1.19-.94,1.82-1.39,2.53-.14.2-.22.27-.34.27-.17,0-.65-.26-1.24-.7-.27-.19-.34-.27-.34-.39s.07-.22.29-.53c.49-.61,1.14-1.67,1.7-2.79.48-.94.65-1.33,1.14-2.67-.66.05-.71.07-1.5.12ZM162.38,47.62c-1.85,0-3.11-1.02-3.11-2.53s1.31-2.74,3.06-2.74c.41,0,.6.02,1.29.12-.07-.82-.07-1.14-.14-2.72,0-.32-.03-.77-.07-1.31.87.09,1.53.19,1.85.32.14.05.2.14.2.27,0,.08-.02.15-.03.27-.08.36-.1.61-.1,1.07,0,.63.05,1.7.1,2.53,1.21.54,1.7.82,2.55,1.48.37.29.51.44.51.58,0,.17-.08.32-.56,1.09-.2.34-.36.49-.47.49q-.1,0-.58-.44c-.38-.37-.8-.66-1.39-1.02,0,1.58-1.16,2.53-3.11,2.53ZM162.35,43.98c-.82,0-1.38.39-1.38.99,0,.56.51.92,1.28.92.9,0,1.38-.46,1.38-1.36,0-.14,0-.27-.02-.27-.34-.17-.8-.27-1.26-.27ZM168.71,39.15c-.2.29-.31.37-.42.37-.08,0-.15-.03-.27-.15-.42-.41-1.02-.85-1.65-1.24q-.41-.25-1.16-.6c-.24-.1-.32-.17-.32-.31,0-.12.08-.27.34-.66.41-.59.51-.7.66-.7.32,0,1.58.65,2.48,1.26.73.49.95.7.95.88,0,.14-.27.65-.61,1.14Z"/>
        <path class="cls-2" d="M180.22,33.9c.2.14.29.24.29.36s-.02.14-.27.42c-.09.1-.34.48-.61.94q-.85,1.41-1.31,2.23c-.48.8-.78,1.34-.95,1.6q-.05.08-.29.51c-.22.39-.36.59-.59.92,1.1-.97,1.7-1.22,2.82-1.22.75,0,1.41.32,1.84.88.36.48.46.92.61,2.58.09,1,.17,1.44.29,1.7.12.24.36.37.66.37,1.17,0,2.57-1.41,3.25-3.26.17.71.31,1.05.66,1.68.12.2.15.34.15.51,0,.19-.09.42-.29.75-.88,1.43-2.33,2.28-3.88,2.28-.97,0-1.78-.34-2.21-.9-.34-.48-.49-1.1-.63-2.77-.08-1.09-.17-1.46-.41-1.73-.19-.2-.46-.31-.83-.31-1.12,0-2.6,1.51-3.47,3.52-.25.58-.42,1.1-.61,1.75-.07.26-.15.36-.27.36-.36,0-1.17-.34-1.62-.66-.12-.1-.17-.17-.17-.27,0-.08.03-.17.25-.65.14-.31.19-.39.31-.7q1.26-2.94,4.74-10c.39-.78.58-1.27.7-1.79.88.32,1.29.53,1.84.9Z"/>
        <path class="cls-2" d="M196.25,43.69c-.82,1.41-1.94,2.19-3.09,2.19-1.77,0-3.03-1.73-3.03-4.15,0-2.69,1.36-5,3.69-6.22,1.14-.61,2.36-.88,3.98-.88,3.55,0,6.19,2.52,6.19,5.88,0,2.97-1.46,5.12-4.28,6.32-.56.24-1,.37-1.22.37-.2,0-.29-.07-.51-.39-.29-.44-.61-.77-1.07-1.07,3.5-.9,5.08-2.55,5.08-5.3,0-1.41-.6-2.6-1.65-3.35-.6-.41-1.07-.58-2.01-.73-.48,3.59-1.04,5.54-2.07,7.33ZM193.8,37.67c-1.14,1-1.79,2.43-1.79,4.03,0,1.31.42,2.07,1.14,2.07.85,0,1.72-1.17,2.36-3.2.41-1.27.61-2.24.87-4.13-1.21.26-1.8.54-2.58,1.22Z"/>
        <path class="cls-2" d="M208.33,38.25h-.1c-.08.02-.15.02-.19.02-.15,0-.24-.07-.29-.29-.1-.43-.17-.95-.21-1.6.24.02.43.02.54.02.92,0,1.99-.07,2.89-.19.17-1.12.26-1.99.26-2.69v-.39c1.97.25,2.35.37,2.33.68,0,.08-.03.14-.1.29-.2.39-.22.44-.49,1.79.66-.12,1.51-.34,1.85-.46.07-.03.09-.03.14-.03.15,0,.19.07.32.66.07.34.14.82.14.95,0,.12-.05.19-.2.22q-.31.1-2.63.51c-.78,3.45-1.6,6-2.91,9.06-.08.22-.17.31-.27.31-.22,0-.82-.24-1.39-.56-.29-.15-.37-.24-.37-.32,0-.07.05-.19.14-.36,1.29-2.45,2.23-5.05,2.87-7.85-.75.1-1.27.15-2.31.24ZM215.59,44.71c.49.32,1.21.48,2.21.48,1.11,0,2.06-.1,2.6-.27.14-.03.17-.05.24-.05.15,0,.22.05.27.2.12.36.2,1.05.2,1.58,0,.22-.07.31-.29.36-.56.12-1.51.19-2.52.19-2.12,0-3.31-.34-4.1-1.16-.29-.31-.53-.7-.66-1.12-.1-.24-.17-.53-.17-.63,0-.29.51-.59,1.39-.88.19.71.39,1.02.82,1.31ZM220.37,39.76c-.34-.05-1.05-.08-1.65-.08-1.26,0-1.78.05-3.28.31-.03.02-.08.02-.12.02-.1,0-.15-.03-.19-.14-.05-.12-.12-.95-.12-1.31,0-.22.03-.32.17-.37.07-.03.17-.05.53-.12,1.16-.2,2.12-.29,3.31-.29.99,0,1.5.03,1.62.12.08.07.1.2.1.77,0,.49-.03.94-.07,1.04-.02.05-.08.08-.17.08-.03,0-.08,0-.14-.02Z"/>
        <path class="cls-2" d="M232.36,36.5c.26-1.39.34-1.99.34-2.55,0-.07,0-.17-.02-.29,1.43.2,2.24.53,2.24.9,0,.14-.02.15-.2.49-.14.24-.25.65-.49,1.55,1.16.2,2.12.71,2.89,1.48.94.94,1.39,2.09,1.39,3.5,0,2.36-1.29,4.2-3.59,5.13-.46.19-1.36.42-1.58.42-.14,0-.22-.07-.34-.24-.27-.44-.68-.88-1.17-1.24,1.72-.29,2.53-.6,3.38-1.29.9-.73,1.36-1.68,1.36-2.84,0-1.72-1.1-3.11-2.74-3.43-.56,1.77-1.17,3.18-1.92,4.47.25.25.41.41.68.66.19.17.25.27.25.39,0,.29-.95,1.22-1.22,1.22-.14,0-.36-.15-.85-.65-1.04,1.24-2.06,1.85-3.08,1.85-1.41,0-2.35-1.19-2.35-3.01,0-1.63.68-3.15,1.99-4.42-.24-.61-.27-.76-.65-1.94-.14-.44-.29-.92-.49-1.41.61-.14,1.41-.25,1.82-.25.17,0,.27.05.32.17q.05.08.07.49c.02.36.17,1,.43,1.78,1.1-.63,2.35-.99,3.52-.97ZM228.07,40.31c-.63.83-.97,1.72-.97,2.52s.32,1.27.82,1.27c.53,0,1.02-.36,1.72-1.21-.63-.83-1.05-1.55-1.56-2.58ZM231.96,38.03c-.94.14-1.67.41-2.53.99.44.88.78,1.46,1.31,2.16.58-1.12.92-1.99,1.22-3.14Z"/>
        <path class="cls-2" d="M246.57,42.88c.05.08.07.15.07.24,0,.12-.02.14-.17.51-.34.78-.75,2.01-.95,2.92-.05.19-.1.29-.17.32-.08.03-.66.12-.85.12h-.07c-.08,0-.2-.02-.34-.02-.22,0-.27-.05-.34-.25-.32-1.1-.58-3.38-.58-5.1,0-1.87.12-3.03.6-5.58.17-.92.25-1.43.32-1.99.71.14,1.33.31,1.84.54.29.12.37.2.37.37,0,.12-.02.17-.2.44-.56.9-1.19,4.5-1.19,6.94,0,.39.02.92.07,1.77.48-1.07.65-1.39,1.04-2.23.15.36.25.53.56.99ZM250.26,44.08c.54.29,1.19.39,2.33.39s1.73-.08,2.79-.39c.1-.03.19-.05.24-.05.12,0,.2.07.22.24.08.58.15,1.26.15,1.6,0,.17-.05.22-.29.29-.92.24-1.85.36-2.99.36-1.56,0-2.53-.19-3.33-.66-.75-.46-1.53-1.39-1.53-1.85,0-.24.36-.56,1.27-1.12.31.61.6.92,1.14,1.21ZM249.07,35.41c.37.08,1.46.15,2.29.15,1.12,0,2.24-.08,3.3-.27q.08-.02.15-.02c.12,0,.17.05.2.19.04.17.09.92.09,1.38,0,.25-.05.34-.24.37-.7.14-1.85.22-3.08.22-1.46,0-2.77-.09-2.94-.19-.08-.05-.12-.17-.12-.48,0-.46.05-1.14.08-1.27.02-.07.07-.1.17-.1.02,0,.05,0,.08.02Z"/>
        <path class="cls-2" d="M264.11,36.94c-.78.05-1.51.07-2.16.07-.71,0-.76,0-.8-.1-.05-.1-.1-.82-.1-1.31v-.32c.8.03,1.14.05,1.56.05s1.07-.02,1.58-.03c.08-.99.1-1.33.1-1.67,0-.15,0-.26-.02-.49.82.02,1.44.07,1.94.19.13.03.2.1.2.22,0,.09-.02.15-.1.36-.14.32-.24.76-.31,1.29,1.09-.08,2.4-.25,2.92-.37.51-.12.87-.19.95-.19.36-.03.61-.1.71-.19.02-.02.03-.02.03-.02.03,0,.05.02.08.02.07,0,.12.07.15.19.04.26.09.85.09,1.22,0,.25-.05.32-.22.36-1,.2-3.08.46-4.86.61-.02.07-.02.1-.02.27-.03.32-.03.36-.05,1.21.75-.17,1.41-.25,2.24-.25.12-.54.14-.68.17-1.07,1.31.27,1.96.51,1.96.71,0,.07-.02.12-.15.34-.05.07-.08.12-.12.24,2.19.51,3.59,2.12,3.59,4.22,0,1.85-1,3.33-2.92,4.35-.71.37-1.72.71-2.09.71-.19,0-.32-.07-.42-.2-.36-.51-.58-.75-1.12-1.21,1.77-.32,2.63-.68,3.48-1.38.78-.66,1.16-1.43,1.16-2.38,0-1.36-.8-2.38-2.16-2.77-1.02,2.35-1.7,3.45-2.92,4.71.08.29.15.46.31.82.07.14.08.19.08.24,0,.17-.07.22-.46.42-.42.22-.92.39-1.09.39-.15,0-.19-.05-.37-.58-.99.7-2.04,1.07-3.08,1.07-1.16,0-1.94-.94-1.94-2.29,0-2.12,1.55-4.2,4.11-5.47.02-.88.04-1.63.05-1.97ZM261.71,44.08c0,.43.26.68.68.68.58,0,1.34-.32,2.11-.88-.24-1.16-.34-1.94-.43-3.21-1.5,1.1-2.36,2.38-2.36,3.42ZM267.66,39.39c-.76.07-1.17.14-1.87.37.03,1.21.07,1.72.2,2.58.71-.9,1.19-1.75,1.67-2.96Z"/>
        <path class="cls-2" d="M285.99,38.76c2.4,0,4.1,1.63,4.1,3.94,0,1.58-.83,3.01-2.23,3.84-.97.58-2.16.87-3.5.87-2.16,0-3.42-.87-3.42-2.35,0-1.34,1.12-2.29,2.72-2.29,1.44,0,2.48.73,3.18,2.23.87-.63,1.22-1.29,1.22-2.21,0-1.46-1.04-2.41-2.67-2.41s-3.45.83-4.93,2.31c-.27.27-.53.56-.83.95-.12.17-.2.24-.31.24-.31,0-1.51-1.19-1.51-1.5,0-.15.07-.24.44-.51.39-.31.95-.8,1.67-1.48,1.65-1.56,2.86-2.87,4.64-5.05-2.12.27-3.55.51-4.08.7-.08.02-.14.03-.19.03-.14,0-.22-.08-.32-.34-.2-.51-.31-1.07-.36-1.82.46.07.78.08,1.16.08.82,0,2.19-.12,3.98-.32.63-.07.83-.12,1.31-.31.15-.07.24-.08.34-.08.24,0,.48.2.92.88.32.44.42.66.42.8,0,.22-.05.29-.42.53-.31.19-.49.34-.88.71-.85.82-.87.82-1.92,1.89-.75.77-.83.85-1.51,1.53,1.1-.61,1.97-.87,2.99-.87ZM284.36,44.64c-.26-.17-.54-.25-.87-.25-.53,0-.87.25-.87.66,0,.49.53.8,1.34.8.37,0,.7-.03,1.12-.15-.2-.56-.37-.82-.73-1.05Z"/>
        <path class="cls-2" d="M300.8,43.69c-.82,1.41-1.94,2.19-3.09,2.19-1.77,0-3.03-1.73-3.03-4.15,0-2.69,1.36-5,3.69-6.22,1.14-.61,2.36-.88,3.98-.88,3.55,0,6.19,2.52,6.19,5.88,0,2.97-1.46,5.12-4.28,6.32-.56.24-1,.37-1.22.37-.2,0-.29-.07-.51-.39-.29-.44-.61-.77-1.07-1.07,3.5-.9,5.08-2.55,5.08-5.3,0-1.41-.59-2.6-1.65-3.35-.59-.41-1.07-.58-2.01-.73-.48,3.59-1.04,5.54-2.07,7.33ZM298.35,37.67c-1.14,1-1.79,2.43-1.79,4.03,0,1.31.43,2.07,1.14,2.07.85,0,1.72-1.17,2.36-3.2.41-1.27.61-2.24.87-4.13-1.21.26-1.8.54-2.58,1.22Z"/>
        <path class="cls-2" d="M314.74,36.18c.39-1.02.77-1.56,1.41-2.11.78-.65,1.72-.95,2.91-.95,2.55,0,4.18,1.39,4.18,3.57,0,.73-.2,1.43-.59,1.99-.31.44-.44.58-1.39,1.44-1.33,1.19-1.61,1.65-1.61,2.55v.9h-1.73v-.95c0-.76.15-1.44.46-1.99.24-.42.49-.71,1.17-1.39.71-.7.94-.95,1.12-1.26.24-.34.37-.82.37-1.27,0-1.14-.76-1.85-1.97-1.85s-1.92.63-2.43,2.11l-1.89-.78ZM320.16,46.09c0,.75-.59,1.34-1.34,1.34s-1.34-.59-1.34-1.34.6-1.34,1.34-1.34,1.34.59,1.34,1.34Z"/>
      </g>
      <g>
        <path class="cls-1" d="M34.32,51.2c-4.41,0-7.11-4.05-7.11-10.62s2.7-10.62,7.23-10.62,7.23,3.96,7.23,10.59-2.67,10.65-7.35,10.65ZM34.44,32.3c-2.94,0-4.68,3.06-4.68,8.25s1.71,8.31,4.77,8.31c2.88,0,4.59-3.09,4.59-8.28s-1.74-8.28-4.68-8.28Z"/>
        <path class="cls-1" d="M48.54,50.72v-14.94h-3.72v-1.89c2.52-.12,3.78-1.17,4.11-3.45h2.07v20.28h-2.46Z"/>
      </g>
      <path class="cls-1" d="M19.19,42.58c-.76.79-1.8,1.41-3.01,1.81-.17-.32-.31-.52-.56-.82,1.2-.29,2.21-.79,2.94-1.47h-1.5c-.05.18-.06.22-.13.43l-1.01-.02c.24-.56.38-1.02.49-1.58.08-.39.14-.77.14-.95.17.02.4.03.82.03h1.78l-.02-.58h-1.93c-.34,0-.56,0-.8.04v-.83c-.1.08-.13.12-.26.23-.17-.29-.35-.5-.56-.69.74-.57,1.16-1.12,1.35-1.76l.93.17c-.11.23-.14.29-.25.47h1.11c.41,0,.64-.02.85-.04v.7c.34-.4.55-.78.7-1.3l.92.16q-.07.17-.22.49h1.65c.46,0,.67,0,.95-.05v.9c-.26-.04-.52-.05-.9-.05h-.68c.23.33.23.35.38.59l-.71.2h.41c.43,0,.59,0,.81-.03-.03.16-.04.3-.04.61v.91c0,.31,0,.45.04.63-.2-.02-.47-.03-.81-.03h-1.99v.57h2.47c.33,0,.52,0,.74-.03-.02.11-.02.17-.03.26t-.03.26s-.02.22-.05.55c-.09.86-.14,1.07-.31,1.27-.17.2-.43.26-1.02.26-.25,0-.43,0-.8-.03-.05-.36-.11-.56-.22-.85.33.04.74.08.95.08.47,0,.49-.05.55-1.01h-2.22l.02,1.45c0,.46.02.68.06.95h-1.02c.04-.25.05-.4.05-.75v-.22l-.02-.96ZM17.96,38.67c-.11-.29-.22-.5-.39-.8h-.48c-.21.29-.4.5-.68.77.21.03.38.04.79.04h.75ZM19.16,40.77h-1.77c-.03.19-.04.21-.12.57h1.9v-.57ZM19.66,38.67c-.13-.16-.31-.33-.56-.51.15-.12.2-.15.32-.27-.15,0-.32-.02-.49-.02h-.48c.11.17.17.26.34.58l-.71.22h1.58ZM21.48,38.67c-.1-.22-.26-.51-.44-.79h-.53c-.23.33-.42.55-.69.79h1.67ZM20.06,40.01h1.87v-.58h-1.88v.58Z"/>
      <path class="cls-1" d="M64.07,44.48v-.47h-5.38v.47h-1.01c.04-.28.05-.64.05-1.12v-5.46c0-.42-.02-.69-.05-1.04.32.04.59.05,1.02.05h5.36c.42,0,.7,0,1.02-.05-.04.32-.04.6-.04,1.04v5.47c0,.47.02.89.04,1.11h-1ZM58.69,43.15h5.38v-5.39h-5.38v5.39ZM62.29,38.74c.38,0,.6,0,.83-.03-.02.21-.03.41-.03.68v2.06c0,.29,0,.47.03.68-.26-.02-.47-.03-.83-.03h-1.85c-.43,0-.57,0-.84.03.03-.23.04-.42.04-.68v-2.06c0-.25,0-.45-.04-.68.22.02.46.03.84.03h1.85ZM60.55,41.31h1.63v-1.76h-1.63v1.76Z"/>
    </g>
  </g>
</svg>