<?xml version="1.0" encoding="UTF-8"?>
<svg id="_レイヤー_2" data-name="レイヤー 2" xmlns="http://www.w3.org/2000/svg" width="345" height="70" viewBox="0 0 345 70">
  <defs>
    <style>
      .cls-1 {
        fill: #479d93;
      }

      .cls-2 {
        fill: #ceeaeb;
      }
    </style>
  </defs>
  <g id="_レイヤー_1-2" data-name="レイヤー 1">
    <g>
      <rect class="cls-2" width="345" height="70" rx="10" ry="10"/>
      <g>
        <path class="cls-1" d="M77.74,34.02c-1.42.14-1.78.16-2.59.16-.56,0-.65-.23-.77-1.84h.7c.88,0,1.67-.05,2.67-.16v-.38c0-1.17-.07-2.09-.25-3.06,1.37.07,1.91.14,2.29.25.18.05.25.14.25.32,0,.11-.02.18-.11.36-.16.34-.25.99-.27,2.21.59-.11,1.55-.34,2.27-.56.05-.02.09-.02.13-.02.14,0,.23.07.27.2.09.36.2,1.08.2,1.35,0,.14-.09.27-.23.32-.22.09-1.53.36-2.68.56v2.32c1.78-.59,3.17-.88,4.36-.88,2.3,0,3.8,1.48,3.8,3.76,0,1.48-.59,2.67-1.66,3.29-.56.32-1.35.52-2.21.52s-1.64-.07-1.84-.2c-.2-.11-.22-.16-.25-.59-.04-.5-.14-.94-.36-1.46.74.27,1.35.38,2.05.38,1.4,0,2.2-.72,2.2-2s-.76-2-1.96-2c-1.13,0-2.57.36-4.12,1.03q0,.07.02.77.02,1.19.02,1.44c.02.32.02.65.02.81,0,1.46-.56,2.16-1.75,2.16s-2.32-.61-3.04-1.55c-.29-.4-.43-.81-.43-1.3,0-1.17,1.04-2.23,3.31-3.4v-2.85ZM77.74,38.85c-1.04.63-1.48,1.04-1.48,1.42,0,.41.59.86,1.13.86.25,0,.34-.16.34-.58v-1.71ZM87.79,34.76c-.92-.97-2.18-1.78-3.37-2.16-.14-.05-.22-.13-.22-.22,0-.11.18-.4.68-1.08.2-.27.22-.29.4-.29.18.02.86.25,1.33.47,1.13.52,2.61,1.64,2.61,1.98,0,.32-.9,1.46-1.17,1.46-.09,0-.16-.04-.27-.16Z"/>
        <path class="cls-1" d="M97.27,34.3c-.67,0-1.21.02-1.69.07v-.83c-.92.58-1.67.95-2.81,1.44-.41-.92-.56-1.15-1.01-1.8,3.24-1.13,5.82-2.99,7.08-5.06h2.12c.7,1.01,1.44,1.76,2.67,2.68,1.42,1.04,2.72,1.69,4.59,2.3-.43.67-.68,1.19-.94,1.93-1.41-.59-1.96-.88-3.04-1.55v.88c-.45-.05-.96-.07-1.69-.07h-1.75v1.67h4.38c.92,0,1.41-.02,1.87-.09v1.91c-.47-.07-1.08-.11-1.89-.11h-4.36v3.87h4.7c.88,0,1.46-.04,2.04-.11v1.98c-.65-.07-1.35-.11-2.09-.11h-10.91c-.79,0-1.48.04-2.16.11v-1.98c.63.07,1.24.11,2.14.11h4.36v-3.87h-4.09c-.74,0-1.37.04-1.89.11v-1.91c.5.07,1.01.09,1.89.09h4.09v-1.67h-1.6ZM96.05,37.82c.59,1.04.9,1.67,1.39,2.88l-1.73.68c-.36-1.08-.81-2-1.37-2.86l1.71-.7ZM97.23,32.67h5.78c-1.3-.92-2.21-1.76-3.1-2.9-.88,1.15-1.66,1.89-3.04,2.9h.36ZM105.48,38.54q-.22.4-.85,1.66c-.07.13-.13.23-.72,1.22l-1.62-.61c.52-.85.96-1.76,1.37-2.97l1.82.7Z"/>
        <path class="cls-1" d="M115.32,38.98c.05.07.07.13.07.2q0,.11-.31.94c-.38,1.1-.61,2-.68,2.7-.02.23-.09.32-.32.38-.25.07-.74.11-1.21.11-.18,0-.27-.04-.32-.14-.16-.34-.45-1.58-.59-2.59-.13-.85-.18-1.73-.18-2.65,0-2.07.23-4.03.88-7.56.11-.58.14-.85.2-1.4.83.11,1.4.27,1.93.52.27.14.38.27.38.43,0,.11-.04.2-.13.34-.74,1.26-1.42,5.15-1.42,8.03,0,.43.02,1.12.07,1.98.43-1.12.63-1.62,1.03-2.48.13.49.25.72.61,1.21ZM118.35,34.24c-.86,0-1.04-.04-1.1-.23-.05-.16-.11-.74-.11-1.15,0-.14,0-.29.02-.61.49.04.77.05,1.37.05.97,0,1.58-.02,2.52-.09-.02-2.29-.04-2.57-.22-3.42.88.02,1.55.09,2.12.23.27.07.38.16.38.34,0,.07-.02.13-.07.27-.18.41-.27,1.12-.31,2.38.67-.09,1.24-.22,2.32-.47.09-.04.13-.04.18-.04.11,0,.16.05.2.18.04.16.09.85.09,1.22,0,.45-.02.52-.2.59-.29.14-1.08.27-2.61.47,0,1.24.11,3.29.23,4.47,1.13.49,1.91.9,2.7,1.46.5.36.61.49.61.61,0,.2-.32.81-.7,1.33-.22.31-.32.4-.45.4s-.13,0-.54-.4c-.4-.4-.81-.7-1.6-1.22v.14c0,1.58-1.31,2.63-3.31,2.63s-3.37-1.08-3.37-2.7,1.37-2.83,3.19-2.83c.67,0,1.01.02,1.49.09q-.07-1.4-.13-3.82c-.77.05-2,.11-2.72.11ZM119.82,39.53c-.9,0-1.5.41-1.5,1.04,0,.58.56.94,1.42.94.95,0,1.46-.43,1.46-1.26,0-.25-.02-.45-.02-.45-.47-.18-.88-.27-1.37-.27Z"/>
        <path class="cls-1" d="M131.07,33.29c-.32.02-.52.04-.74.05-.16.02-.18.02-.2.02-.14,0-.22-.05-.27-.23-.09-.29-.22-1.24-.23-1.78.2.02.72.04,1.37.04.2,0,1.62-.09,2.25-.14.31-1.46.41-2.21.41-3.19,1.85.25,2.52.47,2.52.81,0,.13-.02.16-.29.58-.14.22-.2.41-.5,1.53.85-.14,1.35-.27,2.02-.49.13-.04.18-.05.27-.05.13,0,.16.09.27.61.09.45.14.83.14,1.03,0,.22-.05.25-.52.36-.61.14-1.66.32-2.77.47-.67,2.02-1.12,3.1-1.94,4.79-.63,1.26-.99,1.93-1.48,2.68-.14.22-.23.29-.36.29-.18,0-.68-.27-1.31-.74-.29-.2-.36-.29-.36-.41s.07-.23.31-.56c.52-.65,1.21-1.76,1.8-2.95.5-.99.68-1.4,1.21-2.83-.7.05-.76.07-1.58.13ZM137,43.66c-1.96,0-3.3-1.08-3.3-2.68s1.39-2.9,3.24-2.9c.43,0,.63.02,1.37.13-.07-.86-.07-1.21-.14-2.88,0-.34-.04-.81-.07-1.39.92.09,1.62.2,1.96.34.14.05.22.14.22.29,0,.09-.02.16-.04.29-.09.38-.11.65-.11,1.13,0,.67.05,1.8.11,2.68,1.28.58,1.8.86,2.7,1.57.4.31.54.47.54.61,0,.18-.09.34-.59,1.15-.22.36-.38.52-.5.52q-.11,0-.61-.47c-.4-.4-.85-.7-1.48-1.08,0,1.67-1.22,2.68-3.29,2.68ZM136.96,39.8c-.86,0-1.46.41-1.46,1.04,0,.59.54.97,1.35.97.95,0,1.46-.49,1.46-1.44,0-.14,0-.29-.02-.29-.36-.18-.85-.29-1.33-.29ZM143.69,34.69c-.22.31-.32.4-.45.4-.09,0-.16-.04-.29-.16-.45-.43-1.08-.9-1.75-1.31q-.43-.27-1.22-.63c-.25-.11-.34-.18-.34-.32,0-.13.09-.29.36-.7.43-.63.54-.74.7-.74.34,0,1.67.68,2.63,1.33.77.52,1.01.74,1.01.94,0,.14-.29.68-.65,1.21Z"/>
        <path class="cls-1" d="M155.88,29.13c.22.14.31.25.31.38s-.02.14-.29.45c-.09.11-.36.5-.65.99q-.9,1.49-1.39,2.36c-.5.85-.83,1.42-1.01,1.69q-.05.09-.31.54c-.23.41-.38.63-.63.97,1.17-1.03,1.8-1.3,2.99-1.3.79,0,1.49.34,1.94.94.38.5.49.97.65,2.74.09,1.06.18,1.53.31,1.8.13.25.38.4.7.4,1.24,0,2.72-1.49,3.44-3.46.18.76.32,1.12.7,1.78.13.22.16.36.16.54,0,.2-.09.45-.31.79-.94,1.51-2.47,2.41-4.11,2.41-1.03,0-1.89-.36-2.34-.95-.36-.5-.52-1.17-.67-2.94-.09-1.15-.18-1.55-.43-1.84-.2-.22-.49-.32-.88-.32-1.19,0-2.75,1.6-3.67,3.73-.27.61-.45,1.17-.65,1.85-.07.27-.16.38-.29.38-.38,0-1.24-.36-1.71-.7-.13-.11-.18-.18-.18-.29,0-.09.04-.18.27-.68.14-.32.2-.41.32-.74q1.33-3.11,5.02-10.59c.41-.83.61-1.35.74-1.89.94.34,1.37.56,1.95.95Z"/>
        <path class="cls-1" d="M172.85,39.5c-.86,1.49-2.05,2.32-3.28,2.32-1.87,0-3.21-1.84-3.21-4.39,0-2.84,1.44-5.29,3.91-6.59,1.21-.65,2.5-.94,4.21-.94,3.76,0,6.55,2.67,6.55,6.23,0,3.15-1.55,5.42-4.54,6.7-.59.25-1.06.4-1.3.4-.22,0-.31-.07-.54-.41-.31-.47-.65-.81-1.13-1.13,3.71-.95,5.38-2.7,5.38-5.62,0-1.49-.63-2.75-1.75-3.55-.63-.43-1.13-.61-2.12-.77-.5,3.8-1.1,5.87-2.2,7.76ZM170.26,33.12c-1.21,1.06-1.89,2.57-1.89,4.27,0,1.39.45,2.2,1.21,2.2.9,0,1.82-1.24,2.5-3.39.43-1.35.65-2.38.92-4.38-1.28.27-1.91.58-2.74,1.3Z"/>
        <path class="cls-1" d="M185.65,33.74h-.11c-.09.02-.16.02-.2.02-.16,0-.25-.07-.31-.31-.11-.45-.18-1.01-.22-1.69.25.02.45.02.58.02.97,0,2.11-.07,3.06-.2.18-1.19.27-2.11.27-2.84v-.41c2.09.27,2.48.4,2.47.72,0,.09-.04.14-.11.31-.22.41-.23.47-.52,1.89.7-.13,1.6-.36,1.96-.49.07-.04.09-.04.14-.04.16,0,.2.07.34.7.07.36.14.86.14,1.01,0,.13-.05.2-.22.23q-.32.11-2.79.54c-.83,3.66-1.69,6.36-3.08,9.6-.09.23-.18.32-.29.32-.23,0-.86-.25-1.48-.59-.31-.16-.4-.25-.4-.34,0-.07.05-.2.14-.38,1.37-2.59,2.36-5.35,3.04-8.32-.79.11-1.35.16-2.45.25ZM193.34,40.58c.52.34,1.28.5,2.34.5,1.17,0,2.18-.11,2.75-.29.14-.04.18-.05.25-.05.16,0,.23.05.29.22.13.38.22,1.12.22,1.67,0,.23-.07.32-.31.38-.59.13-1.6.2-2.67.2-2.25,0-3.51-.36-4.34-1.22-.31-.32-.56-.74-.7-1.19-.11-.25-.18-.56-.18-.67,0-.31.54-.63,1.48-.94.2.76.41,1.08.86,1.39ZM198.4,35.34c-.36-.05-1.12-.09-1.75-.09-1.33,0-1.89.05-3.48.32-.04.02-.09.02-.13.02-.11,0-.16-.04-.2-.14-.05-.13-.13-1.01-.13-1.39,0-.23.04-.34.18-.4.07-.04.18-.05.56-.13,1.22-.22,2.25-.31,3.51-.31,1.04,0,1.58.04,1.71.13.09.07.11.22.11.81,0,.52-.04.99-.07,1.1-.02.05-.09.09-.18.09-.04,0-.09,0-.14-.02Z"/>
        <path class="cls-1" d="M211.08,31.88c.27-1.48.36-2.11.36-2.7,0-.07,0-.18-.02-.31,1.51.22,2.38.56,2.38.95,0,.14-.02.16-.22.52-.14.25-.27.68-.52,1.64,1.22.22,2.25.76,3.06,1.57.99.99,1.48,2.21,1.48,3.71,0,2.5-1.37,4.45-3.8,5.44-.49.2-1.44.45-1.67.45-.14,0-.23-.07-.36-.25-.29-.47-.72-.94-1.24-1.31,1.82-.31,2.68-.63,3.58-1.37.95-.77,1.44-1.78,1.44-3.01,0-1.82-1.17-3.29-2.9-3.64-.59,1.87-1.24,3.37-2.04,4.74.27.27.43.43.72.7.2.18.27.29.27.41,0,.31-1.01,1.3-1.3,1.3-.14,0-.38-.16-.9-.68-1.1,1.31-2.18,1.96-3.26,1.96-1.5,0-2.49-1.26-2.49-3.19,0-1.73.72-3.33,2.11-4.68-.25-.65-.29-.81-.68-2.05-.14-.47-.31-.97-.52-1.49.65-.14,1.49-.27,1.93-.27.18,0,.29.05.34.18q.05.09.07.52c.02.38.18,1.06.45,1.89,1.17-.67,2.48-1.04,3.73-1.03ZM206.55,35.92c-.67.88-1.03,1.82-1.03,2.67s.34,1.35.86,1.35c.56,0,1.08-.38,1.82-1.28-.67-.88-1.12-1.64-1.66-2.74ZM210.67,33.5c-.99.14-1.76.43-2.68,1.04.47.94.83,1.55,1.39,2.29.61-1.19.97-2.11,1.3-3.33Z"/>
        <path class="cls-1" d="M226.13,38.63c.05.09.07.16.07.25,0,.13-.02.14-.18.54-.36.83-.79,2.12-1.01,3.1-.05.2-.11.31-.18.34-.09.04-.7.13-.9.13h-.07c-.09,0-.22-.02-.36-.02-.23,0-.29-.05-.36-.27-.34-1.17-.61-3.58-.61-5.4,0-1.98.13-3.21.63-5.91.18-.97.27-1.51.34-2.11.76.14,1.4.32,1.94.58.31.13.4.22.4.4,0,.13-.02.18-.22.47-.59.95-1.26,4.77-1.26,7.35,0,.41.02.97.07,1.87.5-1.13.68-1.48,1.1-2.36.16.38.27.56.59,1.04ZM230.04,39.91c.58.31,1.26.41,2.47.41s1.84-.09,2.95-.41c.11-.04.2-.05.25-.05.13,0,.22.07.23.25.09.61.16,1.33.16,1.69,0,.18-.05.23-.31.31-.97.25-1.96.38-3.17.38-1.66,0-2.68-.2-3.53-.7-.79-.49-1.62-1.48-1.62-1.96,0-.25.38-.59,1.35-1.19.32.65.63.97,1.21,1.28ZM228.78,30.73c.4.09,1.55.16,2.43.16,1.19,0,2.38-.09,3.49-.29q.09-.02.16-.02c.13,0,.18.05.22.2.04.18.09.97.09,1.46,0,.27-.05.36-.25.4-.74.14-1.96.23-3.26.23-1.55,0-2.93-.09-3.12-.2-.09-.05-.13-.18-.13-.5,0-.49.05-1.21.09-1.35.02-.07.07-.11.18-.11.02,0,.05,0,.09.02Z"/>
        <path class="cls-1" d="M244.71,32.35c-.83.05-1.6.07-2.29.07-.76,0-.81,0-.85-.11-.05-.11-.11-.86-.11-1.39v-.34c.85.04,1.21.05,1.66.05s1.13-.02,1.67-.04c.09-1.04.11-1.4.11-1.76,0-.16,0-.27-.02-.52.86.02,1.53.07,2.05.2.14.04.22.11.22.23,0,.09-.02.16-.11.38-.14.34-.25.81-.32,1.37,1.15-.09,2.54-.27,3.1-.4.54-.13.92-.2,1.01-.2.38-.04.65-.11.76-.2.02-.02.04-.02.04-.02.04,0,.05.02.09.02.07,0,.13.07.16.2.04.27.09.9.09,1.3,0,.27-.05.34-.23.38-1.06.22-3.26.49-5.15.65-.02.07-.02.11-.02.29-.04.34-.04.38-.05,1.28.79-.18,1.49-.27,2.38-.27.13-.58.14-.72.18-1.13,1.39.29,2.07.54,2.07.76,0,.07-.02.13-.16.36-.05.07-.09.13-.13.25,2.32.54,3.8,2.25,3.8,4.47,0,1.96-1.06,3.53-3.1,4.61-.76.4-1.82.76-2.21.76-.2,0-.34-.07-.45-.22-.38-.54-.61-.79-1.19-1.28,1.87-.34,2.79-.72,3.69-1.46.83-.7,1.22-1.51,1.22-2.52,0-1.44-.85-2.52-2.29-2.94-1.08,2.48-1.8,3.66-3.1,4.99.09.31.16.49.32.86.07.14.09.2.09.25,0,.18-.07.23-.49.45-.45.23-.97.41-1.15.41-.16,0-.2-.05-.4-.61-1.04.74-2.16,1.13-3.26,1.13-1.22,0-2.05-.99-2.05-2.43,0-2.25,1.64-4.45,4.36-5.8.02-.94.04-1.73.05-2.09ZM242.17,39.91c0,.45.27.72.72.72.61,0,1.42-.34,2.23-.94-.25-1.22-.36-2.05-.45-3.4-1.58,1.17-2.5,2.52-2.5,3.62ZM248.47,34.94c-.81.07-1.24.14-1.98.4.04,1.28.07,1.82.22,2.74.76-.95,1.26-1.85,1.76-3.13Z"/>
        <path class="cls-1" d="M267.87,34.28c2.54,0,4.34,1.73,4.34,4.18,0,1.67-.88,3.19-2.36,4.07-1.03.61-2.29.92-3.71.92-2.29,0-3.62-.92-3.62-2.48,0-1.42,1.19-2.43,2.88-2.43,1.53,0,2.63.77,3.37,2.36.92-.67,1.3-1.37,1.3-2.34,0-1.55-1.1-2.56-2.83-2.56s-3.66.88-5.22,2.45c-.29.29-.56.59-.88,1.01-.13.18-.22.25-.32.25-.32,0-1.6-1.26-1.6-1.58,0-.16.07-.25.47-.54.41-.32,1.01-.85,1.76-1.57,1.75-1.66,3.02-3.04,4.92-5.35-2.25.29-3.76.54-4.32.74-.09.02-.14.04-.2.04-.14,0-.23-.09-.34-.36-.22-.54-.32-1.13-.38-1.93.49.07.83.09,1.22.09.86,0,2.32-.13,4.21-.34.67-.07.88-.13,1.39-.32.16-.07.25-.09.36-.09.25,0,.5.22.97.94.34.47.45.7.45.85,0,.23-.05.31-.45.56-.32.2-.52.36-.94.76-.9.86-.92.86-2.03,2-.79.81-.88.9-1.6,1.62,1.17-.65,2.09-.92,3.17-.92ZM266.15,40.51c-.27-.18-.58-.27-.92-.27-.56,0-.92.27-.92.7,0,.52.56.85,1.42.85.4,0,.74-.04,1.19-.16-.22-.59-.4-.86-.77-1.12Z"/>
        <path class="cls-1" d="M283.55,39.5c-.86,1.49-2.05,2.32-3.28,2.32-1.87,0-3.21-1.84-3.21-4.39,0-2.84,1.44-5.29,3.91-6.59,1.21-.65,2.5-.94,4.21-.94,3.76,0,6.55,2.67,6.55,6.23,0,3.15-1.55,5.42-4.54,6.7-.59.25-1.06.4-1.3.4-.22,0-.31-.07-.54-.41-.31-.47-.65-.81-1.13-1.13,3.71-.95,5.38-2.7,5.38-5.62,0-1.49-.63-2.75-1.75-3.55-.63-.43-1.13-.61-2.12-.77-.5,3.8-1.1,5.87-2.2,7.76ZM280.96,33.12c-1.21,1.06-1.89,2.57-1.89,4.27,0,1.39.45,2.2,1.21,2.2.9,0,1.82-1.24,2.5-3.39.43-1.35.65-2.38.92-4.38-1.28.27-1.91.58-2.74,1.3Z"/>
        <path class="cls-1" d="M298.31,31.54c.42-1.08.81-1.66,1.5-2.23.83-.68,1.82-1.01,3.08-1.01,2.7,0,4.43,1.48,4.43,3.78,0,.77-.22,1.51-.63,2.11-.32.47-.47.61-1.48,1.53-1.4,1.26-1.71,1.75-1.71,2.7v.95h-1.84v-1.01c0-.81.16-1.53.49-2.11.25-.45.52-.76,1.24-1.48.76-.74.99-1.01,1.19-1.33.25-.36.4-.86.4-1.35,0-1.21-.81-1.96-2.09-1.96s-2.04.67-2.58,2.23l-2-.83ZM304.05,42.04c0,.79-.63,1.42-1.42,1.42s-1.42-.63-1.42-1.42.63-1.42,1.42-1.42,1.42.63,1.42,1.42Z"/>
      </g>
      <g>
        <path class="cls-1" d="M31.15,46.67c-4.41,0-7.11-4.05-7.11-10.62s2.7-10.62,7.23-10.62,7.23,3.96,7.23,10.59-2.67,10.65-7.35,10.65ZM31.27,27.77c-2.94,0-4.68,3.06-4.68,8.25s1.71,8.31,4.77,8.31c2.88,0,4.59-3.09,4.59-8.28s-1.74-8.28-4.68-8.28Z"/>
        <path class="cls-1" d="M46.53,46.19v-14.94h-3.72v-1.89c2.52-.12,3.78-1.17,4.11-3.45h2.07v20.28h-2.46Z"/>
      </g>
    </g>
  </g>
</svg>