<?xml version="1.0" encoding="UTF-8"?>
<svg id="_レイヤー_2" data-name="レイヤー 2" xmlns="http://www.w3.org/2000/svg" width="345" height="70" viewBox="0 0 345 70">
  <defs>
    <style>
      .cls-1 {
        fill: #479d93;
      }

      .cls-2 {
        fill: #ceeaeb;
      }
    </style>
  </defs>
  <g id="_レイヤー_1-2" data-name="レイヤー 1">
    <g>
      <rect class="cls-2" width="345" height="70" rx="10" ry="10"/>
      <g>
        <path class="cls-1" d="M75.78,29.69c0-.83-.02-1.21-.11-1.76h2.07c-.09.54-.11.95-.11,1.75v1.42h.96c.38,0,.59-.02.86-.05v1.78c-.31-.04-.58-.05-.9-.05h-.92v2.63c.52-.18.77-.27,1.51-.56l.02,1.69q-1.03.4-1.53.58v5.02c0,.76-.27,1.26-.77,1.42-.36.13-1.03.2-1.67.2-.31,0-.54-.02-1.04-.05-.07-.76-.14-1.1-.41-1.8.65.09,1.12.13,1.53.13s.52-.09.52-.52v-3.76q-1.58.5-1.91.65l-.38-1.93c.74-.09.85-.11,2.29-.5v-3.19h-.88c-.43,0-.74.02-1.22.07v-1.84c.4.07.72.09,1.24.09h.86v-1.4ZM88.34,36.24q-.13.16-.45.7c-.9,1.49-1.57,2.38-2.52,3.29,1.33.85,2.48,1.3,4.27,1.64-.47.58-.81,1.19-1.08,1.87-2.12-.65-3.38-1.24-4.72-2.23-1.4,1.03-2.86,1.69-4.86,2.27-.38-.77-.61-1.17-1.06-1.73,1.8-.38,2.94-.85,4.52-1.84-1.01-1.08-1.48-1.8-2.16-3.37-.32.02-.54.04-.83.07v-1.82c.38.07.79.09,1.39.09h5.46c.47,0,.79-.02,1.04-.07l1.01,1.12ZM89.48,31.4c-.2,2.59-.4,2.81-2.66,2.81-.83,0-1.24-.04-1.51-.13-.52-.18-.68-.49-.68-1.3v-2.63h-2.09c-.07,2.54-.74,3.89-2.47,5.02-.42-.54-.76-.85-1.39-1.3,1.57-.86,2.07-2,2.07-4.7,0-.27-.02-.49-.05-.86.32.04.74.05,1.13.05h3.57c.38,0,.76-.02,1.08-.05-.04.22-.05.61-.05,1.1v2.65c0,.27.02.34.14.38.07.04.29.05.47.05.25,0,.5-.04.58-.09.16-.13.22-.47.22-1.4v-.2c0-.13,0-.32-.02-.58.99.54,1.15.61,1.69.79l-.02.38ZM82.19,36.85c.45.88.99,1.6,1.73,2.29.83-.7,1.24-1.19,1.93-2.29h-3.66Z"/>
        <path class="cls-1" d="M98.96,30.55c-.5.54-.95.94-1.64,1.46-.4-.54-.7-.83-1.17-1.15,1.37-.9,2.39-2.07,2.77-3.1l1.82.32q-.13.18-.31.49c-.09.16-.22.34-.38.56h5.08c.74,0,1.13-.02,1.44-.07l1.03.81c-.14.18-.18.23-.31.43-.65.94-.88,1.24-1.6,1.94-.52-.29-.97-.47-1.6-.67.56-.38.76-.56,1.15-1.03h-2.67c.54,1.71,2.34,2.65,5.46,2.81-.36.61-.52.99-.7,1.69-.72-.13-.99-.18-1.58-.32-.02.5-.02.97-.02,1.48v3.21q.02,1.53.07,1.84c-.38-.04-1.1-.05-1.84-.05h-.81c1.39.65,2.56.94,4.79,1.15-.43.5-.63.81-1.08,1.58-2.56-.43-3.8-.86-5.64-1.98l1.01-.76h-4.74l1.06.76c-1.8,1.1-2.95,1.51-5.47,1.98-.4-.72-.54-.92-1.06-1.53,2.29-.27,3.44-.58,4.61-1.21h-.7c-.81,0-1.42.02-1.84.05.04-.32.07-1.03.07-1.73v-3.42c0-.79-.02-1.28-.07-1.76.34.02.99.04,1.76.04h.9c-.2-.43-.4-.72-.72-1.12-.92.43-1.17.54-2.5,1.08-.25.11-.43.18-.74.34l-.68-1.78c1.15-.22,2.68-.77,4.23-1.55l.52,1.51-.61.31c1.21-.16,1.96-.34,2.61-.63,1.08-.49,1.6-1.04,1.84-1.98h-1.75ZM95.29,31.11c-.99-.79-1.6-1.17-2.74-1.69l1.12-1.31c1.28.59,1.78.88,2.81,1.58l-1.19,1.42ZM95.97,36.28h7.96v-.65h-7.96v.65ZM95.97,38.08h7.96v-.68h-7.96v.68ZM95.97,39.84h7.96v-.65h-7.96v.65ZM104.04,34.37h.59c-1.44-.52-2.27-1.19-2.95-2.29-.45.74-.85,1.12-1.6,1.57-.54.32-1.06.52-1.95.72h5.91Z"/>
        <path class="cls-1" d="M115.32,38.98c.05.07.07.13.07.2q0,.11-.31.94c-.38,1.1-.61,2-.68,2.7-.02.23-.09.32-.32.38-.25.07-.74.11-1.21.11-.18,0-.27-.04-.32-.14-.16-.34-.45-1.58-.59-2.59-.13-.85-.18-1.73-.18-2.65,0-2.07.23-4.03.88-7.56.11-.58.14-.85.2-1.4.83.11,1.4.27,1.93.52.27.14.38.27.38.43,0,.11-.04.2-.13.34-.74,1.26-1.42,5.15-1.42,8.03,0,.43.02,1.12.07,1.98.43-1.12.63-1.62,1.03-2.48.13.49.25.72.61,1.21ZM118.35,34.24c-.86,0-1.04-.04-1.1-.23-.05-.16-.11-.74-.11-1.15,0-.14,0-.29.02-.61.49.04.77.05,1.37.05.97,0,1.58-.02,2.52-.09-.02-2.29-.04-2.57-.22-3.42.88.02,1.55.09,2.12.23.27.07.38.16.38.34,0,.07-.02.13-.07.27-.18.41-.27,1.12-.31,2.38.67-.09,1.24-.22,2.32-.47.09-.04.13-.04.18-.04.11,0,.16.05.2.18.04.16.09.85.09,1.22,0,.45-.02.52-.2.59-.29.14-1.08.27-2.61.47,0,1.24.11,3.29.23,4.47,1.13.49,1.91.9,2.7,1.46.5.36.61.49.61.61,0,.2-.32.81-.7,1.33-.22.31-.32.4-.45.4s-.13,0-.54-.4c-.4-.4-.81-.7-1.6-1.22v.14c0,1.58-1.31,2.63-3.31,2.63s-3.37-1.08-3.37-2.7,1.37-2.83,3.19-2.83c.67,0,1.01.02,1.49.09q-.07-1.4-.13-3.82c-.77.05-2,.11-2.72.11ZM119.82,39.53c-.9,0-1.5.41-1.5,1.04,0,.58.56.94,1.42.94.95,0,1.46-.43,1.46-1.26,0-.25-.02-.45-.02-.45-.47-.18-.88-.27-1.37-.27Z"/>
        <path class="cls-1" d="M133.09,34.02c-1.42.14-1.78.16-2.59.16-.56,0-.65-.23-.77-1.84h.7c.88,0,1.67-.05,2.67-.16v-.38c0-1.17-.07-2.09-.25-3.06,1.37.07,1.91.14,2.29.25.18.05.25.14.25.32,0,.11-.02.18-.11.36-.16.34-.25.99-.27,2.21.59-.11,1.55-.34,2.27-.56.05-.02.09-.02.13-.02.14,0,.23.07.27.2.09.36.2,1.08.2,1.35,0,.14-.09.27-.23.32-.22.09-1.53.36-2.68.56v2.32c1.78-.59,3.17-.88,4.36-.88,2.3,0,3.8,1.48,3.8,3.76,0,1.48-.59,2.67-1.66,3.29-.56.32-1.35.52-2.21.52s-1.64-.07-1.84-.2c-.2-.11-.22-.16-.25-.59-.04-.5-.14-.94-.36-1.46.74.27,1.35.38,2.05.38,1.4,0,2.2-.72,2.2-2s-.76-2-1.96-2c-1.13,0-2.58.36-4.12,1.03q0,.07.02.77.02,1.19.02,1.44c.02.32.02.65.02.81,0,1.46-.56,2.16-1.75,2.16s-2.32-.61-3.04-1.55c-.29-.4-.43-.81-.43-1.3,0-1.17,1.04-2.23,3.31-3.4v-2.85ZM133.09,38.85c-1.04.63-1.48,1.04-1.48,1.42,0,.41.59.86,1.13.86.25,0,.34-.16.34-.58v-1.71ZM143.14,34.76c-.92-.97-2.18-1.78-3.37-2.16-.14-.05-.22-.13-.22-.22,0-.11.18-.4.68-1.08.2-.27.22-.29.4-.29.18.02.86.25,1.33.47,1.13.52,2.61,1.64,2.61,1.98,0,.32-.9,1.46-1.17,1.46-.09,0-.16-.04-.27-.16Z"/>
        <path class="cls-1" d="M155.95,40.36c1.48,0,3.12-.22,4.74-.63.09-.04.14-.04.2-.04.11,0,.16.07.2.23.05.4.09.97.09,1.57,0,.36-.04.47-.2.54-.54.29-2.97.56-5.06.56-2.72,0-4.27-.45-5.51-1.62-.59-.56-1.19-1.53-1.19-1.93,0-.27.16-.38,1.64-1.22.65,1.78,2.14,2.54,5.1,2.54ZM156.11,30.01c1.04,0,1.66-.04,2.88-.22h.13c.14,0,.2.05.23.16.04.22.07.76.07,1.4,0,.41-.04.56-.14.63-.14.09-1.71.2-2.92.2-1.6,0-2.93-.13-4.43-.41-1.03-.2-1.08-.25-1.08-.88,0-.41.04-1.1.09-1.6,1.57.49,3.28.72,5.17.72Z"/>
        <path class="cls-1" d="M169.34,32.01c3.03-.85,4.54-1.12,6.23-1.12,1.82,0,3.24.49,4.2,1.42.79.81,1.22,1.93,1.22,3.24,0,2.3-1.24,4.27-3.4,5.37-1.15.59-2.32.99-3.93,1.3-.7.14-1.06.2-1.33.2-.22,0-.32-.07-.43-.27-.41-.85-.58-1.08-1.12-1.66,2.68-.32,4.14-.68,5.55-1.39,1.53-.76,2.38-2,2.38-3.51,0-1.69-1.15-2.79-2.92-2.79-2.14,0-4.52.61-7.26,1.89-.49.22-.74.34-.92.45-.32.18-.41.22-.52.22-.34,0-.96-1.1-1.37-2.5.83-.11,1.66-.29,3.62-.85ZM180.09,31.16c-.18.14-.27.2-.36.2q-.11,0-.47-.49c-.34-.47-.7-.86-1.28-1.37-.05-.05-.09-.13-.09-.18,0-.16.72-.76.94-.76.13,0,.63.41,1.21,1.01.5.52.67.74.67.86,0,.14-.18.36-.61.72ZM181.22,29.78c-.4-.58-.9-1.13-1.44-1.6-.07-.05-.09-.09-.09-.16,0-.16.68-.7.88-.7.16,0,.52.27.99.74.59.61.85.94.85,1.06s-.04.18-.25.38c-.29.25-.61.49-.7.49-.05,0-.14-.05-.23-.2Z"/>
        <path class="cls-1" d="M186.26,34.64c-.14.04-.22.07-.32.13-.09.05-.14.07-.23.07-.38,0-.67-.7-.88-2.03.14.02.27.02.34.02.76,0,2.68-.23,3.84-.47.38-1.58.58-2.77.58-3.64,0-.07,0-.16-.02-.31.77.09,1.51.25,2.02.45.29.11.43.27.43.45,0,.09-.02.14-.11.29q-.27.49-.83,2.47c.43-.05.92-.09,1.22-.09.74,0,1.31.14,1.73.43.72.52,1.08,1.58,1.08,3.22,0,2.68-.49,4.97-1.31,6.1-.58.79-1.33,1.17-2.39,1.17-.65,0-1.26-.09-1.44-.2q-.14-.09-.2-.76c-.05-.49-.16-.9-.38-1.4.94.31,1.17.36,1.75.36.86,0,1.22-.41,1.62-1.85.27-.95.41-2.2.41-3.51,0-1.4-.34-1.91-1.3-1.91-.32,0-.85.04-1.26.11-.05.2-.07.22-.14.47-.5,1.84-1.42,4.27-2.34,6.21-.95,1.96-1.19,2.36-1.42,2.36-.14,0-.63-.25-1.15-.59-.41-.25-.52-.36-.52-.5q0-.09.74-1.26c.99-1.53,2.29-4.54,2.74-6.3-1.33.29-2.07.47-2.23.52ZM195.44,32.62c0-.13.16-.29.68-.7.36-.27.54-.38.67-.38.11,0,.2.05.43.29,1.06,1.03,2.05,2.39,2.63,3.58.18.4.29.65.29.76,0,.18-.05.23-.63.7-.36.29-.77.52-.92.52-.13,0-.18-.05-.31-.36-.36-.88-.7-1.57-1.13-2.23-.47-.72-.56-.83-1.62-1.96-.07-.11-.09-.16-.09-.22Z"/>
        <path class="cls-1" d="M203.94,31.76c0-.52-.02-1.22-.05-1.62.83.09,1.44.22,1.93.4.43.16.58.27.58.47q0,.11-.07.29c-.23.61-.31,1.3-.31,2.94,0,2.3.14,3.75.5,4.84.27.85.68,1.33,1.17,1.33.74,0,1.35-.86,2.02-2.86.34.92.47,1.19.97,1.84.09.13.14.25.14.38,0,.29-.27.9-.63,1.42-.7,1.03-1.6,1.58-2.56,1.58-1.39,0-2.43-1.12-3.08-3.33-.41-1.44-.61-3.26-.61-5.78v-1.89ZM214.65,32.04c.11,0,.2.05.34.18.9.86,1.84,2.3,2.43,3.71.4.95.77,2.23.77,2.61,0,.18-.09.27-.47.47-.41.22-1.26.5-1.48.5-.16,0-.23-.09-.29-.41-.23-1.39-.56-2.39-1.12-3.56-.5-1.04-.54-1.1-1.76-2.61.76-.56,1.35-.88,1.57-.88Z"/>
        <path class="cls-1" d="M226.64,33.97c-.23-.79-.31-1.28-.52-3.49-.07-.86-.14-1.3-.32-1.91,1.1.02,1.8.07,2.29.2.27.07.4.2.4.4,0,.07-.02.16-.05.31-.13.43-.18.76-.18,1.22,0,.88.18,2.32.38,2.95.11.34.22.47.41.47.43,0,2.02-.83,2.88-1.49.23-.18.27-.2.36-.2.16,0,.32.13.59.47.45.61.81,1.28.81,1.53,0,.2-.13.32-.43.41-1.12.31-2.95,1.03-4.2,1.62-2.2,1.08-3.19,2.07-3.19,3.19s.92,1.55,3.24,1.55c1.35,0,2.58-.13,4.23-.4.07-.02.2-.04.23-.04.14,0,.23.07.31.22.05.18.18,1.28.18,1.71,0,.25-.07.34-.31.41-.4.09-2.58.22-3.94.22-2.3,0-3.83-.31-4.79-.95-.81-.56-1.24-1.44-1.24-2.52,0-.83.23-1.57.72-2.29.63-.94,1.31-1.53,2.83-2.43-.38-.34-.52-.59-.68-1.15Z"/>
        <path class="cls-1" d="M241.16,36.98c0-.81.02-1.31.04-2.07-.41.81-.67,1.21-1.17,1.85-.32-1.12-.41-1.33-.79-2.03.81-.94,1.41-1.91,2.02-3.29.56-1.26.88-2.3,1.08-3.49l1.82.58c-.05.14-.07.2-.11.34q-.05.16-.14.43s-.02.07-.05.16c-.13.49-.25.9-.36,1.19-.02.05-.14.4-.34.88-.04.11-.11.27-.18.49v9.74c0,.9.02,1.46.09,2.07h-2c.07-.65.11-1.24.11-2.07v-4.77ZM244.91,30.32c0-.95-.02-1.35-.11-1.89h2.03c-.09.49-.11.94-.11,1.89v7.87c.94-.4,2.04-.94,3.29-1.62l.07,1.69c-1.42.81-2.3,1.28-3.49,1.85q-.36.16-1.57.7c-.14.07-.31.14-.5.23q-.32.14-.61.31l-.32-2.05c.43-.11.58-.14,1.31-.41v-8.57ZM254.63,28.34c-.05.34-.11.99-.13,1.53-.2,4.7-.63,6.86-1.73,8.88.88,1.53,1.55,2.21,3.19,3.31-.61.79-.79,1.06-1.17,1.84-1.51-1.24-2.32-2.18-3.13-3.58-1.19,1.39-2.66,2.48-4.83,3.56-.34-.67-.56-.95-1.21-1.67,1.44-.59,2.29-1.06,3.31-1.84,1.26-.94,1.91-1.69,2.47-2.84.54-1.13.85-2.36,1.01-4.1.13-1.22.2-2.79.2-3.98,0-.67,0-.83-.05-1.15l2.07.05ZM249.86,34.87c-.83-1.93-1.3-2.77-2.45-4.32l1.55-.99c1.13,1.62,1.66,2.5,2.52,4.25l-1.62,1.06Z"/>
        <path class="cls-1" d="M261.25,32.89c-.47.11-.63.16-1.28.4-.23.09-.36.13-.47.13-.4,0-.76-.74-1.08-2.29,1.15-.05,1.57-.11,3.57-.41,2.16-.32,4.9-.74,6.34-.92,1.62-.22,2.92-.43,3.6-.58.13-.04.18-.04.27-.04.23,0,.32.11.49.56.14.38.25.92.25,1.17,0,.22-.07.29-.32.29-.38,0-.72.04-1.06.09-3.04.5-5.47,3.17-5.47,5.98,0,2.11,1.66,3.49,4.47,3.75.25.02.34.11.34.32,0,.45-.18,1.31-.34,1.71-.09.2-.23.29-.47.29s-.77-.11-1.33-.27c-3.06-.9-4.66-2.85-4.66-5.6,0-1.49.49-2.88,1.42-4.07.5-.65.94-1.01,1.96-1.71-2.36.4-4.84.86-6.21,1.21Z"/>
        <path class="cls-1" d="M286.32,34.28c2.54,0,4.34,1.73,4.34,4.18,0,1.67-.88,3.19-2.36,4.07-1.03.61-2.29.92-3.71.92-2.29,0-3.62-.92-3.62-2.48,0-1.42,1.19-2.43,2.88-2.43,1.53,0,2.63.77,3.37,2.36.92-.67,1.3-1.37,1.3-2.34,0-1.55-1.1-2.56-2.83-2.56s-3.66.88-5.22,2.45c-.29.29-.56.59-.88,1.01-.13.18-.22.25-.32.25-.32,0-1.6-1.26-1.6-1.58,0-.16.07-.25.47-.54.41-.32,1.01-.85,1.76-1.57,1.75-1.66,3.02-3.04,4.92-5.35-2.25.29-3.76.54-4.32.74-.09.02-.14.04-.2.04-.14,0-.23-.09-.34-.36-.22-.54-.32-1.13-.38-1.93.49.07.83.09,1.22.09.86,0,2.32-.13,4.21-.34.67-.07.88-.13,1.39-.32.16-.07.25-.09.36-.09.25,0,.5.22.97.94.34.47.45.7.45.85,0,.23-.05.31-.45.56-.32.2-.52.36-.94.76-.9.86-.92.86-2.03,2-.79.81-.88.9-1.6,1.62,1.17-.65,2.09-.92,3.17-.92ZM284.6,40.51c-.27-.18-.58-.27-.92-.27-.56,0-.92.27-.92.7,0,.52.56.85,1.42.85.4,0,.74-.04,1.19-.16-.22-.59-.4-.86-.77-1.12Z"/>
        <path class="cls-1" d="M298.31,31.54c.42-1.08.81-1.66,1.5-2.23.83-.68,1.82-1.01,3.08-1.01,2.7,0,4.43,1.48,4.43,3.78,0,.77-.22,1.51-.63,2.11-.32.47-.47.61-1.48,1.53-1.4,1.26-1.71,1.75-1.71,2.7v.95h-1.84v-1.01c0-.81.16-1.53.49-2.11.25-.45.52-.76,1.24-1.48.76-.74.99-1.01,1.19-1.33.25-.36.4-.86.4-1.35,0-1.21-.81-1.96-2.09-1.96s-2.04.67-2.58,2.23l-2-.83ZM304.05,42.04c0,.79-.63,1.42-1.42,1.42s-1.42-.63-1.42-1.42.63-1.42,1.42-1.42,1.42.63,1.42,1.42Z"/>
      </g>
      <g>
        <path class="cls-1" d="M31.15,46.67c-4.41,0-7.11-4.05-7.11-10.62s2.7-10.62,7.23-10.62,7.23,3.96,7.23,10.59-2.67,10.65-7.35,10.65ZM31.27,27.77c-2.94,0-4.68,3.06-4.68,8.25s1.71,8.31,4.77,8.31c2.88,0,4.59-3.09,4.59-8.28s-1.74-8.28-4.68-8.28Z"/>
        <path class="cls-1" d="M40.75,46.19c.12-3.96,1.53-6.06,5.88-8.88,4.32-2.82,5.16-3.87,5.16-5.91,0-2.19-1.38-3.6-3.54-3.6h-.12c-1.77,0-3.21.69-3.93,1.83-.42.66-.6,1.47-.69,2.88h-2.49c.21-4.53,2.73-7.05,6.96-7.05,3.84,0,6.36,2.28,6.36,5.82,0,1.47-.36,2.82-1.11,3.9-.78,1.14-1.74,1.95-4.5,3.72-3.03,1.95-4.62,3.45-5.07,4.95h10.8v2.34h-13.71Z"/>
      </g>
    </g>
  </g>
</svg>