<?xml version="1.0" encoding="UTF-8"?>
<svg id="_レイヤー_2" data-name="レイヤー 2" xmlns="http://www.w3.org/2000/svg" width="345" height="70" viewBox="0 0 345 70">
  <defs>
    <style>
      .cls-1 {
        fill: #479d93;
      }

      .cls-2 {
        fill: #ceeaeb;
      }
    </style>
  </defs>
  <g id="_レイヤー_1-2" data-name="レイヤー 1">
    <g>
      <rect class="cls-2" width="345" height="70" rx="10" ry="10"/>
      <g>
        <path class="cls-1" d="M85.68,36.17c.18,1.04.31,1.49.59,2.16.92-.61,1.64-1.26,2.07-1.82l1.21,1.3q-.27.22-1.06.86c-.41.34-.81.65-1.42,1.04.67.95,1.39,1.6,2.72,2.45-.41.5-.74.97-1.19,1.71-1.49-1.17-2.25-1.96-2.99-3.15l.04,1.57c-1.55.54-3.62,1.13-5.1,1.44q-.29.07-.59.16l-.32-1.46c-1.15.34-2.75.72-3.83.92-.49.11-1.44.29-1.75.34l-.32-1.93c.76-.02,1.4-.09,2.9-.34v-4.86h-1.01c-.68,0-1.21.04-1.67.09v-1.78c.45.05.99.09,1.69.09h.99v-1.26h-.38c-.4,0-.7.02-1.06.05v-.77c-.41.38-.49.43-.86.74-.27-.74-.43-1.06-.85-1.71.65-.43,1.3-1.01,1.8-1.58.59-.65.97-1.26,1.37-2.18h1.91c.47.97.85,1.48,1.66,2.2.27.25.4.36,1.01.81v-.77c0-.7-.04-1.3-.07-1.82.43.05.9.07,1.66.07h4.3c.77,0,1.24-.02,1.62-.07-.05.43-.05.86-.05,1.91v3.84q.02,1.46.05,1.8c-.32-.02-.74-.04-1.28-.04h-1.76ZM74.77,40.97c-.18-1.33-.38-2.2-.77-3.38l1.37-.43c.43,1.28.63,2.14.79,3.33l-1.39.49ZM76.24,32.22h2.72c.25,0,.4,0,.58-.02-.85-.85-1.31-1.44-1.89-2.41-.52,1.03-.95,1.64-1.69,2.43h.29ZM78.32,41.08c.72-.14,1.08-.23,2.12-.54l.02,1.39c.34-.05.47-.09.76-.14v-10.46q-.07.09-.18.22c-.34.41-.58.79-.83,1.28l-.23-.22v1.15c-.34-.04-.65-.05-1.06-.05h-.59v1.26h.88c.65,0,1.06-.02,1.44-.07v1.75c-.47-.05-.77-.07-1.44-.07h-.88v4.52ZM78.59,39.95c.36-.94.58-1.67.77-2.83l1.3.45c-.31,1.21-.5,1.78-.9,2.77l-1.17-.4ZM82.96,31.67h3.96v-1.3h-3.96v1.3ZM82.96,34.53h3.96v-1.28h-3.96v1.28ZM82.96,36.17v5.24c1.13-.29,1.35-.36,2.58-.77-.83-1.42-1.19-2.47-1.53-4.47h-1.04Z"/>
        <path class="cls-1" d="M94.42,38.62c0-.7,0-.94.04-2-.47.54-.99,1.03-1.57,1.46-.29-.77-.49-1.22-.88-1.85,1.84-1.17,3.6-3.06,4.27-4.56l1.62,1.08c-.18.2-.32.4-.58.76-.4.58-.54.77-.99,1.33v6.82c0,.94.04,1.62.11,2.18h-2.14c.07-.54.13-1.3.13-2.2v-3.02ZM97.63,28.97q-.22.23-.52.59c-1.17,1.39-2.34,2.41-3.98,3.46-.36-.68-.63-1.1-1.08-1.64,1.35-.74,2.23-1.42,3.08-2.38.4-.43.61-.76.85-1.21l1.66,1.17ZM99.97,34.91c-.81,0-1.58.04-2.12.11v-1.94c.54.07,1.3.11,2.12.11h5.87c.97,0,1.67-.04,2.11-.11v1.94c-.58-.07-1.3-.11-2.05-.11h-.74v6.88c0,1.49-.5,1.85-2.58,1.85-.63,0-1.19-.02-1.94-.05-.09-.76-.22-1.22-.49-1.93.9.13,1.8.2,2.34.2.68,0,.77-.05.77-.43v-6.52h-3.29ZM98.53,28.68c.47.07,1.12.11,2.02.11h4.66c.88,0,1.46-.04,1.98-.11v1.93c-.61-.07-1.26-.11-1.94-.11h-4.7c-.72,0-1.46.04-2.02.11v-1.93Z"/>
        <path class="cls-1" d="M115.43,38.63c.05.09.07.16.07.25,0,.13-.02.14-.18.54-.36.83-.79,2.12-1.01,3.1-.05.2-.11.31-.18.34-.09.04-.7.13-.9.13h-.07c-.09,0-.22-.02-.36-.02-.23,0-.29-.05-.36-.27-.34-1.17-.61-3.58-.61-5.4,0-1.98.13-3.21.63-5.91.18-.97.27-1.51.34-2.11.76.14,1.4.32,1.94.58.31.13.4.22.4.4,0,.13-.02.18-.22.47-.59.95-1.26,4.77-1.26,7.35,0,.41.02.97.07,1.87.5-1.13.68-1.48,1.1-2.36.16.38.27.56.59,1.04ZM119.34,39.91c.58.31,1.26.41,2.47.41s1.84-.09,2.95-.41c.11-.04.2-.05.25-.05.13,0,.22.07.23.25.09.61.16,1.33.16,1.69,0,.18-.05.23-.31.31-.97.25-1.96.38-3.17.38-1.66,0-2.68-.2-3.53-.7-.79-.49-1.62-1.48-1.62-1.96,0-.25.38-.59,1.35-1.19.32.65.63.97,1.21,1.28ZM118.08,30.73c.4.09,1.55.16,2.43.16,1.19,0,2.38-.09,3.49-.29q.09-.02.16-.02c.13,0,.18.05.22.2.04.18.09.97.09,1.46,0,.27-.05.36-.25.4-.74.14-1.96.23-3.26.23-1.55,0-2.93-.09-3.12-.2-.09-.05-.13-.18-.13-.5,0-.49.05-1.21.09-1.35.02-.07.07-.11.18-.11.02,0,.05,0,.09.02Z"/>
        <path class="cls-1" d="M134.01,32.35c-.83.05-1.6.07-2.29.07-.76,0-.81,0-.85-.11-.05-.11-.11-.86-.11-1.39v-.34c.85.04,1.21.05,1.66.05s1.13-.02,1.67-.04c.09-1.04.11-1.4.11-1.76,0-.16,0-.27-.02-.52.86.02,1.53.07,2.05.2.14.04.22.11.22.23,0,.09-.02.16-.11.38-.14.34-.25.81-.32,1.37,1.15-.09,2.54-.27,3.1-.4.54-.13.92-.2,1.01-.2.38-.04.65-.11.76-.2.02-.02.04-.02.04-.02.04,0,.05.02.09.02.07,0,.13.07.16.2.04.27.09.9.09,1.3,0,.27-.05.34-.23.38-1.06.22-3.26.49-5.15.65-.02.07-.02.11-.02.29-.04.34-.04.38-.05,1.28.79-.18,1.49-.27,2.38-.27.13-.58.14-.72.18-1.13,1.39.29,2.07.54,2.07.76,0,.07-.02.13-.16.36-.05.07-.09.13-.13.25,2.32.54,3.8,2.25,3.8,4.47,0,1.96-1.06,3.53-3.1,4.61-.76.4-1.82.76-2.21.76-.2,0-.34-.07-.45-.22-.38-.54-.61-.79-1.19-1.28,1.87-.34,2.79-.72,3.69-1.46.83-.7,1.22-1.51,1.22-2.52,0-1.44-.85-2.52-2.29-2.94-1.08,2.48-1.8,3.66-3.1,4.99.09.31.16.49.32.86.07.14.09.2.09.25,0,.18-.07.23-.49.45-.45.23-.97.41-1.15.41-.16,0-.2-.05-.4-.61-1.04.74-2.16,1.13-3.26,1.13-1.22,0-2.05-.99-2.05-2.43,0-2.25,1.64-4.45,4.36-5.8.02-.94.04-1.73.05-2.09ZM131.47,39.91c0,.45.27.72.72.72.61,0,1.42-.34,2.23-.94-.25-1.22-.36-2.05-.45-3.4-1.58,1.17-2.5,2.52-2.5,3.62ZM137.77,34.94c-.81.07-1.24.14-1.98.4.04,1.28.07,1.82.22,2.74.76-.95,1.26-1.85,1.76-3.13Z"/>
        <path class="cls-1" d="M155.05,32.89c-3.94.23-5.47.41-6.61.72-.07.02-.14.04-.2.04-.13,0-.23-.09-.29-.23-.16-.45-.25-1.04-.31-1.96.22.02.36.02.43.02.58,0,1.12-.02,2.84-.13,1.33-.07,2.47-.13,4.09-.2-.02-1.62-.04-1.85-.2-2.68,1.39.04,2.09.11,2.34.22.11.04.16.13.16.31,0,.04-.02.11-.05.2-.16.4-.22.81-.25,1.91,2.63-.05,3.03-.05,4.83-.05.49,0,.56,0,.61.05.07.07.11.34.11.95,0,.83-.02.92-.25.92h-.07c-.77-.09-2.7-.16-3.96-.16q-.41,0-1.31.02l-.04,2.95c.27.61.36,1.1.36,1.96,0,2.27-.83,4-2.58,5.28-.72.54-1.64,1.01-1.96,1.01-.16,0-.25-.05-.4-.2-.5-.58-.88-.88-1.53-1.24,1.08-.31,1.64-.54,2.34-.99.52-.32.99-.72,1.33-1.1.23-.27.41-.54.68-1.13-.54.56-.95.74-1.62.74-1.51,0-2.5-1.15-2.5-2.9,0-1.84,1.17-3.15,2.79-3.15.52,0,.85.05,1.21.22v-1.37ZM152.87,37.09c0,.76.43,1.28,1.08,1.28.68,0,1.1-.49,1.1-1.3s-.4-1.33-1.08-1.33c-.65,0-1.1.56-1.1,1.35ZM159.75,30.53c-.5-.9-.9-1.44-1.35-1.89-.04-.04-.05-.09-.05-.14,0-.07.16-.23.42-.4q.43-.27.52-.27c.16,0,.41.23.94.88.47.58.77,1.03.77,1.17,0,.09-.05.14-.29.34-.29.25-.65.47-.76.47-.09,0-.14-.04-.2-.16ZM162.02,27.58c.5.56.95,1.21.95,1.37,0,.13-.11.23-.47.49-.25.16-.47.27-.54.27q-.11,0-.43-.54c-.27-.49-.61-.92-1.08-1.4-.04-.04-.05-.11-.05-.14,0-.13.11-.23.4-.4.23-.14.45-.23.54-.23.13,0,.32.16.68.59Z"/>
        <path class="cls-1" d="M168.13,29.09v-.25c1.13.2,1.71.36,2.18.59.13.05.16.13.16.25,0,.07-.04.16-.11.29-.16.29-.22.5-.49,1.69-.34,1.55-.52,3.28-.52,5.17,0,1.01.04,1.57.14,2.52l.95-1.93c.11.38.25.68.47.94.14.18.16.23.16.38s0,.14-.34.9c-.38.81-.59,1.51-.79,2.43-.05.29-.11.38-.2.41-.14.07-.76.16-1.12.16-.25,0-.34-.05-.4-.22-.43-1.22-.79-3.75-.79-5.55,0-1.55.2-3.69.52-5.94.11-.74.16-1.28.16-1.66v-.2ZM174.27,34.19c-1.01,0-1.3-.04-1.39-.16-.13-.16-.23-.9-.23-1.57v-.27c.72.07,1.3.11,2.21.11.7,0,1.1-.02,1.82-.07-.05-1.87-.16-2.99-.38-3.56h.49c.63,0,1.41.05,1.8.14.18.04.27.14.27.29,0,.07-.02.14-.05.27-.09.25-.14.65-.14,1.12,0,.27.02,1.12.02,1.33v.18c.9-.14,1.33-.23,2.09-.49.07-.02.14-.04.22-.04.11,0,.16.05.2.16.07.2.14.9.14,1.3,0,.29-.05.41-.2.47-.23.09-1.33.31-2.39.45.02.5.02.77.02,1.06,0,2.65-.32,4.54-1.04,5.96-.65,1.28-2.05,2.77-2.63,2.77-.16,0-.23-.04-.43-.22-.59-.52-.7-.61-1.4-.94,1.26-.7,2.07-1.46,2.63-2.48.59-1.1.92-2.61.92-4.27,0-.13,0-.43-.02-.86-.02-.18-.02-.45-.04-.81-.65.05-2.11.13-2.47.13Z"/>
        <path class="cls-1" d="M194.07,34.28c2.54,0,4.34,1.73,4.34,4.18,0,1.67-.88,3.19-2.36,4.07-1.03.61-2.29.92-3.71.92-2.29,0-3.62-.92-3.62-2.48,0-1.42,1.19-2.43,2.88-2.43,1.53,0,2.63.77,3.37,2.36.92-.67,1.3-1.37,1.3-2.34,0-1.55-1.1-2.56-2.83-2.56s-3.66.88-5.22,2.45c-.29.29-.56.59-.88,1.01-.13.18-.22.25-.32.25-.32,0-1.6-1.26-1.6-1.58,0-.16.07-.25.47-.54.41-.32,1.01-.85,1.76-1.57,1.75-1.66,3.02-3.04,4.92-5.35-2.25.29-3.76.54-4.32.74-.09.02-.14.04-.2.04-.14,0-.23-.09-.34-.36-.22-.54-.32-1.13-.38-1.93.49.07.83.09,1.22.09.86,0,2.32-.13,4.21-.34.67-.07.88-.13,1.39-.32.16-.07.25-.09.36-.09.25,0,.5.22.97.94.34.47.45.7.45.85,0,.23-.05.31-.45.56-.32.2-.52.36-.94.76-.9.86-.92.86-2.03,2-.79.81-.88.9-1.6,1.62,1.17-.65,2.09-.92,3.17-.92ZM192.35,40.51c-.27-.18-.58-.27-.92-.27-.56,0-.92.27-.92.7,0,.52.56.85,1.42.85.4,0,.74-.04,1.19-.16-.22-.59-.4-.86-.77-1.12Z"/>
        <path class="cls-1" d="M208.19,33.97c-.23-.79-.31-1.28-.52-3.49-.07-.86-.14-1.3-.32-1.91,1.1.02,1.8.07,2.29.2.27.07.4.2.4.4,0,.07-.02.16-.05.31-.13.43-.18.76-.18,1.22,0,.88.18,2.32.38,2.95.11.34.22.47.41.47.43,0,2.02-.83,2.88-1.49.23-.18.27-.2.36-.2.16,0,.32.13.59.47.45.61.81,1.28.81,1.53,0,.2-.13.32-.43.41-1.12.31-2.95,1.03-4.2,1.62-2.2,1.08-3.19,2.07-3.19,3.19s.92,1.55,3.24,1.55c1.35,0,2.58-.13,4.23-.4.07-.02.2-.04.23-.04.14,0,.23.07.31.22.05.18.18,1.28.18,1.71,0,.25-.07.34-.31.41-.4.09-2.58.22-3.94.22-2.3,0-3.83-.31-4.79-.95-.81-.56-1.24-1.44-1.24-2.52,0-.83.23-1.57.72-2.29.63-.94,1.31-1.53,2.83-2.43-.38-.34-.52-.59-.68-1.15Z"/>
        <path class="cls-1" d="M226.64,33.97c-.23-.79-.31-1.28-.52-3.49-.07-.86-.14-1.3-.32-1.91,1.1.02,1.8.07,2.29.2.27.07.4.2.4.4,0,.07-.02.16-.05.31-.13.43-.18.76-.18,1.22,0,.88.18,2.32.38,2.95.11.34.22.47.41.47.43,0,2.02-.83,2.88-1.49.23-.18.27-.2.36-.2.16,0,.32.13.59.47.45.61.81,1.28.81,1.53,0,.2-.13.32-.43.41-1.12.31-2.95,1.03-4.2,1.62-2.2,1.08-3.19,2.07-3.19,3.19s.92,1.55,3.24,1.55c1.35,0,2.58-.13,4.23-.4.07-.02.2-.04.23-.04.14,0,.23.07.31.22.05.18.18,1.28.18,1.71,0,.25-.07.34-.31.41-.4.09-2.58.22-3.94.22-2.3,0-3.83-.31-4.79-.95-.81-.56-1.24-1.44-1.24-2.52,0-.83.23-1.57.72-2.29.63-.94,1.31-1.53,2.83-2.43-.38-.34-.52-.59-.68-1.15ZM233.17,29.94c.14-.11.23-.14.34-.14.25,0,1.82,1.66,1.82,1.93,0,.11-.14.27-.49.56-.36.31-.4.32-.49.32-.11,0-.13,0-.47-.5-.36-.5-.86-1.08-1.24-1.4-.05-.05-.09-.11-.09-.16,0-.09.16-.25.61-.59ZM237.08,30.42c0,.11-.05.18-.27.36-.25.22-.59.45-.67.45-.11,0-.14-.05-.36-.34-.41-.59-.67-.88-1.31-1.48-.07-.07-.09-.11-.09-.16,0-.16.68-.68.9-.68.31,0,1.8,1.53,1.8,1.85Z"/>
        <path class="cls-1" d="M245.36,32.87c1.17-.31,1.94-.41,2.79-.41,2.56,0,4.03,1.51,4.03,4.11,0,2.25-.97,4.07-2.93,5.51-1.04.77-2.63,1.55-3.15,1.55-.23,0-.29-.05-.67-.59-.27-.41-.54-.67-.99-.99,2.07-.7,2.93-1.15,3.87-1.96,1.08-.95,1.62-2.11,1.62-3.47,0-1.46-.68-2.29-1.89-2.29-.97,0-2.23.38-3.87,1.17-.23.11-.36.2-.67.41-.07.04-.14.07-.22.07-.34,0-.92-1.01-1.31-2.36.67-.05,1.01-.14,3.38-.74ZM246.56,28.48c.65.2,1.62.38,2.5.49.36.04.49.05,1.4.09.27,0,.34.07.34.27,0,.59-.13,1.57-.23,1.75-.04.11-.13.14-.25.14-.41,0-1.87-.2-2.72-.38-1.42-.29-2.67-.65-2.92-.85-.05-.05-.09-.13-.09-.2,0-.14.38-1.12.56-1.46.09-.14.14-.18.25-.18q.09,0,1.15.32Z"/>
        <path class="cls-1" d="M260.22,33.29c-.32.02-.52.04-.74.05-.16.02-.18.02-.2.02-.14,0-.22-.05-.27-.23-.09-.29-.22-1.24-.23-1.78.2.02.72.04,1.37.04.2,0,1.62-.09,2.25-.14.31-1.46.41-2.21.41-3.19,1.85.25,2.52.47,2.52.81,0,.13-.02.16-.29.58-.14.22-.2.41-.5,1.53.85-.14,1.35-.27,2.02-.49.13-.04.18-.05.27-.05.13,0,.16.09.27.61.09.45.14.83.14,1.03,0,.22-.05.25-.52.36-.61.14-1.66.32-2.77.47-.67,2.02-1.12,3.1-1.95,4.79-.63,1.26-.99,1.93-1.48,2.68-.14.22-.23.29-.36.29-.18,0-.68-.27-1.31-.74-.29-.2-.36-.29-.36-.41s.07-.23.31-.56c.52-.65,1.21-1.76,1.8-2.95.5-.99.68-1.4,1.21-2.83-.7.05-.76.07-1.58.13ZM266.15,43.66c-1.96,0-3.29-1.08-3.29-2.68s1.39-2.9,3.24-2.9c.43,0,.63.02,1.37.13-.07-.86-.07-1.21-.14-2.88,0-.34-.04-.81-.07-1.39.92.09,1.62.2,1.96.34.14.05.22.14.22.29,0,.09-.02.16-.04.29-.09.38-.11.65-.11,1.13,0,.67.05,1.8.11,2.68,1.28.58,1.8.86,2.7,1.57.4.31.54.47.54.61,0,.18-.09.34-.59,1.15-.22.36-.38.52-.5.52q-.11,0-.61-.47c-.4-.4-.85-.7-1.48-1.08,0,1.67-1.22,2.68-3.29,2.68ZM266.11,39.8c-.86,0-1.46.41-1.46,1.04,0,.59.54.97,1.35.97.95,0,1.46-.49,1.46-1.44,0-.14,0-.29-.02-.29-.36-.18-.85-.29-1.33-.29ZM272.84,34.69c-.22.31-.32.4-.45.4-.09,0-.16-.04-.29-.16-.45-.43-1.08-.9-1.75-1.31q-.43-.27-1.22-.63c-.25-.11-.34-.18-.34-.32,0-.13.09-.29.36-.7.43-.63.54-.74.7-.74.34,0,1.67.68,2.63,1.33.77.52,1.01.74,1.01.94,0,.14-.29.68-.65,1.21Z"/>
        <path class="cls-1" d="M286.32,34.28c2.54,0,4.34,1.73,4.34,4.18,0,1.67-.88,3.19-2.36,4.07-1.03.61-2.29.92-3.71.92-2.29,0-3.62-.92-3.62-2.48,0-1.42,1.19-2.43,2.88-2.43,1.53,0,2.63.77,3.37,2.36.92-.67,1.3-1.37,1.3-2.34,0-1.55-1.1-2.56-2.83-2.56s-3.66.88-5.22,2.45c-.29.29-.56.59-.88,1.01-.13.18-.22.25-.32.25-.32,0-1.6-1.26-1.6-1.58,0-.16.07-.25.47-.54.41-.32,1.01-.85,1.76-1.57,1.75-1.66,3.02-3.04,4.92-5.35-2.25.29-3.76.54-4.32.74-.09.02-.14.04-.2.04-.14,0-.23-.09-.34-.36-.22-.54-.32-1.13-.38-1.93.49.07.83.09,1.22.09.86,0,2.32-.13,4.21-.34.67-.07.88-.13,1.39-.32.16-.07.25-.09.36-.09.25,0,.5.22.97.94.34.47.45.7.45.85,0,.23-.05.31-.45.56-.32.2-.52.36-.94.76-.9.86-.92.86-2.03,2-.79.81-.88.9-1.6,1.62,1.17-.65,2.09-.92,3.17-.92ZM284.6,40.51c-.27-.18-.58-.27-.92-.27-.56,0-.92.27-.92.7,0,.52.56.85,1.42.85.4,0,.74-.04,1.19-.16-.22-.59-.4-.86-.77-1.12Z"/>
        <path class="cls-1" d="M298.31,31.54c.42-1.08.81-1.66,1.5-2.23.83-.68,1.82-1.01,3.08-1.01,2.7,0,4.43,1.48,4.43,3.78,0,.77-.22,1.51-.63,2.11-.32.47-.47.61-1.48,1.53-1.4,1.26-1.71,1.75-1.71,2.7v.95h-1.84v-1.01c0-.81.16-1.53.49-2.11.25-.45.52-.76,1.24-1.48.76-.74.99-1.01,1.19-1.33.25-.36.4-.86.4-1.35,0-1.21-.81-1.96-2.09-1.96s-2.04.67-2.58,2.23l-2-.83ZM304.05,42.04c0,.79-.63,1.42-1.42,1.42s-1.42-.63-1.42-1.42.63-1.42,1.42-1.42,1.42.63,1.42,1.42Z"/>
      </g>
      <g>
        <path class="cls-1" d="M31.15,46.67c-4.41,0-7.11-4.05-7.11-10.62s2.7-10.62,7.23-10.62,7.23,3.96,7.23,10.59-2.67,10.65-7.35,10.65ZM31.27,27.77c-2.94,0-4.68,3.06-4.68,8.25s1.71,8.31,4.77,8.31c2.88,0,4.59-3.09,4.59-8.28s-1.74-8.28-4.68-8.28Z"/>
        <path class="cls-1" d="M47.65,46.67c-4.44,0-6.84-2.28-6.84-6.48h2.55c.03,2.88,1.35,4.14,4.35,4.14,2.76,0,4.32-1.44,4.32-4.05,0-2.46-1.29-3.75-3.75-3.75h-2.13v-2.34h1.89c2.37,0,3.66-1.08,3.66-3.03,0-2.1-1.47-3.36-3.99-3.36-1.47,0-2.76.6-3.36,1.53-.3.51-.45,1.05-.57,2.07h-2.52c.15-3.72,2.64-5.94,6.66-5.94s6.33,2.13,6.33,5.43c0,2.07-.87,3.51-2.7,4.44,2.1,1.11,3.03,2.73,3.03,5.22,0,3.84-2.58,6.12-6.93,6.12Z"/>
      </g>
    </g>
  </g>
</svg>