<?xml version="1.0" encoding="UTF-8"?>
<svg id="_レイヤー_2" data-name="レイヤー 2" xmlns="http://www.w3.org/2000/svg" width="345" height="70" viewBox="0 0 345 70">
  <defs>
    <style>
      .cls-1 {
        fill: #479d93;
      }

      .cls-2 {
        fill: #ceeaeb;
      }
    </style>
  </defs>
  <g id="_レイヤー_1-2" data-name="レイヤー 1">
    <g>
      <rect class="cls-2" width="345" height="70" rx="10" ry="10"/>
      <g>
        <path class="cls-1" d="M75.78,29.69c0-.83-.02-1.21-.11-1.76h2.07c-.09.54-.11.95-.11,1.75v1.42h.96c.38,0,.59-.02.86-.05v1.78c-.31-.04-.58-.05-.9-.05h-.92v2.63c.52-.18.77-.27,1.51-.56l.02,1.69q-1.03.4-1.53.58v5.02c0,.76-.27,1.26-.77,1.42-.36.13-1.03.2-1.67.2-.31,0-.54-.02-1.04-.05-.07-.76-.14-1.1-.41-1.8.65.09,1.12.13,1.53.13s.52-.09.52-.52v-3.76q-1.58.5-1.91.65l-.38-1.93c.74-.09.85-.11,2.29-.5v-3.19h-.88c-.43,0-.74.02-1.22.07v-1.84c.4.07.72.09,1.24.09h.86v-1.4ZM88.34,36.24q-.13.16-.45.7c-.9,1.49-1.57,2.38-2.52,3.29,1.33.85,2.48,1.3,4.27,1.64-.47.58-.81,1.19-1.08,1.87-2.12-.65-3.38-1.24-4.72-2.23-1.4,1.03-2.86,1.69-4.86,2.27-.38-.77-.61-1.17-1.06-1.73,1.8-.38,2.94-.85,4.52-1.84-1.01-1.08-1.48-1.8-2.16-3.37-.32.02-.54.04-.83.07v-1.82c.38.07.79.09,1.39.09h5.46c.47,0,.79-.02,1.04-.07l1.01,1.12ZM89.48,31.4c-.2,2.59-.4,2.81-2.66,2.81-.83,0-1.24-.04-1.51-.13-.52-.18-.68-.49-.68-1.3v-2.63h-2.09c-.07,2.54-.74,3.89-2.47,5.02-.42-.54-.76-.85-1.39-1.3,1.57-.86,2.07-2,2.07-4.7,0-.27-.02-.49-.05-.86.32.04.74.05,1.13.05h3.57c.38,0,.76-.02,1.08-.05-.04.22-.05.61-.05,1.1v2.65c0,.27.02.34.14.38.07.04.29.05.47.05.25,0,.5-.04.58-.09.16-.13.22-.47.22-1.4v-.2c0-.13,0-.32-.02-.58.99.54,1.15.61,1.69.79l-.02.38ZM82.19,36.85c.45.88.99,1.6,1.73,2.29.83-.7,1.24-1.19,1.93-2.29h-3.66Z"/>
        <path class="cls-1" d="M98.96,30.55c-.5.54-.95.94-1.64,1.46-.4-.54-.7-.83-1.17-1.15,1.37-.9,2.39-2.07,2.77-3.1l1.82.32q-.13.18-.31.49c-.09.16-.22.34-.38.56h5.08c.74,0,1.13-.02,1.44-.07l1.03.81c-.14.18-.18.23-.31.43-.65.94-.88,1.24-1.6,1.94-.52-.29-.97-.47-1.6-.67.56-.38.76-.56,1.15-1.03h-2.67c.54,1.71,2.34,2.65,5.46,2.81-.36.61-.52.99-.7,1.69-.72-.13-.99-.18-1.58-.32-.02.5-.02.97-.02,1.48v3.21q.02,1.53.07,1.84c-.38-.04-1.1-.05-1.84-.05h-.81c1.39.65,2.56.94,4.79,1.15-.43.5-.63.81-1.08,1.58-2.56-.43-3.8-.86-5.64-1.98l1.01-.76h-4.74l1.06.76c-1.8,1.1-2.95,1.51-5.47,1.98-.4-.72-.54-.92-1.06-1.53,2.29-.27,3.44-.58,4.61-1.21h-.7c-.81,0-1.42.02-1.84.05.04-.32.07-1.03.07-1.73v-3.42c0-.79-.02-1.28-.07-1.76.34.02.99.04,1.76.04h.9c-.2-.43-.4-.72-.72-1.12-.92.43-1.17.54-2.5,1.08-.25.11-.43.18-.74.34l-.68-1.78c1.15-.22,2.68-.77,4.23-1.55l.52,1.51-.61.31c1.21-.16,1.96-.34,2.61-.63,1.08-.49,1.6-1.04,1.84-1.98h-1.75ZM95.29,31.11c-.99-.79-1.6-1.17-2.74-1.69l1.12-1.31c1.28.59,1.78.88,2.81,1.58l-1.19,1.42ZM95.97,36.28h7.96v-.65h-7.96v.65ZM95.97,38.08h7.96v-.68h-7.96v.68ZM95.97,39.84h7.96v-.65h-7.96v.65ZM104.04,34.37h.59c-1.44-.52-2.27-1.19-2.95-2.29-.45.74-.85,1.12-1.6,1.57-.54.32-1.06.52-1.95.72h5.91Z"/>
        <path class="cls-1" d="M115.94,33.97c-.23-.79-.31-1.28-.52-3.49-.07-.86-.14-1.3-.32-1.91,1.1.02,1.8.07,2.29.2.27.07.4.2.4.4,0,.07-.02.16-.05.31-.13.43-.18.76-.18,1.22,0,.88.18,2.32.38,2.95.11.34.22.47.41.47.43,0,2.02-.83,2.88-1.49.23-.18.27-.2.36-.2.16,0,.32.13.59.47.45.61.81,1.28.81,1.53,0,.2-.13.32-.43.41-1.12.31-2.95,1.03-4.2,1.62-2.2,1.08-3.19,2.07-3.19,3.19s.92,1.55,3.24,1.55c1.35,0,2.58-.13,4.23-.4.07-.02.2-.04.23-.04.14,0,.23.07.31.22.05.18.18,1.28.18,1.71,0,.25-.07.34-.31.41-.4.09-2.58.22-3.94.22-2.3,0-3.83-.31-4.79-.95-.81-.56-1.24-1.44-1.24-2.52,0-.83.23-1.57.72-2.29.63-.94,1.31-1.53,2.83-2.43-.38-.34-.52-.59-.68-1.15Z"/>
        <path class="cls-1" d="M134.03,28.82c.81-.16,1.58-.23,2.29-.23.36,0,.49.09.49.34,0,.07,0,.13-.05.31-.02.11-.04.23-.04.36,0,.32.04.63.27,1.94,1.46-.23,3.17-.61,3.94-.85.13-.05.16-.05.27-.05.13,0,.18.11.25.45.07.34.22,1.26.22,1.4,0,.22-.07.25-.77.32-.45.04-.7.07-1.6.23q-.32.05-1.96.34.31,1.58.47,2.43.4-.07.79-.14c1.8-.32,3.03-.59,3.85-.85.29-.09.47-.14.52-.14.14,0,.2.07.25.25.14.47.32,1.33.32,1.62,0,.16-.04.18-.58.27q-.29.05-.88.16-.97.16-3.91.67.47,2.27,1.12,4.88c.04.14.05.25.05.29,0,.18-.07.23-.38.34-.5.18-1.44.38-1.69.38-.18,0-.22-.05-.27-.4-.13-.86-.42-2.47-.88-5.11-3.67.68-3.96.76-4.99,1.12-.23.07-.31.09-.4.09-.14,0-.23-.07-.32-.27-.22-.45-.4-1.03-.61-1.91.94-.04,1.93-.18,5.98-.88-.22-1.06-.36-1.84-.49-2.45q-3.28.58-4.2.85c-.14.05-.18.05-.22.05q-.29,0-.81-2.11.99-.02,4.86-.65c-.29-1.37-.58-2.39-.9-3.06ZM142.45,31.29c-.38-.7-.77-1.22-1.33-1.8-.11-.11-.11-.13-.11-.18,0-.11.11-.22.41-.45.29-.22.4-.27.5-.27.14,0,.32.14.77.63.58.65.99,1.21.99,1.35,0,.22-.81.86-1.04.86-.07,0-.13-.04-.2-.14ZM144.95,29.92c-.11.07-.27.18-.32.2t-.09.04s-.04.02-.05.02c-.05,0-.13-.05-.16-.14-.25-.47-.92-1.33-1.39-1.78t-.09-.13q.11-.18.29-.31c.27-.18.56-.36.59-.36q.22.04.43.22c.49.43,1.35,1.51,1.35,1.73,0,.09-.2.27-.56.52Z"/>
        <path class="cls-1" d="M158.89,33.45c.18-.11.25-.13.38-.13.43,0,1.6,1.19,1.6,1.62,0,.13-.05.2-.18.31-.25.22-.34.31-.58.7-.47.77-1.13,1.64-1.84,2.38-.29.31-.45.41-.59.41-.11,0-.22-.05-.34-.14-.49-.38-.74-.5-1.51-.77,1.01-.67,1.69-1.31,2.49-2.41q-2.34.56-3.75.92c.76,2.99,1.03,3.96,1.69,6.19.04.16.05.23.05.31,0,.16-.18.27-.67.4-.31.09-.92.2-1.08.2-.22,0-.25-.07-.34-.59-.16-.95-.81-3.56-1.48-6.03-1.33.38-1.55.43-2.23.76-.2.09-.31.13-.4.13-.34,0-.74-.81-1.04-2.07.9-.04,1.33-.11,3.21-.52-.38-1.4-.56-1.91-.99-2.7.97-.16,1.69-.23,2.16-.23.31,0,.43.09.43.29,0,.05,0,.09-.02.2-.04.11-.04.18-.04.27,0,.36.07.72.32,1.78,3.46-.77,4.3-.99,4.74-1.24Z"/>
        <path class="cls-1" d="M180.63,33.36c.09.18.13.31.13.41,0,.18-.07.31-.31.63-.99,1.3-2.05,2.34-3.66,3.58-1.8,1.4-3.33,2.34-5.49,3.37-1.39.65-1.46.68-1.67.88-.14.14-.22.18-.32.18-.16,0-.31-.14-.58-.54-.36-.54-.7-1.28-.9-1.91,1.82-.41,4-1.39,6.1-2.72,2.77-1.75,4.52-3.48,5.87-5.83.2.67.36,1.03.83,1.94ZM168.64,30.33c.31-.34.43-.43.59-.43.34.02,1.69.88,2.81,1.78.68.56.9.79.9.97,0,.13-.32.61-.76,1.1-.4.45-.59.61-.74.61q-.13,0-.86-.7c-.47-.45-1.41-1.21-1.87-1.49q-.63-.41-.76-.49c-.07-.05-.11-.11-.11-.16,0-.16.34-.67.79-1.19Z"/>
        <path class="cls-1" d="M191.43,32.21c-3.22.02-5.49.13-6.07.29-.02.02-.04.02-.05.02-.34,0-.45-.59-.5-2.45.88.13,2.03.18,4.7.18,2.41,0,5.24-.05,5.69-.11.32-.04.43-.05.76-.18.09-.04.13-.04.2-.04.31,0,.68.29,1.26.97.34.43.41.54.41.74,0,.13-.05.23-.18.4-.18.22-.2.27-.59,1.53-1.01,3.17-3.01,6.01-5.71,8.1-1.08.83-2.11,1.46-2.38,1.46-.2,0-.23-.02-.65-.43-.49-.49-.86-.77-1.35-1.03,2.65-1.33,4.09-2.43,5.47-4.19,1.24-1.57,2.02-3.26,2.43-5.28q-1.4.02-3.44.02ZM199.21,30.39c-.4.34-.63.5-.74.5s-.11,0-.43-.54c-.29-.49-.72-1.04-1.13-1.46-.07-.07-.09-.11-.09-.16,0-.14.68-.65.88-.65.14,0,.36.18.9.79.49.56.83,1.04.83,1.17s-.05.2-.22.34ZM200.02,29.47c-.43-.74-.85-1.26-1.33-1.73-.07-.07-.09-.11-.09-.14,0-.09.09-.18.4-.4.23-.18.34-.22.47-.22.2.02.67.47,1.28,1.26.25.32.41.59.41.68s-.05.18-.27.34c-.29.22-.56.38-.67.38-.07,0-.13-.04-.2-.18Z"/>
        <path class="cls-1" d="M208.33,30.12c.14.05.22.16.22.31,0,.07,0,.11-.04.25-.11.4-.13.68-.13,1.4-.04,4.39-.83,7.2-2.72,9.6-.41.5-.58.67-.76.67-.07,0-.16-.04-.31-.11-.49-.31-.94-.47-1.75-.65,1.24-1.26,1.73-1.93,2.27-3.15.76-1.69,1.06-3.4,1.06-5.98,0-1.19-.04-1.73-.18-2.63,1.01.02,1.84.13,2.32.29ZM210.26,31.86c0-.88-.05-1.58-.16-2.34,1.95.07,2.65.22,2.65.58,0,.11-.02.16-.09.36-.05.11-.11.4-.13.67q-.05.49-.09,8.41c2.29-1.3,3.78-2.54,5.29-4.45.04.94.11,1.62.27,2.16.05.16.05.22.05.31,0,.29-.18.52-1.01,1.3-1.33,1.22-2.23,1.85-3.91,2.74-.4.2-.63.36-.85.56-.13.11-.29.18-.41.18-.22,0-.86-.43-1.33-.88-.36-.36-.52-.63-.52-.86,0-.09.02-.14.07-.31.13-.34.16-.67.16-1.66v-6.75Z"/>
        <path class="cls-1" d="M226.02,38.98c.05.07.07.13.07.2q0,.11-.31.94c-.38,1.1-.61,2-.68,2.7-.02.23-.09.32-.32.38-.25.07-.74.11-1.21.11-.18,0-.27-.04-.32-.14-.16-.34-.45-1.58-.59-2.59-.13-.85-.18-1.73-.18-2.65,0-2.07.23-4.03.88-7.56.11-.58.14-.85.2-1.4.83.11,1.4.27,1.93.52.27.14.38.27.38.43,0,.11-.04.2-.13.34-.74,1.26-1.42,5.15-1.42,8.03,0,.43.02,1.12.07,1.98.43-1.12.63-1.62,1.03-2.48.13.49.25.72.61,1.21ZM229.05,34.24c-.86,0-1.04-.04-1.1-.23-.05-.16-.11-.74-.11-1.15,0-.14,0-.29.02-.61.49.04.77.05,1.37.05.97,0,1.58-.02,2.52-.09-.02-2.29-.04-2.57-.22-3.42.88.02,1.55.09,2.12.23.27.07.38.16.38.34,0,.07-.02.13-.07.27-.18.41-.27,1.12-.31,2.38.67-.09,1.24-.22,2.32-.47.09-.04.13-.04.18-.04.11,0,.16.05.2.18.04.16.09.85.09,1.22,0,.45-.02.52-.2.59-.29.14-1.08.27-2.61.47,0,1.24.11,3.29.23,4.47,1.13.49,1.91.9,2.7,1.46.5.36.61.49.61.61,0,.2-.32.81-.7,1.33-.22.31-.32.4-.45.4s-.13,0-.54-.4c-.4-.4-.81-.7-1.6-1.22v.14c0,1.58-1.31,2.63-3.31,2.63s-3.37-1.08-3.37-2.7,1.37-2.83,3.19-2.83c.67,0,1.01.02,1.49.09q-.07-1.4-.13-3.82c-.77.05-2,.11-2.72.11ZM230.53,39.53c-.9,0-1.5.41-1.5,1.04,0,.58.56.94,1.42.94.95,0,1.46-.43,1.46-1.26,0-.25-.02-.45-.02-.45-.47-.18-.88-.27-1.37-.27Z"/>
        <path class="cls-1" d="M239.67,34.51c.47.07.77.09,1.39.09h1.3c.58,0,.92-.02,1.31-.07-.05.47-.07.85-.07,1.87v3.73c.29.63.7,1.03,1.39,1.31.59.25,1.67.36,3.58.36,3.24,0,4.97-.07,7.31-.31-.2.47-.32.94-.52,1.94-1.62.05-4.09.11-5.87.11-2.41,0-3.83-.11-4.59-.34-.88-.27-1.55-.76-2.2-1.6q-.94.86-2.52,2.07l-.85-1.96c.68-.27,1.6-.92,2.45-1.69v-3.73h-.94c-.49,0-.7.02-1.17.09v-1.87ZM246.54,31.02q.27-.47.41-.76h-.68c-.56,0-.9.02-1.33.05v-1.55c.49.07.86.09,1.58.09h1.1c.22-.52.29-.7.4-1.15l1.89.2c-.05.11-.18.43-.4.95h2.49c.81,0,1.19-.02,1.75-.07-.05.5-.07.92-.07,1.66v.58h.41c.58,0,.92-.02,1.33-.09v1.58c-.49-.05-.88-.07-1.57-.07h-8.41c-.86,0-1.13.02-1.66.07v-1.03l-1.22,1.15c-1.21-1.6-1.67-2.11-2.9-3.19l1.39-1.3c1.26,1.12,1.91,1.76,2.74,2.81v-.02c.36.05.61.07,1.42.07h1.33ZM246.47,36.1c-.5,0-.95.02-1.31.04.04-.41.05-.67.05-1.28v-.63c0-.54-.02-.92-.05-1.22.32.02.63.04,1.3.04h6.5c.72,0,1.01-.02,1.31-.05q-.02.16-.04.41c-.02.14-.02.47-.02.81v.67c0,.16.02.58.05,1.24q-.76-.02-1.28-.02h-1.31v.61h1.6c.83,0,1.13-.02,1.51-.07v1.49c-.49-.05-.81-.07-1.49-.07h-1.62v.83h2.07c.72,0,1.13-.02,1.57-.09v1.57c-.41-.04-.83-.05-1.6-.05h-2.03c.02.52.04.76.11,1.13h-2c.07-.43.07-.61.09-1.13h-4.21c-.72,0-1.08.02-1.46.05v-1.53c.31.04.58.05,1.19.05h.43v-.83c-.61,0-.85.02-1.21.05v-1.48c.36.05.65.07,1.44.07h3.83v-.61h-3.42ZM246.96,34.94h5.46v-.76h-5.46v.76ZM247.59,38.89h2.3v-.83h-2.3v.83ZM251.89,31.02v-.76h-3.01q-.14.29-.4.76h3.4Z"/>
        <path class="cls-1" d="M263.81,32.87c1.17-.31,1.94-.41,2.79-.41,2.56,0,4.03,1.51,4.03,4.11,0,2.25-.97,4.07-2.93,5.51-1.04.77-2.63,1.55-3.15,1.55-.23,0-.29-.05-.67-.59-.27-.41-.54-.67-.99-.99,2.07-.7,2.93-1.15,3.87-1.96,1.08-.95,1.62-2.11,1.62-3.47,0-1.46-.68-2.29-1.89-2.29-.97,0-2.23.38-3.87,1.17-.23.11-.36.2-.67.41-.07.04-.14.07-.22.07-.34,0-.92-1.01-1.31-2.36.67-.05,1.01-.14,3.38-.74ZM265.01,28.48c.65.2,1.62.38,2.5.49.36.04.49.05,1.4.09.27,0,.34.07.34.27,0,.59-.13,1.57-.23,1.75-.04.11-.13.14-.25.14-.41,0-1.87-.2-2.72-.38-1.42-.29-2.67-.65-2.92-.85-.05-.05-.09-.13-.09-.2,0-.14.38-1.12.56-1.46.09-.14.14-.18.25-.18q.09,0,1.15.32Z"/>
        <path class="cls-1" d="M279.86,31.54c.41-1.08.81-1.66,1.49-2.23.83-.68,1.82-1.01,3.08-1.01,2.7,0,4.43,1.48,4.43,3.78,0,.77-.22,1.51-.63,2.11-.32.47-.47.61-1.48,1.53-1.41,1.26-1.71,1.75-1.71,2.7v.95h-1.84v-1.01c0-.81.16-1.53.49-2.11.25-.45.52-.76,1.24-1.48.76-.74.99-1.01,1.19-1.33.25-.36.4-.86.4-1.35,0-1.21-.81-1.96-2.09-1.96s-2.03.67-2.57,2.23l-2-.83ZM285.61,42.04c0,.79-.63,1.42-1.42,1.42s-1.42-.63-1.42-1.42.63-1.42,1.42-1.42,1.42.63,1.42,1.42Z"/>
      </g>
      <g>
        <path class="cls-1" d="M31.15,46.67c-4.41,0-7.11-4.05-7.11-10.62s2.7-10.62,7.23-10.62,7.23,3.96,7.23,10.59-2.67,10.65-7.35,10.65ZM31.27,27.77c-2.94,0-4.68,3.06-4.68,8.25s1.71,8.31,4.77,8.31c2.88,0,4.59-3.09,4.59-8.28s-1.74-8.28-4.68-8.28Z"/>
        <path class="cls-1" d="M52.17,41.6v4.59h-2.46v-4.59h-9.24v-1.95l9.69-13.74h2.01v13.35h2.67v2.34h-2.67ZM49.72,30.41l-6.21,8.85h6.21v-8.85Z"/>
      </g>
    </g>
  </g>
</svg>