<?xml version="1.0" encoding="UTF-8"?>
<svg id="_レイヤー_2" data-name="レイヤー 2" xmlns="http://www.w3.org/2000/svg" width="345" height="70" viewBox="0 0 345 70">
  <defs>
    <style>
      .cls-1 {
        fill: #479d93;
      }

      .cls-2 {
        fill: #ceeaeb;
      }
    </style>
  </defs>
  <g id="_レイヤー_1-2" data-name="レイヤー 1">
    <g>
      <rect class="cls-2" width="345" height="70" rx="10" ry="10"/>
      <g>
        <path class="cls-1" d="M77.74,34.02c-1.42.14-1.78.16-2.59.16-.56,0-.65-.23-.77-1.84h.7c.88,0,1.67-.05,2.67-.16v-.38c0-1.17-.07-2.09-.25-3.06,1.37.07,1.91.14,2.29.25.18.05.25.14.25.32,0,.11-.02.18-.11.36-.16.34-.25.99-.27,2.21.59-.11,1.55-.34,2.27-.56.05-.02.09-.02.13-.02.14,0,.23.07.27.2.09.36.2,1.08.2,1.35,0,.14-.09.27-.23.32-.22.09-1.53.36-2.68.56v2.32c1.78-.59,3.17-.88,4.36-.88,2.3,0,3.8,1.48,3.8,3.76,0,1.48-.59,2.67-1.66,3.29-.56.32-1.35.52-2.21.52s-1.64-.07-1.84-.2c-.2-.11-.22-.16-.25-.59-.04-.5-.14-.94-.36-1.46.74.27,1.35.38,2.05.38,1.4,0,2.2-.72,2.2-2s-.76-2-1.96-2c-1.13,0-2.57.36-4.12,1.03q0,.07.02.77.02,1.19.02,1.44c.02.32.02.65.02.81,0,1.46-.56,2.16-1.75,2.16s-2.32-.61-3.04-1.55c-.29-.4-.43-.81-.43-1.3,0-1.17,1.04-2.23,3.31-3.4v-2.85ZM77.74,38.85c-1.04.63-1.48,1.04-1.48,1.42,0,.41.59.86,1.13.86.25,0,.34-.16.34-.58v-1.71ZM87.79,34.76c-.92-.97-2.18-1.78-3.37-2.16-.14-.05-.22-.13-.22-.22,0-.11.18-.4.68-1.08.2-.27.22-.29.4-.29.18.02.86.25,1.33.47,1.13.52,2.61,1.64,2.61,1.98,0,.32-.9,1.46-1.17,1.46-.09,0-.16-.04-.27-.16Z"/>
        <path class="cls-1" d="M97.27,34.3c-.67,0-1.21.02-1.69.07v-.83c-.92.58-1.67.95-2.81,1.44-.41-.92-.56-1.15-1.01-1.8,3.24-1.13,5.82-2.99,7.08-5.06h2.12c.7,1.01,1.44,1.76,2.67,2.68,1.42,1.04,2.72,1.69,4.59,2.3-.43.67-.68,1.19-.94,1.93-1.41-.59-1.96-.88-3.04-1.55v.88c-.45-.05-.96-.07-1.69-.07h-1.75v1.67h4.38c.92,0,1.41-.02,1.87-.09v1.91c-.47-.07-1.08-.11-1.89-.11h-4.36v3.87h4.7c.88,0,1.46-.04,2.04-.11v1.98c-.65-.07-1.35-.11-2.09-.11h-10.91c-.79,0-1.48.04-2.16.11v-1.98c.63.07,1.24.11,2.14.11h4.36v-3.87h-4.09c-.74,0-1.37.04-1.89.11v-1.91c.5.07,1.01.09,1.89.09h4.09v-1.67h-1.6ZM96.05,37.82c.59,1.04.9,1.67,1.39,2.88l-1.73.68c-.36-1.08-.81-2-1.37-2.86l1.71-.7ZM97.23,32.67h5.78c-1.3-.92-2.21-1.76-3.1-2.9-.88,1.15-1.66,1.89-3.04,2.9h.36ZM105.48,38.54q-.22.4-.85,1.66c-.07.13-.13.23-.72,1.22l-1.62-.61c.52-.85.96-1.76,1.37-2.97l1.82.7Z"/>
        <path class="cls-1" d="M114.84,34.6c2.27-.63,3.91-.92,5.13-.92,2.54,0,4.11,1.39,4.11,3.64,0,1.35-.56,2.54-1.62,3.44-.7.59-1.75,1.1-3.13,1.51-.77.22-1.6.38-1.96.38-.22,0-.32-.05-.4-.23-.25-.63-.54-1.08-.92-1.46,3.96-.41,5.98-1.67,5.98-3.73,0-1.04-.86-1.85-1.98-1.85-1.94,0-4.07.65-6.3,1.89-.18.09-.29.14-.36.14-.31,0-.81-.9-1.22-2.2.88-.13,1.19-.2,2.68-.61Z"/>
        <path class="cls-1" d="M132.1,32.89c-.47.11-.63.16-1.28.4-.23.09-.36.13-.47.13-.4,0-.76-.74-1.08-2.29,1.15-.05,1.57-.11,3.56-.41,2.16-.32,4.9-.74,6.34-.92,1.62-.22,2.92-.43,3.6-.58.13-.04.18-.04.27-.04.23,0,.32.11.49.56.14.38.25.92.25,1.17,0,.22-.07.29-.32.29-.38,0-.72.04-1.06.09-3.04.5-5.47,3.17-5.47,5.98,0,2.11,1.66,3.49,4.46,3.75.25.02.34.11.34.32,0,.45-.18,1.31-.34,1.71-.09.2-.23.29-.47.29s-.77-.11-1.33-.27c-3.06-.9-4.66-2.85-4.66-5.6,0-1.49.49-2.88,1.42-4.07.5-.65.94-1.01,1.96-1.71-2.36.4-4.84.86-6.21,1.21Z"/>
        <path class="cls-1" d="M149.32,29.97c0-.85-.04-1.39-.11-1.91h2.02c-.09.56-.11.99-.11,1.93v2.32h.2c.56,0,.85-.02,1.21-.05v1.78c-.38-.04-.79-.05-1.19-.05h-.22v4.66c.77-.27.94-.34,1.67-.67l.07,1.67c-1.57.74-2.59,1.17-4.39,1.85-.27.11-.59.23-.81.34l-.38-2.02q.41-.07,2.03-.56v-5.29h-.43c-.5,0-.92.02-1.4.09v-1.85c.43.05.9.09,1.42.09h.41v-2.34ZM155.1,29.94c-.34-.68-.54-1.03-1.03-1.67l1.82-.45c.43.68.83,1.46,1.12,2.12h1.73c.41-.65.65-1.15,1.01-2.11l1.82.47c-.41.81-.61,1.15-.94,1.64h.76c.63,0,1.22-.02,1.6-.05-.05.47-.07.86-.07,1.58v3.15c0,.74.02,1.12.07,1.58-.41-.04-.83-.05-1.58-.05h-6.97c-.77,0-1.19.02-1.55.05.04-.47.05-.79.05-1.53v-3.24c0-.76,0-.9-.05-1.55.38.04.92.05,1.55.05h.67ZM153.61,38.2c0-.7-.02-.95-.05-1.33.45.04.86.05,1.57.05h5.53c.72,0,1.15-.02,1.57-.05-.05.4-.07.77-.07,1.46v3.76c0,.9.02,1.3.09,1.76h-1.89v-.68h-4.97v.68h-1.85c.07-.45.09-.86.09-1.75v-3.91ZM154.64,32.4h2.38v-1.03h-2.38v1.03ZM154.64,34.8h2.38v-1.08h-2.38v1.08ZM155.37,39.34h4.97v-.99h-4.97v.99ZM155.37,41.68h4.97v-1.03h-4.97v1.03ZM158.67,32.4h2.5v-1.03h-2.5v1.03ZM158.67,34.8h2.5v-1.08h-2.5v1.08Z"/>
        <path class="cls-1" d="M172.94,37.36c.41-.13.72-.18,1.03-.18,1.24,0,1.82.74,2.05,2.59.13,1.06.18,1.26.43,1.48.22.22.56.29,1.19.29.85,0,1.26-.07,2.74-.47.05-.02.09-.02.13-.02.11,0,.16.04.23.16.13.29.27,1.24.27,1.76,0,.16-.04.23-.2.27-.49.13-2.2.27-3.24.27-1.57,0-2.39-.29-2.88-1.03-.31-.49-.45-1.03-.56-2.14-.13-1.39-.34-1.73-1.06-1.73-.65,0-1.15.32-2.21,1.39s-1.91,2.11-2.5,3.04c-.11.18-.23.29-.34.29-.13,0-.25-.11-.81-.7-.54-.59-.74-.83-.74-.94,0-.13.04-.16.36-.45q.43-.36,7.13-7.49c-2.9.52-4.74.9-5.17,1.06-.2.07-.27.09-.36.09-.16,0-.2-.05-.31-.41-.18-.59-.27-1.06-.34-1.78.38.02.5.02.63.02.79,0,3.01-.22,5-.5,1.51-.2,1.75-.25,2.14-.45.11-.05.22-.09.29-.09.45,0,1.48,1.17,1.48,1.69,0,.22-.07.31-.31.43-.27.11-.65.36-.97.63-.18.14-.72.65-.97.88l-2.12,2.03ZM170.8,28.35c.07-.22.13-.31.22-.29s.14.02.18.04c.74.25,1.42.41,2.2.56,1.12.22,1.28.23,3.21.32.22.02.23.07.23.5,0,.54-.07,1.21-.16,1.35-.05.11-.13.16-.22.16s-2.03-.22-2.32-.25c-1.3-.2-2.43-.47-3.44-.83-.16-.07-.22-.13-.22-.25,0-.16.13-.7.32-1.31Z"/>
        <path class="cls-1" d="M194.07,34.28c2.54,0,4.34,1.73,4.34,4.18,0,1.67-.88,3.19-2.36,4.07-1.03.61-2.29.92-3.71.92-2.29,0-3.62-.92-3.62-2.48,0-1.42,1.19-2.43,2.88-2.43,1.53,0,2.63.77,3.37,2.36.92-.67,1.3-1.37,1.3-2.34,0-1.55-1.1-2.56-2.83-2.56s-3.66.88-5.22,2.45c-.29.29-.56.59-.88,1.01-.13.18-.22.25-.32.25-.32,0-1.6-1.26-1.6-1.58,0-.16.07-.25.47-.54.41-.32,1.01-.85,1.76-1.57,1.75-1.66,3.02-3.04,4.92-5.35-2.25.29-3.76.54-4.32.74-.09.02-.14.04-.2.04-.14,0-.23-.09-.34-.36-.22-.54-.32-1.13-.38-1.93.49.07.83.09,1.22.09.86,0,2.32-.13,4.21-.34.67-.07.88-.13,1.39-.32.16-.07.25-.09.36-.09.25,0,.5.22.97.94.34.47.45.7.45.85,0,.23-.05.31-.45.56-.32.2-.52.36-.94.76-.9.86-.92.86-2.03,2-.79.81-.88.9-1.6,1.62,1.17-.65,2.09-.92,3.17-.92ZM192.35,40.51c-.27-.18-.58-.27-.92-.27-.56,0-.92.27-.92.7,0,.52.56.85,1.42.85.4,0,.74-.04,1.19-.16-.22-.59-.4-.86-.77-1.12Z"/>
        <path class="cls-1" d="M209.75,39.5c-.86,1.49-2.05,2.32-3.28,2.32-1.87,0-3.21-1.84-3.21-4.39,0-2.84,1.44-5.29,3.91-6.59,1.21-.65,2.5-.94,4.21-.94,3.76,0,6.55,2.67,6.55,6.23,0,3.15-1.55,5.42-4.54,6.7-.59.25-1.06.4-1.3.4-.22,0-.31-.07-.54-.41-.31-.47-.65-.81-1.13-1.13,3.71-.95,5.38-2.7,5.38-5.62,0-1.49-.63-2.75-1.75-3.55-.63-.43-1.13-.61-2.12-.77-.5,3.8-1.1,5.87-2.2,7.76ZM207.16,33.12c-1.21,1.06-1.89,2.57-1.89,4.27,0,1.39.45,2.2,1.21,2.2.9,0,1.82-1.24,2.5-3.39.43-1.35.65-2.38.92-4.38-1.28.27-1.91.58-2.74,1.3Z"/>
        <path class="cls-1" d="M224.51,31.54c.42-1.08.81-1.66,1.5-2.23.83-.68,1.82-1.01,3.08-1.01,2.7,0,4.43,1.48,4.43,3.78,0,.77-.22,1.51-.63,2.11-.32.47-.47.61-1.48,1.53-1.4,1.26-1.71,1.75-1.71,2.7v.95h-1.84v-1.01c0-.81.16-1.53.49-2.11.25-.45.52-.76,1.24-1.48.76-.74.99-1.01,1.19-1.33.25-.36.4-.86.4-1.35,0-1.21-.81-1.96-2.09-1.96s-2.04.67-2.58,2.23l-2-.83ZM230.25,42.04c0,.79-.63,1.42-1.42,1.42s-1.42-.63-1.42-1.42.63-1.42,1.42-1.42,1.42.63,1.42,1.42Z"/>
      </g>
      <g>
        <path class="cls-1" d="M31.15,46.67c-4.41,0-7.11-4.05-7.11-10.62s2.7-10.62,7.23-10.62,7.23,3.96,7.23,10.59-2.67,10.65-7.35,10.65ZM31.27,27.77c-2.94,0-4.68,3.06-4.68,8.25s1.71,8.31,4.77,8.31c2.88,0,4.59-3.09,4.59-8.28s-1.74-8.28-4.68-8.28Z"/>
        <path class="cls-1" d="M47.53,46.67c-3.81,0-6.48-2.34-6.66-5.82h2.55c.18,2.16,1.71,3.48,3.99,3.48,2.79,0,4.53-1.8,4.53-4.71,0-2.76-1.56-4.44-4.11-4.44-1.68,0-3.18.75-4.2,2.04h-2.13l1.29-11.31h10.26v2.34h-8.07l-.6,5.4c.57-.27,1.14-.48,1.77-.63.6-.15,1.23-.21,1.83-.21,3.96,0,6.51,2.7,6.51,6.87s-2.76,6.99-6.96,6.99Z"/>
      </g>
    </g>
  </g>
</svg>