<?xml version="1.0" encoding="UTF-8"?>
<svg id="_レイヤー_2" data-name="レイヤー 2" xmlns="http://www.w3.org/2000/svg" width="248" height="62" viewBox="0 0 248 62">
  <defs>
    <style>
      .cls-1 {
        fill: #479d93;
      }

      .cls-2 {
        fill: #ceeaeb;
      }
    </style>
  </defs>
  <g id="_レイヤー_1-2" data-name="レイヤー 1">
    <g>
      <rect class="cls-2" width="248" height="62" rx="13.07" ry="13.07"/>
      <g>
        <path class="cls-1" d="M35.29,23.57c-1.18,1.23-2.8,2.2-4.68,2.82-.27-.49-.48-.81-.87-1.28,1.86-.45,3.45-1.23,4.58-2.28h-2.33c-.08.28-.1.34-.21.67l-1.57-.03c.38-.87.59-1.58.76-2.46.13-.6.21-1.21.21-1.47.27.03.63.04,1.28.04h2.77l-.03-.9h-3c-.53,0-.87.01-1.25.06v-1.29c-.15.13-.21.18-.41.36-.27-.45-.55-.78-.87-1.08,1.15-.88,1.81-1.74,2.1-2.73l1.44.27c-.17.35-.22.45-.39.73h1.72c.63,0,1-.03,1.32-.07v1.09c.53-.62.85-1.22,1.09-2.02l1.43.25q-.11.27-.35.76h2.56c.71,0,1.04-.01,1.47-.08v1.4c-.41-.06-.81-.07-1.4-.07h-1.05c.35.52.36.55.59.92l-1.11.31h.64c.67,0,.92-.01,1.26-.04-.04.25-.06.46-.06.95v1.41c0,.48.01.7.06.98-.31-.03-.73-.04-1.26-.04h-3.1v.88h3.84c.52,0,.81-.01,1.15-.04-.03.17-.03.27-.04.41t-.04.41c0,.06-.03.34-.08.85-.14,1.33-.22,1.67-.49,1.97-.27.31-.67.41-1.58.41-.39,0-.67-.01-1.25-.04-.08-.56-.17-.87-.34-1.33.52.07,1.15.13,1.47.13.73,0,.76-.07.85-1.57h-3.46l.03,2.26c.01.71.03,1.06.1,1.48h-1.58c.07-.39.08-.63.08-1.16v-.34l-.03-1.5ZM33.37,17.49c-.17-.45-.34-.77-.6-1.25h-.74c-.32.45-.62.77-1.05,1.19.32.04.59.06,1.23.06h1.16ZM35.25,20.75h-2.76c-.04.29-.06.32-.18.88h2.96v-.88ZM36.02,17.49c-.21-.25-.48-.52-.87-.8.24-.18.31-.24.49-.42-.24-.01-.49-.03-.76-.03h-.74c.17.27.27.41.53.91l-1.11.34h2.45ZM38.86,17.49c-.15-.34-.41-.8-.69-1.23h-.83c-.35.52-.66.85-1.08,1.23h2.59ZM36.65,19.58h2.91v-.9h-2.93v.9Z"/>
        <path class="cls-1" d="M52.37,25.67h-5.91v-1.15c.34-.91.66-1.49,1.23-2.24.38-.52.49-.64,1.77-2.03.97-1.06,1.25-1.64,1.25-2.58,0-.46-.13-.87-.35-1.16-.2-.24-.5-.36-.88-.36-.5,0-.94.34-1.16.91-.13.32-.18.66-.24,1.43l-1.61-.32c.11-1.15.29-1.72.74-2.31.56-.74,1.33-1.09,2.37-1.09,1.75,0,2.83,1.15,2.83,3.04,0,.9-.2,1.5-.69,2.2-.32.45-.6.74-1.46,1.58-1.13,1.11-1.58,1.68-2.06,2.69h4.17v1.4Z"/>
        <path class="cls-1" d="M67.18,26.52v-.73h-8.38v.73h-1.57c.06-.43.08-.99.08-1.74v-8.5c0-.66-.03-1.08-.08-1.62.49.06.92.07,1.58.07h8.33c.66,0,1.09-.01,1.58-.07-.06.49-.07.94-.07,1.62v8.52c0,.73.03,1.39.07,1.72h-1.56ZM58.81,24.46h8.38v-8.39h-8.38v8.39ZM64.41,17.6c.59,0,.94-.01,1.29-.04-.03.32-.04.64-.04,1.06v3.21c0,.45.01.73.04,1.06-.41-.03-.73-.04-1.29-.04h-2.87c-.67,0-.88.01-1.3.04.04-.36.06-.66.06-1.06v-3.21c0-.39-.01-.7-.06-1.06.35.03.71.04,1.3.04h2.87ZM61.71,21.59h2.54v-2.73h-2.54v2.73Z"/>
      </g>
      <g>
        <path class="cls-1" d="M31.52,35.48c0-.64-.01-.94-.08-1.37h1.61c-.07.42-.08.74-.08,1.36v1.11h.74c.29,0,.46-.01.67-.04v1.39c-.24-.03-.45-.04-.7-.04h-.71v2.04c.41-.14.6-.21,1.18-.43v1.32q-.78.31-1.18.45v3.91c0,.59-.21.98-.6,1.11-.28.1-.8.15-1.3.15-.24,0-.42-.01-.81-.04-.06-.59-.11-.85-.32-1.4.5.07.87.1,1.19.1s.41-.07.41-.41v-2.93q-1.23.39-1.49.5l-.29-1.5c.57-.07.66-.08,1.78-.39v-2.48h-.69c-.34,0-.57.01-.95.06v-1.43c.31.06.56.07.97.07h.67v-1.09ZM41.3,40.58q-.1.13-.35.55c-.7,1.16-1.22,1.85-1.96,2.56,1.04.66,1.93,1.01,3.32,1.27-.36.45-.63.92-.84,1.46-1.65-.5-2.63-.97-3.67-1.74-1.09.8-2.23,1.32-3.78,1.76-.29-.6-.48-.91-.83-1.34,1.4-.29,2.28-.66,3.52-1.43-.79-.84-1.15-1.4-1.68-2.62-.25.01-.42.03-.64.06v-1.41c.29.06.62.07,1.08.07h4.24c.36,0,.62-.01.81-.06l.78.87ZM42.18,36.82c-.15,2.02-.31,2.18-2.07,2.18-.64,0-.97-.03-1.18-.1-.41-.14-.53-.38-.53-1.01v-2.04h-1.62c-.06,1.98-.57,3.03-1.92,3.91-.32-.42-.59-.66-1.08-1.01,1.22-.67,1.61-1.55,1.61-3.66,0-.21-.01-.38-.04-.67.25.03.57.04.88.04h2.77c.29,0,.59-.01.84-.04-.03.17-.04.48-.04.85v2.06c0,.21.01.27.11.29.06.03.22.04.36.04.2,0,.39-.03.45-.07.13-.1.17-.36.17-1.09v-.15c0-.1,0-.25-.01-.45.77.42.9.48,1.32.62v.29ZM36.51,41.06c.35.69.77,1.25,1.34,1.78.64-.55.97-.92,1.5-1.78h-2.84Z"/>
        <path class="cls-1" d="M48.7,36.16c-.39.42-.74.73-1.27,1.13-.31-.42-.55-.64-.91-.9,1.06-.7,1.86-1.61,2.16-2.41l1.42.25q-.1.14-.24.38c-.07.13-.17.27-.29.43h3.95c.57,0,.88-.01,1.12-.06l.8.63c-.11.14-.14.18-.24.34-.5.73-.69.97-1.25,1.51-.41-.22-.76-.36-1.25-.52.43-.29.59-.43.9-.8h-2.07c.42,1.33,1.82,2.06,4.24,2.18-.28.48-.41.77-.55,1.32-.56-.1-.77-.14-1.23-.25-.01.39-.01.76-.01,1.15v2.49q.01,1.19.06,1.43c-.29-.03-.85-.04-1.43-.04h-.63c1.08.5,1.99.73,3.73.9-.34.39-.49.63-.84,1.23-1.99-.34-2.96-.67-4.38-1.54l.79-.59h-3.68l.83.59c-1.4.85-2.3,1.18-4.26,1.54-.31-.56-.42-.71-.83-1.19,1.78-.21,2.67-.45,3.59-.94h-.55c-.63,0-1.11.01-1.43.04.03-.25.06-.8.06-1.34v-2.66c0-.62-.01-1-.06-1.37.27.01.77.03,1.37.03h.7c-.15-.34-.31-.56-.56-.87-.71.34-.91.42-1.95.84-.2.08-.34.14-.58.27l-.53-1.39c.9-.17,2.09-.6,3.29-1.2l.41,1.18-.48.24c.94-.13,1.53-.27,2.03-.49.84-.38,1.25-.81,1.43-1.54h-1.36ZM45.84,36.59c-.77-.62-1.25-.91-2.13-1.32l.87-1.02c.99.46,1.39.69,2.19,1.23l-.92,1.11ZM46.38,40.61h6.19v-.5h-6.19v.5ZM46.38,42.01h6.19v-.53h-6.19v.53ZM46.38,43.39h6.19v-.5h-6.19v.5ZM52.65,39.13h.46c-1.12-.41-1.76-.92-2.3-1.78-.35.57-.66.87-1.25,1.22-.42.25-.83.41-1.51.56h4.59Z"/>
        <path class="cls-1" d="M60.57,42.71c.04.06.06.1.06.15q0,.08-.24.73c-.29.85-.48,1.55-.53,2.1-.01.18-.07.25-.25.29-.2.06-.57.08-.94.08-.14,0-.21-.03-.25-.11-.13-.27-.35-1.23-.46-2.02-.1-.66-.14-1.34-.14-2.06,0-1.61.18-3.14.69-5.88.08-.45.11-.66.15-1.09.64.08,1.09.21,1.5.41.21.11.29.21.29.34,0,.08-.03.15-.1.27-.57.98-1.11,4.01-1.11,6.25,0,.34.01.87.06,1.54.34-.87.49-1.26.8-1.93.1.38.2.56.48.94ZM62.93,39.03c-.67,0-.81-.03-.85-.18-.04-.13-.08-.57-.08-.9,0-.11,0-.22.01-.48.38.03.6.04,1.06.04.76,0,1.23-.01,1.96-.07-.01-1.78-.03-2-.17-2.66.69.01,1.21.07,1.65.18.21.06.29.13.29.27,0,.06-.01.1-.06.21-.14.32-.21.87-.24,1.85.52-.07.97-.17,1.81-.36.07-.03.1-.03.14-.03.08,0,.13.04.15.14.03.13.07.66.07.95,0,.35-.01.41-.15.46-.22.11-.84.21-2.03.36,0,.97.08,2.56.18,3.47.88.38,1.48.7,2.1,1.13.39.28.48.38.48.48,0,.15-.25.63-.55,1.04-.17.24-.25.31-.35.31s-.1,0-.42-.31c-.31-.31-.63-.55-1.25-.95v.11c0,1.23-1.02,2.04-2.58,2.04s-2.62-.84-2.62-2.1,1.06-2.2,2.48-2.2c.52,0,.78.01,1.16.07q-.06-1.09-.1-2.97c-.6.04-1.55.08-2.12.08ZM64.07,43.15c-.7,0-1.16.32-1.16.81,0,.45.43.73,1.11.73.74,0,1.13-.34,1.13-.98,0-.2-.01-.35-.01-.35-.36-.14-.69-.21-1.06-.21Z"/>
        <path class="cls-1" d="M73.54,38.86c-1.11.11-1.39.13-2.02.13-.43,0-.5-.18-.6-1.43h.55c.69,0,1.3-.04,2.07-.13v-.29c0-.91-.06-1.62-.2-2.38,1.06.06,1.49.11,1.78.2.14.04.2.11.2.25,0,.08-.01.14-.08.28-.13.27-.2.77-.21,1.72.46-.08,1.21-.27,1.77-.43.04-.01.07-.01.1-.01.11,0,.18.06.21.15.07.28.15.84.15,1.05,0,.11-.07.21-.18.25-.17.07-1.19.28-2.09.43v1.81c1.39-.46,2.47-.69,3.39-.69,1.79,0,2.96,1.15,2.96,2.93,0,1.15-.46,2.07-1.29,2.56-.43.25-1.05.41-1.72.41s-1.27-.06-1.43-.15c-.15-.08-.17-.13-.2-.46-.03-.39-.11-.73-.28-1.13.58.21,1.05.29,1.6.29,1.09,0,1.71-.56,1.71-1.55s-.59-1.55-1.53-1.55c-.88,0-2,.28-3.21.8q0,.06.01.6.01.92.01,1.12c.01.25.01.5.01.63,0,1.13-.43,1.68-1.36,1.68s-1.81-.48-2.37-1.21c-.22-.31-.34-.63-.34-1.01,0-.91.81-1.74,2.58-2.65v-2.21ZM73.54,42.61c-.81.49-1.15.81-1.15,1.11,0,.32.46.67.88.67.2,0,.27-.13.27-.45v-1.33ZM81.35,39.44c-.71-.76-1.7-1.39-2.62-1.68-.11-.04-.17-.1-.17-.17,0-.08.14-.31.53-.84.15-.21.17-.22.31-.22.14.01.67.2,1.04.36.88.41,2.03,1.27,2.03,1.54s-.7,1.13-.91,1.13c-.07,0-.13-.03-.21-.13Z"/>
        <path class="cls-1" d="M90.46,43.79c1.15,0,2.42-.17,3.68-.49.07-.03.11-.03.15-.03.08,0,.13.06.15.18.04.31.07.76.07,1.22,0,.28-.03.36-.15.42-.42.22-2.31.43-3.94.43-2.12,0-3.32-.35-4.29-1.26-.46-.43-.92-1.19-.92-1.5,0-.21.13-.29,1.27-.95.5,1.39,1.67,1.98,3.96,1.98ZM90.59,35.74c.81,0,1.29-.03,2.24-.17h.1c.11,0,.15.04.18.13.03.17.06.59.06,1.09,0,.32-.03.43-.11.49-.11.07-1.33.15-2.27.15-1.25,0-2.28-.1-3.45-.32-.8-.15-.84-.2-.84-.69,0-.32.03-.85.07-1.25,1.22.38,2.55.56,4.02.56Z"/>
        <path class="cls-1" d="M100.02,37.29c2.35-.66,3.53-.87,4.85-.87,1.41,0,2.52.38,3.26,1.11.62.63.95,1.5.95,2.52,0,1.79-.97,3.32-2.65,4.17-.9.46-1.81.77-3.05,1.01-.55.11-.83.15-1.04.15-.17,0-.25-.06-.34-.21-.32-.66-.45-.84-.87-1.29,2.09-.25,3.22-.53,4.31-1.08,1.19-.59,1.85-1.55,1.85-2.73,0-1.32-.9-2.17-2.27-2.17-1.67,0-3.52.48-5.65,1.47-.38.17-.57.27-.71.35-.25.14-.32.17-.41.17-.27,0-.74-.85-1.06-1.95.64-.08,1.29-.22,2.82-.66ZM108.39,36.63c-.14.11-.21.15-.28.15q-.08,0-.36-.38c-.27-.36-.55-.67-.99-1.06-.04-.04-.07-.1-.07-.14,0-.13.56-.59.73-.59.1,0,.49.32.94.78.39.41.52.57.52.67,0,.11-.14.28-.48.56ZM109.27,35.56c-.31-.45-.7-.88-1.12-1.25-.06-.04-.07-.07-.07-.13,0-.13.53-.55.69-.55.13,0,.41.21.77.57.46.48.66.73.66.83s-.03.14-.2.29c-.22.2-.48.38-.55.38-.04,0-.11-.04-.18-.15Z"/>
        <path class="cls-1" d="M112.33,39.34c-.11.03-.17.06-.25.1-.07.04-.11.06-.18.06-.29,0-.52-.55-.69-1.58.11.01.21.01.27.01.59,0,2.09-.18,2.98-.36.29-1.23.45-2.16.45-2.83,0-.06,0-.13-.01-.24.6.07,1.18.2,1.57.35.22.08.34.21.34.35,0,.07-.01.11-.08.22q-.21.38-.64,1.92c.34-.04.71-.07.95-.07.57,0,1.02.11,1.34.34.56.41.84,1.23.84,2.51,0,2.09-.38,3.87-1.02,4.75-.45.62-1.04.91-1.86.91-.5,0-.98-.07-1.12-.15q-.11-.07-.15-.59c-.04-.38-.13-.7-.29-1.09.73.24.91.28,1.36.28.67,0,.95-.32,1.26-1.44.21-.74.32-1.71.32-2.73,0-1.09-.27-1.49-1.01-1.49-.25,0-.66.03-.98.08-.04.15-.06.17-.11.36-.39,1.43-1.11,3.32-1.82,4.83-.74,1.53-.92,1.83-1.11,1.83-.11,0-.49-.2-.9-.46-.32-.2-.41-.28-.41-.39q0-.07.57-.98c.77-1.19,1.78-3.53,2.13-4.9-1.04.22-1.61.36-1.74.41ZM119.47,37.77c0-.1.13-.22.53-.55.28-.21.42-.29.52-.29.08,0,.15.04.34.22.83.8,1.6,1.86,2.04,2.79.14.31.22.5.22.59,0,.14-.04.18-.49.55-.28.22-.6.41-.71.41-.1,0-.14-.04-.24-.28-.28-.69-.55-1.22-.88-1.74-.36-.56-.43-.64-1.26-1.53-.06-.08-.07-.13-.07-.17Z"/>
        <path class="cls-1" d="M125.22,37.1c0-.41-.01-.95-.04-1.26.64.07,1.12.17,1.5.31.34.13.45.21.45.36q0,.08-.06.22c-.18.48-.24,1.01-.24,2.28,0,1.79.11,2.91.39,3.77.21.66.53,1.04.91,1.04.57,0,1.05-.67,1.57-2.23.27.71.36.92.76,1.43.07.1.11.2.11.29,0,.22-.21.7-.49,1.11-.55.8-1.25,1.23-1.99,1.23-1.08,0-1.89-.87-2.4-2.59-.32-1.12-.48-2.54-.48-4.5v-1.47ZM133.56,37.32c.08,0,.15.04.27.14.7.67,1.43,1.79,1.89,2.88.31.74.6,1.74.6,2.03,0,.14-.07.21-.36.36-.32.17-.98.39-1.15.39-.13,0-.18-.07-.22-.32-.18-1.08-.43-1.86-.87-2.77-.39-.81-.42-.85-1.37-2.03.59-.43,1.05-.69,1.22-.69Z"/>
        <path class="cls-1" d="M142.02,38.82c-.18-.62-.24-.99-.41-2.72-.06-.67-.11-1.01-.25-1.48.85.01,1.4.06,1.78.15.21.06.31.15.31.31,0,.06-.01.13-.04.24-.1.34-.14.59-.14.95,0,.69.14,1.81.29,2.3.08.27.17.36.32.36.34,0,1.57-.64,2.24-1.16.18-.14.21-.15.28-.15.13,0,.25.1.46.36.35.48.63,1,.63,1.19,0,.15-.1.25-.34.32-.87.24-2.3.8-3.26,1.26-1.71.84-2.48,1.61-2.48,2.48s.71,1.21,2.52,1.21c1.05,0,2-.1,3.29-.31.06-.01.15-.03.18-.03.11,0,.18.06.24.17.04.14.14.99.14,1.33,0,.2-.06.27-.24.32-.31.07-2,.17-3.07.17-1.79,0-2.98-.24-3.73-.74-.63-.43-.97-1.12-.97-1.96,0-.64.18-1.22.56-1.78.49-.73,1.02-1.19,2.2-1.89-.29-.27-.41-.46-.53-.9Z"/>
        <path class="cls-1" d="M152.47,41.16c0-.63.01-1.02.03-1.61-.32.63-.52.94-.91,1.44-.25-.87-.32-1.04-.62-1.58.63-.73,1.09-1.48,1.57-2.56.43-.98.69-1.79.84-2.72l1.42.45c-.04.11-.06.15-.08.27l-.11.34s-.01.06-.04.13c-.1.38-.2.7-.28.92-.01.04-.11.31-.27.69-.03.08-.08.21-.14.38v7.58c0,.7.01,1.13.07,1.61h-1.55c.06-.5.08-.97.08-1.61v-3.71ZM155.38,35.98c0-.74-.01-1.05-.08-1.47h1.58c-.07.38-.08.73-.08,1.47v6.12c.73-.31,1.58-.73,2.56-1.26l.06,1.32c-1.11.63-1.79.99-2.72,1.44q-.28.13-1.22.55c-.11.06-.24.11-.39.18q-.25.11-.48.24l-.25-1.6c.34-.08.45-.11,1.02-.32v-6.67ZM162.94,34.43c-.04.27-.08.77-.1,1.19-.15,3.66-.49,5.34-1.34,6.91.69,1.19,1.2,1.72,2.48,2.58-.48.62-.62.83-.91,1.43-1.18-.97-1.81-1.69-2.44-2.79-.92,1.08-2.07,1.93-3.75,2.77-.27-.52-.43-.74-.94-1.3,1.12-.46,1.78-.83,2.58-1.43.98-.73,1.49-1.32,1.92-2.21.42-.88.66-1.83.79-3.19.1-.95.15-2.17.15-3.1,0-.52,0-.64-.04-.9l1.61.04ZM159.23,39.52c-.64-1.5-1.01-2.16-1.91-3.36l1.21-.77c.88,1.26,1.29,1.95,1.96,3.31l-1.26.83Z"/>
        <path class="cls-1" d="M167.24,37.98c-.36.08-.49.13-.99.31-.18.07-.28.1-.36.1-.31,0-.59-.57-.84-1.78.9-.04,1.22-.08,2.77-.32,1.68-.25,3.81-.57,4.93-.71,1.26-.17,2.27-.34,2.8-.45.1-.03.14-.03.21-.03.18,0,.25.08.38.43.11.29.2.71.2.91,0,.17-.06.22-.25.22-.29,0-.56.03-.83.07-2.37.39-4.26,2.46-4.26,4.65,0,1.64,1.29,2.72,3.47,2.91.2.01.27.08.27.25,0,.35-.14,1.02-.27,1.33-.07.15-.18.22-.36.22s-.6-.08-1.04-.21c-2.38-.7-3.63-2.21-3.63-4.36,0-1.16.38-2.24,1.11-3.17.39-.5.73-.78,1.53-1.33-1.83.31-3.77.67-4.83.94Z"/>
        <path class="cls-1" d="M185.89,39.06c1.97,0,3.38,1.34,3.38,3.25,0,1.3-.69,2.48-1.83,3.17-.8.48-1.78.71-2.88.71-1.78,0-2.82-.71-2.82-1.93,0-1.11.92-1.89,2.24-1.89,1.19,0,2.04.6,2.62,1.83.71-.52,1.01-1.06,1.01-1.82,0-1.2-.85-1.99-2.2-1.99s-2.84.69-4.06,1.91c-.22.22-.43.46-.69.78-.1.14-.17.2-.25.2-.25,0-1.25-.98-1.25-1.23,0-.13.06-.2.36-.42.32-.25.78-.66,1.37-1.22,1.36-1.29,2.35-2.37,3.82-4.16-1.75.22-2.93.42-3.36.57-.07.01-.11.03-.15.03-.11,0-.18-.07-.27-.28-.17-.42-.25-.88-.29-1.5.38.06.64.07.95.07.67,0,1.81-.1,3.28-.27.52-.06.69-.1,1.08-.25.13-.06.2-.07.28-.07.2,0,.39.17.76.73.27.36.35.55.35.66,0,.18-.04.24-.35.43-.25.15-.41.28-.73.59-.7.67-.71.67-1.58,1.55-.62.63-.69.7-1.25,1.26.91-.5,1.62-.71,2.47-.71ZM184.54,43.9c-.21-.14-.45-.21-.71-.21-.43,0-.71.21-.71.55,0,.41.43.66,1.11.66.31,0,.57-.03.92-.13-.17-.46-.31-.67-.6-.87Z"/>
        <path class="cls-1" d="M194.36,36.93c.32-.84.63-1.29,1.16-1.74.64-.53,1.41-.78,2.4-.78,2.1,0,3.45,1.15,3.45,2.94,0,.6-.17,1.18-.49,1.64-.25.36-.36.48-1.15,1.19-1.09.98-1.33,1.36-1.33,2.1v.74h-1.43v-.78c0-.63.13-1.19.38-1.64.2-.35.41-.59.97-1.15.59-.57.77-.78.92-1.04.2-.28.31-.67.31-1.05,0-.94-.63-1.53-1.62-1.53s-1.58.52-2,1.74l-1.55-.64ZM198.82,45.09c0,.62-.49,1.11-1.11,1.11s-1.11-.49-1.11-1.11.49-1.11,1.11-1.11,1.11.49,1.11,1.11Z"/>
      </g>
      <path class="cls-1" d="M215.58,46.23c-.12,0-.25-.05-.34-.15-.18-.19-.17-.48.02-.66l5.8-5.42-5.8-5.42c-.19-.18-.2-.47-.02-.66.18-.19.47-.2.66-.02l6.17,5.76c.09.09.15.21.15.34s-.05.25-.15.34l-6.17,5.76c-.09.08-.2.13-.32.13Z"/>
      <path class="cls-1" d="M220.73,46.23c-.12,0-.25-.05-.34-.15-.18-.19-.17-.48.02-.66l5.8-5.42-5.8-5.42c-.19-.18-.2-.47-.02-.66.18-.19.47-.2.66-.02l6.17,5.76c.09.09.15.21.15.34s-.05.25-.15.34l-6.17,5.76c-.09.08-.2.13-.32.13Z"/>
    </g>
  </g>
</svg>