<?xml version="1.0" encoding="UTF-8"?>
<svg id="_レイヤー_2" data-name="レイヤー 2" xmlns="http://www.w3.org/2000/svg" width="338.24" height="93.21" viewBox="0 0 338.24 93.21">
  <defs>
    <style>
      .cls-1 {
        fill: #211815;
      }

      .cls-2 {
        fill: #f5f19b;
      }

      .cls-3 {
        fill: #ecbb6e;
      }

      .cls-4 {
        fill: #5c948d;
      }

      .cls-5 {
        fill: #de8a4c;
      }

      .cls-6 {
        fill: #ceeaeb;
      }

      .cls-7 {
        fill: #f2d496;
      }

      .cls-8 {
        fill: #fff;
        stroke: #ceeaeb;
        stroke-miterlimit: 10;
        stroke-width: 2.83px;
      }
    </style>
  </defs>
  <g id="_レイヤー_1-2" data-name="レイヤー 1">
    <g>
      <g>
        <circle class="cls-6" cx="308.24" cy="63.21" r="30"/>
        <g>
          <path class="cls-2" d="M310.42,80.64c1.36-.08,2.67-.26,3.94-.54,9.94-2.19,10.3-7.26,10.17-11.48s-1.05-19.35-13.24-20.18c-12.19-.82-15.33,8.87-17.69,12.02s-10.95,12.98,5.17,18.47c1.57.54,3.13.95,4.67,1.23"/>
          <path class="cls-3" d="M312.08,74.43c-.68-1.85-3.68-3.84-5.2-3.62s-4.74,2.07-5.75,2.02-1.7-.74-1.81,1.6,1.71,3.54,4.16,2.68c3.4,1.94,9.76.49,8.6-2.68Z"/>
          <path class="cls-3" d="M312.08,76.83c-.76,3.71-4.97,5.89-6.25,5.34s-2.88-1.43-1.48-4.66c2.52.54,6.97-.12,7.09-1.65s.64.97.64.97Z"/>
          <path class="cls-5" d="M305.6,77.84c-.73,1.36-.38,3.09,1.85,2.01s2.23-2.31,2.23-2.31c0,0,1.46-.73-.49,0-1.95.73-3.58.3-3.58.3Z"/>
          <polygon class="cls-4" points="322.53 44.85 316.36 44.27 319.11 49.82 325.4 50.49 322.53 44.85"/>
          <rect class="cls-4" x="315.77" y="47.98" width="6.72" height="2.92" transform="translate(99.97 -187.75) rotate(38.45)"/>
          <path class="cls-7" d="M289.91,66.36c5.1.33,8.05,5.73,6.16,11.51-4.98-2.71-7.76-5.46-6.16-11.51Z"/>
          <path class="cls-7" d="M324.02,68.51c-5.89-.81-10.4,4.26-9.48,10.84,6.25-1.75,10.01-4.04,9.48-10.84Z"/>
          <ellipse class="cls-1" cx="302.07" cy="68.7" rx="1.85" ry="1.71" transform="translate(187.21 356.4) rotate(-81.05)"/>
          <ellipse class="cls-1" cx="312.29" cy="69.76" rx="1.71" ry="1.85" transform="translate(-3.13 15.87) rotate(-2.9)"/>
          <path class="cls-1" d="M301.9,58.94c1.67-.68,3.18-.04,3.88,1.27.17.3-.14.57-.47.4-1.05-.53-2.08-.79-3.21-1.01-.38-.07-.52-.54-.2-.67Z"/>
          <path class="cls-1" d="M315.18,61.48c-1.24-1.31-2.87-1.35-4.06-.46-.28.21-.11.58.26.56,1.18-.05,2.22.15,3.34.42.37.09.69-.27.46-.52Z"/>
          <path class="cls-1" d="M310.42,81.27c-.33,0-.61-.26-.63-.59-.02-.35.25-.65.59-.67,1.31-.08,2.6-.25,3.84-.53,9.95-2.2,9.78-7.4,9.68-10.85-.13-4.34-.82-8.09-2.05-11.15-2.11-5.25-5.67-8.08-10.6-8.42-9.76-.66-13.4,5.55-15.82,9.66-.49.83-.91,1.55-1.33,2.11-.12.16-.25.33-.39.51-1.68,2.19-4.81,6.26-3.62,10.16.85,2.81,3.84,5.1,8.88,6.82,1.52.52,3.06.93,4.58,1.21.34.06.57.39.5.74-.06.34-.39.57-.74.5-1.58-.3-3.17-.72-4.75-1.26-5.45-1.86-8.71-4.43-9.68-7.65-1.37-4.52,2.14-9.1,3.83-11.3.14-.18.27-.35.38-.5.37-.5.78-1.19,1.25-1.99,2.41-4.11,6.45-10.99,16.99-10.28,5.45.37,9.38,3.47,11.68,9.21,1.28,3.2,2,7.09,2.14,11.58.15,4.69-.55,9.88-10.67,12.12-1.3.29-2.66.47-4.04.55-.01,0-.02,0-.04,0Z"/>
          <path class="cls-1" d="M301.13,68.08c-.07,0-.14-.02-.2-.07-.77-.61-1.16-1.23-1.45-2.3-.05-.17.05-.34.22-.39.17-.05.34.05.39.22.29,1.07.66,1.52,1.24,1.97.14.11.16.31.05.44-.06.08-.15.12-.25.12Z"/>
          <path class="cls-1" d="M300.94,68.67c-.81,0-1.69-.47-2.38-1.28-.11-.13-.1-.33.04-.44.13-.11.33-.1.44.04.61.72,1.4,1.12,2.06,1.05.17-.02.33.11.35.28.02.17-.11.33-.28.35-.08,0-.15.01-.23.01Z"/>
          <path class="cls-1" d="M313.49,69.27c-.16,0-.29-.11-.31-.27-.02-.17.1-.33.27-.35.66-.09,1.43-.66,1.86-1.39.09-.15.28-.2.43-.11.15.09.2.28.11.43-.53.9-1.46,1.58-2.32,1.7-.01,0-.03,0-.04,0Z"/>
          <path class="cls-1" d="M314.58,70.53c-.38,0-.76-.07-1.14-.24-.16-.07-.23-.26-.16-.42.07-.16.26-.23.42-.16.86.39,1.82.08,2.49-.24.16-.08.35-.01.42.14.08.16.01.35-.14.42-.51.25-1.18.49-1.89.49Z"/>
          <path class="cls-1" d="M307.12,78.61c-1.07,0-2.22-.33-3.41-.99-2.32.66-3.62.03-4.3-.62-.86-.83-1.19-2.15-.85-3.44.35-1.32.96-1.43,1.86-1.46.65-.01,1.63-.04,3.23-.88,3.58-1.88,5.67-.8,7.72,1.4.21.22.19.57-.03.78-.22.21-.57.19-.78-.03-1.84-1.98-3.4-2.75-6.39-1.17-1.83.96-3.01.99-3.72,1q-.65.01-.82.63c-.24.9-.02,1.83.54,2.37.7.67,1.9.78,3.44.29.15-.05.31-.03.44.05,1.93,1.13,4.68,1.81,6.87-1.38.15-.21.42-.3.66-.2,0,0,.72.29,1.36.43.3.07.49.36.42.66-.07.3-.36.49-.66.42-.41-.09-.83-.23-1.13-.33-1.24,1.64-2.76,2.47-4.47,2.47Z"/>
          <path class="cls-1" d="M306.42,82.78c-.61,0-1.2-.14-1.74-.43-.87-.47-1.42-1.13-1.64-1.97-.44-1.65.61-3.36.66-3.43.16-.26.5-.34.76-.18.26.16.34.5.18.76,0,.01-.84,1.38-.53,2.57.14.54.5.96,1.1,1.28.85.46,1.91.39,2.98-.19,1.52-.82,3.14-2.8,3.35-5.36.02-.3.29-.53.6-.5.3.02.53.29.5.6-.21,2.62-1.75,5.07-3.92,6.24-.77.42-1.55.63-2.29.63Z"/>
          <path class="cls-1" d="M320.88,53.76c-.14,0-.27-.04-.39-.14-.27-.22-.32-.61-.1-.89l2.27-2.88c.13-.17.35-.26.56-.24l1.1.12-2.18-4.3-4.7-.44.66,1.33c.11.21.08.47-.06.66l-1.82,2.42c-.21.28-.61.33-.88.12-.28-.21-.33-.6-.12-.88l1.59-2.11-.99-1.99c-.1-.2-.08-.45.05-.64.13-.19.35-.29.58-.27l6.18.58c.22.02.41.15.5.34l2.87,5.65c.1.21.09.45-.04.64-.13.19-.36.29-.59.27l-1.91-.2-2.05,2.6c-.12.16-.31.24-.5.24Z"/>
        </g>
      </g>
      <path class="cls-8" d="M9.89,1.42h239.38c4.68,0,8.47,3.79,8.47,8.47v47.99s9.69,9.69,9.69,9.69h-9.69s0,.5,0,.5c0,4.68-3.79,8.47-8.47,8.47H9.89c-4.68,0-8.47-3.79-8.47-8.47V9.89c0-4.68,3.79-8.47,8.47-8.47Z"/>
      <g>
        <path d="M17.98,23.58c-.86.11-1.65.15-2.38.15-.21,0-.29-.03-.32-.12-.01-.12-.06-.36-.12-.79.24.02.38.02.53.02.76,0,1.37-.04,2.29-.15,0-1.65-.03-2.28-.17-2.91.42.03.75.08,1.02.12.25.04.33.09.33.2,0,.07,0,.09-.1.31-.12.29-.2,1.08-.2,2.14.66-.11,1.79-.38,2.37-.55t.12-.02c.06,0,.09.03.12.2.04.18.09.46.09.55,0,.11-.04.17-.15.2-.69.2-1.41.36-2.55.54v2.68c1.56-.64,2.89-.96,4.08-.96,1.74,0,2.8,1.05,2.8,2.76,0,1.88-1.17,2.98-3.12,2.98-.51,0-1.12-.09-1.39-.2-.12-.04-.17-.12-.2-.29-.04-.31-.1-.48-.24-.79.6.26,1.16.38,1.74.38,1.35,0,2.17-.79,2.17-2.11,0-1.18-.69-1.86-1.88-1.86s-2.44.35-3.97,1.04v2.71c.01.86-.41,1.37-1.12,1.37-.64,0-1.42-.35-2-.88-.38-.35-.54-.71-.54-1.16,0-.83.78-1.56,2.76-2.57v-1.24l.02-1.74ZM17.97,27.54c-1.36.74-1.84,1.16-1.84,1.6,0,.5.74,1.02,1.42,1.02.29,0,.42-.21.42-.65v-1.98ZM26.38,24.32c-.06,0-.09-.01-.3-.24-.58-.63-1.56-1.21-2.42-1.47-.22-.08-.29-.11-.29-.17,0-.04.09-.19.3-.49.11-.15.15-.18.26-.18.31,0,1.32.42,1.95.81s1.14.85,1.14,1.02c0,.15-.5.72-.65.72Z"/>
        <path d="M31.87,22.56c2.25-.69,3.58-.95,5.01-.95,1.16,0,2.01.21,2.69.64.93.63,1.47,1.67,1.47,2.8,0,1.79-.98,3.29-2.7,4.14-.95.48-2.17.87-3.42,1.09-.38.08-.73.12-.84.12-.13,0-.2-.04-.25-.18-.15-.32-.3-.51-.54-.74,2.14-.29,3.13-.56,4.3-1.12,1.5-.75,2.31-1.89,2.31-3.25,0-1.59-1.11-2.59-2.86-2.59-1.38,0-3.03.34-4.86,1.03-1.06.39-1.77.72-2.17,1.01-.04.03-.1.06-.13.06-.09,0-.25-.17-.42-.42-.13-.23-.24-.45-.39-.88.63-.09.66-.1,2.82-.76Z"/>
        <path d="M47.8,19.59c.87.15,1.35.35,1.35.54,0,.06-.02.1-.09.21-.15.2-.27.54-.71,2.04-.04.15-.06.21-.09.31.66-.11,1.18-.17,1.53-.17,1.33,0,1.95.79,1.95,2.53s-.45,3.72-1.05,4.83c-.46.84-.99,1.2-1.75,1.2-.46,0-1.08-.13-1.37-.29-.09-.06-.12-.1-.12-.27,0-.32-.06-.58-.17-.92.57.34,1,.48,1.49.48.57,0,.94-.36,1.26-1.2.46-1.23.72-2.62.72-3.99,0-1.08-.36-1.56-1.14-1.56-.34,0-.9.06-1.61.2-.49,1.57-.99,2.88-1.56,4.18-.57,1.31-1.33,2.76-1.6,3.04-.04.04-.11.08-.17.08-.12,0-.46-.2-.71-.39-.08-.08-.11-.11-.11-.15s.02-.09.06-.15c1.18-1.65,2.34-4.09,3.06-6.42-1.92.38-2.31.46-2.64.63-.06.03-.11.04-.13.04-.17,0-.32-.36-.45-1.11.64,0,.9-.03,2.88-.36q.19-.03.6-.09c.41-1.53.54-2.34.55-3.27ZM54.94,26.39c-.45-1.33-1.23-2.55-2.28-3.51-.06-.04-.08-.09-.08-.12,0-.12.5-.58.62-.58.13,0,.87.74,1.38,1.39.64.81,1.29,2,1.29,2.36,0,.08-.04.13-.2.25-.27.21-.51.34-.6.34-.06,0-.11-.03-.14-.13Z"/>
        <path d="M61.56,27.83c0,1.23.04,2.9.1,3.57v.06c0,.18-.09.21-.64.21-.39,0-.41-.01-.41-.38,0-.06,0-.51.01-.93.02-.48.02-.64.02-2.91,0-.37,0-.63.01-.91-.64.73-1.44,1.8-1.98,2.64-.11.17-.17.21-.24.21-.11,0-.18-.06-.41-.3-.24-.25-.31-.36-.31-.45s0-.09.81-1.02c.74-.84,1.51-1.89,2.16-2.89,0-.06.01-.54.03-1.44-.82.1-1.71.28-2.1.42-.04.01-.1.03-.15.03-.09,0-.13-.06-.21-.32-.06-.24-.1-.46-.13-.76.11.01.24.01.32.01.46,0,1.59-.12,2.31-.24q.03-1.25.03-1.47,0-.48-.03-1.38c.76.01,1.29.15,1.29.34,0,.06-.01.11-.08.24-.1.22-.18.77-.25,2.07q.08-.03.17-.08s.09-.03.13-.03c.15.02.56.41.56.55,0,.04-.02.08-.09.17-.21.25-.6.82-.87,1.27,0,.06-.02.48-.02.58.62-.64,1.07-1.05,1.56-1.44.6-.46,1.33-.98,1.84-1.26.43-.24.96-.38,1.42-.38,1.12,0,1.67.69,1.67,2.08,0,.18-.06,1.17-.18,2.94-.06.95-.11,1.88-.11,2.16,0,.71.18.96.69.96.69,0,1.47-.45,2.1-1.2,0,.42.01.56.13.87.03.09.04.13.04.19,0,.15-.18.34-.54.57-.6.39-1.23.58-1.84.58-1.05,0-1.59-.58-1.59-1.74,0-.42.04-1.33.13-2.76.09-1.32.12-2.04.12-2.42,0-.92-.21-1.27-.74-1.27-.69,0-1.5.42-2.86,1.48-.48.38-1.07.88-1.47,1.29-.26.25-.39.39-.42.41v2.04Z"/>
        <path d="M77.68,20.61c-.25-.71-.33-.92-.51-1.21.54-.12.78-.15,1.11-.15.15,0,.22.06.22.21v.12c.04.48.23,1.07.69,2.25,1.18-.27,2.5-.71,3.63-1.21.06-.03.09-.03.12-.03.04,0,.07.04.17.27.09.23.18.54.18.6,0,.1-.08.13-.92.43-1.17.42-1.37.48-2.79.83.69,1.49,2.05,3.12,3.13,3.75.12.08.17.12.17.17,0,.09-.13.42-.29.69-.13.24-.21.33-.31.33-.06,0-.12-.03-.32-.15-.72-.48-2.47-.92-3.69-.92-1.8,0-2.91.67-2.91,1.75,0,1.3,1.91,2.15,4.86,2.15.23,0,.47-.02.75-.03-.1.23-.24.56-.31.75q-.13.38-.5.38c-.9,0-2.33-.19-3.17-.43-1.72-.48-2.7-1.47-2.7-2.75,0-1.66,1.48-2.67,3.93-2.67,1.09,0,2.02.18,3,.55-1.11-.82-1.88-1.83-2.62-3.36-1.42.26-3.5.48-4.53.48-.27,0-.29-.04-.39-.77-.02-.13-.02-.15-.03-.25h.42c1.29,0,2.91-.14,4.14-.36-.17-.4-.33-.82-.54-1.41Z"/>
        <path d="M92.49,19.14c.87.04,1.3.15,1.3.33,0,.06-.01.1-.06.22-.13.34-.21.9-.22,1.84,1-.1,1.79-.24,2.47-.43.18-.04.23-.06.26-.06.06,0,.09.04.16.21.08.19.15.51.15.6,0,.1-.01.1-.39.18-.88.18-1.68.3-2.67.4.01.32.01.59.01.74,0,.27,0,.76.01,1.47,1.28-.15,2.1-.33,3.17-.71.04-.01.06-.01.08-.01.06,0,.09.03.17.19.08.15.18.51.18.61,0,.08-.03.11-.3.2-.88.29-2.13.54-3.24.65.01.6.06,1.2.19,2.71,1.2.38,1.74.6,2.7,1.16.78.46,1.12.73,1.12.88,0,.1-.03.15-.2.39-.25.36-.31.42-.41.42-.06,0-.1-.03-.18-.09-.34-.33-1.04-.83-1.6-1.16-.45-.25-.74-.38-1.37-.62,0,.87-.06,1.17-.33,1.58-.39.57-1.17.87-2.31.87-1.61,0-2.59-.66-2.59-1.75,0-1.2,1.12-1.96,2.89-1.96.41,0,.74.03,1.32.1-.09-1.23-.14-1.75-.17-2.46-.32.01-.63.03-1,.03-1.07,0-2.16-.1-2.76-.27-.13-.03-.18-.08-.18-.18,0-.12.04-.39.13-.79,1.16.24,1.89.31,3.04.31.32,0,.48,0,.74-.03-.01-.36-.03-1.11-.04-2.22-.36.02-.58.02-.79.02-.84,0-2.04-.11-2.46-.21-.08-.01-.09-.06-.09-.27,0-.13.01-.36.06-.66,1,.18,1.7.24,2.61.24.19,0,.39,0,.66-.02,0-1.48,0-1.53-.07-2.46ZM91.32,28.89c-1.07,0-1.8.43-1.8,1.05,0,.57.58.88,1.63.88,1.21,0,1.69-.39,1.69-1.41,0-.06-.01-.36-.01-.36-.36-.11-.84-.17-1.51-.17Z"/>
        <path d="M108.4,30.69c0,.48-.39.87-.86.87s-.87-.39-.87-.87.38-.85.86-.85.87.38.87.85ZM107.95,28.41h-.84l-.25-8.91h1.36l-.27,8.91Z"/>
        <path d="M122.86,30.69c0,.48-.39.87-.86.87s-.87-.39-.87-.87.38-.85.86-.85.87.38.87.85ZM122.41,28.41h-.84l-.25-8.91h1.36l-.27,8.91Z"/>
        <path d="M133.26,24.77c-.66,0-1.84.03-2.26.07h-.09c-.12,0-.17-.04-.2-.13-.06-.24-.09-.54-.09-.99.52.08,1.04.09,2.61.09h6.67c.9,0,1.92-.01,2.13-.03h.08c.13,0,.17.09.17.53s-.03.49-.24.49c-.06,0-.15,0-.27-.01-.25,0-1-.01-1.82-.01h-2.67v.13c-.03,2.61-.76,4.38-2.34,5.67-.55.46-1.27.88-1.48.88-.04,0-.11-.03-.17-.09-.3-.3-.41-.38-.78-.56.95-.43,1.46-.75,2-1.25,1.16-1.06,1.67-2.47,1.71-4.8h-2.96ZM139.15,21.35c-.18,0-3.04-.02-3.49-.02-1.68,0-2.38.02-2.82.04-.13.02-.17.02-.17.02-.21,0-.25-.18-.27-1.12.57.07,1.08.1,1.8.1h4.12c.64,0,1.27-.01,1.56-.04.18-.01.27-.01.3-.01.17,0,.2.12.2.62,0,.39-.02.43-.23.43-.03,0-.07,0-.33-.01h-.68Z"/>
        <path d="M146.4,30.54c-.51.3-.62.36-.72.36-.08,0-.09-.02-.3-.23-.18-.17-.34-.3-.63-.45,2.01-1.05,3.45-2.1,5.02-3.71,1.5-1.5,2.46-2.8,3.56-4.78q-.75.01-3.33.01c-.57,0-2.48.04-2.87.06-.17.01-.2.01-.33.03q-.1.02-.18.02h-.04c-.15,0-.21-.3-.23-1.2.98.1,1.28.12,4.54.12,1.86,0,2.54-.03,2.82-.12.12-.03.18-.04.27-.04.21,0,.35.1.62.43.18.22.29.44.29.55,0,.09-.04.15-.15.23-.22.18-.42.41-.69.87-.81,1.38-1.38,2.17-2.36,3.31,1.75,1.17,2.42,1.68,3.66,2.88.72.67,1.09,1.09,1.09,1.23,0,.15-.61.77-.75.77q-.09,0-1.02-1.05c-.67-.76-1.84-1.82-2.82-2.52-.15-.12-.4-.3-.82-.58-1.53,1.62-3.02,2.83-4.63,3.81Z"/>
        <path d="M164.5,26.75c0,2.53.01,3.61.04,4.14v.08c0,.17-.03.24-.09.27-.08.04-.41.07-.67.07-.33,0-.39-.03-.39-.22v-.08c.04-1.07.06-2.76.06-6.43,0-3.06-.03-4.06-.14-4.88,1.11.04,1.4.11,1.4.27q0,.06-.06.24c-.09.3-.1.63-.13,3.57,1.86.51,3.06.97,4.63,1.83.86.45.95.52.95.64,0,.09-.12.39-.3.72-.08.14-.15.2-.21.2s-.06,0-.5-.3c-1.44-.93-2.82-1.54-4.59-2.03v1.91Z"/>
        <path d="M183.21,20.54c.96-.13,1.23-.18,1.63-.29.04-.01.08-.01.1-.01.09,0,.15.04.2.12.08.18.21.72.21.85s-.04.15-.32.15c-.93.01-1.8.22-2.56.65-1.79.96-3,2.95-3,4.89,0,1.43.81,2.45,2.38,3.04.58.23.96.32,1.65.39.1.01.15.06.15.16,0,.21-.07.62-.17.84-.04.1-.09.15-.19.15-.24,0-1.16-.24-1.74-.45-2.07-.75-3.1-2.13-3.1-4.19,0-1.32.46-2.56,1.35-3.67.48-.57.85-.9,1.77-1.52-5.43.93-6.27,1.09-6.97,1.42-.12.06-.19.08-.25.08-.13,0-.18-.04-.29-.22-.17-.3-.28-.63-.38-1.07.79-.03,1.08-.06,3.6-.43l5.92-.9ZM183.12,23.51s.08-.04.12-.09c.21-.15.29-.19.36-.18.1.01.42.28.81.72.27.29.66.83.66.9,0,.06-.04.1-.15.19-.18.18-.42.33-.47.33-.06,0-.09-.03-.15-.12-.3-.55-.72-1.09-1.19-1.5-.06-.04-.09-.09-.09-.13,0-.03.03-.07.09-.12ZM186.28,23.99c0,.09-.04.12-.34.32-.17.12-.21.15-.27.15-.04,0-.07-.01-.12-.1-.32-.6-.66-1.02-1.2-1.5-.04-.04-.06-.06-.06-.09,0-.09.45-.41.57-.41.24.02,1.42,1.35,1.42,1.63Z"/>
        <path d="M194.73,18.92c.74,1.17,1.56,2.04,2.94,3.08,1.14.86,2.04,1.35,3.37,1.9-.28.33-.42.56-.58.93-1.41-.72-2.4-1.33-3.46-2.16-1.18-.93-1.93-1.69-2.79-2.9-1.77,2.31-3.38,3.65-6.11,5-.13-.3-.3-.54-.6-.84,1.7-.78,2.75-1.46,4.04-2.58.94-.84,1.54-1.53,2.1-2.43h1.09ZM199.48,26.63c-.15.15-.42.45-.58.64l-2.87,3.51c-.39.48-.64.84-.96,1.29l-1.03-.6c.39-.33.78-.74,1.15-1.17l2.8-3.41h-7.12c-.53,0-1.04.03-1.67.09v-1.06c.55.06,1.06.09,1.68.09h6.41c.91,0,1.3-.01,1.6-.07l.58.69ZM191.2,23.27c.31.04.6.06,1.14.06h3.78c.58,0,.85-.01,1.21-.06v1c-.35-.04-.72-.06-1.25-.06h-3.74c-.5,0-.85.01-1.15.06v-1Z"/>
        <path d="M204.09,21.14c0-.57-.03-1-.08-1.42.46.06.88.07,1.54.07h6.46c.67,0,1.08-.02,1.5-.07-.06.42-.08.78-.08,1.33v9.22c0,.71.02,1.05.09,1.54h-1.06v-.95h-7.41v.95h-1.06c.06-.42.09-.88.09-1.53v-9.15ZM205.06,24.69h7.41v-4.02h-7.41v4.02ZM205.06,29.99h7.41v-4.41h-7.41v4.41Z"/>
        <path d="M223.69,30.8c0,.9-.25,1.06-1.62,1.06-.42,0-1.11-.03-1.63-.07-.09-.42-.15-.62-.29-.93.74.1,1.4.16,1.88.16.65,0,.75-.04.75-.36v-2.89h-4.3c-.62,0-1.09.03-1.51.09v-.99c.41.06.88.09,1.5.09h4.32v-.25c0-.29-.01-.51-.04-.84h.6c1-.46,1.83-.99,2.58-1.62h-5.25c-.5,0-1,.03-1.37.07v-.94c.39.04.87.08,1.38.08h5.21c.52,0,.84-.02,1.06-.06l.54.59-.5.4c-.96.83-1.88,1.41-3.3,2.13v.45h4.29c.64,0,1.12-.03,1.53-.09v.99c-.39-.06-.9-.09-1.53-.09h-4.29v3.03ZM219.84,21.27c-.42-.73-.69-1.11-1.35-1.86l.87-.27c.66.82.9,1.18,1.46,2.13h2.1c-.27-.76-.56-1.32-1.05-2.07l.9-.25c.54.97.76,1.44,1.09,2.32h1.58c.66-.76,1.06-1.41,1.47-2.31l.9.38c-.6.96-.9,1.39-1.38,1.93h1.12c.82,0,1.17-.01,1.66-.06-.04.38-.06.65-.06,1.17v1.08c0,.34.03.67.08,1.02h-.96v-2.45h-10.14v2.45h-.96c.04-.33.08-.66.08-1.02v-1.08c0-.51-.02-.84-.06-1.17.53.05.87.06,1.65.06h1Z"/>
        <path d="M238.05,20.19c0,.06-.02.09-.18.25-.42.42-1.5,2.29-3.22,5.61-.12.24-.22.42-.69,1.2,1.06-1.4,1.98-1.96,3.18-1.96.99,0,1.6.51,1.84,1.54.08.32.12.75.24,2.07.03.46.09.77.19.96.17.31.48.48.93.48.78,0,1.51-.46,2.19-1.36.29-.39.46-.72.81-1.44.04.41.07.52.28.9.06.12.09.2.09.3,0,.2-.23.62-.57,1.05-.81,1.02-1.75,1.53-2.87,1.53-1,0-1.6-.36-1.88-1.12-.15-.38-.21-.83-.3-1.95-.08-.93-.13-1.18-.3-1.53-.17-.36-.5-.55-.92-.55-1.32,0-2.79,1.41-3.72,3.55-.18.42-.32.78-.48,1.33-.04.15-.09.19-.17.19-.27,0-.94-.34-.94-.49,0-.02.1-.26.27-.63q.17-.31.75-1.72c.57-1.33,1.8-3.9,2.79-5.85,1.07-2.07,1.21-2.4,1.42-3.13.71.27,1.23.6,1.23.78Z"/>
        <path d="M18.13,45.92s0-.15-.01-.25c.6.09.95.17,1.21.27.09.03.12.09.12.17q-.01.1-.17.4t-.42,1.79c.71-.13,1.65-.36,2.05-.5.04-.01.06-.01.09-.01.06,0,.08.01.11.09.04.18.13.62.13.71,0,.12-.01.15-.12.17-.01,0-.06.01-.13.04-.43.1-1.75.38-2.33.46-.49,2.4-1.17,4.63-2.08,6.84-.46,1.14-.61,1.42-.73,1.42-.09,0-.44-.15-.71-.31-.12-.08-.17-.12-.17-.2,0-.06.03-.12.08-.21.24-.41.51-.95.76-1.58.81-1.94,1.26-3.39,1.82-5.8-.78.11-1.92.2-2.52.2-.22,0-.27-.02-.3-.15-.06-.21-.09-.48-.12-.81q.58.02.66.02c.58,0,1.65-.09,2.47-.21.23-1.18.3-1.84.3-2.54ZM23.71,56.58c.72,0,1.19-.04,2.07-.21q.09-.01.18-.01c.17,0,.2.04.22.36.02.09.02.17.03.24.01.1.03.22.03.29,0,.13-.06.19-.2.22-.46.09-1.53.17-2.26.17-1.44,0-2.35-.24-3-.75-.39-.32-.69-.75-.9-1.31-.04-.12-.07-.25-.07-.31,0-.12.04-.15.76-.54.43,1.38,1.25,1.86,3.13,1.86ZM21.6,51.03s-.06.01-.07.01c-.09,0-.15-.04-.17-.13-.03-.11-.06-.44-.06-.66,0-.13.04-.18.18-.21.88-.18,1.95-.27,3.15-.27.86,0,1.25.03,1.29.12.03.04.04.13.04.39,0,.46-.03.57-.18.57h-.08c-.71-.07-1.07-.09-1.42-.09-.86,0-1.83.11-2.69.27ZM23.88,46.49s.08-.04.12-.09c.21-.15.29-.19.36-.18.1.02.42.29.81.72.27.3.66.84.66.9s-.03.12-.15.21c-.19.18-.42.33-.48.33-.04,0-.08-.03-.14-.13-.28-.54-.67-1.04-1.2-1.5-.04-.04-.08-.09-.08-.12,0-.04.03-.09.09-.13ZM27.04,46.97c0,.09-.04.12-.34.33-.17.11-.21.13-.27.13-.04,0-.08-.01-.12-.1-.31-.58-.67-1.02-1.2-1.5-.05-.03-.06-.04-.06-.08,0-.09.45-.4.57-.4.24.01,1.42,1.35,1.42,1.62Z"/>
        <path d="M31.87,54.93c.53.51,1.07.77,1.94.92.51.09,1.23.15,1.87.15,1.33,0,2.58-.15,3.96-.46.03-.01.04-.01.08-.01.08,0,.12.05.13.14.03.13.04.55.04.82,0,.13-.04.2-.17.22-1.18.24-2.74.39-4.02.39-1.93,0-3.09-.24-3.97-.84-.45-.3-.79-.69-1.05-1.12-.17-.3-.3-.63-.3-.73,0-.12.28-.35.79-.6.21.57.36.83.69,1.14ZM35.77,47.27c.6,0,1.48-.04,1.88-.09.4-.04.48-.06.55-.06.09,0,.12.03.13.11.03.09.06.43.06.64,0,.27-.02.33-.12.36-.23.06-1.38.12-2.24.12-1.29,0-2.68-.14-3.87-.39-.43-.09-.45-.11-.45-.38,0-.31.01-.51.07-.81,1.41.35,2.57.5,3.98.5Z"/>
        <path d="M48.55,45.92c.15.03.23.09.23.18,0,.04-.02.09-.03.18-.06.2-.09.62-.09,1.04,0,.57.1,1.68.21,2.23.13.71.31.96.69.96.33,0,.77-.17,2.03-.79.32-.17.45-.24.74-.45.04-.01.06-.03.1-.03.17,0,.69.81.69,1.06,0,.09-.08.15-.25.2-.54.12-1.46.45-2.31.79-2.64,1.08-3.99,2.32-3.99,3.64,0,1.11.93,1.59,3.07,1.59,1.12,0,2.27-.09,3.5-.29.06-.01.1-.01.12-.01.09,0,.15.04.18.12.04.09.09.53.09.78,0,.17-.04.23-.22.26-.58.07-2.26.16-3.29.16-1.15,0-2.1-.1-2.71-.31-1.17-.38-1.75-1.11-1.75-2.25,0-.81.32-1.56.98-2.28.55-.62,1.05-.97,2.19-1.61-.67-.27-.87-.96-1.11-3.88-.06-.69-.09-.95-.19-1.38.51,0,.82.03,1.15.09Z"/>
        <path d="M66.76,50.9c1.33-.69,1.65-.9,2.16-1.35.36.41.74.96.74,1.11,0,.1-.08.18-.26.22-.75.23-3.01,1.25-4.29,1.95.03.54.04,1.33.04,1.83,0,.57,0,.63-.06.67-.07.06-.33.09-.64.09-.25,0-.3-.03-.3-.23,0-.12,0-.31.01-.6.01-.15.01-.38.01-.71v-.57s-.06.04-.13.09c-1.68.9-2.31,1.54-2.31,2.33s.78,1.12,2.62,1.12c1.32,0,3.12-.17,3.75-.33.03-.02.06-.02.09-.02.09,0,.15.06.18.21.03.13.06.49.06.7s-.03.24-.38.27c-.7.07-2.38.13-3.49.13-1.31,0-2.07-.11-2.67-.36-.78-.35-1.16-.9-1.16-1.71,0-1.21.71-1.93,3.36-3.43-.15-.88-.44-1.25-.99-1.25-.69,0-1.41.27-2.28.84-.63.42-.97.71-1.42,1.16-.09.09-.18.13-.25.13-.17,0-.62-.58-.62-.79,0-.06.04-.12.18-.21.28-.2.72-.54,1.05-.84.97-.87,1.62-1.7,2.23-2.82-.88.06-1.88.11-2.65.11-.2,0-.25-.04-.3-.21-.04-.21-.07-.43-.07-.78.54.03.9.04,1.51.04.51,0,1.39-.04,1.96-.1.39-.92.51-1.4.54-2.12.87.14,1.26.29,1.26.48,0,.06-.01.08-.12.24q-.15.21-.58,1.28c1.25-.18,1.52-.24,2.73-.54.13-.03.22-.04.25-.04.08,0,.12.04.15.15.04.17.09.5.09.63,0,.16-.05.18-.5.27-1.53.29-1.77.31-3.18.48-.54,1.08-.99,1.72-1.77,2.56.79-.51,1.35-.71,2.01-.71.92,0,1.41.46,1.65,1.54l1.77-.95Z"/>
        <path d="M73.54,46.61c-.57,0-.85.01-1.25.09v-.97c.41.06.77.09,1.29.09h2c.51,0,.83-.02,1.21-.09v.94c-.39-.04-.63-.06-1.05-.06h-.83c-.22,1.41-.45,2.29-.94,3.69h1.56c.38,0,.62-.01.9-.06-.05.35-.06.65-.06,1.16v4.5c0,.56.01.84.06,1.2h-.87v-.71h-1.56v1.5h-.94c.06-.38.09-.75.09-1.38v-3.3c0-.18.04-1.04.08-1.56-.35.84-.58,1.28-.99,1.82-.21-.43-.27-.54-.51-.81.81-1.05,1.32-2.03,1.75-3.48.27-.84.42-1.53.57-2.56h-.51ZM74.01,55.59h1.56v-4.51h-1.56v4.51ZM83.52,56.84c.67,0,.93-.01,1.37-.08v.93c-.48-.06-.87-.09-1.35-.09h-4.8v.72h-.93c.08-.42.11-.83.11-1.5v-3.92c.03-.82.04-1.29.06-1.42-.29.43-.54.75-1,1.23-.15-.3-.33-.54-.54-.75,1.07-.94,1.82-1.92,2.57-3.34.21-.39.36-.72.52-1.12h-1.68v1.62h-.88c.04-.23.06-.5.06-.87v-.84c0-.15-.01-.41-.03-.74.28.03.42.03,1.27.03h1.56c.23-.69.33-1.1.42-1.61l.95.18q-.09.24-.25.74c-.1.31-.13.43-.24.69h2.85c.58,0,1.02-.02,1.44-.08-.03.21-.04.54-.04.95v.72c0,.3.01.53.06.79h-.92v-1.59h-3.69c-.38.93-.66,1.47-1.17,2.25h1.95c.27-.55.46-1.11.58-1.65l.87.21q-.06.16-.17.45t-.24.55-.21.44h1.27c.62,0,.93-.02,1.31-.06v.87c-.53-.05-.84-.06-1.28-.06h-1.53v1.57h1.3c.62,0,.93-.01,1.3-.06v.87c-.5-.06-.84-.08-1.29-.08h-1.32v1.59h1.3c.62,0,.94-.02,1.3-.08v.88c-.5-.06-.84-.07-1.29-.07h-1.32v1.71h1.74ZM80.97,52.07v-1.57h-2.23v1.57h2.23ZM78.73,54.39h2.23v-1.59h-2.23v1.59ZM78.73,56.84h2.23v-1.71h-2.23v1.71Z"/>
        <path d="M86.59,47.75c.3.06.62.08,1.16.08h2.49c.6,0,.85-.02,1.15-.06v.92c-.33-.03-.57-.04-1.05-.04h-2.59c-.51,0-.84.01-1.16.06v-.94ZM87.1,45.75c.34.06.54.08,1.03.08h1.89c.48,0,.69-.01,1.04-.08v.92c-.35-.04-.6-.06-1.04-.06h-1.89c-.43,0-.72.01-1.03.06v-.92ZM87.16,49.77c.27.04.48.06.97.06h1.92c.48,0,.72-.02.96-.06v.9c-.28-.04-.52-.06-.96-.06h-1.92c-.46,0-.72.02-.97.06v-.9ZM87.16,51.77c.3.03.48.04.97.04h1.92c.48,0,.69-.02.96-.04v.88c-.27-.04-.51-.06-.96-.06h-1.92c-.48,0-.69.02-.97.06v-.88ZM87.19,58.23c.04-.45.08-.92.08-1.4v-1.96c0-.5-.02-.76-.06-1.18.34.04.63.06,1.17.06h1.51c.53,0,.84-.01,1.07-.05-.03.27-.04.59-.04,1.12v2.04c0,.49.01.88.06,1.18h-.87v-.63h-2.01v.81h-.9ZM88.08,56.67h2.03v-2.19h-2.03v2.19ZM92.94,53.69c-.21,1.6-.39,2.22-.96,3.49l-.78-.4c.6-1.16.81-1.92.92-3.26l.82.17ZM92.56,47.6c.83.29,1.11.39,1.76.69.15-.51.19-.72.31-1.54h-1.35c-.71,0-1.04.02-1.44.08v-.96c.34.06.78.09,1.46.09h4.39c.58,0,1.02-.02,1.35-.06-.03.2-.03.27-.06.69-.1,2.38-.34,3.9-.71,4.56-.21.39-.51.51-1.29.51-.37,0-.78-.01-1.18-.06-.03-.36-.08-.55-.21-.92.45.11.92.17,1.35.17.5,0,.63-.12.79-.75.18-.71.29-1.72.36-3.34h-2.61c-.14.92-.21,1.28-.42,1.89.57.3.84.45,1.59.91l-.48.71c-.63-.45-.87-.6-1.39-.9-.53,1.12-1.37,2-2.83,2.96-.2-.31-.35-.48-.62-.69,1.37-.72,2.19-1.52,2.71-2.64-.66-.31-1-.45-1.91-.76l.42-.61ZM94.45,56.79c0,.3.13.36.87.36.33,0,.99-.03,1.14-.04.5-.06.62-.2.71-.81.04-.33.09-.75.1-1.21.32.17.5.22.83.3-.09,1.07-.21,1.62-.41,1.98-.22.45-.71.59-2.1.59-1.68,0-1.98-.14-1.98-.92v-2.58c0-.45-.03-.81-.09-1.17h1.01c-.06.3-.08.56-.08,1.11v2.4ZM94.56,51.5c1.08.71,1.52,1.05,2.33,1.88l-.64.6c-.71-.85-1.2-1.29-2.29-1.96l.61-.51ZM98.35,53.31c.81,1.09,1.07,1.56,1.74,3.04l-.76.48c-.54-1.4-.92-2.07-1.7-3.12l.72-.4Z"/>
        <path d="M105.57,45.86c.22.04.28.09.28.24,0,.07-.01.12-.04.22-.1.3-.18.82-.22,1.63-.08,1.42-.21,5.56-.21,6.57,0,1.66.51,2.28,1.92,2.28,1.02,0,2.02-.3,2.94-.88.93-.58,1.58-1.25,2.4-2.43.06.36.12.53.31.91.04.09.06.12.06.18,0,.32-.99,1.35-1.92,2.01-1.17.84-2.5,1.27-3.86,1.27-1.96,0-2.88-1.05-2.88-3.28,0-.38.12-6.36.15-7.26v-.43c0-.48-.01-.69-.08-1.17.48.03.88.07,1.14.13Z"/>
        <path d="M121.41,45.39c.87.04,1.3.15,1.3.33,0,.06-.01.1-.06.22-.13.34-.21.9-.22,1.84,1-.1,1.79-.24,2.47-.43.18-.04.23-.06.26-.06.06,0,.09.04.16.21.08.19.15.51.15.6,0,.1-.01.1-.39.18-.88.18-1.68.3-2.67.4.01.32.01.59.01.74,0,.27,0,.76.01,1.47,1.28-.15,2.1-.33,3.17-.71.04-.01.06-.01.08-.01.06,0,.09.03.17.19.08.15.18.51.18.61,0,.08-.03.11-.3.2-.88.29-2.13.54-3.24.65.01.6.06,1.2.19,2.71,1.2.38,1.74.6,2.7,1.16.78.46,1.12.73,1.12.88,0,.1-.03.15-.2.39-.25.36-.31.42-.41.42-.06,0-.1-.03-.18-.09-.34-.33-1.04-.83-1.6-1.16-.45-.25-.74-.38-1.37-.62,0,.87-.06,1.17-.33,1.58-.39.57-1.17.87-2.31.87-1.61,0-2.59-.66-2.59-1.75,0-1.2,1.12-1.96,2.89-1.96.41,0,.74.03,1.32.1-.09-1.23-.14-1.75-.17-2.46-.32.01-.63.03-1,.03-1.07,0-2.16-.1-2.76-.27-.13-.03-.18-.08-.18-.18,0-.12.04-.39.13-.79,1.16.24,1.89.31,3.04.31.32,0,.48,0,.74-.03-.01-.36-.03-1.11-.04-2.22-.36.02-.58.02-.79.02-.84,0-2.04-.11-2.46-.21-.08-.01-.09-.06-.09-.27,0-.13.01-.36.06-.66,1,.18,1.7.24,2.61.24.19,0,.39,0,.66-.02,0-1.48,0-1.53-.07-2.46ZM120.24,55.14c-1.07,0-1.8.43-1.8,1.05,0,.57.58.88,1.63.88,1.21,0,1.69-.39,1.69-1.41,0-.06-.01-.36-.01-.36-.36-.11-.84-.17-1.51-.17Z"/>
        <path d="M134.49,45.86c.22.04.28.09.28.24,0,.07-.01.12-.04.22-.1.3-.18.82-.22,1.63-.08,1.42-.21,5.56-.21,6.57,0,1.66.51,2.28,1.92,2.28,1.02,0,2.02-.3,2.94-.88.93-.58,1.58-1.25,2.4-2.43.06.36.12.53.31.91.04.09.06.12.06.18,0,.32-.99,1.35-1.92,2.01-1.17.84-2.5,1.27-3.86,1.27-1.96,0-2.88-1.05-2.88-3.28,0-.38.12-6.36.15-7.26v-.43c0-.48-.01-.69-.08-1.17.48.03.88.07,1.14.13Z"/>
        <path d="M151.32,54.78c.92.24,1.98.75,2.97,1.41.46.3.58.42.58.55,0,.21-.39.72-.56.72-.06,0-.1-.03-.19-.11-.86-.72-1.88-1.33-2.76-1.63.02.13.02.21.02.33,0,1.16-.84,1.77-2.4,1.77-1.39,0-2.17-.54-2.17-1.48,0-1.06,1.05-1.79,2.61-1.79.31,0,.63.02,1,.06-.13-1.59-.2-2.89-.2-5,0-.51-.01-.76-.09-1.26.95.04,1.23.12,1.23.33,0,.06-.01.09-.04.17-.15.3-.19.75-.19,2.19,1.02-.04,1.69-.15,2.82-.44.09-.03.12-.03.15-.03.09,0,.12.03.17.2.04.18.1.48.1.54,0,.12-.06.17-.36.23-1.04.24-2.06.38-2.87.38.01.79.08,1.71.18,2.86ZM149.28,55.37c-.98,0-1.64.38-1.64.91,0,.46.42.71,1.25.71,1.11,0,1.58-.38,1.58-1.24,0-.11-.01-.26-.01-.26-.45-.09-.77-.12-1.17-.12Z"/>
        <path d="M163.39,49.56c1.05-.3,1.84-.45,2.54-.45,1.84,0,2.96,1.17,2.96,3.13,0,2.19-1,3.76-3.17,5.01-.57.32-1.42.67-1.63.67-.15,0-.17-.02-.38-.25-.13-.17-.32-.33-.58-.48,3.13-1.01,4.68-2.61,4.68-4.88,0-1.5-.69-2.31-2-2.31-.97,0-2.8.62-3.78,1.29-.09.06-.17.09-.23.09-.2,0-.46-.42-.78-1.25.53-.06.93-.16,2.37-.58ZM163.96,45.74c1.06.36,2.64.66,3.58.66.12,0,.13.03.13.32,0,.24-.04.63-.08.7-.03.04-.09.08-.17.08-.78,0-2.77-.42-3.84-.81-.46-.16-.51-.19-.51-.29,0-.07.09-.33.18-.55.09-.19.12-.24.21-.24.08,0,.15.02.48.14Z"/>
        <path d="M180.7,56.94c0,.48-.39.87-.86.87s-.87-.39-.87-.87.38-.85.86-.85.87.38.87.85ZM180.25,54.66h-.84l-.25-8.91h1.36l-.27,8.91Z"/>
        <path d="M195.16,56.94c0,.48-.39.87-.86.87s-.87-.39-.87-.87.38-.85.86-.85.87.38.87.85ZM194.71,54.66h-.84l-.25-8.91h1.36l-.27,8.91Z"/>
      </g>
    </g>
  </g>
</svg>