<?xml version="1.0" encoding="UTF-8"?>
<svg id="_レイヤー_2" data-name="レイヤー 2" xmlns="http://www.w3.org/2000/svg" width="343.68" height="70" viewBox="0 0 343.68 70">
  <defs>
    <style>
      .cls-1 {
        fill: #d3e9ea;
      }

      .cls-2 {
        fill: #739b9e;
      }
    </style>
  </defs>
  <g id="_レイヤー_2-2" data-name="レイヤー 2">
    <g>
      <path class="cls-1" d="M69.73,4.96v60.08H10c-2.78,0-5.04-2.26-5.04-5.04V10c0-2.78,2.26-5.04,5.04-5.04h59.73M74.69,0H10C4.48,0,0,4.48,0,10v49.99c0,5.52,4.48,10,10,10h64.69V0h0Z"/>
      <path class="cls-1" d="M77.76,0h256.82c5.02,0,9.1,4.08,9.1,9.1v51.8c0,5.02-4.08,9.1-9.1,9.1H77.76V0h0Z"/>
      <g>
        <g>
          <path class="cls-2" d="M23.75,30.79c.02-1.97.63-3.49,1.83-4.55,1.13-1.05,2.47-1.58,4.03-1.58s2.98.53,4.1,1.58c1.15,1.06,1.74,2.58,1.77,4.56v9.42c-.04,1.96-.63,3.48-1.77,4.54-1.13,1.05-2.5,1.59-4.1,1.61-1.56-.02-2.91-.56-4.03-1.61-1.2-1.06-1.81-2.57-1.83-4.53v-9.44ZM32.54,30.98c-.06-2.14-1.03-3.23-2.92-3.27-1.9.04-2.87,1.13-2.91,3.27v9.07c.04,2.16,1.01,3.25,2.91,3.27,1.89-.02,2.87-1.11,2.92-3.27v-9.07Z"/>
          <path class="cls-2" d="M38.12,43.33l8.09-10.45c.31-.42.53-.81.64-1.17.08-.34.11-.67.11-.97,0-.8-.24-1.5-.73-2.1-.5-.6-1.21-.9-2.13-.92-.82,0-1.49.27-2.04.81-.56.54-.89,1.3-1,2.28h-2.96c.08-1.77.65-3.24,1.73-4.4,1.09-1.13,2.43-1.71,4.02-1.73,1.78.02,3.22.61,4.33,1.76,1.13,1.14,1.7,2.6,1.72,4.35,0,1.41-.42,2.66-1.25,3.75l-6.66,8.62h7.91v3.05h-11.8v-2.87Z"/>
        </g>
        <path class="cls-2" d="M14.87,38.05c-.76.79-1.8,1.41-3.01,1.81-.17-.32-.31-.52-.56-.82,1.2-.29,2.21-.79,2.94-1.47h-1.5c-.05.18-.06.22-.13.43l-1.01-.02c.24-.56.38-1.02.49-1.58.08-.39.14-.77.14-.95.17.02.4.03.82.03h1.78l-.02-.58h-1.93c-.34,0-.56,0-.8.04v-.83c-.1.08-.13.12-.26.23-.17-.29-.35-.5-.56-.69.74-.57,1.16-1.12,1.35-1.76l.93.17c-.11.23-.14.29-.25.47h1.11c.41,0,.64-.02.85-.04v.7c.34-.4.55-.78.7-1.3l.92.16q-.07.17-.22.49h1.65c.46,0,.67,0,.95-.05v.9c-.26-.04-.52-.05-.9-.05h-.68c.23.33.23.35.38.59l-.71.2h.41c.43,0,.59,0,.81-.03-.03.16-.04.3-.04.61v.91c0,.31,0,.45.04.63-.2-.02-.47-.03-.81-.03h-1.99v.57h2.47c.33,0,.52,0,.74-.03-.02.11-.02.17-.03.26t-.03.26s-.02.22-.05.55c-.09.86-.14,1.07-.31,1.27-.17.2-.43.26-1.02.26-.25,0-.43,0-.8-.03-.05-.36-.11-.56-.22-.85.33.04.74.08.95.08.47,0,.49-.05.55-1.01h-2.22l.02,1.45c0,.46.02.68.06.95h-1.02c.04-.25.05-.4.05-.75v-.22l-.02-.96ZM13.63,34.15c-.11-.29-.22-.5-.39-.8h-.48c-.21.29-.4.5-.68.77.21.03.38.04.79.04h.75ZM14.84,36.24h-1.77c-.03.19-.04.21-.12.57h1.9v-.57ZM15.33,34.15c-.13-.16-.31-.33-.56-.51.15-.12.2-.15.32-.27-.15,0-.32-.02-.49-.02h-.48c.11.17.17.26.34.58l-.71.22h1.58ZM17.16,34.15c-.1-.22-.26-.51-.44-.79h-.53c-.23.33-.42.55-.69.79h1.67ZM15.74,35.49h1.87v-.58h-1.88v.58Z"/>
        <path class="cls-2" d="M62.29,39.95v-.47h-5.38v.47h-1.01c.04-.28.05-.64.05-1.12v-5.46c0-.42-.02-.69-.05-1.04.32.04.59.05,1.02.05h5.36c.42,0,.7,0,1.02-.05-.04.32-.04.6-.04,1.04v5.47c0,.47.02.89.04,1.11h-1ZM56.9,38.63h5.38v-5.39h-5.38v5.39ZM60.51,34.22c.38,0,.6,0,.83-.03-.02.21-.03.41-.03.68v2.06c0,.29,0,.47.03.68-.26-.02-.47-.03-.83-.03h-1.85c-.43,0-.57,0-.84.03.03-.23.04-.42.04-.68v-2.06c0-.25,0-.45-.04-.68.22.02.46.03.84.03h1.85ZM58.77,36.78h1.63v-1.76h-1.63v1.76Z"/>
      </g>
      <g>
        <path class="cls-2" d="M103.69,31.13c0-.74-.02-1.07-.1-1.57h1.84c-.08.48-.1.85-.1,1.55v1.26h.85c.34,0,.53-.02.77-.05v1.58c-.27-.03-.51-.05-.8-.05h-.82v2.34c.46-.16.69-.24,1.34-.5l.02,1.5q-.91.35-1.36.51v4.47c0,.67-.24,1.12-.69,1.26-.32.11-.91.18-1.49.18-.27,0-.48-.02-.93-.05-.06-.67-.13-.98-.37-1.6.58.08.99.11,1.36.11s.46-.08.46-.46v-3.35q-1.41.45-1.7.58l-.34-1.71c.66-.08.75-.1,2.03-.45v-2.83h-.78c-.38,0-.66.02-1.09.06v-1.63c.35.06.64.08,1.1.08h.77v-1.25ZM114.87,36.96q-.11.14-.4.62c-.8,1.33-1.39,2.11-2.24,2.93,1.18.75,2.21,1.15,3.79,1.46-.42.51-.72,1.06-.96,1.67-1.89-.58-3.01-1.1-4.19-1.98-1.25.91-2.54,1.5-4.32,2.02-.34-.69-.54-1.04-.94-1.54,1.6-.34,2.61-.75,4.02-1.63-.9-.96-1.31-1.6-1.92-2.99-.29.02-.48.03-.74.06v-1.62c.34.06.7.08,1.23.08h4.85c.42,0,.7-.02.93-.06l.9.99ZM115.88,32.65c-.18,2.3-.35,2.5-2.37,2.5-.74,0-1.1-.03-1.34-.11-.46-.16-.61-.43-.61-1.15v-2.34h-1.86c-.06,2.26-.66,3.46-2.19,4.47-.37-.48-.67-.75-1.23-1.15,1.39-.77,1.84-1.78,1.84-4.18,0-.24-.02-.43-.05-.77.29.03.66.05,1.01.05h3.17c.34,0,.67-.02.96-.05-.03.19-.05.54-.05.98v2.35c0,.24.02.3.13.34.06.03.26.05.42.05.22,0,.45-.03.51-.08.14-.11.19-.42.19-1.25v-.18c0-.11,0-.29-.02-.51.88.48,1.02.54,1.5.7l-.02.34ZM109.39,37.5c.4.78.88,1.42,1.54,2.03.74-.62,1.1-1.06,1.71-2.03h-3.25Z"/>
        <path class="cls-2" d="M124.3,31.9c-.45.48-.85.83-1.46,1.3-.35-.48-.62-.74-1.04-1.02,1.22-.8,2.13-1.84,2.46-2.75l1.62.29q-.11.16-.27.43c-.08.14-.19.3-.34.5h4.51c.66,0,1.01-.02,1.28-.06l.91.72c-.13.16-.16.21-.27.38-.58.83-.78,1.1-1.42,1.73-.46-.26-.86-.42-1.42-.59.5-.34.67-.5,1.02-.91h-2.37c.48,1.52,2.08,2.35,4.85,2.5-.32.54-.46.88-.62,1.5-.64-.11-.88-.16-1.41-.29-.02.45-.02.86-.02,1.31v2.85q.02,1.36.06,1.63c-.34-.03-.98-.05-1.63-.05h-.72c1.23.58,2.27.83,4.26,1.02-.38.45-.56.72-.96,1.41-2.27-.38-3.38-.77-5.01-1.76l.9-.67h-4.21l.94.67c-1.6.98-2.62,1.34-4.87,1.76-.35-.64-.48-.82-.94-1.36,2.03-.24,3.06-.51,4.1-1.07h-.62c-.72,0-1.26.02-1.63.05.03-.29.06-.91.06-1.54v-3.04c0-.7-.02-1.14-.06-1.57.3.02.88.03,1.57.03h.8c-.18-.38-.35-.64-.64-.99-.82.38-1.04.48-2.22.96-.22.1-.38.16-.66.3l-.61-1.58c1.02-.19,2.38-.69,3.76-1.38l.46,1.34-.54.27c1.07-.14,1.75-.3,2.32-.56.96-.43,1.42-.93,1.63-1.76h-1.55ZM121.04,32.4c-.88-.7-1.42-1.04-2.43-1.5l.99-1.17c1.14.53,1.58.78,2.5,1.41l-1.06,1.26ZM121.65,36.99h7.07v-.58h-7.07v.58ZM121.65,38.59h7.07v-.61h-7.07v.61ZM121.65,40.16h7.07v-.58h-7.07v.58ZM128.82,35.29h.53c-1.28-.46-2.02-1.06-2.62-2.03-.4.66-.75.99-1.42,1.39-.48.29-.94.46-1.73.64h5.25Z"/>
        <path class="cls-2" d="M138.85,39.39c.05.06.06.11.06.18q0,.1-.27.83c-.34.98-.54,1.78-.61,2.4-.02.21-.08.29-.29.34-.22.06-.66.1-1.07.1-.16,0-.24-.03-.29-.13-.14-.3-.4-1.41-.53-2.31-.11-.75-.16-1.54-.16-2.35,0-1.84.21-3.59.78-6.72.1-.51.13-.75.18-1.25.74.1,1.25.24,1.71.46.24.13.34.24.34.38,0,.1-.03.18-.11.3-.66,1.12-1.26,4.58-1.26,7.14,0,.38.02.99.06,1.76.38-.99.56-1.44.91-2.21.11.43.22.64.54,1.07ZM141.54,35.18c-.77,0-.93-.03-.98-.21-.05-.14-.1-.66-.1-1.02,0-.13,0-.26.02-.54.43.03.69.05,1.22.05.86,0,1.41-.02,2.24-.08-.02-2.03-.03-2.29-.19-3.04.78.02,1.38.08,1.89.21.24.06.34.14.34.3,0,.06-.02.11-.06.24-.16.37-.24.99-.27,2.11.59-.08,1.1-.19,2.06-.42.08-.03.11-.03.16-.03.1,0,.14.05.18.16.03.14.08.75.08,1.09,0,.4-.02.46-.18.53-.26.13-.96.24-2.32.42,0,1.1.1,2.93.21,3.97,1.01.43,1.7.8,2.4,1.3.45.32.54.43.54.54,0,.18-.29.72-.62,1.18-.19.27-.29.35-.4.35s-.11,0-.48-.35c-.35-.35-.72-.62-1.42-1.09v.13c0,1.41-1.17,2.34-2.94,2.34s-2.99-.96-2.99-2.4,1.22-2.51,2.83-2.51c.59,0,.9.02,1.33.08q-.06-1.25-.11-3.39c-.69.05-1.78.1-2.42.1ZM142.85,39.89c-.8,0-1.33.37-1.33.93,0,.51.5.83,1.26.83.85,0,1.3-.38,1.3-1.12,0-.22-.02-.4-.02-.4-.42-.16-.78-.24-1.22-.24Z"/>
        <path class="cls-2" d="M154.64,34.99c-1.26.13-1.58.14-2.3.14-.5,0-.58-.21-.69-1.63h.62c.78,0,1.49-.05,2.37-.14v-.34c0-1.04-.06-1.86-.22-2.72,1.22.06,1.7.13,2.03.22.16.05.22.13.22.29,0,.1-.02.16-.1.32-.14.3-.22.88-.24,1.97.53-.1,1.38-.3,2.02-.5.05-.02.08-.02.11-.02.13,0,.21.06.24.18.08.32.18.96.18,1.2,0,.13-.08.24-.21.29-.19.08-1.36.32-2.38.5v2.06c1.58-.53,2.82-.78,3.87-.78,2.05,0,3.38,1.31,3.38,3.35,0,1.31-.53,2.37-1.47,2.93-.5.29-1.2.46-1.97.46s-1.46-.06-1.63-.18c-.18-.1-.19-.14-.22-.53-.03-.45-.13-.83-.32-1.3.66.24,1.2.34,1.82.34,1.25,0,1.95-.64,1.95-1.78s-.67-1.78-1.74-1.78c-1.01,0-2.29.32-3.67.91q0,.06.02.69.02,1.06.02,1.28c.02.29.02.58.02.72,0,1.3-.5,1.92-1.55,1.92s-2.06-.54-2.71-1.38c-.26-.35-.38-.72-.38-1.15,0-1.04.93-1.98,2.94-3.03v-2.53ZM154.64,39.28c-.93.56-1.31.93-1.31,1.26,0,.37.53.77,1.01.77.22,0,.3-.14.3-.51v-1.52ZM163.57,35.65c-.82-.86-1.94-1.58-2.99-1.92-.13-.05-.19-.11-.19-.19,0-.1.16-.35.61-.96.18-.24.19-.26.35-.26.16.02.77.22,1.18.42,1.01.46,2.32,1.46,2.32,1.76s-.8,1.3-1.04,1.3c-.08,0-.14-.03-.24-.14Z"/>
        <path class="cls-2" d="M174.96,40.62c1.31,0,2.77-.19,4.21-.56.08-.03.13-.03.18-.03.1,0,.14.06.18.21.05.35.08.86.08,1.39,0,.32-.03.42-.18.48-.48.26-2.64.5-4.5.5-2.42,0-3.79-.4-4.9-1.44-.53-.5-1.06-1.36-1.06-1.71,0-.24.14-.34,1.46-1.09.58,1.58,1.9,2.26,4.53,2.26ZM175.11,31.42c.93,0,1.47-.03,2.56-.19h.11c.13,0,.18.05.21.14.03.19.06.67.06,1.25,0,.37-.03.5-.13.56-.13.08-1.52.18-2.59.18-1.42,0-2.61-.11-3.94-.37-.91-.18-.96-.22-.96-.78,0-.37.03-.98.08-1.42,1.39.43,2.91.64,4.59.64Z"/>
        <path class="cls-2" d="M186.86,33.2c2.69-.75,4.03-.99,5.54-.99,1.62,0,2.88.43,3.73,1.26.7.72,1.09,1.71,1.09,2.88,0,2.05-1.1,3.79-3.03,4.77-1.02.53-2.06.88-3.49,1.15-.62.13-.94.18-1.18.18-.19,0-.29-.06-.38-.24-.37-.75-.51-.96-.99-1.47,2.38-.29,3.68-.61,4.93-1.23,1.36-.67,2.11-1.78,2.11-3.12,0-1.5-1.02-2.48-2.59-2.48-1.9,0-4.02.54-6.45,1.68-.43.19-.66.3-.82.4-.29.16-.37.19-.46.19-.3,0-.85-.98-1.22-2.22.74-.1,1.47-.26,3.22-.75ZM196.42,32.45c-.16.13-.24.18-.32.18q-.1,0-.42-.43c-.3-.42-.62-.77-1.14-1.22-.05-.05-.08-.11-.08-.16,0-.14.64-.67.83-.67.11,0,.56.37,1.07.9.45.46.59.66.59.77,0,.13-.16.32-.54.64ZM197.43,31.21c-.35-.51-.8-1.01-1.28-1.42-.06-.05-.08-.08-.08-.14,0-.14.61-.62.78-.62.14,0,.46.24.88.66.53.54.75.83.75.94s-.03.16-.22.34c-.26.22-.54.43-.62.43-.05,0-.13-.05-.21-.18Z"/>
        <path class="cls-2" d="M201.9,35.53c-.13.03-.19.06-.29.11-.08.05-.13.06-.21.06-.34,0-.59-.62-.78-1.81.13.02.24.02.3.02.67,0,2.39-.21,3.41-.42.34-1.41.51-2.46.51-3.23,0-.06,0-.14-.02-.27.69.08,1.34.22,1.79.4.26.1.38.24.38.4,0,.08-.02.13-.1.26q-.24.43-.74,2.19c.38-.05.82-.08,1.09-.08.66,0,1.17.13,1.54.38.64.46.96,1.41.96,2.87,0,2.39-.43,4.42-1.17,5.43-.51.7-1.18,1.04-2.13,1.04-.58,0-1.12-.08-1.28-.18q-.13-.08-.18-.67c-.05-.43-.14-.8-.34-1.25.83.27,1.04.32,1.55.32.77,0,1.09-.37,1.44-1.65.24-.85.37-1.95.37-3.12,0-1.25-.3-1.7-1.15-1.7-.29,0-.75.03-1.12.1-.05.18-.06.19-.13.42-.45,1.63-1.26,3.79-2.08,5.52-.85,1.74-1.06,2.1-1.26,2.1-.13,0-.56-.22-1.02-.53-.37-.22-.46-.32-.46-.45q0-.08.66-1.12c.88-1.36,2.03-4.03,2.43-5.6-1.18.26-1.84.42-1.98.46ZM210.07,33.74c0-.11.14-.26.61-.62.32-.24.48-.34.59-.34.1,0,.18.05.38.26.94.91,1.82,2.13,2.34,3.19.16.35.26.58.26.67,0,.16-.05.21-.56.62-.32.26-.69.46-.82.46-.11,0-.16-.05-.27-.32-.32-.78-.62-1.39-1.01-1.98-.42-.64-.5-.74-1.44-1.74-.06-.1-.08-.14-.08-.19Z"/>
        <path class="cls-2" d="M217.61,32.97c0-.46-.02-1.09-.05-1.44.74.08,1.28.19,1.71.35.38.14.51.24.51.42q0,.1-.06.26c-.21.54-.27,1.15-.27,2.61,0,2.05.13,3.33.45,4.31.24.75.61,1.18,1.04,1.18.66,0,1.2-.77,1.79-2.54.3.82.42,1.06.86,1.63.08.11.13.22.13.34,0,.26-.24.8-.56,1.26-.62.91-1.42,1.41-2.27,1.41-1.23,0-2.16-.99-2.74-2.96-.37-1.28-.54-2.9-.54-5.14v-1.68ZM227.14,33.23c.1,0,.18.05.3.16.8.77,1.63,2.05,2.16,3.3.35.85.69,1.98.69,2.32,0,.16-.08.24-.42.42-.37.19-1.12.45-1.31.45-.14,0-.21-.08-.26-.37-.21-1.23-.5-2.13-.99-3.17-.45-.93-.48-.98-1.57-2.32.67-.5,1.2-.78,1.39-.78Z"/>
        <path class="cls-2" d="M237.79,34.94c-.21-.7-.27-1.14-.46-3.1-.06-.77-.13-1.15-.29-1.7.98.02,1.6.06,2.03.18.24.06.35.18.35.35,0,.06-.02.14-.05.27-.11.38-.16.67-.16,1.09,0,.78.16,2.06.34,2.62.1.3.19.42.37.42.38,0,1.79-.74,2.56-1.33.21-.16.24-.18.32-.18.14,0,.29.11.53.42.4.54.72,1.14.72,1.36,0,.18-.11.29-.38.37-.99.27-2.62.91-3.73,1.44-1.95.96-2.83,1.84-2.83,2.83s.82,1.38,2.88,1.38c1.2,0,2.29-.11,3.76-.35.06-.02.18-.03.21-.03.13,0,.21.06.27.19.05.16.16,1.14.16,1.52,0,.22-.06.3-.27.37-.35.08-2.29.19-3.51.19-2.05,0-3.41-.27-4.26-.85-.72-.5-1.1-1.28-1.1-2.24,0-.74.21-1.39.64-2.03.56-.83,1.17-1.36,2.51-2.16-.34-.3-.46-.53-.61-1.02Z"/>
        <path class="cls-2" d="M250.7,37.62c0-.72.02-1.17.03-1.84-.37.72-.59,1.07-1.04,1.65-.29-.99-.37-1.18-.7-1.81.72-.83,1.25-1.7,1.79-2.93.5-1.12.78-2.05.96-3.1l1.62.51c-.05.13-.06.18-.1.3q-.05.14-.13.38s-.02.06-.05.14c-.11.43-.22.8-.32,1.06-.02.05-.13.35-.3.78-.03.1-.1.24-.16.43v8.66c0,.8.02,1.3.08,1.84h-1.78c.06-.58.1-1.1.1-1.84v-4.24ZM254.03,31.69c0-.85-.02-1.2-.1-1.68h1.81c-.08.43-.1.83-.1,1.68v6.99c.83-.35,1.81-.83,2.93-1.44l.06,1.5c-1.26.72-2.05,1.14-3.11,1.65q-.32.14-1.39.62c-.13.06-.27.13-.45.21q-.29.13-.54.27l-.29-1.82c.38-.1.51-.13,1.17-.37v-7.62ZM262.68,29.93c-.05.3-.1.88-.11,1.36-.18,4.18-.56,6.1-1.54,7.89.78,1.36,1.38,1.97,2.83,2.95-.54.7-.7.94-1.04,1.63-1.34-1.1-2.06-1.94-2.79-3.19-1.06,1.23-2.37,2.21-4.29,3.17-.3-.59-.5-.85-1.07-1.49,1.28-.53,2.03-.94,2.95-1.63,1.12-.83,1.7-1.5,2.19-2.53.48-1.01.75-2.1.9-3.65.11-1.09.18-2.48.18-3.54,0-.59,0-.74-.05-1.02l1.84.05ZM258.43,35.74c-.74-1.71-1.15-2.46-2.18-3.84l1.38-.88c1.01,1.44,1.47,2.22,2.24,3.78l-1.44.94Z"/>
        <path class="cls-2" d="M268.56,33.98c-.42.1-.56.14-1.14.35-.21.08-.32.11-.42.11-.35,0-.67-.66-.96-2.03,1.02-.05,1.39-.1,3.17-.37,1.92-.29,4.35-.66,5.63-.82,1.44-.19,2.59-.38,3.2-.51.11-.03.16-.03.24-.03.21,0,.29.1.43.5.13.34.22.82.22,1.04,0,.19-.06.26-.29.26-.34,0-.64.03-.94.08-2.71.45-4.87,2.82-4.87,5.31,0,1.87,1.47,3.11,3.97,3.33.22.02.3.1.3.29,0,.4-.16,1.17-.3,1.52-.08.18-.21.26-.42.26s-.69-.1-1.18-.24c-2.72-.8-4.15-2.53-4.15-4.98,0-1.33.43-2.56,1.26-3.62.45-.58.83-.9,1.74-1.52-2.1.35-4.31.77-5.52,1.07Z"/>
        <path class="cls-2" d="M290.85,35.21c2.26,0,3.86,1.54,3.86,3.71,0,1.49-.78,2.83-2.1,3.62-.91.54-2.03.82-3.3.82-2.03,0-3.22-.82-3.22-2.21,0-1.26,1.06-2.16,2.56-2.16,1.36,0,2.34.69,2.99,2.1.82-.59,1.15-1.22,1.15-2.08,0-1.38-.98-2.27-2.51-2.27s-3.25.78-4.64,2.18c-.26.26-.5.53-.78.9-.11.16-.19.22-.29.22-.29,0-1.42-1.12-1.42-1.41,0-.14.06-.22.42-.48.37-.29.9-.75,1.57-1.39,1.55-1.47,2.69-2.71,4.37-4.75-2,.26-3.35.48-3.84.66-.08.02-.13.03-.18.03-.13,0-.21-.08-.3-.32-.19-.48-.29-1.01-.34-1.71.43.06.74.08,1.09.08.77,0,2.06-.11,3.75-.3.59-.06.78-.11,1.23-.29.14-.06.22-.08.32-.08.22,0,.45.19.86.83.3.42.4.62.4.75,0,.21-.05.27-.4.5-.29.18-.46.32-.83.67-.8.77-.82.77-1.81,1.78-.7.72-.78.8-1.42,1.44,1.04-.58,1.86-.82,2.82-.82ZM289.31,40.75c-.24-.16-.51-.24-.82-.24-.5,0-.82.24-.82.62,0,.46.5.75,1.26.75.35,0,.66-.03,1.06-.14-.19-.53-.35-.77-.69-.99Z"/>
        <path class="cls-2" d="M301.5,32.78c.37-.96.72-1.47,1.33-1.98.74-.61,1.62-.9,2.74-.9,2.4,0,3.94,1.31,3.94,3.36,0,.69-.19,1.34-.56,1.87-.29.42-.42.54-1.31,1.36-1.25,1.12-1.52,1.55-1.52,2.4v.85h-1.63v-.9c0-.72.14-1.36.43-1.87.22-.4.46-.67,1.1-1.31.67-.66.88-.9,1.06-1.18.22-.32.35-.77.35-1.2,0-1.07-.72-1.74-1.86-1.74s-1.81.59-2.29,1.98l-1.78-.74ZM306.61,42.11c0,.7-.56,1.26-1.26,1.26s-1.26-.56-1.26-1.26.56-1.26,1.26-1.26,1.26.56,1.26,1.26Z"/>
      </g>
    </g>
  </g>
</svg>