<?xml version="1.0" encoding="UTF-8"?>
<svg id="_レイヤー_2" data-name="レイヤー 2" xmlns="http://www.w3.org/2000/svg" width="343.68" height="70" viewBox="0 0 343.68 70">
  <defs>
    <style>
      .cls-1 {
        fill: #d3e9ea;
      }

      .cls-2 {
        fill: #739b9e;
      }
    </style>
  </defs>
  <g id="_レイヤー_2-2" data-name="レイヤー 2">
    <g>
      <path class="cls-1" d="M69.73,4.96v60.08H10c-2.78,0-5.04-2.26-5.04-5.04V10c0-2.78,2.26-5.04,5.04-5.04h59.73M74.69,0H10C4.48,0,0,4.48,0,10v49.99c0,5.52,4.48,10,10,10h64.69V0h0Z"/>
      <path class="cls-1" d="M77.76,0h256.82c5.02,0,9.1,4.08,9.1,9.1v51.8c0,5.02-4.08,9.1-9.1,9.1H77.76V0h0Z"/>
      <g>
        <g>
          <path class="cls-2" d="M23.75,30.79c.02-1.97.63-3.49,1.83-4.55,1.13-1.05,2.47-1.58,4.03-1.58s2.98.53,4.1,1.58c1.15,1.06,1.74,2.58,1.77,4.56v9.42c-.04,1.96-.63,3.48-1.77,4.54-1.13,1.05-2.5,1.59-4.1,1.61-1.56-.02-2.91-.56-4.03-1.61-1.2-1.06-1.81-2.57-1.83-4.53v-9.44ZM32.54,30.98c-.06-2.14-1.03-3.23-2.92-3.27-1.9.04-2.87,1.13-2.91,3.27v9.07c.04,2.16,1.01,3.25,2.91,3.27,1.89-.02,2.87-1.11,2.92-3.27v-9.07Z"/>
          <path class="cls-2" d="M42.29,33.85h1.02c1.01,0,1.8-.29,2.36-.87.56-.56.84-1.29.84-2.18-.02-.9-.31-1.64-.87-2.22-.56-.56-1.28-.85-2.16-.87-.63,0-1.21.21-1.73.63-.55.42-.92,1.07-1.11,1.96h-2.97c.15-1.58.77-2.91,1.86-4,1.07-1.07,2.35-1.62,3.83-1.64,1.88.02,3.38.64,4.48,1.86,1.06,1.19,1.6,2.6,1.62,4.22,0,.82-.15,1.61-.44,2.37-.34.76-.95,1.44-1.83,2.04.9.59,1.55,1.29,1.95,2.11.38.82.57,1.68.57,2.58-.02,2-.62,3.58-1.8,4.73-1.16,1.18-2.66,1.78-4.48,1.8-1.41,0-2.66-.47-3.74-1.4-1.09-.94-1.79-2.29-2.11-4.06h2.97c.26.71.64,1.29,1.12,1.73.49.46,1.15.69,1.96.69.87,0,1.6-.31,2.2-.93.61-.58.92-1.4.94-2.47-.02-1.09-.33-1.93-.94-2.53-.6-.58-1.35-.87-2.27-.87h-1.27v-2.69Z"/>
        </g>
        <path class="cls-2" d="M14.87,38.05c-.76.79-1.8,1.41-3.01,1.81-.17-.32-.31-.52-.56-.82,1.2-.29,2.21-.79,2.94-1.47h-1.5c-.05.18-.06.22-.13.43l-1.01-.02c.24-.56.38-1.02.49-1.58.08-.39.14-.77.14-.95.17.02.4.03.82.03h1.78l-.02-.58h-1.93c-.34,0-.56,0-.8.04v-.83c-.1.08-.13.12-.26.23-.17-.29-.35-.5-.56-.69.74-.57,1.16-1.12,1.35-1.76l.93.17c-.11.23-.14.29-.25.47h1.11c.41,0,.64-.02.85-.04v.7c.34-.4.55-.78.7-1.3l.92.16q-.07.17-.22.49h1.65c.46,0,.67,0,.95-.05v.9c-.26-.04-.52-.05-.9-.05h-.68c.23.33.23.35.38.59l-.71.2h.41c.43,0,.59,0,.81-.03-.03.16-.04.3-.04.61v.91c0,.31,0,.45.04.63-.2-.02-.47-.03-.81-.03h-1.99v.57h2.47c.33,0,.52,0,.74-.03-.02.11-.02.17-.03.26t-.03.26s-.02.22-.05.55c-.09.86-.14,1.07-.31,1.27-.17.2-.43.26-1.02.26-.25,0-.43,0-.8-.03-.05-.36-.11-.56-.22-.85.33.04.74.08.95.08.47,0,.49-.05.55-1.01h-2.22l.02,1.45c0,.46.02.68.06.95h-1.02c.04-.25.05-.4.05-.75v-.22l-.02-.96ZM13.63,34.15c-.11-.29-.22-.5-.39-.8h-.48c-.21.29-.4.5-.68.77.21.03.38.04.79.04h.75ZM14.84,36.24h-1.77c-.03.19-.04.21-.12.57h1.9v-.57ZM15.33,34.15c-.13-.16-.31-.33-.56-.51.15-.12.2-.15.32-.27-.15,0-.32-.02-.49-.02h-.48c.11.17.17.26.34.58l-.71.22h1.58ZM17.16,34.15c-.1-.22-.26-.51-.44-.79h-.53c-.23.33-.42.55-.69.79h1.67ZM15.74,35.49h1.87v-.58h-1.88v.58Z"/>
        <path class="cls-2" d="M62.29,39.95v-.47h-5.38v.47h-1.01c.04-.28.05-.64.05-1.12v-5.46c0-.42-.02-.69-.05-1.04.32.04.59.05,1.02.05h5.36c.42,0,.7,0,1.02-.05-.04.32-.04.6-.04,1.04v5.47c0,.47.02.89.04,1.11h-1ZM56.9,38.63h5.38v-5.39h-5.38v5.39ZM60.51,34.22c.38,0,.6,0,.83-.03-.02.21-.03.41-.03.68v2.06c0,.29,0,.47.03.68-.26-.02-.47-.03-.83-.03h-1.85c-.43,0-.57,0-.84.03.03-.23.04-.42.04-.68v-2.06c0-.25,0-.45-.04-.68.22.02.46.03.84.03h1.85ZM58.77,36.78h1.63v-1.76h-1.63v1.76Z"/>
      </g>
      <g>
        <path class="cls-2" d="M112.5,36.9c.16.93.27,1.33.53,1.92.82-.54,1.46-1.12,1.84-1.62l1.07,1.15q-.24.19-.94.77c-.37.3-.72.58-1.26.93.59.85,1.23,1.42,2.42,2.18-.37.45-.66.86-1.06,1.52-1.33-1.04-2-1.74-2.66-2.8l.03,1.39c-1.38.48-3.22,1.01-4.53,1.28q-.26.06-.53.14l-.29-1.3c-1.02.3-2.45.64-3.41.82-.43.1-1.28.26-1.55.3l-.29-1.71c.67-.02,1.25-.08,2.58-.3v-4.32h-.9c-.61,0-1.07.03-1.49.08v-1.58c.4.05.88.08,1.5.08h.88v-1.12h-.34c-.35,0-.62.02-.94.05v-.69c-.37.34-.43.38-.77.66-.24-.66-.38-.94-.75-1.52.58-.38,1.15-.9,1.6-1.41.53-.58.86-1.12,1.22-1.94h1.7c.42.86.75,1.31,1.47,1.95.24.22.35.32.9.72v-.69c0-.62-.03-1.15-.06-1.62.38.05.8.06,1.47.06h3.83c.69,0,1.1-.02,1.44-.06-.05.38-.05.77-.05,1.7v3.41q.02,1.3.05,1.6c-.29-.02-.66-.03-1.14-.03h-1.57ZM102.8,41.17c-.16-1.18-.34-1.95-.69-3.01l1.22-.38c.38,1.14.56,1.9.7,2.96l-1.23.43ZM104.11,33.39h2.42c.22,0,.35,0,.51-.02-.75-.75-1.17-1.28-1.68-2.15-.46.91-.85,1.46-1.5,2.16h.26ZM105.95,41.26c.64-.13.96-.21,1.89-.48l.02,1.23c.3-.05.42-.08.67-.13v-9.3q-.06.08-.16.19c-.3.37-.51.7-.74,1.14l-.21-.19v1.02c-.3-.03-.58-.05-.94-.05h-.53v1.12h.78c.58,0,.94-.02,1.28-.06v1.55c-.42-.05-.69-.06-1.28-.06h-.78v4.02ZM106.19,40.26c.32-.83.51-1.49.69-2.51l1.15.4c-.27,1.07-.45,1.58-.8,2.46l-1.04-.35ZM110.08,32.89h3.52v-1.15h-3.52v1.15ZM110.08,35.44h3.52v-1.14h-3.52v1.14ZM110.08,36.9v4.66c1.01-.26,1.2-.32,2.29-.69-.74-1.26-1.06-2.19-1.36-3.97h-.93Z"/>
        <path class="cls-2" d="M120.27,39.07c0-.62,0-.83.03-1.78-.42.48-.88.91-1.39,1.3-.26-.69-.43-1.09-.78-1.65,1.63-1.04,3.2-2.72,3.79-4.05l1.44.96c-.16.18-.29.35-.51.67-.35.51-.48.69-.88,1.18v6.07c0,.83.03,1.44.1,1.94h-1.9c.06-.48.11-1.15.11-1.95v-2.69ZM123.12,30.49q-.19.21-.46.53c-1.04,1.23-2.08,2.15-3.54,3.07-.32-.61-.56-.98-.96-1.46,1.2-.66,1.98-1.26,2.74-2.11.35-.38.54-.67.75-1.07l1.47,1.04ZM125.2,35.77c-.72,0-1.41.03-1.89.1v-1.73c.48.06,1.15.1,1.89.1h5.22c.86,0,1.49-.03,1.87-.1v1.73c-.51-.06-1.15-.1-1.82-.1h-.66v6.11c0,1.33-.45,1.65-2.29,1.65-.56,0-1.06-.02-1.73-.05-.08-.67-.19-1.09-.43-1.71.8.11,1.6.18,2.08.18.61,0,.69-.05.69-.38v-5.79h-2.93ZM123.92,30.24c.42.06.99.1,1.79.1h4.15c.78,0,1.3-.03,1.76-.1v1.71c-.54-.06-1.12-.1-1.73-.1h-4.18c-.64,0-1.3.03-1.79.1v-1.71Z"/>
        <path class="cls-2" d="M138.94,39.09c.05.08.06.14.06.22,0,.11-.02.13-.16.48-.32.74-.7,1.89-.9,2.75-.05.18-.1.27-.16.3-.08.03-.62.11-.8.11h-.06c-.08,0-.19-.02-.32-.02-.21,0-.26-.05-.32-.24-.3-1.04-.54-3.19-.54-4.8,0-1.76.11-2.85.56-5.25.16-.86.24-1.34.3-1.87.67.13,1.25.29,1.73.51.27.11.35.19.35.35,0,.11-.02.16-.19.42-.53.85-1.12,4.24-1.12,6.53,0,.37.02.86.06,1.67.45-1.01.61-1.31.98-2.1.14.34.24.5.53.93ZM142.42,40.22c.51.27,1.12.37,2.19.37s1.63-.08,2.62-.37c.1-.03.18-.05.22-.05.11,0,.19.06.21.22.08.54.14,1.18.14,1.5,0,.16-.05.21-.27.27-.86.22-1.74.34-2.82.34-1.47,0-2.39-.18-3.14-.62-.7-.43-1.44-1.31-1.44-1.74,0-.22.34-.53,1.2-1.06.29.58.56.86,1.07,1.14ZM141.3,32.06c.35.08,1.38.14,2.16.14,1.06,0,2.11-.08,3.11-.26q.08-.02.14-.02c.11,0,.16.05.19.18.03.16.08.86.08,1.3,0,.24-.05.32-.22.35-.66.13-1.74.21-2.9.21-1.38,0-2.61-.08-2.77-.18-.08-.05-.11-.16-.11-.45,0-.43.05-1.07.08-1.2.02-.06.06-.1.16-.1.02,0,.05,0,.08.02Z"/>
        <path class="cls-2" d="M155.46,33.5c-.74.05-1.42.06-2.03.06-.67,0-.72,0-.75-.1-.05-.1-.1-.77-.1-1.23v-.3c.75.03,1.07.05,1.47.05s1.01-.02,1.49-.03c.08-.93.1-1.25.1-1.57,0-.14,0-.24-.02-.46.77.02,1.36.06,1.82.18.13.03.19.1.19.21,0,.08-.02.14-.1.34-.13.3-.22.72-.29,1.22,1.02-.08,2.26-.24,2.75-.35.48-.11.82-.18.9-.18.34-.03.58-.1.67-.18.02-.02.03-.02.03-.02.03,0,.05.02.08.02.06,0,.11.06.14.18.03.24.08.8.08,1.15,0,.24-.05.3-.21.34-.94.19-2.9.43-4.58.58-.02.06-.02.1-.02.26-.03.3-.03.34-.05,1.14.7-.16,1.33-.24,2.11-.24.11-.51.13-.64.16-1.01,1.23.26,1.84.48,1.84.67,0,.06-.02.11-.14.32-.05.06-.08.11-.11.22,2.06.48,3.38,2,3.38,3.97,0,1.74-.94,3.14-2.75,4.1-.67.35-1.62.67-1.97.67-.18,0-.3-.06-.4-.19-.34-.48-.54-.7-1.06-1.14,1.66-.3,2.48-.64,3.28-1.3.74-.62,1.09-1.34,1.09-2.24,0-1.28-.75-2.24-2.03-2.61-.96,2.21-1.6,3.25-2.75,4.43.08.27.14.43.29.77.06.13.08.18.08.22,0,.16-.06.21-.43.4-.4.21-.86.37-1.02.37-.14,0-.18-.05-.35-.54-.93.66-1.92,1.01-2.9,1.01-1.09,0-1.82-.88-1.82-2.16,0-2,1.46-3.95,3.87-5.15.02-.83.03-1.54.05-1.86ZM153.2,40.22c0,.4.24.64.64.64.54,0,1.26-.3,1.98-.83-.22-1.09-.32-1.82-.4-3.03-1.41,1.04-2.23,2.24-2.23,3.22ZM158.8,35.81c-.72.06-1.1.13-1.76.35.03,1.14.06,1.62.19,2.43.67-.85,1.12-1.65,1.57-2.78Z"/>
        <path class="cls-2" d="M174.16,33.98c-3.51.21-4.87.37-5.87.64-.06.02-.13.03-.18.03-.11,0-.21-.08-.26-.21-.14-.4-.22-.93-.27-1.74.19.02.32.02.38.02.51,0,.99-.02,2.53-.11,1.18-.06,2.19-.11,3.63-.18-.02-1.44-.03-1.65-.18-2.39,1.23.03,1.86.1,2.08.19.1.03.14.11.14.27,0,.03-.02.1-.05.18-.14.35-.19.72-.22,1.7,2.34-.05,2.69-.05,4.29-.05.43,0,.5,0,.54.05.06.06.1.3.1.85,0,.74-.02.82-.22.82h-.06c-.69-.08-2.4-.14-3.52-.14q-.37,0-1.17.02l-.03,2.62c.24.54.32.98.32,1.75,0,2.02-.74,3.55-2.29,4.69-.64.48-1.46.9-1.74.9-.14,0-.22-.05-.35-.18-.45-.51-.78-.78-1.36-1.1.96-.27,1.46-.48,2.08-.88.46-.29.88-.64,1.18-.98.21-.24.37-.48.61-1.01-.48.5-.85.66-1.44.66-1.34,0-2.23-1.02-2.23-2.58,0-1.63,1.04-2.8,2.48-2.8.46,0,.75.05,1.07.19v-1.22ZM172.22,37.71c0,.67.38,1.14.96,1.14.61,0,.98-.43.98-1.15s-.35-1.18-.96-1.18c-.58,0-.98.5-.98,1.2ZM178.34,31.89c-.45-.8-.8-1.28-1.2-1.68-.03-.03-.05-.08-.05-.13,0-.06.14-.21.37-.35q.38-.24.46-.24c.14,0,.37.21.83.78.42.51.69.91.69,1.04,0,.08-.05.13-.26.3-.26.22-.58.42-.67.42-.08,0-.13-.03-.18-.14ZM180.36,29.26c.45.5.85,1.07.85,1.22,0,.11-.1.21-.42.43-.22.14-.42.24-.48.24q-.1,0-.38-.48c-.24-.43-.54-.82-.96-1.25-.03-.03-.05-.1-.05-.13,0-.11.1-.21.35-.35.21-.13.4-.21.48-.21.11,0,.29.14.61.53Z"/>
        <path class="cls-2" d="M185.79,30.6v-.22c1.01.18,1.52.32,1.94.53.11.05.14.11.14.22,0,.06-.03.14-.1.26-.14.26-.19.45-.43,1.5-.3,1.38-.46,2.91-.46,4.59,0,.9.03,1.39.13,2.24l.85-1.71c.1.34.22.61.42.83.13.16.14.21.14.34s0,.13-.3.8c-.34.72-.53,1.34-.7,2.16-.05.26-.1.34-.18.37-.13.06-.67.14-.99.14-.22,0-.3-.05-.35-.19-.38-1.09-.7-3.33-.7-4.93,0-1.38.18-3.28.46-5.28.1-.66.14-1.14.14-1.47v-.18ZM191.25,35.13c-.9,0-1.15-.03-1.23-.14-.11-.14-.21-.8-.21-1.39v-.24c.64.06,1.15.1,1.97.1.62,0,.98-.02,1.62-.06-.05-1.67-.14-2.66-.34-3.17h.43c.56,0,1.25.05,1.6.13.16.03.24.13.24.26,0,.06-.02.13-.05.24-.08.22-.13.58-.13.99,0,.24.02.99.02,1.18v.16c.8-.13,1.18-.21,1.86-.43.06-.02.13-.03.19-.03.1,0,.14.05.18.14.06.18.13.8.13,1.15,0,.26-.05.37-.18.42-.21.08-1.18.27-2.13.4.02.45.02.69.02.94,0,2.35-.29,4.03-.93,5.3-.58,1.14-1.82,2.46-2.34,2.46-.14,0-.21-.03-.38-.19-.53-.46-.62-.54-1.25-.83,1.12-.62,1.84-1.3,2.34-2.21.53-.98.82-2.32.82-3.79,0-.11,0-.38-.02-.77-.02-.16-.02-.4-.03-.72-.58.05-1.87.11-2.19.11Z"/>
        <path class="cls-2" d="M208.85,35.21c2.26,0,3.86,1.54,3.86,3.71,0,1.49-.78,2.83-2.1,3.62-.91.54-2.03.82-3.3.82-2.03,0-3.22-.82-3.22-2.21,0-1.26,1.06-2.16,2.56-2.16,1.36,0,2.34.69,2.99,2.1.82-.59,1.15-1.22,1.15-2.08,0-1.38-.98-2.27-2.51-2.27s-3.25.78-4.64,2.18c-.26.26-.5.53-.78.9-.11.16-.19.22-.29.22-.29,0-1.42-1.12-1.42-1.41,0-.14.06-.22.42-.48.37-.29.9-.75,1.57-1.39,1.55-1.47,2.69-2.71,4.37-4.75-2,.26-3.35.48-3.84.66-.08.02-.13.03-.18.03-.13,0-.21-.08-.3-.32-.19-.48-.29-1.01-.34-1.71.43.06.74.08,1.09.08.77,0,2.06-.11,3.75-.3.59-.06.78-.11,1.23-.29.14-.06.22-.08.32-.08.22,0,.45.19.86.83.3.42.4.62.4.75,0,.21-.05.27-.4.5-.29.18-.46.32-.83.67-.8.77-.82.77-1.81,1.78-.7.72-.78.8-1.42,1.44,1.04-.58,1.86-.82,2.82-.82ZM207.31,40.75c-.24-.16-.51-.24-.82-.24-.5,0-.82.24-.82.62,0,.46.5.75,1.26.75.35,0,.66-.03,1.06-.14-.19-.53-.35-.77-.69-.99Z"/>
        <path class="cls-2" d="M221.39,34.94c-.21-.7-.27-1.14-.46-3.1-.06-.77-.13-1.15-.29-1.7.98.02,1.6.06,2.03.18.24.06.35.18.35.35,0,.06-.02.14-.05.27-.11.38-.16.67-.16,1.09,0,.78.16,2.06.34,2.62.1.3.19.42.37.42.38,0,1.79-.74,2.56-1.33.21-.16.24-.18.32-.18.14,0,.29.11.53.42.4.54.72,1.14.72,1.36,0,.18-.11.29-.38.37-.99.27-2.62.91-3.73,1.44-1.95.96-2.83,1.84-2.83,2.83s.82,1.38,2.88,1.38c1.2,0,2.29-.11,3.76-.35.06-.02.18-.03.21-.03.13,0,.21.06.27.19.05.16.16,1.14.16,1.52,0,.22-.06.3-.27.37-.35.08-2.29.19-3.51.19-2.05,0-3.41-.27-4.26-.85-.72-.5-1.1-1.28-1.1-2.24,0-.74.21-1.39.64-2.03.56-.83,1.17-1.36,2.51-2.16-.34-.3-.46-.53-.61-1.02Z"/>
        <path class="cls-2" d="M237.79,34.94c-.21-.7-.27-1.14-.46-3.1-.06-.77-.13-1.15-.29-1.7.98.02,1.6.06,2.03.18.24.06.35.18.35.35,0,.06-.02.14-.05.27-.11.38-.16.67-.16,1.09,0,.78.16,2.06.34,2.62.1.3.19.42.37.42.38,0,1.79-.74,2.56-1.33.21-.16.24-.18.32-.18.14,0,.29.11.53.42.4.54.72,1.14.72,1.36,0,.18-.11.29-.38.37-.99.27-2.62.91-3.73,1.44-1.95.96-2.83,1.84-2.83,2.83s.82,1.38,2.88,1.38c1.2,0,2.29-.11,3.76-.35.06-.02.18-.03.21-.03.13,0,.21.06.27.19.05.16.16,1.14.16,1.52,0,.22-.06.3-.27.37-.35.08-2.29.19-3.51.19-2.05,0-3.41-.27-4.26-.85-.72-.5-1.1-1.28-1.1-2.24,0-.74.21-1.39.64-2.03.56-.83,1.17-1.36,2.51-2.16-.34-.3-.46-.53-.61-1.02ZM243.6,31.36c.13-.1.21-.13.3-.13.22,0,1.62,1.47,1.62,1.71,0,.1-.13.24-.43.5-.32.27-.35.29-.43.29-.1,0-.11,0-.42-.45-.32-.45-.77-.96-1.1-1.25-.05-.05-.08-.1-.08-.14,0-.08.14-.22.54-.53ZM247.08,31.79c0,.1-.05.16-.24.32-.22.19-.53.4-.59.4-.1,0-.13-.05-.32-.3-.37-.53-.59-.78-1.17-1.31-.06-.06-.08-.1-.08-.14,0-.14.61-.61.8-.61.27,0,1.6,1.36,1.6,1.65Z"/>
        <path class="cls-2" d="M254.43,33.97c1.04-.27,1.73-.37,2.48-.37,2.27,0,3.59,1.34,3.59,3.65,0,2-.86,3.62-2.61,4.9-.93.69-2.34,1.38-2.8,1.38-.21,0-.26-.05-.59-.53-.24-.37-.48-.59-.88-.88,1.84-.62,2.61-1.02,3.44-1.74.96-.85,1.44-1.87,1.44-3.09,0-1.3-.61-2.03-1.68-2.03-.86,0-1.98.34-3.44,1.04-.21.1-.32.18-.59.37-.06.03-.13.06-.19.06-.3,0-.82-.9-1.17-2.1.59-.05.9-.13,3.01-.66ZM255.5,30.06c.58.18,1.44.34,2.22.43.32.03.43.05,1.25.08.24,0,.3.06.3.24,0,.53-.11,1.39-.21,1.55-.03.1-.11.13-.22.13-.37,0-1.66-.18-2.42-.34-1.26-.26-2.37-.58-2.59-.75-.05-.05-.08-.11-.08-.18,0-.13.34-.99.5-1.3.08-.13.13-.16.22-.16q.08,0,1.02.29Z"/>
        <path class="cls-2" d="M267.65,34.33c-.29.02-.46.03-.66.05-.14.02-.16.02-.18.02-.13,0-.19-.05-.24-.21-.08-.26-.19-1.1-.21-1.58.18.02.64.03,1.22.03.18,0,1.44-.08,2-.13.27-1.3.37-1.97.37-2.83,1.65.22,2.24.42,2.24.72,0,.11-.02.14-.26.51-.13.19-.18.37-.45,1.36.75-.13,1.2-.24,1.79-.43.11-.03.16-.05.24-.05.11,0,.14.08.24.54.08.4.13.74.13.91,0,.19-.05.22-.46.32-.54.13-1.47.29-2.46.42-.59,1.79-.99,2.75-1.73,4.26-.56,1.12-.88,1.71-1.31,2.39-.13.19-.21.26-.32.26-.16,0-.61-.24-1.17-.66-.26-.18-.32-.26-.32-.37s.06-.21.27-.5c.46-.58,1.07-1.57,1.6-2.62.45-.88.61-1.25,1.07-2.51-.62.05-.67.06-1.41.11ZM272.91,43.55c-1.74,0-2.93-.96-2.93-2.39s1.23-2.58,2.88-2.58c.38,0,.56.02,1.22.11-.06-.77-.06-1.07-.13-2.56,0-.3-.03-.72-.06-1.23.82.08,1.44.18,1.74.3.13.05.19.13.19.26,0,.08-.02.14-.03.26-.08.34-.1.58-.1,1.01,0,.59.05,1.6.1,2.38,1.14.51,1.6.77,2.4,1.39.35.27.48.42.48.54,0,.16-.08.3-.53,1.02-.19.32-.34.46-.45.46q-.1,0-.54-.42c-.35-.35-.75-.62-1.31-.96,0,1.49-1.09,2.39-2.93,2.39ZM272.88,40.13c-.77,0-1.3.37-1.3.93,0,.53.48.86,1.2.86.85,0,1.3-.43,1.3-1.28,0-.13,0-.26-.02-.26-.32-.16-.75-.26-1.18-.26ZM278.87,35.58c-.19.27-.29.35-.4.35-.08,0-.14-.03-.26-.14-.4-.38-.96-.8-1.55-1.17q-.38-.24-1.09-.56c-.22-.1-.3-.16-.3-.29,0-.11.08-.26.32-.62.38-.56.48-.66.62-.66.3,0,1.49.61,2.34,1.18.69.46.9.66.9.83,0,.13-.26.61-.58,1.07Z"/>
        <path class="cls-2" d="M290.85,35.21c2.26,0,3.86,1.54,3.86,3.71,0,1.49-.78,2.83-2.1,3.62-.91.54-2.03.82-3.3.82-2.03,0-3.22-.82-3.22-2.21,0-1.26,1.06-2.16,2.56-2.16,1.36,0,2.34.69,2.99,2.1.82-.59,1.15-1.22,1.15-2.08,0-1.38-.98-2.27-2.51-2.27s-3.25.78-4.64,2.18c-.26.26-.5.53-.78.9-.11.16-.19.22-.29.22-.29,0-1.42-1.12-1.42-1.41,0-.14.06-.22.42-.48.37-.29.9-.75,1.57-1.39,1.55-1.47,2.69-2.71,4.37-4.75-2,.26-3.35.48-3.84.66-.08.02-.13.03-.18.03-.13,0-.21-.08-.3-.32-.19-.48-.29-1.01-.34-1.71.43.06.74.08,1.09.08.77,0,2.06-.11,3.75-.3.59-.06.78-.11,1.23-.29.14-.06.22-.08.32-.08.22,0,.45.19.86.83.3.42.4.62.4.75,0,.21-.05.27-.4.5-.29.18-.46.32-.83.67-.8.77-.82.77-1.81,1.78-.7.72-.78.8-1.42,1.44,1.04-.58,1.86-.82,2.82-.82ZM289.31,40.75c-.24-.16-.51-.24-.82-.24-.5,0-.82.24-.82.62,0,.46.5.75,1.26.75.35,0,.66-.03,1.06-.14-.19-.53-.35-.77-.69-.99Z"/>
        <path class="cls-2" d="M301.5,32.78c.37-.96.72-1.47,1.33-1.98.74-.61,1.62-.9,2.74-.9,2.4,0,3.94,1.31,3.94,3.36,0,.69-.19,1.34-.56,1.87-.29.42-.42.54-1.31,1.36-1.25,1.12-1.52,1.55-1.52,2.4v.85h-1.63v-.9c0-.72.14-1.36.43-1.87.22-.4.46-.67,1.1-1.31.67-.66.88-.9,1.06-1.18.22-.32.35-.77.35-1.2,0-1.07-.72-1.74-1.86-1.74s-1.81.59-2.29,1.98l-1.78-.74ZM306.61,42.11c0,.7-.56,1.26-1.26,1.26s-1.26-.56-1.26-1.26.56-1.26,1.26-1.26,1.26.56,1.26,1.26Z"/>
      </g>
    </g>
  </g>
</svg>